<svg xmlns="http://www.w3.org/2000/svg" width="14" height="8.909" viewBox="0 0 14 8.909"><defs><style>.a{fill:#bbb;}</style></defs><path class="a" d="M11.045,11.318A1.909,1.909,0,1,0,9.136,9.409,1.9,1.9,0,0,0,11.045,11.318Zm-5.091,0A1.909,1.909,0,1,0,4.045,9.409,1.9,1.9,0,0,0,5.955,11.318Zm0,1.273c-1.483,0-4.455.745-4.455,2.227v1.591h8.909V14.818C10.409,13.335,7.437,12.591,5.955,12.591Zm5.091,0c-.185,0-.395.013-.617.032a2.685,2.685,0,0,1,1.254,2.2v1.591H15.5V14.818C15.5,13.335,12.528,12.591,11.045,12.591Z" transform="translate(-1.5 -7.5)"/></svg>