<svg xmlns="http://www.w3.org/2000/svg" width="12" height="8.4" viewBox="0 0 12 8.4"><defs><style>.a{fill:#333;}</style></defs><path class="a" d="M1.8,5.85A1.2,1.2,0,1,0,.6,4.65,1.2,1.2,0,0,0,1.8,5.85Zm8.4,0A1.2,1.2,0,1,0,9,4.65,1.2,1.2,0,0,0,10.2,5.85Zm.6.6H9.6a1.2,1.2,0,0,0-.846.349A2.743,2.743,0,0,1,10.163,8.85H11.4a.6.6,0,0,0,.6-.6v-.6A1.2,1.2,0,0,0,10.8,6.45ZM6,6.45a2.1,2.1,0,1,0-2.1-2.1A2.1,2.1,0,0,0,6,6.45Zm1.44.6H7.284a2.9,2.9,0,0,1-2.569,0H4.56A2.161,2.161,0,0,0,2.4,9.21v.54a.9.9,0,0,0,.9.9H8.7a.9.9,0,0,0,.9-.9V9.21A2.161,2.161,0,0,0,7.44,7.05ZM3.246,6.8A1.2,1.2,0,0,0,2.4,6.45H1.2A1.2,1.2,0,0,0,0,7.65v.6a.6.6,0,0,0,.6.6H1.836A2.75,2.75,0,0,1,3.246,6.8Z" transform="translate(0 -2.25)"/></svg>