<svg xmlns="http://www.w3.org/2000/svg" width="60" height="60" viewBox="0 0 60 60"><defs><style>.a{fill:#72665a;}.b,.d,.h{fill:none;}.b{stroke:#dfdfdf;}.b,.d{stroke-width:6px;}.c{fill:#dfdfdf;}.d{stroke:#fff;}.e{fill:#fff;}.f,.g{stroke:none;}.g{fill:#707070;}</style></defs><g class="a"><path class="f" d="M 59.5 59.5 L 0.5 59.5 L 0.5 0.5 L 59.5 0.5 L 59.5 59.5 Z"/><path class="g" d="M 1 1 L 1 59 L 59 59 L 59 1 L 1 1 M 0 0 L 60 0 L 60 60 L 0 60 L 0 0 Z"/></g><g transform="translate(6.88 11.557)"><g class="b" transform="translate(35.125 13.184) rotate(121)"><ellipse class="f" cx="12.799" cy="12.799" rx="12.799" ry="12.799"/><ellipse class="h" cx="12.799" cy="12.799" rx="9.799" ry="9.799"/></g><rect class="c" width="4.5" height="31.5" transform="translate(47.967 25.406) rotate(90)"/><g class="d" transform="translate(35.125 15.743) rotate(121)"><ellipse class="f" cx="12.799" cy="12.799" rx="12.799" ry="12.799"/><ellipse class="h" cx="12.799" cy="12.799" rx="9.799" ry="9.799"/></g><rect class="e" width="4.5" height="31.5" transform="translate(47.967 28.406) rotate(90)"/></g></svg>