<svg xmlns="http://www.w3.org/2000/svg" xmlns:xlink="http://www.w3.org/1999/xlink" width="76.402" height="117.396" viewBox="0 0 76.402 117.396"><defs><style>.a{fill:#fff;}.b{clip-path:url(#a);}.c{fill:#f3bebe;}.d{fill:#c55b5b;font-size:12px;font-family:SegoeUI-Bold, Segoe UI;font-weight:700;}</style><clipPath id="a"><rect class="a" width="64" height="98" transform="translate(458 120)"/></clipPath></defs><g transform="translate(-445.598 -99.604)"><g class="b" transform="translate(0 -1)"><path class="c" d="M78,14.856H59.425a14.856,14.856,0,1,0-29.713,0H11.142A11.145,11.145,0,0,0,0,26v81.709A11.145,11.145,0,0,0,11.142,118.85H78a11.145,11.145,0,0,0,11.142-11.142V26A11.145,11.145,0,0,0,78,14.856ZM22.284,98.423a5.571,5.571,0,1,1,5.571-5.571A5.558,5.558,0,0,1,22.284,98.423Zm0-22.284a5.571,5.571,0,1,1,5.571-5.571A5.558,5.558,0,0,1,22.284,76.138Zm0-22.284a5.571,5.571,0,1,1,5.571-5.571A5.558,5.558,0,0,1,22.284,53.854ZM44.569,9.285A5.571,5.571,0,1,1,39,14.856,5.558,5.558,0,0,1,44.569,9.285ZM74.281,94.709a1.862,1.862,0,0,1-1.857,1.857H39a1.862,1.862,0,0,1-1.857-1.857V90.995A1.862,1.862,0,0,1,39,89.138H72.424a1.862,1.862,0,0,1,1.857,1.857Zm0-22.284a1.862,1.862,0,0,1-1.857,1.857H39a1.862,1.862,0,0,1-1.857-1.857V68.71A1.862,1.862,0,0,1,39,66.853H72.424a1.862,1.862,0,0,1,1.857,1.857Zm0-22.284A1.862,1.862,0,0,1,72.424,52H39a1.862,1.862,0,0,1-1.857-1.857V46.426A1.862,1.862,0,0,1,39,44.569H72.424a1.862,1.862,0,0,1,1.857,1.857Z" transform="translate(458 127.607)"/></g><text class="d" transform="translate(477.212 125.363) rotate(-30)"><tspan x="-28.172" y="0">\ TODAY /</tspan></text></g></svg>