<svg xmlns="http://www.w3.org/2000/svg" xmlns:xlink="http://www.w3.org/1999/xlink" width="64" height="77" viewBox="0 0 64 77"><defs><style>.a{fill:none;}.b{clip-path:url(#a);}.c{fill:#ece4b3;}</style><clipPath id="a"><rect class="a" width="64" height="77" transform="translate(458 141)"/></clipPath></defs><g class="b" transform="translate(-458 -141)"><path class="c" d="M98.52,35.7,88.736,6.342A9.256,9.256,0,0,0,79.938,0H52.6V37.126H98.753A8.833,8.833,0,0,0,98.52,35.7ZM46.408,0H19.066a9.256,9.256,0,0,0-8.8,6.342L.483,35.7a8.832,8.832,0,0,0-.232,1.431H46.408ZM0,43.314V89.722A9.284,9.284,0,0,0,9.282,99H89.722A9.284,9.284,0,0,0,99,89.722V43.314Z" transform="translate(458 141)"/></g></svg>