<svg xmlns="http://www.w3.org/2000/svg" xmlns:xlink="http://www.w3.org/1999/xlink" width="69" height="81" viewBox="0 0 69 81"><defs><style>.a{fill:#fff;}.b{clip-path:url(#a);}.c{fill:#acc2ac;}</style><clipPath id="a"><rect class="a" width="69" height="81" transform="translate(453 136)"/></clipPath></defs><g class="b" transform="translate(-453 -136)"><path class="c" d="M84.195,40.578A16.539,16.539,0,1,0,67.656,24.039,16.47,16.47,0,0,0,84.195,40.578Zm-44.1,0A16.539,16.539,0,1,0,23.552,24.039,16.47,16.47,0,0,0,40.091,40.578Zm0,11.026C27.246,51.6,1.5,58.054,1.5,70.9V84.682H78.682V70.9C78.682,58.054,52.936,51.6,40.091,51.6Zm44.1,0c-1.6,0-3.418.11-5.348.276,6.4,4.631,10.861,10.861,10.861,19.02V84.682h33.078V70.9C122.786,58.054,97.04,51.6,84.195,51.6Z" transform="translate(451.5 132.318)"/></g></svg>