<svg xmlns="http://www.w3.org/2000/svg" width="18.635" height="18.635" viewBox="0 0 18.635 18.635"><defs><style>.a{fill:#333;}</style></defs><g transform="translate(-5.678 5.083)"><path class="a" d="M27.314,12.673H5.492A1.163,1.163,0,0,1,4.5,11.4h0a1.163,1.163,0,0,1,.992-1.274H27.314a1.163,1.163,0,0,1,.992,1.274h0A1.163,1.163,0,0,1,27.314,12.673Z" transform="translate(11.457 -15.424) rotate(45)"/><path class="a" d="M27.314,12.673H5.492A1.163,1.163,0,0,1,4.5,11.4h0a1.163,1.163,0,0,1,.992-1.274H27.314a1.163,1.163,0,0,1,.992,1.274h0A1.163,1.163,0,0,1,27.314,12.673Z" transform="translate(-4.664 7.772) rotate(-45)"/></g></svg>