<svg xmlns="http://www.w3.org/2000/svg" width="40" height="40" viewBox="0 0 40 40"><defs><style>.a{fill:#d4c5ab;}.b{fill:#fff;}</style></defs><path class="a" d="M20,0A20,20,0,1,1,0,20,20,20,0,0,1,20,0Z"/><path class="b" d="M7.6,8.691A4.345,4.345,0,1,0,3.259,4.345,4.345,4.345,0,0,0,7.6,8.691Zm3.042,1.086H10.08a5.91,5.91,0,0,1-4.95,0H4.563A4.564,4.564,0,0,0,0,14.34v1.412a1.63,1.63,0,0,0,1.63,1.63H13.58a1.63,1.63,0,0,0,1.63-1.63V14.34A4.564,4.564,0,0,0,10.646,9.777Z" transform="translate(12.74 11.566)"/></svg>