<svg xmlns="http://www.w3.org/2000/svg" width="223" height="223" viewBox="0 0 223 223"><defs><style>.a{fill:#eae8e6;}.b{fill:#333;}.b,.c,.d{fill-rule:evenodd;}.c{fill:#b3b3b3;}.d{fill:#fff;}.e{fill:#72665a;font-size:20px;font-family:YuGothicUI-Bold, Yu Gothic UI;font-weight:700;}</style></defs><g transform="translate(-855 -519)"><rect class="a" width="223" height="223" transform="translate(855 519)"/><g transform="translate(810.2 1.042)"><path class="b" d="M105.932,654.81c.028.917-.277,1.258-1.177,1.3-2.187.1-4.376.182-6.565.25-1.343.04-1.574-.135-1.573-1.537,0-2.559-.437-5.1.063-7.689.275-1.419-.1-2.954-.087-4.437a1.96,1.96,0,0,0-.776-1.6c-1.213-1.081-2.381-2.211-3.584-3.3-.512-.464-.867-.91-.341-1.594.323-.417.3-.657-.321-.833-1.065-.3-2.07-.808-3.132-1.121a20.559,20.559,0,0,1-6.732-3.8,2.427,2.427,0,0,1-.49-.843,11.109,11.109,0,0,0-1.161-2.259c-1.851-2.167-2.425-4.853-2.939-7.477a32.121,32.121,0,0,1-.283-6.551,18.529,18.529,0,0,1,.76-3.688,10.544,10.544,0,0,1,1.127-2.918,15.986,15.986,0,0,1,2.323-2.888,6.374,6.374,0,0,0,1.317-2.44,12.99,12.99,0,0,1,1.262-3.512,45.619,45.619,0,0,1,3.455-4.563c1.248-1.4,3.032-1.884,4.5-2.9,2.914-.536,5.7-1.737,8.745-1.619a47.821,47.821,0,0,1,5.356.182c2.034.305,5.146.907,6.811,1.937,1.451.9,3.023,1.676,4.011,3.146.508.756.808,1.653,1.322,2.4a6.293,6.293,0,0,0,1.746,1.87,10.724,10.724,0,0,1,4.153,4.44,23.589,23.589,0,0,1,1.641,5.48,18.4,18.4,0,0,1,.56,1.916c.054.732-.193,1.55.494,2.139a12.642,12.642,0,0,1-.493,5.666,10.8,10.8,0,0,0-.815,4.921,17.659,17.659,0,0,1,.071,1.906,2.1,2.1,0,0,1-.121.788c-.817,1.995-1.726,3.906-3.96,4.735-.791.295-1.522.969-2.307,1.014a1.2,1.2,0,0,0-1.221,1.038,5.185,5.185,0,0,1-2.946,2.932,20.762,20.762,0,0,1-5.109,1.529c-.342.071-.9.186-1.026.022-.612-.783-1.715.1-2.254-.739-.185.141-.542.3-.528.422.271,2.22-.534,4.391-.23,6.624.2,1.464.138,2.961.194,4.444C105.758,650.009,105.86,652.409,105.932,654.81Zm-.285-20.524a19.031,19.031,0,0,0,2.4.474,12.375,12.375,0,0,0,5.639-1.311,3.935,3.935,0,0,0,1.991-1.942c.842-1.63.818-1.731,2.508-2.165a19.362,19.362,0,0,0,3.159-1.586c.524-.237.827-1.033,1.152-1.617a11.764,11.764,0,0,0,.621-2.279,2.423,2.423,0,0,0-.119-2.25,2.336,2.336,0,0,1,.1-1.792,12.513,12.513,0,0,0,1.181-7.282,47.436,47.436,0,0,0-2.115-8.293,8.9,8.9,0,0,0-4.226-4.6,4.063,4.063,0,0,1-1.856-2.232,7.871,7.871,0,0,0-2.848-3.671,17.1,17.1,0,0,0-4.974-2.424,9.907,9.907,0,0,0-2.711-.541c-2.075.051-4.129-.661-6.195-.215a36,36,0,0,0-8.385,2.385,6.8,6.8,0,0,0-2.09,1.549c-.765.831-1.509,1.686-2.313,2.48a7.2,7.2,0,0,0-1.775,3.316,11.672,11.672,0,0,0-.868,3.033c-.008.405-.4.83-.678,1.194a7.745,7.745,0,0,1-1.151,1.242c-1.91,1.582-2.286,3.832-2.829,6.063-.664,2.718.005,5.41-.094,8.11.944,2.153.97,4.719,2.917,6.431a1.635,1.635,0,0,1,.32.918,3.112,3.112,0,0,0,1.161,2.052,25.475,25.475,0,0,0,5.723,3.154c.954.411,2.041.508,3.009.9,1.18.475,2.562.056,3.649.879.017.012.285-.192.282-.291-.035-1.3.635-2.538.317-3.873-.065-.277.171-.62.245-.938.044-.187.111-.525.054-.552-.232-.109-.6-.257-.754-.152-1.069.733-2.29.341-3.424.543-.9.16-1.2-.593-1.713-1.01-.227-.185.3-1.028.712-1.075a11.2,11.2,0,0,1,1.693-.068,5.723,5.723,0,0,0,5.456-3.247c.3-.525.606-.892,1.261-.834a1.08,1.08,0,0,1,.92.479c1.067,1.285,2.178,2.546,4.1,2.831,1.4.208,2.662.68,3.734-.625.469.357.584-.783,1.182-.235.806.74.942,1.182.084,1.916-.8.681-1.592,1.487-2.841,1.327a11.866,11.866,0,0,0-1.826.052C105.507,630.563,105.578,632.451,105.647,634.285Zm-2.223,10.606c-.136-2.147.485-4.237.241-6.4a33.586,33.586,0,0,1-.206-6.543,26.491,26.491,0,0,0,.2-3.65.736.736,0,0,0-.407-.538,6.425,6.425,0,0,1-2.5-1.695,1,1,0,0,0-.7-.3,3.693,3.693,0,0,0-1.475,2.1q-.061,4.148-.113,8.3a6.277,6.277,0,0,1,.017.634,1.033,1.033,0,0,1-1.683.707,9.02,9.02,0,0,0-2.119-1.6c-.382-.153-.425.035-.61.172-.334.247-.168.4.06.6,1.095,1,2.192,1.991,3.251,3.026.375.368.6.893.968,1.264a.656.656,0,0,1,.069,1.052,1.685,1.685,0,0,0-.115.986c.119,3.453.263,6.905.37,10.358.018.576.194.674.773.883,1.451.524,2.842.1,4.373.255C103.681,651.2,103.622,648.042,103.424,644.891Z" transform="translate(0 -17.104)"/><path class="c" d="M108,630.439c.076,2.055.147,3.942.216,5.776a19.03,19.03,0,0,0,2.4.474,12.375,12.375,0,0,0,5.639-1.311,3.935,3.935,0,0,0,1.991-1.942c.842-1.63.818-1.731,2.508-2.165a19.352,19.352,0,0,0,3.159-1.586c.524-.237.827-1.033,1.152-1.617a11.765,11.765,0,0,0,.621-2.279,2.423,2.423,0,0,0-.119-2.25,2.336,2.336,0,0,1,.1-1.792,12.513,12.513,0,0,0,1.181-7.282,47.431,47.431,0,0,0-2.115-8.292,8.9,8.9,0,0,0-4.226-4.6,4.063,4.063,0,0,1-1.856-2.232,7.871,7.871,0,0,0-2.848-3.671,17.1,17.1,0,0,0-4.974-2.424,9.9,9.9,0,0,0-2.711-.541c-2.075.051-4.129-.661-6.195-.215a36,36,0,0,0-8.385,2.385,6.8,6.8,0,0,0-2.09,1.549c-.765.831-1.509,1.686-2.313,2.48a7.2,7.2,0,0,0-1.775,3.316,11.672,11.672,0,0,0-.868,3.033c-.008.405-.4.83-.678,1.194a7.746,7.746,0,0,1-1.151,1.242c-1.91,1.582-2.286,3.831-2.829,6.063-.664,2.719.005,5.41-.094,8.11.944,2.153.97,4.719,2.917,6.431a1.635,1.635,0,0,1,.32.918,3.111,3.111,0,0,0,1.161,2.052,25.477,25.477,0,0,0,5.723,3.154c.954.411,2.041.508,3.009.9,1.18.475,2.562.056,3.649.879.017.012.285-.192.282-.291-.035-1.3.635-2.538.317-3.873-.065-.277.171-.62.245-.938.044-.187.111-.524.054-.551-.232-.109-.6-.257-.754-.152-1.069.733-2.29.341-3.424.543-.9.16-1.2-.593-1.713-1.011-.227-.185.3-1.028.712-1.075a11.2,11.2,0,0,1,1.693-.068,5.723,5.723,0,0,0,5.456-3.247c.3-.525.606-.892,1.261-.835a1.08,1.08,0,0,1,.92.479c1.067,1.285,2.178,2.546,4.1,2.831,1.4.208,2.662.68,3.734-.625.469.357.584-.783,1.182-.235.806.74.942,1.182.084,1.916-.8.681-1.592,1.487-2.841,1.327A11.866,11.866,0,0,0,108,630.439Z" transform="translate(-2.572 -19.034)"/><path class="d" d="M124.063,698.394c-.124-3.307-.183-6.467-.381-9.617-.136-2.147.485-4.237.241-6.4a33.586,33.586,0,0,1-.206-6.543,26.494,26.494,0,0,0,.2-3.65.736.736,0,0,0-.407-.538,6.425,6.425,0,0,1-2.5-1.695,1,1,0,0,0-.7-.3,3.693,3.693,0,0,0-1.475,2.1q-.061,4.148-.113,8.3a6.278,6.278,0,0,1,.017.634,1.033,1.033,0,0,1-1.683.706,9.023,9.023,0,0,0-2.119-1.6c-.382-.153-.425.035-.61.172-.334.247-.168.4.06.6,1.095,1,2.192,1.991,3.251,3.026.375.368.6.893.968,1.264a.656.656,0,0,1,.069,1.052,1.685,1.685,0,0,0-.115.986c.119,3.453.263,6.905.37,10.358.018.576.194.674.773.883C121.141,698.662,122.532,698.243,124.063,698.394Z" transform="translate(-20.258 -60.989)"/><path class="b" d="M344.621,653.993c.028.916-.277,1.258-1.177,1.3-2.187.1-4.376.182-6.565.25-1.343.04-1.574-.134-1.573-1.536,0-2.559-.437-5.1.063-7.689.274-1.418-.1-2.953-.087-4.436a1.96,1.96,0,0,0-.776-1.6c-1.213-1.08-2.381-2.211-3.585-3.3-.511-.463-.867-.909-.341-1.592.323-.418.3-.658-.321-.833-1.065-.3-2.07-.808-3.132-1.121a20.576,20.576,0,0,1-6.732-3.8,2.439,2.439,0,0,1-.49-.843,11.116,11.116,0,0,0-1.161-2.259c-1.851-2.167-2.425-4.854-2.939-7.477a32.086,32.086,0,0,1-.284-6.55,18.551,18.551,0,0,1,.76-3.688,10.552,10.552,0,0,1,1.127-2.918,15.966,15.966,0,0,1,2.323-2.89,6.367,6.367,0,0,0,1.317-2.439,12.978,12.978,0,0,1,1.262-3.512,45.552,45.552,0,0,1,3.455-4.562c1.248-1.4,3.032-1.884,4.5-2.9,2.914-.536,5.7-1.737,8.745-1.619a47.825,47.825,0,0,1,5.356.182c2.033.305,5.146.908,6.811,1.937,1.451.9,3.023,1.676,4.011,3.147.508.755.808,1.652,1.322,2.4a6.31,6.31,0,0,0,1.746,1.87,10.721,10.721,0,0,1,4.153,4.44,23.559,23.559,0,0,1,1.641,5.479,18.574,18.574,0,0,1,.56,1.916c.054.732-.193,1.549.494,2.139a12.636,12.636,0,0,1-.492,5.667,10.81,10.81,0,0,0-.816,4.922,17.66,17.66,0,0,1,.072,1.906,2.1,2.1,0,0,1-.122.788c-.817,1.995-1.725,3.9-3.959,4.735-.792.295-1.522.968-2.307,1.013a1.2,1.2,0,0,0-1.221,1.038,5.181,5.181,0,0,1-2.946,2.932,20.735,20.735,0,0,1-5.109,1.53c-.342.07-.9.185-1.026.021-.612-.783-1.715.1-2.254-.74-.186.142-.542.305-.528.422.271,2.22-.534,4.391-.23,6.624.2,1.464.138,2.961.194,4.444C344.446,649.191,344.548,651.591,344.621,653.993Zm-.285-20.524a19.086,19.086,0,0,0,2.4.475,12.394,12.394,0,0,0,5.639-1.311,3.938,3.938,0,0,0,1.991-1.943c.842-1.63.818-1.731,2.508-2.166a19.285,19.285,0,0,0,3.159-1.585c.524-.237.826-1.032,1.152-1.618a11.783,11.783,0,0,0,.621-2.279,2.421,2.421,0,0,0-.119-2.249,2.339,2.339,0,0,1,.1-1.792,12.515,12.515,0,0,0,1.181-7.282,47.391,47.391,0,0,0-2.116-8.292,8.9,8.9,0,0,0-4.225-4.6,4.063,4.063,0,0,1-1.856-2.232,7.866,7.866,0,0,0-2.847-3.672,17.113,17.113,0,0,0-4.974-2.423,9.927,9.927,0,0,0-2.711-.542c-2.075.051-4.129-.661-6.195-.215a36.016,36.016,0,0,0-8.385,2.385,6.789,6.789,0,0,0-2.09,1.549c-.766.832-1.509,1.687-2.313,2.481a7.2,7.2,0,0,0-1.775,3.316,11.7,11.7,0,0,0-.868,3.033c-.008.4-.4.829-.678,1.194a7.75,7.75,0,0,1-1.151,1.242c-1.91,1.582-2.285,3.831-2.829,6.063-.664,2.719.005,5.41-.093,8.11.944,2.153.97,4.719,2.917,6.431a1.632,1.632,0,0,1,.32.917,3.111,3.111,0,0,0,1.162,2.052,25.486,25.486,0,0,0,5.723,3.155c.954.411,2.042.508,3.009.9,1.18.475,2.562.055,3.649.879.016.012.285-.192.282-.291-.035-1.3.635-2.537.317-3.872-.066-.276.171-.62.245-.938.044-.187.111-.524.054-.551-.232-.11-.6-.258-.754-.153-1.069.733-2.289.341-3.423.543-.9.16-1.2-.593-1.714-1.011-.227-.184.3-1.027.712-1.074a11.144,11.144,0,0,1,1.693-.069,5.72,5.72,0,0,0,5.456-3.246c.3-.525.606-.893,1.261-.834a1.08,1.08,0,0,1,.92.479c1.067,1.286,2.178,2.546,4.1,2.831,1.4.208,2.661.68,3.734-.626.469.358.584-.782,1.181-.234.807.739.942,1.181.084,1.915-.8.681-1.592,1.488-2.841,1.326a11.824,11.824,0,0,0-1.826.053C344.2,629.746,344.267,631.633,344.335,633.468Zm-2.223,10.606c-.136-2.147.485-4.237.241-6.4a33.55,33.55,0,0,1-.206-6.543,26.41,26.41,0,0,0,.2-3.65.736.736,0,0,0-.407-.538,6.436,6.436,0,0,1-2.5-1.694,1,1,0,0,0-.7-.3,3.7,3.7,0,0,0-1.475,2.1q-.06,4.148-.113,8.295c0,.213.042.427.017.635a1.034,1.034,0,0,1-1.683.707,8.962,8.962,0,0,0-2.12-1.6c-.382-.154-.425.034-.61.171-.334.247-.168.4.061.6,1.095,1,2.192,1.991,3.251,3.026.375.368.6.893.967,1.265a.655.655,0,0,1,.069,1.052,1.688,1.688,0,0,0-.116.986c.119,3.453.263,6.9.37,10.359.018.576.194.673.773.883,1.451.524,2.842.1,4.373.254C342.37,650.384,342.311,647.224,342.112,644.074Z" transform="translate(-129.544 -16.66)"/><path class="c" d="M346.692,629.621c.076,2.054.147,3.941.216,5.776a19.1,19.1,0,0,0,2.4.475,12.4,12.4,0,0,0,5.639-1.311,3.939,3.939,0,0,0,1.991-1.943c.842-1.63.818-1.731,2.508-2.166a19.283,19.283,0,0,0,3.159-1.585c.524-.237.826-1.032,1.152-1.618a11.785,11.785,0,0,0,.621-2.279,2.421,2.421,0,0,0-.119-2.249,2.339,2.339,0,0,1,.1-1.792,12.515,12.515,0,0,0,1.181-7.282,47.393,47.393,0,0,0-2.116-8.292,8.9,8.9,0,0,0-4.225-4.6,4.063,4.063,0,0,1-1.856-2.232,7.866,7.866,0,0,0-2.847-3.672,17.112,17.112,0,0,0-4.974-2.423,9.927,9.927,0,0,0-2.711-.542c-2.075.051-4.129-.661-6.195-.215a36.019,36.019,0,0,0-8.385,2.385,6.79,6.79,0,0,0-2.09,1.549c-.766.832-1.509,1.687-2.313,2.481a7.2,7.2,0,0,0-1.775,3.316,11.7,11.7,0,0,0-.868,3.033c-.008.4-.4.829-.678,1.194a7.751,7.751,0,0,1-1.151,1.242c-1.91,1.582-2.285,3.831-2.829,6.063-.663,2.719.005,5.41-.093,8.11.944,2.153.97,4.719,2.917,6.431a1.632,1.632,0,0,1,.32.917,3.111,3.111,0,0,0,1.162,2.052,25.483,25.483,0,0,0,5.723,3.155c.954.411,2.042.508,3.009.9,1.18.475,2.562.055,3.648.879.016.012.285-.192.282-.291-.035-1.3.635-2.537.317-3.872-.066-.276.171-.62.245-.938.044-.187.111-.524.054-.551-.232-.11-.6-.258-.754-.153-1.069.733-2.289.341-3.423.543-.9.16-1.2-.593-1.714-1.011-.227-.184.3-1.027.712-1.074a11.143,11.143,0,0,1,1.693-.069,5.72,5.72,0,0,0,5.456-3.246c.3-.525.606-.893,1.261-.835a1.08,1.08,0,0,1,.92.479c1.067,1.286,2.178,2.546,4.1,2.831,1.4.208,2.661.68,3.735-.625.469.358.584-.782,1.181-.234.807.739.942,1.181.084,1.915-.8.681-1.592,1.488-2.841,1.326A11.817,11.817,0,0,0,346.692,629.621Z" transform="translate(-132.116 -18.59)"/><path class="d" d="M362.752,697.576c-.124-3.307-.183-6.467-.382-9.617-.136-2.147.485-4.237.241-6.4a33.55,33.55,0,0,1-.206-6.543,26.41,26.41,0,0,0,.2-3.65.736.736,0,0,0-.407-.538,6.436,6.436,0,0,1-2.5-1.694,1,1,0,0,0-.7-.3,3.7,3.7,0,0,0-1.475,2.1q-.06,4.148-.113,8.295c0,.213.042.427.017.635a1.034,1.034,0,0,1-1.683.707,8.962,8.962,0,0,0-2.12-1.6c-.382-.154-.425.034-.61.171-.334.247-.168.4.061.6,1.095,1,2.192,1.991,3.251,3.026.375.368.6.893.967,1.265a.655.655,0,0,1,.069,1.052,1.688,1.688,0,0,0-.116.986c.119,3.453.263,6.9.37,10.359.018.576.194.673.773.883C359.83,697.845,361.221,697.426,362.752,697.576Z" transform="translate(-149.802 -60.545)"/><path class="b" d="M176.506,594.206c-2.756,2.749-5.32,5.356-7.945,7.9-1.09,1.058-2.3,2-3.474,2.956a1.186,1.186,0,0,1-1.762-.286,4.236,4.236,0,0,1-.776-1.754,18.68,18.68,0,0,0-.51-4.5c-.552-1.681.464-3.071,1.425-4.339a89.242,89.242,0,0,1,10.778-11.16c1.874-1.74,3.65-3.626,5.661-5.2,5.568-4.364,10.433-9.463,15.457-14.4.833-.82,1.828-1.473,2.726-2.229s1.8-1.551,2.68-2.354a5.259,5.259,0,0,0,.469-.729c.732-.965,1.009-1.041,2.119-.529a12.384,12.384,0,0,1,3.1,2c1.612,1.435,3.406,2.665,5.122,3.983.53.406,1.043.836,1.584,1.224a13.946,13.946,0,0,1,1.431.941q4.346,4.039,8.643,8.131c4.492,4.3,8.929,8.657,13.449,12.927,2.221,2.1,4.582,4.048,6.867,6.081a1.214,1.214,0,0,1,.448.729c.028,2.786-.018,5.571.026,8.357.015.982-.854,1.223-1.3,1.811-.072.094-.482.02-.677-.086a7.041,7.041,0,0,1-1.442-.924c-2.975-2.736-5.925-5.5-9.007-8.371-.042.684-.113,1.322-.115,1.962-.017,6.964-.053,13.929-.009,20.893.009,1.409.387,2.812.474,4.226.085,1.386-.34,2.909.1,4.148.69,1.964.23,3.892.439,5.819.089.813-.168,1.607.428,2.451a2.145,2.145,0,0,1-.442,2.338c-.136.174-.262.443-.438.486a15.019,15.019,0,0,1-2.654.514c-1.475.083-2.96-.032-4.437.031a15.907,15.907,0,0,0-4.516.411c-1.338.434-2.93.086-4.41.085-6.7-.009-13.408-.006-20.112-.032-2.554-.01-5.028.772-7.623.562-2.509-.2-5.046-.05-7.571-.054-.522,0-1.045.017-1.567-.005-1.123-.051-1.492-.411-1.518-1.543s0-2.264,0-3.4c0-1.654.374-3.421-.091-4.932a19.2,19.2,0,0,1-.4-5.039c-.078-1.651.3-3.383-.076-4.945-.762-3.158-.335-6.313-.424-9.464-.09-3.13-.061-6.268.016-9.4.03-1.237.4-2.463.466-3.7A4.617,4.617,0,0,0,176.506,594.206ZM230.53,634.44a29.529,29.529,0,0,1-.64-3.385c-.172-2.277.119-4.554-.466-6.849-.375-1.47-.059-3.115-.067-4.681a19,19,0,0,0-.435-4.5,20.072,20.072,0,0,1-.073-4.679c.007-5.135-.147-10.277.094-15.4.107-2.279-1-3.493-2.488-4.705-.174-.143-.5-.1-.673-.247-2.929-2.391-5.934-4.7-8.742-7.226-3.585-3.226-6.993-6.644-10.508-9.949-.979-.921-2.076-1.716-3.089-2.6a1.254,1.254,0,0,0-1.977.135c-3.35,3.419-7.068,6.431-10.615,9.63-3.742,3.377-7.174,7.1-10.77,10.638a2.548,2.548,0,0,0-.858,2.011c.038,4.7-.091,9.4.031,14.1.12,4.628-.6,9.287.466,13.885a3.459,3.459,0,0,1,0,1.042c-.371,4.637.618,9.212.556,13.852l14.58.02c0-1.415.07-2.72-.015-4.015-.086-1.327-.392-2.637-.479-3.963-.085-1.3-.015-2.61-.013-3.914s0-2.611.005-3.917c1.456-1.246-.416-2.437-.062-3.762a13.705,13.705,0,0,0,.072-3.59c3.255-1.07,6.345-.7,9.41-.739,1.827-.026,3.656.039,5.482-.015.9-.027,1.827.305,2.7-.453.346-.3,1.188-.127,1.782-.03a2.168,2.168,0,0,1,2.037,2.1c.019,2.088-.08,4.181.022,6.265.1,1.949-.172,3.877.266,5.867a31.487,31.487,0,0,1,.213,6.189c.018,1.189,0,2.381,0,3.6,2.483,0,4.745.094,7-.016C225.554,635.015,227.821,634.705,230.53,634.44Zm-65.18-32.87c10.15-9.518,19.309-20.047,30.089-28.907,2.107-1.731,3.863-3.869,6.067-5.526,1.2-.9,1.372-1.055,2.565.07,3.51,3.306,6.99,6.643,10.479,9.972a14.409,14.409,0,0,0,1.3,1.281A61.617,61.617,0,0,1,222.426,584a26.715,26.715,0,0,0,3.473,2.949,73.273,73.273,0,0,1,11.489,9.428,42.306,42.306,0,0,0,3.65,3.143.931.931,0,0,0,.689.037c.093-.021.182-.273.187-.422a15.115,15.115,0,0,1,.032-2.083,2.962,2.962,0,0,0-1.507-3.27c-.98-.564-1.375-1.546-2.14-2.244-1.7-1.552-3.332-3.162-5.1-4.654-3.018-2.541-5.541-5.619-8.639-8.121-2.866-2.314-5.087-5.34-8.082-7.573-1.831-1.368-3.36-3.128-5.1-4.643-2.6-2.261-5.784-3.763-8.087-6.39-.487-.554-1.021-.356-1.54.321-.863,1.126-1.567,2.5-2.68,3.273a38.933,38.933,0,0,0-3.058,2.653c-1.22,1.044-2.076,2.509-3.656,3.146a1.125,1.125,0,0,0-.53.552c-.926,2.038-2.746,3.32-4.35,4.664-1.03.863-2,1.8-3.039,2.662-1.1.918-2.2,1.832-3.292,2.766-1.548,1.328-2.987,2.777-4.525,4.123-3.527,3.088-6.793,6.49-10,9.914-1.278,1.364-2.63,2.945-2,5.149C164.833,600.145,165.118,600.885,165.35,601.569Zm48.317,33.456c.005-4.069.035-7.984.008-11.9-.022-3.133.349-6.3-.739-9.408l-4.649-.005c-1.913,0-3.906-.34-5.72.085a53.716,53.716,0,0,1-5.588.5c0,3.54.105,7.011-.047,10.471-.15,3.432.5,6.787.645,10.221A46.159,46.159,0,0,0,213.667,635.025Z" transform="translate(-46.177)"/><path class="d" d="M251,649.3c-2.709.266-4.976.575-7.253.685-2.253.11-4.514.019-7,.016,0-1.215.018-2.407,0-3.6a31.487,31.487,0,0,0-.213-6.189c-.439-1.99-.171-3.917-.266-5.867-.1-2.084,0-4.177-.022-6.265a2.168,2.168,0,0,0-2.037-2.1c-.594-.1-1.436-.271-1.782.03-.872.759-1.8.426-2.7.453-1.826.054-3.655-.011-5.482.015-3.065.042-6.155-.331-9.41.738a13.707,13.707,0,0,1-.072,3.59c-.354,1.326,1.519,2.517.062,3.762q0,1.958-.005,3.917c0,1.3-.072,2.614.013,3.914.087,1.326.392,2.637.479,3.963.086,1.3.016,2.6.015,4.015l-14.58-.02c.063-4.641-.926-9.215-.556-13.852a3.459,3.459,0,0,0,0-1.042c-1.068-4.6-.347-9.257-.466-13.884-.121-4.7.007-9.4-.031-14.1a2.548,2.548,0,0,1,.858-2.011c3.6-3.541,7.028-7.261,10.77-10.638,3.547-3.2,7.265-6.212,10.615-9.63a1.254,1.254,0,0,1,1.977-.135c1.013.888,2.11,1.682,3.089,2.6,3.514,3.3,6.923,6.723,10.508,9.949,2.808,2.526,5.813,4.835,8.742,7.226.175.143.5.1.673.247,1.484,1.213,2.6,2.427,2.488,4.705-.241,5.123-.087,10.266-.094,15.4a20.072,20.072,0,0,0,.073,4.679,19,19,0,0,1,.435,4.5c.008,1.566-.307,3.211.067,4.681.585,2.3.294,4.572.466,6.849A29.529,29.529,0,0,0,251,649.3Z" transform="translate(-66.643 -14.86)"/><path class="b" d="M168.424,605.655c-.238-.7-.53-1.46-.754-2.242-.645-2.259-.555-4.34.754-5.737,3.287-3.51,7.1-6.861,10.714-10.026,1.575-1.379,2.462-3,4.048-4.366,1.114-.956,2.919-1.686,4.048-2.627,1.059-.883,2.669-2.641,3.724-3.526,1.643-1.377,1.965-1.473,2.914-3.562a30.42,30.42,0,0,1,2.59-3.133c1.619-.653,1.53-.978,2.78-2.048,1.048-.9,2.53-2.266,3.7-3.076,1.14-.793,1.634-1.922,2.518-3.076.532-.694,2.129.4,2.627.972,2.359,2.692,5.952,4,8.617,6.314,1.785,1.553,3.144,3.779,5.019,5.181,3.067,2.289,5.786,4.9,8.721,7.267,3.173,2.564,5.673,6.1,8.764,8.7,1.813,1.528,2.468,1.383,4.209,2.973.783.715,1.527,3.452,2.532,4.03,1.191.686,1.192,1.843.929,3.351a15.5,15.5,0,0,0-.032,2.135c0,.153-.1.41-.191.432a.953.953,0,0,1-.706-.037,43.348,43.348,0,0,1-3.738-3.221,75.06,75.06,0,0,0-11.767-9.663,27.376,27.376,0,0,1-3.557-3.023,63.108,63.108,0,0,0-6.736-5.68,14.764,14.764,0,0,1-1.331-1.313c-3.573-3.412-7.138-6.832-10.732-10.22-1.222-1.153-1.4-.995-2.627-.072-2.257,1.7-4.056,3.889-6.214,5.663C188.2,585.109,178.82,595.9,168.424,605.655Z" transform="translate(-50.168 -3.059)"/><path class="d" d="M255.24,701.861a46.161,46.161,0,0,1-16.09-.032c-.145-3.434-.8-6.789-.645-10.221.152-3.459.042-6.931.047-10.47a53.733,53.733,0,0,0,5.588-.5c1.815-.425,3.807-.089,5.72-.085l4.649.005c1.089,3.108.717,6.275.739,9.408C255.275,693.878,255.246,697.792,255.24,701.861Z" transform="translate(-87.75 -66.837)"/><path class="b" d="M235.857,630.555c0-1.8,0-3.6.01-5.4a1.606,1.606,0,0,1,1.679-1.841c.185-.017.372,0,.558,0q5.956.007,11.911.017c1.287,0,1.527.382,1.913,1.63.635,2.055.145,4.13.35,6.181.107,1.066-.45,2.21.354,3.2-.594.839-.186,1.871-.536,2.756-.021.053-.1.081-.126.135-.254.52.223,1.356-.54,1.611a5.877,5.877,0,0,1-1.8.14c-1.612.015-3.226-.009-4.839,0-2.067.014-4.088-.611-6.174-.406a5.687,5.687,0,0,1-1.692-.407c-.819-.188-1.057-1.038-1.067-1.85-.016-1.3,0-2.605,0-3.907Q235.856,631.485,235.857,630.555Zm8.973,6.565c.975,0,1.781,0,2.588,0,.434,0,1-.172,1.276.038.915.706.929.011,1.367-.553.983-1.266.663-2.65.679-4,0-.394-.381-.71-.9-.705-1.659.016-3.318,0-5,0C244.834,633.684,244.833,635.341,244.83,637.12Zm-.023-7.177c1.85.34,3.642-.267,5.357.383.111.042.565-.459.546-.487-.632-.9-.243-1.905-.289-2.851-.069-1.472-.023-1.469-1.516-1.8-.16-.036-.287-.214-.448-.257a7.412,7.412,0,0,0-3.863.315c-.088.023-.19.423-.141.46.551.422.338,1.008.352,1.532C244.825,628.1,244.808,628.969,244.807,629.944Zm-7.044,6.838a6.068,6.068,0,0,1,2.386.067,4.951,4.951,0,0,0,2.132.249c.668.042.993-.314,1.02-.958a14.372,14.372,0,0,0-.006-2.048,4.018,4.018,0,0,0-.476-2.009c-.259-.322-1.14-.145-1.744-.185-.186-.011-.435.077-.549-.014-.886-.713-1.846-.222-2.757-.364C237.767,633.332,237.765,634.991,237.762,636.781Zm5.179-6.747c0-1.336.019-2.56,0-3.783-.011-.7-.3-1.047-.92-1.058q-2.127-.039-4.254.006c-.14,0-.416.369-.392.4.647.947.273,2,.339,3.005.057.875.439,1.38,1.319,1.411C240.313,630.061,241.593,630.032,242.942,630.034Z" transform="translate(-86.32 -35.841)"/></g><text class="e" transform="translate(906 693)"><tspan x="0" y="0">品味風格生活</tspan></text></g></svg>