<svg xmlns="http://www.w3.org/2000/svg" width="223" height="223" viewBox="0 0 223 223"><defs><style>.a{fill:#eae8e6;}.b{fill:#fff;}.b,.c,.d{fill-rule:evenodd;}.c{fill:#b3b3b3;}.d,.e{fill:#333;}.f{fill:#72665a;font-size:20px;font-family:YuGothicUI-Bold, Yu Gothic UI;font-weight:700;}</style></defs><g transform="translate(-612 -519)"><rect class="a" width="223" height="223" transform="translate(612 519)"/><g transform="translate(-44.714 516.638)"><path class="b" d="M715.83,144.887c.76.1,1.469-.325,2.242-.19.664-.345,1.392-.078,2.069-.208a31.9,31.9,0,0,1,5.4-.174c1.793-.04,3.588-.016,5.383,0a2.35,2.35,0,0,1,1.3.17.558.558,0,0,0,.753-.262,5.439,5.439,0,0,1,.043.621c-.06,1.155.35,2.282.2,3.442.331.516.052,1.137.264,1.653a5.549,5.549,0,0,1,.123,1.709c.03.309.216.563.221.9a.455.455,0,0,0,.787.25c.427-.422.822-.877,1.272-1.364.365.138.466.566.662.921a.631.631,0,0,0,1.079.178c.192-.177.375-.362.553-.554s.17-.645.507-.588c.242.041.435.346.661.517a5.136,5.136,0,0,1,.534.355c.217.215.536.467.74.365a1.121,1.121,0,0,0,.62-.989,29.211,29.211,0,0,0,.213-3.052c-.051-.526.259-1.025.2-1.583a15.733,15.733,0,0,1-.013-1.711h.987c2.219,0,4.437.009,6.654-.009.366,0,.779.169,1.1-.182.03-.032.129-.018.19,0a3.276,3.276,0,0,0,.7.179c.2,0,.4-.14.6-.176a6.514,6.514,0,0,1,1.582.18c.715.044,1.435.016,2.152.009.827-.008,1.621.282,2.465.212a14.348,14.348,0,0,1,2.442.007c.393.034.768.278,1.29.089v.83c0,.1,0,.195,0,.293.1,4.673-.278,9.337-.224,14.012.025,2.228.332,4.442.224,6.671a9.011,9.011,0,0,1,.19,2.854c.02.979-.021,1.958.012,2.936.034,1.019.149,2.034.182,3.051.032,1.042,0,2.088.01,3.131a1.806,1.806,0,0,0,.075.36c.055.254-.184.526-.366.393a.8.8,0,0,0-1.033,0c-.14.089-.383.014-.578.014a2.069,2.069,0,0,0-.774.019c-.283.122-.442-.311-.753-.06-.159.129-.5.038-.758.039-.685,0-1.373-.04-2.054.013a8.428,8.428,0,0,0-2.089.134,9.118,9.118,0,0,1-2.038.062,8.124,8.124,0,0,1-1.291.194,2.132,2.132,0,0,0-1.3.171c-.147.085-.384.014-.578.014-1.207,0-2.414-.008-3.621,0a14.983,14.983,0,0,1-2.659.19c-2.412-.4-4.85.007-7.255-.231-1.35-.132-2.709.021-4.027-.192a28.929,28.929,0,0,0-3.937-.152,24.9,24.9,0,0,0-3.911.023c-2.066.271-4.126.09-6.186.16-.706.024-.883-.145-.887-.842,0-1.249-.285-2.476-.215-3.737s.015-2.543.015-3.816c0-.882.024-1.762-.009-2.643-.025-.692-.147-1.379-.18-2.072a10.437,10.437,0,0,0-.038-2.047,17.981,17.981,0,0,1-.168-3.057c-.045-.5-.154-.989-.185-1.486a6.609,6.609,0,0,1,.006-1.563c.38-2.122-.027-4.268.209-6.377C715.924,150.242,715.67,147.6,715.83,144.887Z" transform="translate(-1.176 -57.76)"/><path class="b" d="M771.65,65.4c.508-.106.932-.193,1.355-.283s.908.2,1.294-.191c.033-.033.127-.011.191,0a34.388,34.388,0,0,0,3.639-.208c2.708.036,5.418,0,8.126.019a4,4,0,0,1,1.886.169c.17.085.452-.059.745-.108a29.972,29.972,0,0,0,.223,3.579,6.319,6.319,0,0,0,.322,2.1,1.713,1.713,0,0,1,.031.767,6.154,6.154,0,0,0,.214,1.68c.057.454.506.575.844.236.426-.426.814-.888,1.267-1.389.2.305.419.628.617.966.274.467.686.572,1.06.224a3.368,3.368,0,0,0,.843-1.019.256.256,0,0,1,.464-.059,4.534,4.534,0,0,0,1.417,1.07c.159.075.247.232.437,0a1.856,1.856,0,0,0,.493-1.175c.014-.464.146-.924.177-1.389a11.094,11.094,0,0,1,.024-1.464,13.027,13.027,0,0,0,.385-2.778,2.082,2.082,0,0,1,.193-.7.257.257,0,0,1,.2-.133,25.935,25.935,0,0,0,2.661-.209c.651.028,1.306.025,1.958,0,1.318-.047,2.612.344,3.933.2a12.455,12.455,0,0,0,3.443.19c1.174.028,2.349.006,3.524.006h3.262c0,1.572.019,3.1-.01,4.626a7.481,7.481,0,0,0,.2,1.487c.087.49-.146,1.024.2,1.487.031.042,0,.127,0,.192-.026,1.413.317,2.807.2,4.228-.043.551.03,1.111-.013,1.663-.385,4.9-.111,9.8-.18,14.7-.007.592.147,1.184.179,1.779a8.21,8.21,0,0,0,.039,1.85,22.1,22.1,0,0,1,.21,2.841,8.493,8.493,0,0,1-.91,0,29.3,29.3,0,0,0-3.248.2,22.3,22.3,0,0,0-3.323.037c-.863.124-1.728.033-2.562.188-.665.123-1.345.037-1.974.19a21.985,21.985,0,0,1-3.939.17,19.117,19.117,0,0,1-3.439.163c-2.458-.3-4.921.032-7.359-.2-1.351-.129-2.711.026-4.029-.191a29.11,29.11,0,0,0-3.939-.152,24.48,24.48,0,0,0-3.911.023c-2.1.279-4.193.083-6.286.161a.628.628,0,0,1-.741-.69c.036-1.189-.261-2.347-.224-3.542.067-2.217.034-4.438.009-6.657-.007-.691-.147-1.38-.178-2.072a12.093,12.093,0,0,0-.038-2.147,20.554,20.554,0,0,1-.171-3.254c-.036-.465-.151-.924-.184-1.388a5.864,5.864,0,0,1,0-1.368c.373-2.252-.006-4.528.224-6.769.132-1.286.123-2.56.15-3.839S771.65,66.676,771.65,65.4Z" transform="translate(-31.771 -14.209)"/><path class="b" d="M839.847,151.933c.189.285.416.6.61.934.3.513.7.6,1.118.177a2.533,2.533,0,0,0,.716-.876c.121-.325.327-.308.594-.083.312.262.629.52.958.759.211.153.507.423.666.366a1,1,0,0,0,.618-.875c-.043-.718.328-1.373.224-2.074-.127-.841.253-1.633.2-2.464.31-.393.151-.856.2-1.288a4.9,4.9,0,0,1,.2-.895.333.333,0,0,1,.28-.152c.9.131,1.759-.266,2.661-.215.878.049,1.761-.013,2.641.019.562.02,1.118.147,1.681.18a7.521,7.521,0,0,1,1.655.036,8.1,8.1,0,0,0,2.374.159c2.541.022,5.081.008,7.691.008,0,1.616.031,3.207-.019,4.795-.015.494.2.914.226,1.387s-.189.966.181,1.391c.032.037.006.126,0,.192-.057,1.349.318,2.674.206,4.03-.058.713.014,1.436-.015,2.152-.048,1.18-.255,2.349-.2,3.541.054,1.237.012,2.479.012,3.718v3.621c0,1.207-.06,2.419.017,3.62a31.535,31.535,0,0,1,.179,3.639c.414.892.088,1.821.218,2.779-2.3-.1-4.511.338-6.738.188a2.162,2.162,0,0,0-.39,0c-.5.06-.989.155-1.486.187a6.129,6.129,0,0,0-1.555.039,11.632,11.632,0,0,1-1.689.173,35.107,35.107,0,0,1-5.3.192c-.3.019-.6.152-.9.182a4.192,4.192,0,0,1-.976,0,70.22,70.22,0,0,0-7.749-.189c-1.3-.358-2.641-.014-3.926-.23a27.545,27.545,0,0,0-3.936-.155,24.9,24.9,0,0,0-3.911.024c-2.066.273-4.125.091-6.186.16-.724.025-.9-.133-.9-.83,0-1.184-.287-2.345-.217-3.541s.015-2.413.015-3.62c0-1.011.024-2.023-.008-3.034-.022-.692-.147-1.38-.181-2.072a10.286,10.286,0,0,0-.037-2.046,18.443,18.443,0,0,1-.169-3.157c-.042-.465-.153-.924-.185-1.388a6.4,6.4,0,0,1,0-1.466c.37-2.218-.034-4.465.22-6.669.269-2.325.022-4.643.2-7.028h.939c2.218,0,4.438-.039,6.655.012a45.5,45.5,0,0,0,5.494-.244,21.49,21.49,0,0,0,2.264-.193,9.366,9.366,0,0,1,1.59-.165c.227-.008.3.108.25.3-.125.493.214.912.2,1.388s-.027.98.005,1.467c.022.335.143.662.182,1a2.714,2.714,0,0,0,.172.91c.136.3,0,.706.035,1.062a11.215,11.215,0,0,0,.2,1.385.477.477,0,0,0,.769.227C838.946,152.935,839.362,152.456,839.847,151.933Z" transform="translate(-58.089 -58.321)"/><path class="b" d="M922.952,167.647a33.049,33.049,0,0,1-.27-3.572c.025-1.016-.289-2.023-.179-3.051a6.264,6.264,0,0,1-.156-3.143,55.174,55.174,0,0,0,.144-5.8,2.132,2.132,0,0,0-.183-1.487c-.015-.02-.006-.064,0-.1.064-.429.13-.859.2-1.289.061-.4-.135-.833.134-1.218a.5.5,0,0,0,.059-.267,17.733,17.733,0,0,0-.04-3.125,15.136,15.136,0,0,1-.14-2.471,9.514,9.514,0,0,0-.2-1.584c-.088-.49.1-1-.181-1.5-.125-.223,0-.578-.025-.869-.056-.56.174-1.151-.183-1.686a.441.441,0,0,1,0-.382,3.435,3.435,0,0,0,.168-1.978,2.34,2.34,0,0,1,1.227-2.17c1.143-.806,2.285-1.618,3.378-2.5,1.04-.836,2.126-1.615,3.222-2.378,1.286-.9,2.62-1.722,3.9-2.626.461-.326.817-.788,1.306-1.105.741-.48,1-.637,1.011-.55a9.8,9.8,0,0,1,.073,1.146c0,4.5.014,9.006-.006,13.508,0,.887-.161,1.773-.173,2.659-.009.592.142,1.185.175,1.779a7.847,7.847,0,0,0,.04,1.752,15.908,15.908,0,0,1,.177,1.982c.125.7.16,1.405.334,2.1a8.509,8.509,0,0,1,.043,1.944c-.341.277-.185.66-.19,1q-.024,1.761,0,3.524c.005.336-.145.707.18,1.006.065.059.053.271,0,.378a4.454,4.454,0,0,0-.186,1.88c-.009.2-.02.291-.275.391a2.421,2.421,0,0,0-.773.726,19.5,19.5,0,0,1-2.422,1.969,26.411,26.411,0,0,1-2.285,1.557,13.744,13.744,0,0,1-1.156.755,17.144,17.144,0,0,0-2.805,1.992,7.375,7.375,0,0,1-2.27,1.585C924.171,166.976,923.45,167.112,922.952,167.647Z" transform="translate(-114.285 -46.02)"/><path class="b" d="M874.894,87.95a32.422,32.422,0,0,1-.267-3.534c.025-1.015-.289-2.022-.179-3.051a6.352,6.352,0,0,1-.157-3.143,58.912,58.912,0,0,0,.148-5.9,1.964,1.964,0,0,0-.185-1.388c-.016-.02-.006-.064,0-.1l.2-1.289c.061-.4-.134-.834.133-1.218a.493.493,0,0,0,.061-.267,17.292,17.292,0,0,0-.04-3.124,14.69,14.69,0,0,1-.136-2.569,9.621,9.621,0,0,0-.208-1.486c-.081-.492.1-1-.18-1.5-.125-.223,0-.578-.026-.868-.056-.561.175-1.152-.182-1.687a.442.442,0,0,1,0-.382,3.447,3.447,0,0,0,.168-1.978,2.339,2.339,0,0,1,1.225-2.171c1.144-.8,2.285-1.618,3.378-2.5,1.04-.835,2.126-1.616,3.222-2.379,1.286-.9,2.62-1.722,3.9-2.626.46-.325.815-.789,1.305-1.1.73-.472,1-.636,1.011-.553a9.981,9.981,0,0,1,.075,1.146c0,4.5.013,9.005-.006,13.508,0,.887-.161,1.773-.173,2.66-.008.592.141,1.184.175,1.779a7.818,7.818,0,0,0,.04,1.752,15.821,15.821,0,0,1,.177,1.981c.124.7.16,1.406.334,2.1a8.564,8.564,0,0,1,.043,1.945c-.336.279-.186.659-.189,1q-.024,1.761,0,3.523c0,.336-.141.7.177,1.009a.506.506,0,0,1,0,.47c-.345.54-.156,1.127-.17,1.688-.007.307-.134.381-.36.535-1.38.941-2.721,1.938-4.095,2.887a19.028,19.028,0,0,0-2.533,1.932,12.61,12.61,0,0,1-1.208.846c-.427.326-.818.7-1.239,1.031a21.8,21.8,0,0,1-2.544,1.878A11.407,11.407,0,0,0,874.894,87.95Z" transform="translate(-87.965 -2.391)"/><path class="b" d="M911.112,121.029c-1.216.915-2.275,1.737-3.36,2.52-1.025.738-2.081,1.433-3.12,2.151-.457.317-.916.635-1.36.97-.914.692-1.875,1.334-2.76,2.044a27.335,27.335,0,0,0-2.9,2.245,1.418,1.418,0,0,1-1.185.451c-.227-.016-.458.01-.685,0-1.775-.119-3.534.148-5.3.2-1.155.036-2.283-.348-3.443-.2a8.816,8.816,0,0,0-2.658-.2c-.5-.047-1.032.2-1.49-.185a.186.186,0,0,0-.182.01c-.291.326-.669.158-1.006.174-.553.026-1.11-.019-1.662.015-.5.029-.99.133-1.486.184-.254.025-.512,0-.934,0a7.024,7.024,0,0,1,.843-.676c.854-.611,1.779-1.107,2.611-1.762,1.475-1.16,2.865-2.422,4.407-3.5.783-.55,1.6-1.042,2.375-1.593s1.586-1.1,2.338-1.7a1.341,1.341,0,0,1,.926-.364c3.045.152,6.077-.286,9.12-.2.684.02,1.372-.029,2.054.014a10.605,10.605,0,0,0,1.585-.2,7.427,7.427,0,0,0,1.557-.037,11.386,11.386,0,0,1,2.668-.169q1.231-.1,2.463-.194C910.648,121.021,910.774,121.029,911.112,121.029Z" transform="translate(-90.019 -45.057)"/><path class="b" d="M864.786,41.33a51.633,51.633,0,0,1-5.331,3.9c-.9.564-1.7,1.24-2.555,1.849-.883.627-1.74,1.289-2.624,1.915-.633.446-1.239.945-1.869,1.408-.405.3-.77.652-1.171.959a1.421,1.421,0,0,1-.93.356c-.75-.022-1.5-.036-2.249,0a12.814,12.814,0,0,0-2.2.1,9.4,9.4,0,0,1-2.219.079c-.5-.013-.987-.146-1.485-.179a5.954,5.954,0,0,1-1.456-.034,8.269,8.269,0,0,0-2.179-.168,7.943,7.943,0,0,1-2.081-.164,1.114,1.114,0,0,0-1.188.144c-.779.007-1.56.015-2.339.014-.043,0-.123-.081-.12-.12.006-.087.033-.233.084-.247.572-.166.848-.719,1.345-1a12.139,12.139,0,0,0,1.317-1.082c.985-.759,2.011-1.469,2.972-2.258.58-.476,1.175-.922,1.792-1.348a23.76,23.76,0,0,1,3.181-2.005,6.71,6.71,0,0,0,1.408-.837,2.018,2.018,0,0,1,1.463-.5c2.683.1,5.353-.341,8.037-.192a7.783,7.783,0,0,0,.782,0,30.185,30.185,0,0,0,3.922-.234,21.659,21.659,0,0,1,3.057-.147,9.689,9.689,0,0,1,2.169-.208A3.286,3.286,0,0,0,864.786,41.33Z" transform="translate(-65.49 -1.387)"/><path class="b" d="M805.808,42.337c-.928.588-1.8,1.1-2.63,1.677a44.149,44.149,0,0,1-4.008,2.368,19.738,19.738,0,0,0-2.117,1.505c-.776.57-1.541,1.157-2.319,1.725-.4.29-.844.519-1.209.844a3.4,3.4,0,0,1-.929.6,1.29,1.29,0,0,1-.165.077c-.267.068-.064.543-.456.513-.572-.044-1.151-.031-1.717-.113a5.289,5.289,0,0,0-2.165.028,40.016,40.016,0,0,1-4.515-.018,14.669,14.669,0,0,0-2.482,0c-.188.015-.418.1-.632.1-.521.012-1.043-.009-1.564.009-.3.011-.621-.1-.914.173-.118.108-.418.018-.67-.126.633-.344,1.259-.7,1.9-1.029,1.185-.615,2.365-1.232,3.507-1.932,1-.613,2.1-1.068,3.149-1.6a6.739,6.739,0,0,0,1.515-.8c.545-.487,1.292-.594,1.8-1.128.184-.192.586-.154.843-.3.658-.378,1.354-.673,2.018-1.033.642-.347,1.257-.741,1.9-1.1a1.152,1.152,0,0,1,.527-.137c1.108-.012,2.216.005,3.325-.013.335,0,.715.154,1-.184.027-.032.133-.024.189,0,.828.33,1.646-.113,2.482-.024a17.643,17.643,0,0,0,2.638.009C804.628,42.408,805.128,42.108,805.808,42.337Z" transform="translate(-35.107 -1.911)"/><path class="c" d="M832.594,42.66A39.908,39.908,0,0,0,827.52,45.9c-.64.488-1.246,1.025-1.925,1.47a13.326,13.326,0,0,0-1.832,1.511,19.561,19.561,0,0,1-1.854,1.41c-.046.034-.129.022-.17.059-.737.665-1.475,1.33-2.2,2.01a.669.669,0,0,0-.189.4,8.481,8.481,0,0,1-.173,1.3,18.868,18.868,0,0,0-.231,2.358c-.038.367-.153.726-.184,1.094-.033.389.025.786-.019,1.172a4.268,4.268,0,0,1-.27.825c-.414-.415-.822-.815-1.22-1.223-.153-.158-.255-.156-.482-.064-.617.252-.725.877-1.09,1.307-.058.068-.131.255-.257.04s-.267-.41-.389-.622c-.619-1.076-.711-1.091-1.537-.159a8.7,8.7,0,0,0-.549.8c-.042-.678-.312-1.186-.282-1.784a8.188,8.188,0,0,0-.177-1.386,4.454,4.454,0,0,0-.167-1.4c-.156-.356,0-.837-.037-1.259-.041-.506.142-1.026-.1-1.524-.028-.062.04-.2.1-.269a8.384,8.384,0,0,1,1.7-1.328,17.7,17.7,0,0,0,1.97-1.383c.915-.749,1.892-1.4,2.868-2.063a6.226,6.226,0,0,1,.875-.485,40.256,40.256,0,0,0,3.581-2.219c.368-.219.708-.49,1.088-.683.815-.417,1.572-.929,2.353-1.4.192-.116.283-.175.488-.025a1.032,1.032,0,0,0,.55.079c.587.008,1.174-.022,1.76.011.5.028.989.147,1.486.181C831.488,42.685,831.97,42.66,832.594,42.66Z" transform="translate(-54.204 -1.933)"/><path class="b" d="M721.4,131.587c.662-.356,1.3-.707,1.937-1.041,1.185-.617,2.361-1.239,3.5-1.937,1-.612,2.1-1.064,3.149-1.59.514-.256,1.038-.5,1.53-.789.6-.362,1.169-.792,1.775-1.152.253-.15.6-.147.853-.294.656-.377,1.353-.672,2.017-1.032.641-.346,1.257-.74,1.894-1.094a1.152,1.152,0,0,1,.527-.137c1.174-.011,2.346,0,3.519-.013a1.469,1.469,0,0,0,.738-.106c.446-.231.725-.014.73.492.012,1.01,0,2.02.005,3.03,0,.171-.069.222-.224.329-1.3.9-2.527,1.9-3.853,2.754a22.273,22.273,0,0,1-2.814,1.929.414.414,0,0,0-.154.1c-.128.159-.237.46-.369.468a5.137,5.137,0,0,1-1.731-.051,12.049,12.049,0,0,0-2.1-.122c-.31.363-.727.175-1.092.186q-1.368.043-2.737,0a15.428,15.428,0,0,0-2.461-.192c-.591.075-1.182.158-1.777.191s-1.173-.01-1.759.013C722.163,131.543,721.845,131.928,721.4,131.587Z" transform="translate(-4.483 -45.76)"/><path class="c" d="M762.661,145.374c-.45-.449-.844-.839-1.232-1.234-.147-.15-.251-.153-.481-.09-.543.149-.571.72-.945.989-.083.06-.077.231-.149.322s-.164.294-.278-.029A6.4,6.4,0,0,0,759,144.3c-.244-.416-.555-.46-.915-.09-.342.351-.648.736-.972,1.109a16.884,16.884,0,0,1-.3-2.044,10.791,10.791,0,0,1-.155-1.588c0-.6-.271-1.158-.217-1.78a14.384,14.384,0,0,0-.08-1.815.433.433,0,0,1,.091-.274,14.937,14.937,0,0,1,2.058-1.654c.519-.426,1.134-.731,1.683-1.122.785-.56,1.545-1.152,2.324-1.722a.608.608,0,0,1,.331-.083c.023,0,.071.162.071.25,0,1.044-.021,2.089.011,3.131a9.616,9.616,0,0,0,.218,2.261,3.046,3.046,0,0,1-.027,2,.664.664,0,0,0,0,.195c-.066,1.082-.118,2.165-.2,3.246A7.4,7.4,0,0,1,762.661,145.374Z" transform="translate(-23.628 -51.744)"/><path class="c" d="M867.526,145.691c-.077.59-.149,1.109-.214,1.629-.069.559-.169,1.116-.185,1.677-.016.537-.319,1.02-.217,1.58a2.668,2.668,0,0,1-.273,1.588c-.415-.415-.825-.816-1.223-1.227-.157-.163-.26-.146-.481-.054-.61.255-.73.868-1.088,1.3-.057.07-.133.255-.255.038-.163-.291-.333-.578-.5-.867-.03-.052-.057-.107-.086-.159-.288-.523-.52-.578-.921-.171-.342.347-.644.732-1,1.145a50.461,50.461,0,0,1-.641-6.286,7.108,7.108,0,0,1,.893.006c1.031.136,2.017-.265,3.045-.213C865.382,145.731,866.393,145.691,867.526,145.691Z" transform="translate(-80.633 -58.557)"/><g transform="translate(713.219 38.762)"><path class="d" d="M739.336,75.989a12.462,12.462,0,0,0-.185-1.954,5.361,5.361,0,0,1-.035-1.846c.04-1.251-.287-2.476-.215-3.737s.015-2.544.015-3.816-.023-2.546.009-3.817c.022-.888.149-1.773.18-2.66.033-.945.008-1.892.008-2.838,0-.914-.017-1.827.009-2.74.008-.3.146-.6.18-.9s-.008-.587.015-.879a.4.4,0,0,1,.176-.262c.365-.218.74-.417,1.114-.618q2.161-1.164,4.322-2.326c2.024-1.092,4.082-2.129,6.091-3.243,1.513-.838,3.072-1.6,4.541-2.522.122-.077.312-.042.441-.113a13.244,13.244,0,0,0,2.577-1.565.9.9,0,0,1,.708-.191q3.28,0,6.558,0a20.263,20.263,0,0,1,4.52-.188,33.212,33.212,0,0,1,4.6.03c1.612.19,3.213.119,4.818.151a40.81,40.81,0,0,0,4.792-.023c2.391-.234,4.777-.113,7.165-.166a24.634,24.634,0,0,1,2.848-.23,24.384,24.384,0,0,1,3.254-.166c.3-.024.646.139.91-.181.052-.064.252-.029.378-.006.3.053.6.154.9.185.323.033.658-.031.974.025a.542.542,0,0,1,.364.365c.029,1.076.016,2.153.016,3.229-.378.309-.247.761-.174,1.088a26.984,26.984,0,0,1,.166,4.721,1.43,1.43,0,0,1-.176,1.1.5.5,0,0,0,0,.471c.305.41.171.864.177,1.3.019,1.239-.006,2.479.011,3.72a28.978,28.978,0,0,0-.2,3.149c.076.625.159,1.25.19,1.877a12.593,12.593,0,0,0,.039,1.951,7.2,7.2,0,0,0,.249,1.456c.214.479-.06,1,.136,1.411a2.615,2.615,0,0,1,.142,1.687,24.373,24.373,0,0,0-.158,4.329c-.038,1.468-.01,2.937-.008,4.4,0,.093.012.186.024.34a42.553,42.553,0,0,0,5.07-.043,43.315,43.315,0,0,1,5.111-.133A41.4,41.4,0,0,1,816.3,75.6a12.682,12.682,0,0,1,3.344-.2c.274-.02.571.107.82-.162.077-.083.312-.049.469-.024.3.047.6.149.9.183s.59-.015.881.014a.42.42,0,0,1,.4.45,21.754,21.754,0,0,1-.033,2.932,3.458,3.458,0,0,0,.033,2c0,1.566.01,3.132-.008,4.7,0,.267-.173.533-.173.8s.17.533.173.8q.026,2.5,0,4.992c0,.365-.149.726-.18,1.094a7.93,7.93,0,0,0,0,1.174,36.639,36.639,0,0,1,.2,4.03,3.807,3.807,0,0,0,.184.9,9.871,9.871,0,0,1,.19,1c.032.323-.1.7.028.968a2.633,2.633,0,0,1,.148,1.686,22.153,22.153,0,0,0-.162,4.133c-.034,1.37-.02,2.74,0,4.11a1.56,1.56,0,0,1-.9,1.685,1.88,1.88,0,0,0-.822.818c-.431.838-1.392,1.015-1.944,1.679-.431.006-.482.612-.932.588-1.328,1.168-2.991,1.835-4.364,2.935-.143.116-.316.2-.455.316a17.876,17.876,0,0,1-2.762,2.068c-.6.343-1.166.793-1.782,1.144a.386.386,0,0,0-.138.113c-.369.569-.743.884-1.185.857-2.232-.135-4.447.308-6.673.19-1.39-.074-2.746.293-4.129.209-.7.3-1.472.052-2.163.223a14.608,14.608,0,0,1-3.45.158c-3.067.032-6.134,0-9.2.019-.832.005-1.622-.292-2.465-.22a8.56,8.56,0,0,1-2.536-.021,21.917,21.917,0,0,0-3.059-.162c-.594-.051-1.185-.142-1.779-.185a.7.7,0,0,0-.637.128c-.085.08-.34-.011-.515-.037-.15-.024-.363-.147-.436-.086-.408.326-.869.172-1.3.176-2.545.015-5.09.007-7.635.006-.284,0-.577.065-.787-.246a.583.583,0,0,0-.421-.139,19.088,19.088,0,0,0-3.321.029,46.976,46.976,0,0,1-4.819.166c-.432.029-.858.151-1.29.184a4.968,4.968,0,0,0-1.263.032,9.542,9.542,0,0,1-1.883.181,42.715,42.715,0,0,1-6.48.176c-2.151.045-4.306.005-6.459.012-.829,0-1.623-.284-2.465-.213a8,8,0,0,1-2.438-.02,15.4,15.4,0,0,0-3.157-.147c-.573-.018-1.094-.354-1.681-.214-.208.049-.429-.052-.638.134-.092.082-.341,0-.516-.027-.15-.022-.357-.149-.435-.091-.441.331-.935.171-1.4.174-2.382.019-4.764.009-7.146.009-.2,0-.391.005-.588,0-.483-.018-.608-.14-.626-.622a27.139,27.139,0,0,1-.209-2.758,12.844,12.844,0,0,0-.009-2.737c-.349-2.29.017-4.592-.21-6.869-.122-1.219.011-2.451-.2-3.635a25.09,25.09,0,0,1-.151-3.645c-.035-1.239-.008-2.479-.008-3.719a26.893,26.893,0,0,1,.038-3.715,30.352,30.352,0,0,0,.153-3.643c.024-1.239-.008-2.48.015-3.72.006-.333.146-.661.18-1s0-.652.016-.978c0-.058.106-.125.176-.165q.554-.315,1.115-.616,2.161-1.164,4.323-2.324c2.024-1.094,4.081-2.131,6.091-3.244,1.512-.838,3.071-1.6,4.54-2.523.122-.076.312-.041.441-.112a13.327,13.327,0,0,0,2.576-1.567.909.909,0,0,1,.71-.188C735.758,75.988,737.486,75.989,739.336,75.989ZM714.867,87.34c-.16,2.709.094,5.355-.2,8-.236,2.109.171,4.256-.209,6.377a6.609,6.609,0,0,0-.006,1.563c.031.5.14.989.185,1.486a17.981,17.981,0,0,0,.168,3.057,10.438,10.438,0,0,1,.038,2.047c.033.692.155,1.38.18,2.071.033.881.009,1.761.009,2.643,0,1.272.055,2.548-.015,3.816s.211,2.488.215,3.737c0,.7.18.866.887.842,2.06-.07,4.12.111,6.186-.16a24.9,24.9,0,0,1,3.911-.023,28.929,28.929,0,0,1,3.937.152c1.318.213,2.677.06,4.027.192,2.4.238,4.843-.174,7.255.231a14.984,14.984,0,0,0,2.659-.19c1.207-.009,2.414,0,3.621,0,.195,0,.432.071.578-.014a2.132,2.132,0,0,1,1.3-.171,8.124,8.124,0,0,0,1.291-.194,9.119,9.119,0,0,0,2.038-.062A8.427,8.427,0,0,1,755,122.6c.682-.053,1.369-.009,2.054-.013.258,0,.6.09.758-.039.31-.251.47.182.753.06a2.069,2.069,0,0,1,.774-.019c.2,0,.438.074.578-.014a.8.8,0,0,1,1.033,0c.182.133.421-.14.366-.393a1.81,1.81,0,0,1-.075-.36c-.006-1.043.022-2.089-.01-3.131-.033-1.018-.148-2.033-.182-3.051-.032-.977.008-1.957-.012-2.936a9.011,9.011,0,0,0-.19-2.854c.108-2.229-.2-4.443-.224-6.671-.053-4.675.327-9.339.224-14.012,0-.1,0-.2,0-.293v-.83c-.522.189-.9-.054-1.29-.089a14.345,14.345,0,0,0-2.442-.007c-.844.07-1.638-.22-2.465-.212-.717.007-1.438.035-2.152-.009a6.515,6.515,0,0,0-1.582-.18c-.207.036-.4.18-.6.176a3.277,3.277,0,0,1-.7-.179c-.061-.015-.16-.03-.19,0-.319.351-.733.18-1.1.182-2.217.018-4.435.009-6.654.009h-.987a15.732,15.732,0,0,0,.013,1.711c.062.558-.248,1.057-.2,1.583a29.2,29.2,0,0,1-.214,3.052,1.12,1.12,0,0,1-.62.989c-.2.1-.523-.15-.74-.365a5.125,5.125,0,0,0-.534-.355c-.227-.171-.419-.476-.661-.517-.338-.057-.325.393-.507.588s-.361.377-.553.554a.631.631,0,0,1-1.079-.178c-.2-.355-.3-.783-.662-.921-.45.486-.844.941-1.272,1.364a.455.455,0,0,1-.787-.25c0-.333-.191-.587-.221-.9a5.551,5.551,0,0,0-.123-1.709c-.212-.516.067-1.137-.264-1.653.15-1.16-.26-2.287-.2-3.442a5.453,5.453,0,0,0-.043-.621.558.558,0,0,1-.754.262,2.35,2.35,0,0,0-1.3-.17c-1.795-.013-3.589-.036-5.383,0a31.9,31.9,0,0,0-5.4.174c-.677.131-1.405-.136-2.069.209C716.336,87.016,715.627,87.439,714.867,87.34ZM740.092,51.4c0,1.277.022,2.549-.007,3.821s-.018,2.553-.15,3.839c-.23,2.242.149,4.518-.224,6.769a5.864,5.864,0,0,0,0,1.368c.033.465.148.923.184,1.388a20.554,20.554,0,0,0,.171,3.254,12.1,12.1,0,0,1,.038,2.147c.031.692.171,1.381.178,2.072.025,2.219.057,4.44-.009,6.657-.036,1.195.26,2.353.224,3.542a.628.628,0,0,0,.741.69c2.094-.078,4.187.118,6.286-.161a24.477,24.477,0,0,1,3.911-.023,29.108,29.108,0,0,1,3.939.152c1.318.217,2.678.062,4.029.191,2.438.233,4.9-.095,7.359.2a19.117,19.117,0,0,0,3.439-.163,21.987,21.987,0,0,0,3.939-.17c.629-.153,1.309-.066,1.974-.19.834-.155,1.7-.063,2.562-.188A22.3,22.3,0,0,1,782,86.565a29.3,29.3,0,0,1,3.248-.2,8.494,8.494,0,0,0,.91,0,22.079,22.079,0,0,0-.21-2.841,8.207,8.207,0,0,1-.039-1.85c-.032-.595-.186-1.187-.179-1.779.069-4.9-.2-9.806.18-14.7.043-.552-.031-1.112.013-1.663.114-1.421-.228-2.815-.2-4.228,0-.065.027-.151,0-.192-.343-.463-.11-1-.2-1.487a7.477,7.477,0,0,1-.2-1.487c.03-1.526.01-3.054.01-4.626h-3.262c-1.176,0-2.35.022-3.524-.006a12.455,12.455,0,0,1-3.443-.19c-1.321.144-2.615-.247-3.933-.2-.652.024-1.306.027-1.958,0a25.932,25.932,0,0,1-2.661.209.257.257,0,0,0-.2.133,2.079,2.079,0,0,0-.193.7,13.035,13.035,0,0,1-.385,2.778,11.073,11.073,0,0,0-.024,1.464c-.031.465-.163.924-.177,1.389a1.856,1.856,0,0,1-.493,1.175c-.19.229-.278.071-.437,0a4.534,4.534,0,0,1-1.417-1.07.256.256,0,0,0-.464.059,3.367,3.367,0,0,1-.843,1.019c-.374.348-.786.243-1.06-.224-.2-.337-.42-.66-.617-.966-.453.5-.841.962-1.267,1.389-.339.34-.787.218-.844-.236a6.152,6.152,0,0,1-.214-1.68,1.712,1.712,0,0,0-.031-.767,6.321,6.321,0,0,1-.322-2.1,29.985,29.985,0,0,1-.223-3.579c-.292.049-.575.193-.745.108a4,4,0,0,0-1.886-.169c-2.708-.019-5.417.017-8.126-.019a34.388,34.388,0,0,1-3.639.208c-.064-.007-.159-.029-.191,0-.385.395-.867.1-1.294.191S740.6,51.3,740.092,51.4ZM781.97,93.825c-.484.523-.9,1-1.351,1.447a.477.477,0,0,1-.769-.227,11.227,11.227,0,0,1-.2-1.385c-.032-.356.1-.766-.035-1.062a2.714,2.714,0,0,1-.172-.91c-.039-.335-.16-.662-.182-1-.033-.487-.018-.978-.005-1.467s-.328-.895-.2-1.388c.047-.188-.023-.3-.25-.3a9.366,9.366,0,0,0-1.59.165,21.489,21.489,0,0,1-2.264.193,45.494,45.494,0,0,1-5.494.244c-2.217-.052-4.437-.012-6.655-.012h-.939c-.176,2.385.071,4.7-.2,7.028-.254,2.2.15,4.451-.22,6.67a6.41,6.41,0,0,0,0,1.466c.032.464.143.923.185,1.388a18.443,18.443,0,0,0,.169,3.157,10.286,10.286,0,0,1,.038,2.046c.033.692.159,1.381.181,2.072.032,1.011.008,2.022.008,3.034,0,1.208.055,2.418-.015,3.62s.217,2.357.217,3.541c0,.7.173.855.9.83,2.061-.069,4.121.113,6.186-.16a24.9,24.9,0,0,1,3.911-.024,27.543,27.543,0,0,1,3.936.155c1.285.216,2.63-.128,3.926.23a70.22,70.22,0,0,1,7.749.189,4.194,4.194,0,0,0,.976,0c.3-.03.6-.164.9-.182a35.107,35.107,0,0,0,5.3-.192,11.632,11.632,0,0,0,1.689-.173,6.129,6.129,0,0,1,1.555-.039c.5-.032.989-.128,1.486-.187a2.164,2.164,0,0,1,.39,0c2.227.15,4.433-.287,6.738-.188-.13-.958.2-1.887-.219-2.779a31.508,31.508,0,0,0-.179-3.639c-.077-1.2-.017-2.413-.017-3.62v-3.621c0-1.239.042-2.481-.012-3.718-.052-1.192.155-2.361.2-3.541.029-.716-.043-1.439.015-2.152.112-1.356-.262-2.681-.206-4.03,0-.066.028-.155,0-.192-.37-.425-.155-.928-.18-1.391s-.241-.893-.226-1.387c.05-1.588.019-3.178.019-4.795-2.61,0-5.151.014-7.691-.008a8.1,8.1,0,0,1-2.374-.159,7.522,7.522,0,0,0-1.655-.036c-.563-.033-1.119-.16-1.681-.18-.88-.032-1.763.03-2.641-.019-.9-.051-1.757.346-2.661.215a.333.333,0,0,0-.28.152,4.895,4.895,0,0,0-.2.895c-.05.432.109.9-.2,1.288.052.83-.327,1.623-.2,2.464.1.7-.267,1.356-.224,2.074a1,1,0,0,1-.618.875c-.159.057-.455-.213-.666-.366-.33-.239-.647-.5-.958-.759-.267-.225-.473-.242-.594.083a2.533,2.533,0,0,1-.716.876c-.419.421-.818.336-1.118-.177C782.385,94.425,782.158,94.11,781.97,93.825Zm26.909,28.014c.5-.535,1.219-.671,1.666-1.2a7.377,7.377,0,0,0,2.27-1.585,17.136,17.136,0,0,1,2.805-1.992,13.744,13.744,0,0,0,1.156-.755,26.413,26.413,0,0,0,2.285-1.557,19.493,19.493,0,0,0,2.422-1.969,2.421,2.421,0,0,1,.773-.726c.254-.1.266-.194.275-.391a4.454,4.454,0,0,1,.186-1.88c.051-.107.062-.319,0-.378-.326-.3-.176-.671-.18-1.006q-.026-1.763,0-3.524c0-.336-.151-.718.19-1a8.5,8.5,0,0,0-.043-1.944c-.175-.7-.209-1.407-.334-2.1a15.931,15.931,0,0,0-.177-1.982,7.843,7.843,0,0,1-.04-1.752c-.033-.595-.184-1.187-.175-1.779.011-.887.169-1.773.173-2.659.019-4.5.01-9.006.006-13.508A9.816,9.816,0,0,0,822.061,77c-.01-.086-.271.07-1.011.55-.489.318-.845.779-1.306,1.105-1.278.9-2.612,1.731-3.9,2.626-1.1.763-2.182,1.542-3.222,2.378-1.093.879-2.235,1.692-3.378,2.5a2.34,2.34,0,0,0-1.227,2.17,3.434,3.434,0,0,1-.168,1.978.441.441,0,0,0,0,.382c.357.535.128,1.126.183,1.686.028.291-.1.646.025.869.279.5.093,1.006.181,1.5a9.5,9.5,0,0,1,.2,1.584,15.143,15.143,0,0,0,.14,2.471,17.721,17.721,0,0,1,.04,3.125.5.5,0,0,1-.059.267c-.269.385-.073.814-.134,1.218-.065.429-.131.859-.2,1.289-.005.032-.014.076,0,.1a2.133,2.133,0,0,1,.183,1.487,55.19,55.19,0,0,1-.144,5.8,6.263,6.263,0,0,0,.156,3.143c-.111,1.028.2,2.035.179,3.051A33.049,33.049,0,0,0,808.879,121.839ZM787.141,85.772a11.4,11.4,0,0,1,1.689-1.133,21.809,21.809,0,0,0,2.544-1.878c.421-.334.813-.705,1.239-1.031a12.62,12.62,0,0,0,1.208-.846,19.028,19.028,0,0,1,2.533-1.932c1.374-.95,2.714-1.947,4.095-2.887.227-.154.354-.228.36-.535.014-.561-.175-1.148.17-1.688a.506.506,0,0,0,0-.47c-.318-.308-.172-.673-.177-1.009q-.026-1.761,0-3.523c0-.337-.147-.717.189-1a8.564,8.564,0,0,0-.043-1.945c-.174-.7-.209-1.406-.334-2.1a15.821,15.821,0,0,0-.177-1.981,7.821,7.821,0,0,1-.04-1.752c-.034-.6-.183-1.187-.175-1.779.012-.887.169-1.773.173-2.66.019-4.5.011-9.005.006-13.508a9.994,9.994,0,0,0-.075-1.146c-.01-.084-.281.081-1.011.553-.49.316-.845.779-1.305,1.1-1.28.9-2.614,1.73-3.9,2.626-1.1.762-2.181,1.544-3.222,2.379-1.094.879-2.234,1.692-3.378,2.5a2.339,2.339,0,0,0-1.225,2.171,3.447,3.447,0,0,1-.168,1.978.443.443,0,0,0,0,.382c.357.535.127,1.126.182,1.687.029.29-.1.645.026.868.277.5.1,1,.18,1.5a9.621,9.621,0,0,1,.208,1.486,14.684,14.684,0,0,0,.136,2.569,17.292,17.292,0,0,1,.04,3.124.493.493,0,0,1-.061.267c-.267.384-.071.815-.133,1.218l-.2,1.289c0,.033-.014.076,0,.1a1.964,1.964,0,0,1,.185,1.388,58.893,58.893,0,0,1-.148,5.9,6.351,6.351,0,0,0,.157,3.143c-.11,1.029.2,2.035.179,3.051A32.407,32.407,0,0,0,787.141,85.772Zm34.164-9.587c-.337,0-.464-.008-.59,0q-1.231.094-2.463.194a11.386,11.386,0,0,0-2.668.169,7.427,7.427,0,0,1-1.557.037,10.607,10.607,0,0,1-1.585.2c-.682-.043-1.37.007-2.054-.014-3.044-.091-6.076.347-9.12.2a1.342,1.342,0,0,0-.926.364c-.752.6-1.555,1.143-2.338,1.7s-1.591,1.043-2.375,1.593c-1.542,1.081-2.932,2.344-4.407,3.5-.831.654-1.757,1.15-2.611,1.762a7.023,7.023,0,0,0-.843.676c.422,0,.68.02.934,0,.5-.05.989-.154,1.486-.184.552-.033,1.109.011,1.662-.015.337-.015.715.152,1.006-.174a.186.186,0,0,1,.182-.01c.458.384.994.138,1.49.185a8.817,8.817,0,0,1,2.658.2c1.16-.149,2.288.235,3.443.2,1.768-.054,3.528-.321,5.3-.2.227.015.458-.011.685,0a1.418,1.418,0,0,0,1.185-.451,27.34,27.34,0,0,1,2.9-2.245c.885-.71,1.846-1.352,2.76-2.044.444-.335.9-.653,1.36-.97,1.039-.718,2.1-1.413,3.12-2.151C819.031,77.922,820.089,77.1,821.305,76.185Zm-21.8-36.03a3.285,3.285,0,0,1-.467,0,9.689,9.689,0,0,0-2.169.208,21.656,21.656,0,0,0-3.057.147,30.188,30.188,0,0,1-3.922.234,7.783,7.783,0,0,1-.782,0c-2.684-.149-5.354.289-8.037.192a2.018,2.018,0,0,0-1.463.5,6.714,6.714,0,0,1-1.408.837,23.753,23.753,0,0,0-3.181,2.005c-.617.426-1.212.872-1.792,1.348-.961.789-1.986,1.5-2.972,2.258a12.138,12.138,0,0,1-1.317,1.082c-.5.28-.773.833-1.345,1-.051.014-.078.161-.084.247,0,.039.077.12.12.12.779,0,1.56-.008,2.339-.014a1.115,1.115,0,0,1,1.188-.144,7.943,7.943,0,0,0,2.081.164,8.269,8.269,0,0,1,2.179.168,5.954,5.954,0,0,0,1.456.034c.5.033.99.166,1.485.179a9.4,9.4,0,0,0,2.219-.079,12.814,12.814,0,0,1,2.2-.1c.748-.038,1.5-.024,2.249,0a1.421,1.421,0,0,0,.93-.356c.4-.307.765-.661,1.171-.959.63-.462,1.236-.961,1.869-1.408.885-.625,1.741-1.288,2.624-1.915.856-.608,1.658-1.285,2.555-1.849A51.614,51.614,0,0,0,799.508,40.156Zm-28.594.483c-.681-.229-1.18.071-1.7.094a17.643,17.643,0,0,1-2.638-.009c-.836-.089-1.654.354-2.482.024-.057-.023-.162-.031-.189,0-.285.338-.664.18-1,.184-1.109.019-2.218,0-3.325.013a1.152,1.152,0,0,0-.527.137c-.639.354-1.254.748-1.9,1.1-.664.36-1.361.655-2.018,1.033-.257.147-.659.109-.843.3-.511.534-1.258.641-1.8,1.128a6.737,6.737,0,0,1-1.515.8c-1.052.528-2.149.982-3.149,1.6-1.143.7-2.323,1.317-3.507,1.932-.639.332-1.265.685-1.9,1.029.252.143.552.234.67.126.292-.269.609-.162.914-.173.521-.019,1.043,0,1.564-.009.214,0,.444-.085.632-.1a14.669,14.669,0,0,1,2.482,0,40.015,40.015,0,0,0,4.515.018,5.289,5.289,0,0,1,2.165-.028c.566.082,1.145.069,1.717.113.392.03.189-.445.456-.513a1.287,1.287,0,0,0,.165-.077,3.4,3.4,0,0,0,.929-.6c.365-.325.812-.554,1.209-.844.778-.568,1.543-1.155,2.319-1.725a19.731,19.731,0,0,1,2.117-1.505,44.14,44.14,0,0,0,4.008-2.368C769.113,41.74,769.986,41.227,770.914,40.639Zm7.689.3c-.625,0-1.107.025-1.583-.007-.5-.033-.989-.153-1.486-.181-.586-.033-1.174,0-1.76-.011a1.032,1.032,0,0,1-.55-.079c-.205-.15-.3-.09-.488.025-.781.472-1.539.983-2.353,1.4-.38.194-.72.465-1.088.683a40.255,40.255,0,0,1-3.581,2.219,6.231,6.231,0,0,0-.875.485c-.976.658-1.953,1.314-2.868,2.063A17.7,17.7,0,0,1,760,48.919a8.384,8.384,0,0,0-1.7,1.328c-.063.066-.132.208-.1.269.238.5.055,1.018.1,1.524.033.422-.118.9.037,1.259a4.451,4.451,0,0,1,.167,1.4,8.175,8.175,0,0,1,.177,1.386c-.03.6.24,1.107.282,1.784a8.716,8.716,0,0,1,.549-.8c.826-.932.918-.917,1.537.159.123.212.266.411.389.622s.2.028.257-.04c.366-.43.474-1.055,1.09-1.307.227-.092.329-.095.482.064.4.408.806.808,1.22,1.223a4.268,4.268,0,0,0,.27-.825c.044-.387-.014-.784.019-1.172.031-.368.147-.727.184-1.094a18.879,18.879,0,0,1,.231-2.358,8.473,8.473,0,0,0,.173-1.3.668.668,0,0,1,.189-.4c.724-.68,1.462-1.345,2.2-2.01.04-.037.124-.024.17-.059a19.552,19.552,0,0,0,1.854-1.41,13.324,13.324,0,0,1,1.832-1.511c.679-.445,1.285-.982,1.925-1.47A39.907,39.907,0,0,1,778.6,40.939Zm-61.469,45.1c.441.341.759-.043,1.11-.057.586-.023,1.175.019,1.759-.013s1.185-.116,1.777-.191a15.427,15.427,0,0,1,2.461.192q1.368.042,2.737,0c.365-.012.782.177,1.092-.186a12.05,12.05,0,0,1,2.1.122,5.136,5.136,0,0,0,1.731.051c.132-.009.241-.309.369-.468a.414.414,0,0,1,.154-.1,22.273,22.273,0,0,0,2.814-1.929c1.326-.853,2.556-1.854,3.853-2.754.155-.108.224-.158.224-.329,0-1.01.007-2.021-.005-3.03-.006-.505-.284-.722-.73-.492a1.47,1.47,0,0,1-.738.106c-1.173.017-2.346,0-3.519.013a1.151,1.151,0,0,0-.527.137c-.637.353-1.252.747-1.894,1.094-.663.36-1.36.655-2.017,1.032-.257.147-.6.145-.853.294-.606.359-1.17.79-1.775,1.152-.491.294-1.016.533-1.53.789-1.052.526-2.149.978-3.149,1.59-1.142.7-2.318,1.32-3.5,1.937C718.429,85.332,717.8,85.683,717.134,86.039Zm22.112,7.8a7.4,7.4,0,0,0,.251-1.056c.086-1.081.138-2.164.2-3.246a.668.668,0,0,1,0-.195,3.046,3.046,0,0,0,.027-2,9.616,9.616,0,0,1-.218-2.261c-.033-1.043-.006-2.087-.011-3.131,0-.088-.048-.25-.071-.25a.608.608,0,0,0-.331.083c-.778.569-1.539,1.161-2.324,1.722-.549.391-1.164.7-1.682,1.122a14.937,14.937,0,0,0-2.058,1.654.433.433,0,0,0-.091.274,14.4,14.4,0,0,1,.08,1.815c-.054.622.22,1.179.217,1.78a10.783,10.783,0,0,0,.155,1.588,16.872,16.872,0,0,0,.3,2.044c.324-.373.63-.758.972-1.109.36-.369.671-.326.915.09a6.391,6.391,0,0,1,.573,1.034c.114.322.2.131.278.028s.066-.262.149-.322c.375-.269.4-.839.945-.989.229-.063.333-.06.481.09C738.4,93,738.8,93.394,739.245,93.843Zm47.86-6.5c-1.133,0-2.143.04-3.15-.011-1.028-.052-2.014.348-3.045.213a7.11,7.11,0,0,0-.893-.006,50.461,50.461,0,0,0,.641,6.286c.359-.413.661-.8,1-1.145.4-.407.634-.351.921.171.029.052.056.107.086.159.167.289.337.576.5.867.122.216.2.031.255-.038.358-.435.478-1.048,1.088-1.3.221-.092.324-.109.481.054.4.41.808.811,1.223,1.227a2.668,2.668,0,0,0,.273-1.588c-.1-.559.2-1.043.217-1.58.016-.56.116-1.118.185-1.677C786.956,88.455,787.028,87.936,787.105,87.346Z" transform="translate(-713.432 -38.975)"/><path class="e" d="M745.315,124.149c-.493,0-.986-.011-1.479-.021-.686-.015-1.373-.03-2.057-.016-.715.015-1.486.022-2.426.022q-.875,0-1.75-.005c-.583,0-1.166,0-1.749,0h-.538a7.283,7.283,0,0,1-1.124-.113,5.548,5.548,0,0,0-1.327-.1l-.177.015c-.4.034-.823.071-1.235.071a4.768,4.768,0,0,1-1.08-.109,6.859,6.859,0,0,0-1.582-.151c-.193,0-.384,0-.577.007-.321.006-.642.012-.964,0a3.151,3.151,0,0,1-.713-.13,1.952,1.952,0,0,0-.922-.088.9.9,0,0,1-.208.02h-.1a.33.33,0,0,0-.251.074.655.655,0,0,1-.531.041c-.045-.01-.087-.019-.127-.024a1.128,1.128,0,0,1-.22-.064c-.036-.012-.086-.03-.117-.038a1.317,1.317,0,0,1-.779.222c-.118,0-.237-.009-.354-.019s-.215-.017-.32-.017c-1.186.009-2.356.012-3.526.012l-3.638,0-.361,0c-.077,0-.155,0-.233,0-.573-.02-.774-.219-.795-.79-.013-.367-.06-.742-.106-1.1a8.764,8.764,0,0,1-.1-1.673l.006-.092a12.273,12.273,0,0,0-.014-2.607,22.385,22.385,0,0,1-.147-3.79,26.389,26.389,0,0,0-.064-3.087c-.053-.53-.058-1.065-.064-1.583a12.612,12.612,0,0,0-.13-2.04,14.729,14.729,0,0,1-.146-2.591c0-.36,0-.718-.008-1.079-.025-.867-.019-1.747-.014-2.6q0-.563,0-1.126c0-.375-.012-.754-.024-1.131a15.287,15.287,0,0,1,.064-2.608,20.983,20.983,0,0,0,.142-2.76c0-.288,0-.575.009-.863.012-.629.01-1.259.008-1.889,0-.61,0-1.22.007-1.83a2.7,2.7,0,0,1,.1-.591,3.112,3.112,0,0,0,.083-.42,4.5,4.5,0,0,0,.011-.528c0-.147,0-.295,0-.442s.145-.24.265-.308q.556-.315,1.119-.618l1.793-.963q1.265-.68,2.529-1.36c.853-.461,1.712-.911,2.57-1.362,1.159-.608,2.357-1.237,3.519-1.881.492-.272.988-.537,1.485-.8,1.013-.539,2.06-1.1,3.046-1.716a.69.69,0,0,1,.3-.085.493.493,0,0,0,.153-.033c.205-.113.413-.222.623-.331a9.25,9.25,0,0,0,1.921-1.213.952.952,0,0,1,.7-.233h.119c.872,0,1.738,0,2.62,0h2.49a5.938,5.938,0,0,1-.028-.678,3.1,3.1,0,0,0-.12-1.043,3.54,3.54,0,0,1-.076-1.427c.013-.162.025-.323.031-.481a12.616,12.616,0,0,0-.111-1.76,11.964,11.964,0,0,1-.1-1.982c.05-.875.038-1.773.026-2.64-.006-.389-.01-.778-.01-1.166s0-.761-.005-1.141c0-.879-.01-1.787.013-2.681.012-.468.052-.94.092-1.4.036-.415.074-.844.088-1.264.022-.654.017-1.322.012-1.967,0-.289,0-.577,0-.865,0-.257,0-.513,0-.77,0-.647-.006-1.316.011-1.975a2.324,2.324,0,0,1,.1-.536,2.68,2.68,0,0,0,.081-.377,3.469,3.469,0,0,0,.01-.447c0-.142-.006-.285,0-.427a.574.574,0,0,1,.262-.4c.325-.194.662-.376.989-.551l1.921-1.033q1.266-.68,2.532-1.362c.842-.455,1.69-.9,2.537-1.344,1.17-.613,2.379-1.248,3.552-1.9.492-.273.989-.538,1.487-.8,1.012-.539,2.059-1.1,3.045-1.716a.685.685,0,0,1,.3-.085.5.5,0,0,0,.153-.033c.211-.116.425-.228.638-.339a8.981,8.981,0,0,0,1.906-1.2.949.949,0,0,1,.7-.236h.116q1.742,0,3.473,0h3.069a9.136,9.136,0,0,1,2.177-.221c.336,0,.672.009,1.01.019.451.012.9.024,1.35.014.32-.007.64-.018.961-.028.569-.019,1.158-.038,1.736-.038a16.279,16.279,0,0,1,1.924.1,30.013,30.013,0,0,0,3.444.139c.452,0,.9,0,1.357.011.341.007.683.016,1.026.026.593.018,1.207.035,1.809.035.743,0,1.358-.027,1.938-.083,1.441-.142,2.861-.153,4.191-.153h1.261c.566,0,1.133,0,1.7-.015a4.973,4.973,0,0,1,1.62-.156c.106,0,.212,0,.317,0a4.463,4.463,0,0,0,.905-.074,8.679,8.679,0,0,1,1.8-.142h.517c.3,0,.629,0,.957-.028a1.733,1.733,0,0,1,.289.009c.184.016.359.043.5-.127a.337.337,0,0,1,.266-.1,1.7,1.7,0,0,1,.279.033c.125.023.25.052.375.083a3.89,3.89,0,0,0,.512.1,3,3,0,0,0,.413,0,2.974,2.974,0,0,1,.574.022.7.7,0,0,1,.508.534c.023.83.02,1.673.019,2.488v.83l-.065.052c-.252.206-.211.485-.126.856l.013.059a12.482,12.482,0,0,1,.175,3.1c-.015.543-.031,1.105-.005,1.654,0,.059.008.118.013.178a1.322,1.322,0,0,1-.229,1.046.381.381,0,0,0,.007.254,1.528,1.528,0,0,1,.223,1.1c-.005.1-.013.2-.011.3.009.63.007,1.261.005,1.892,0,.609,0,1.218.005,1.828a9.419,9.419,0,0,1-.117,1.384,6.8,6.8,0,0,0-.086,1.746l.031.251c.066.535.133,1.088.161,1.638.012.255,0,.513-.009.763a4.621,4.621,0,0,0,.045,1.159,4.761,4.761,0,0,1,.076.588,2.59,2.59,0,0,0,.161.833,1.676,1.676,0,0,1,.089.833,1.156,1.156,0,0,0,.046.574,2.767,2.767,0,0,1,.156,1.8,13.329,13.329,0,0,0-.161,2.945c.008.443.017.9.005,1.354-.027,1.034-.02,2.089-.013,3.108q0,.646.006,1.292c0,.051,0,.1.01.165.467,0,.936.016,1.4.029.516.014,1.031.029,1.545.029a16.02,16.02,0,0,0,1.94-.1,24.64,24.64,0,0,1,2.961-.145c.333,0,.666,0,1,.006s.664.005,1,.005h.175a17.353,17.353,0,0,0,1.765-.125,17.6,17.6,0,0,1,1.82-.127c.254,0,.489.011.719.033A4.839,4.839,0,0,1,817.6,75c.221,0,.443.008.665.015a10.77,10.77,0,0,0,1.153,0,1.666,1.666,0,0,1,.251,0,.5.5,0,0,0,.455-.112.414.414,0,0,1,.32-.109,2.006,2.006,0,0,1,.3.031c.139.021.278.055.416.088a3.914,3.914,0,0,0,.474.094,3.121,3.121,0,0,0,.422.007,3.428,3.428,0,0,1,.458.007.6.6,0,0,1,.557.624c0,.285.01.573.018.859a12.8,12.8,0,0,1-.051,2.1c-.014.108-.031.214-.047.32a2.691,2.691,0,0,0,.066,1.58l.016.072v1.2c0,1.168,0,2.336-.01,3.5a1.539,1.539,0,0,1-.094.448.819.819,0,0,0,0,.7,1.534,1.534,0,0,1,.094.45c.019,1.806.019,3.439,0,5a3.077,3.077,0,0,1-.1.637,3.666,3.666,0,0,0-.084.47,7.842,7.842,0,0,0,0,1.147c.024.377.056.754.087,1.13a22.4,22.4,0,0,1,.117,2.92,1.776,1.776,0,0,0,.1.544c.03.1.06.206.081.31.018.085.036.169.056.254a6.5,6.5,0,0,1,.137.76,2.278,2.278,0,0,1-.011.427,1.025,1.025,0,0,0,.024.483,2.786,2.786,0,0,1,.161,1.8,12.474,12.474,0,0,0-.164,2.836c.008.415.016.843.006,1.266-.034,1.322-.021,2.64,0,4.1a1.731,1.731,0,0,1-1.006,1.846,1.7,1.7,0,0,0-.739.739,2.854,2.854,0,0,1-1.146,1.072,3.277,3.277,0,0,0-.819.639l-.052.062-.081,0c-.122,0-.2.084-.316.23a.78.78,0,0,1-.551.357,15.861,15.861,0,0,1-2.3,1.566,17.734,17.734,0,0,0-2.015,1.331,2.208,2.208,0,0,1-.229.157,1.99,1.99,0,0,0-.221.154,18,18,0,0,1-2.789,2.088c-.295.168-.589.367-.872.561s-.595.4-.91.583c-.062.035-.075.052-.076.056-.436.67-.859.971-1.344.938-.285-.018-.578-.026-.893-.026-.825,0-1.663.059-2.474.118a26.666,26.666,0,0,1-3.3.1,13.064,13.064,0,0,0-2.021.106,13.035,13.035,0,0,1-2.069.106,2.759,2.759,0,0,1-1.04.157l-.44,0a2.856,2.856,0,0,0-.67.062,7.55,7.55,0,0,1-1.825.187c-.255,0-.508-.005-.762-.013s-.5-.011-.753-.011h-.15q-1.672.018-3.345.016l-3.34,0q-1.258,0-2.516.007h0a6.943,6.943,0,0,1-1.136-.118,5.287,5.287,0,0,0-1.314-.1l-.141.011c-.432.037-.878.074-1.319.074a5.159,5.159,0,0,1-1.129-.11,6.777,6.777,0,0,0-1.527-.131l-.635,0c-.257,0-.561,0-.874-.031-.273-.024-.545-.056-.817-.087-.32-.037-.64-.074-.96-.1l-.086-.008a.5.5,0,0,0-.417.088c-.11.1-.321.082-.525.038-.047-.011-.1-.02-.137-.028a1.246,1.246,0,0,1-.212-.059c-.037-.013-.09-.031-.122-.038a1.2,1.2,0,0,1-.742.222c-.109,0-.219-.008-.329-.018s-.2-.016-.295-.016c-1.232.008-2.453.01-3.675.01l-3.972,0-.122,0a.8.8,0,0,1-.811-.325.546.546,0,0,0-.277-.062c-.321,0-.645-.018-.969-.032-.358-.016-.728-.032-1.087-.032a7.331,7.331,0,0,0-1.234.09,13.161,13.161,0,0,1-2.184.148c-.253,0-.506,0-.758-.006s-.5-.006-.752-.006c-.447,0-.81.01-1.142.033a5.985,5.985,0,0,0-.641.09c-.21.037-.428.076-.648.093a3.449,3.449,0,0,1-.523-.013,1.871,1.871,0,0,0-.692.034,3.124,3.124,0,0,1-1.125.15h-.13a3.851,3.851,0,0,0-.659.04A17.019,17.019,0,0,1,745.315,124.149Zm-2.95-.394c.493,0,.986.011,1.479.021s.981.022,1.471.022a16.6,16.6,0,0,0,2.908-.21,4.166,4.166,0,0,1,.719-.044h.13a2.821,2.821,0,0,0,1-.128,2.119,2.119,0,0,1,.84-.056,3.167,3.167,0,0,0,.471.012,6.159,6.159,0,0,0,.612-.087,6.227,6.227,0,0,1,.678-.1c.341-.022.711-.033,1.166-.033.252,0,.5,0,.756.006s.5.006.753.006a12.721,12.721,0,0,0,2.125-.144,7.687,7.687,0,0,1,1.293-.095c.367,0,.741.016,1.1.032.319.014.639.028.956.031.071,0,.427.015.565.217a.4.4,0,0,0,.391.174l.116,0,.131,0,3.976,0q1.831,0,3.662-.01c.122.007.227.009.336.017s.2.017.3.017a.823.823,0,0,0,.555-.171.458.458,0,0,1,.423.005.861.861,0,0,0,.151.044c.047.008.1.019.159.032a1.225,1.225,0,0,0,.216.035.7.7,0,0,1,.494-.179c.064,0,.128.006.191.011l.078.008c.326.024.65.062.974.1.269.031.538.063.807.086.3.025.594.029.844.029l.635,0a7.1,7.1,0,0,1,1.6.14,4.867,4.867,0,0,0,1.052.1c.426,0,.864-.037,1.289-.073l.142-.012a5.747,5.747,0,0,1,1.4.107,6.639,6.639,0,0,0,1.058.113c.861,0,1.7-.008,2.54-.008l3.34,0q1.67,0,3.342-.015h.153c.253,0,.507.007.761.012s.5.012.754.012a7.222,7.222,0,0,0,1.741-.177,3.2,3.2,0,0,1,.754-.071l.44,0a2.327,2.327,0,0,0,.942-.146l.038-.016.041,0a12.657,12.657,0,0,0,2.052-.1,13.051,13.051,0,0,1,2.076-.108,26.347,26.347,0,0,0,3.261-.1c.818-.058,1.663-.118,2.5-.118.322,0,.622.009.914.027l.041,0c.327,0,.641-.247.986-.779a.537.537,0,0,1,.2-.171c.3-.171.6-.373.883-.567s.59-.4.9-.576a17.742,17.742,0,0,0,2.734-2.048,2.147,2.147,0,0,1,.263-.186,1.9,1.9,0,0,0,.2-.134,18.165,18.165,0,0,1,2.056-1.359,15.225,15.225,0,0,0,2.3-1.571l.054-.048.071,0h0c.142,0,.216-.083.337-.23a.818.818,0,0,1,.5-.351,3.823,3.823,0,0,1,.853-.655,2.527,2.527,0,0,0,1.021-.935,2.064,2.064,0,0,1,.906-.9,1.387,1.387,0,0,0,.8-1.522c-.018-1.467-.031-2.79,0-4.118.01-.415,0-.84-.006-1.25a12.751,12.751,0,0,1,.171-2.915,2.439,2.439,0,0,0-.136-1.575,1.28,1.28,0,0,1-.055-.664,2.032,2.032,0,0,0,.011-.361,6.248,6.248,0,0,0-.131-.72c-.02-.085-.038-.171-.056-.258s-.047-.19-.075-.284a2.079,2.079,0,0,1-.113-.657,22.07,22.07,0,0,0-.115-2.874c-.032-.379-.063-.758-.087-1.137a8,8,0,0,1,0-1.2,3.756,3.756,0,0,1,.091-.517,2.789,2.789,0,0,0,.088-.564c.018-1.554.018-3.185,0-4.988a1.239,1.239,0,0,0-.079-.346,1.156,1.156,0,0,1,0-.914,1.259,1.259,0,0,0,.079-.345c.014-1.166.012-2.332.01-3.5l0-1.161a3.036,3.036,0,0,1-.077-1.743c.016-.1.033-.208.047-.313a12.656,12.656,0,0,0,.048-2.039c-.009-.29-.018-.58-.018-.869a.247.247,0,0,0-.243-.276,3.2,3.2,0,0,0-.412-.006,3.26,3.26,0,0,1-.47-.009,4.215,4.215,0,0,1-.518-.1c-.129-.031-.258-.062-.388-.083a2.36,2.36,0,0,0-.328-.018.7.7,0,0,1-.547.219c-.058,0-.116,0-.174-.008a1.415,1.415,0,0,0-.2,0,11.124,11.124,0,0,1-1.191,0c-.218-.007-.436-.014-.653-.014a4.461,4.461,0,0,0-1.456.2l-.037.013-.038,0a12.853,12.853,0,0,0-2.5.09,17.851,17.851,0,0,1-1.8.127h-.175c-.334,0-.667,0-1-.005s-.664-.006-1-.006a24.33,24.33,0,0,0-2.919.142,16.351,16.351,0,0,1-1.982.1c-.517,0-1.036-.014-1.555-.029s-1.037-.029-1.554-.029h-.163l-.023-.3c-.008-.082-.014-.147-.014-.212,0-.43,0-.86-.006-1.289-.007-1.023-.014-2.08.014-3.12.011-.445,0-.9-.006-1.338a13.647,13.647,0,0,1,.168-3.022,2.426,2.426,0,0,0-.128-1.576,1.448,1.448,0,0,1-.079-.75,1.366,1.366,0,0,0-.059-.665,2.877,2.877,0,0,1-.19-.946,4.475,4.475,0,0,0-.07-.545,5.048,5.048,0,0,1-.052-1.247c.01-.242.021-.493.009-.731-.028-.537-.094-1.084-.159-1.613l-.03-.251a7.116,7.116,0,0,1,.086-1.835A9.015,9.015,0,0,0,801,55.175c-.008-.612-.006-1.223,0-1.834,0-.629,0-1.258-.005-1.886,0-.109,0-.219.012-.33a1.2,1.2,0,0,0-.155-.866.661.661,0,0,1,.006-.687,1,1,0,0,0,.148-.794c0-.063-.01-.127-.012-.189-.028-.562-.012-1.13,0-1.68a12.21,12.21,0,0,0-.166-3.01l-.013-.057a1.132,1.132,0,0,1,.182-1.148v-.669c0-.813,0-1.653-.018-2.477a.446.446,0,0,0-.218-.2,2.689,2.689,0,0,0-.5-.017,3.458,3.458,0,0,1-.46-.006,4.133,4.133,0,0,1-.56-.109c-.117-.028-.234-.057-.352-.078a1.365,1.365,0,0,0-.237-.027.715.715,0,0,1-.565.237c-.071,0-.142-.006-.212-.012a1.366,1.366,0,0,0-.231-.009c-.34.026-.673.029-.983.029h-.517a8.39,8.39,0,0,0-1.731.134,4.754,4.754,0,0,1-.978.081c-.108,0-.214,0-.322,0a4.611,4.611,0,0,0-1.53.147l-.052.009c-.577.013-1.154.015-1.732.015h-1.261c-1.322,0-2.731.012-4.157.152-.591.058-1.218.085-1.971.085-.607,0-1.223-.018-1.82-.035-.341-.01-.682-.02-1.022-.027-.45-.009-.9-.009-1.351-.011a30.3,30.3,0,0,1-3.484-.141,15.879,15.879,0,0,0-1.882-.1c-.573,0-1.158.019-1.725.038-.322.011-.643.021-.964.029-.454.01-.911,0-1.368-.015-.333-.009-.667-.018-1-.018a8.775,8.775,0,0,0-2.113.215l-.043.005h-3.09q-1.733,0-3.467,0h-.122a.61.61,0,0,0-.47.146,9.27,9.27,0,0,1-1.979,1.253c-.211.11-.422.22-.631.335a.742.742,0,0,1-.279.074.455.455,0,0,0-.152.033c-1,.626-2.049,1.186-3.067,1.729-.5.264-.991.527-1.481.8-1.177.652-2.388,1.288-3.56,1.9-.847.444-1.693.888-2.534,1.342s-1.688.909-2.532,1.363l-1.921,1.033c-.323.174-.657.354-.975.544a.239.239,0,0,0-.092.125,3.747,3.747,0,0,0,0,.391,3.694,3.694,0,0,1-.011.493,2.9,2.9,0,0,1-.092.43,2,2,0,0,0-.087.455c-.018.653-.015,1.319-.011,1.963q0,.386,0,.772c0,.287,0,.575,0,.862.005.649.01,1.321-.012,1.982-.015.43-.052.863-.089,1.283-.039.451-.08.918-.091,1.375-.023.888-.017,1.794-.013,2.67,0,.381,0,.762,0,1.143s.005.774.01,1.162c.012.873.024,1.777-.026,2.664a11.652,11.652,0,0,0,.1,1.924,12.982,12.982,0,0,1,.112,1.809c-.005.163-.019.33-.032.5a3.3,3.3,0,0,0,.058,1.285,3.44,3.44,0,0,1,.139,1.157,4.585,4.585,0,0,0,.052.824l.038.207h-2.9l-2.614,0h-.125a.611.611,0,0,0-.468.145,9.486,9.486,0,0,1-1.993,1.262c-.206.108-.412.216-.615.327a.74.74,0,0,1-.281.073.454.454,0,0,0-.151.033c-1,.626-2.05,1.187-3.068,1.729-.5.264-.991.528-1.481.8-1.165.646-2.366,1.275-3.526,1.885-.857.45-1.715.9-2.566,1.36s-1.686.908-2.53,1.36l-1.792.964q-.56.3-1.112.614a.586.586,0,0,0-.09.06c-.005.127,0,.253,0,.379a4.8,4.8,0,0,1-.013.569,3.452,3.452,0,0,1-.091.468,2.4,2.4,0,0,0-.088.515c-.011.607-.009,1.214-.007,1.822,0,.632,0,1.265-.008,1.9-.005.286-.008.572-.01.858a21.319,21.319,0,0,1-.145,2.807,15.008,15.008,0,0,0-.061,2.548c.013.381.024.763.024,1.142s0,.752,0,1.129c-.006.848-.012,1.725.013,2.586.01.363.009.726.008,1.09a14.375,14.375,0,0,0,.141,2.529,13,13,0,0,1,.135,2.1c.005.511.011,1.038.062,1.552a26.615,26.615,0,0,1,.066,3.128,22.1,22.1,0,0,0,.143,3.731,12.563,12.563,0,0,1,.017,2.682l-.006.093a8.442,8.442,0,0,0,.1,1.605c.047.37.1.753.109,1.136s.065.437.457.451c.073,0,.147,0,.22,0l.361,0,3.638,0c1.169,0,2.338,0,3.506-.012h0c.133,0,.248.009.365.019s.218.018.327.018a.933.933,0,0,0,.6-.175.454.454,0,0,1,.415.012.772.772,0,0,0,.151.045c.045.007.1.017.146.028a1.3,1.3,0,0,0,.217.033.739.739,0,0,1,.495-.156h.1a.556.556,0,0,0,.126-.01,2.3,2.3,0,0,1,1.093.091,2.849,2.849,0,0,0,.634.118c.316.009.631,0,.947,0,.194,0,.389-.007.583-.007a7.179,7.179,0,0,1,1.662.159,4.374,4.374,0,0,0,1,.1c.4,0,.808-.036,1.2-.07l.178-.015a5.931,5.931,0,0,1,1.411.1,6.792,6.792,0,0,0,1.057.11h.55q.876,0,1.75.005c.583,0,1.166,0,1.749,0,.938,0,1.706-.007,2.418-.022Q742.068,123.755,742.365,123.755Zm-.654-.382a3.144,3.144,0,0,1-.521-.041,15.786,15.786,0,0,0-2.672-.186c-.448,0-.9.01-1.344.019s-.9.019-1.348.019c-.73,0-1.327-.026-1.88-.08-.583-.057-1.181-.062-1.76-.064a14.884,14.884,0,0,1-2.277-.131,14.779,14.779,0,0,0-2.352-.142l-.761,0c-.266,0-.533,0-.8-.01s-.548-.017-.823-.029c-.491-.019-1-.039-1.494-.039a11.978,11.978,0,0,0-1.566.09,22.769,22.769,0,0,1-2.968.157c-.346,0-.694,0-1.041-.007-.732-.006-1.463-.014-2.194.012-.808.025-1.064-.212-1.067-1.017,0-.541-.059-1.091-.113-1.623a13.531,13.531,0,0,1-.1-2.124c.049-.877.037-1.774.026-2.642-.005-.388-.01-.776-.01-1.164q0-.4,0-.795c.005-.6.01-1.229-.012-1.841-.014-.353-.053-.716-.092-1.065-.036-.328-.073-.667-.09-1.005a7.778,7.778,0,0,1,.017-.791,4.028,4.028,0,0,0-.05-1.22,7.242,7.242,0,0,1-.151-1.946,11.183,11.183,0,0,0-.022-1.14c-.02-.223-.053-.444-.086-.665-.04-.269-.081-.546-.1-.825l-.012-.179a5.884,5.884,0,0,1,.02-1.427A17.254,17.254,0,0,0,714.217,98a21.186,21.186,0,0,1,.06-2.886,38.66,38.66,0,0,0,.148-4.523c-.008-1.131-.015-2.3.054-3.469l.01-.188.187.024a3.047,3.047,0,0,0,1.018-.1,3.517,3.517,0,0,1,1.174-.1,2.138,2.138,0,0,1,.943-.179c.115,0,.23,0,.345.009a3.779,3.779,0,0,0,.777-.028,13.724,13.724,0,0,1,2.58-.205c.393,0,.786.008,1.179.017.557.012,1.115.024,1.67.011.675-.015,1.408-.022,2.242-.022.8,0,1.594.006,2.392.013l.754.006c.1-.006.187,0,.267-.006s.171-.007.257-.007a1.62,1.62,0,0,1,.865.206c.043.026.291.153.515-.2l.284-.453.04.533c.007.09.015.169.023.242a2.433,2.433,0,0,1,.021.4,8.422,8.422,0,0,0,.112,1.538,7.5,7.5,0,0,1,.094,1.856,1.82,1.82,0,0,1,.169.96,1.709,1.709,0,0,0,.076.665,2.667,2.667,0,0,1,.133,1.176,4.1,4.1,0,0,0,0,.583,1.493,1.493,0,0,0,.1.36,1.693,1.693,0,0,1,.124.551c0,.237.339.275.488.128.294-.29.573-.6.867-.921.13-.143.262-.289.4-.437l.081-.087.111.043a1.24,1.24,0,0,1,.628.745c.04.086.08.172.125.256a.522.522,0,0,0,.42.316.6.6,0,0,0,.386-.183c.177-.163.355-.341.543-.544a.754.754,0,0,0,.108-.211c.076-.191.194-.494.557-.431a1.043,1.043,0,0,1,.529.356,2.077,2.077,0,0,0,.208.194,1.825,1.825,0,0,0,.209.131,1.6,1.6,0,0,1,.342.239c.251.249.43.337.512.337a.938.938,0,0,0,.549-.839,10.44,10.44,0,0,1,.118-1.313,7.564,7.564,0,0,0,.1-1.72,2.45,2.45,0,0,1,.1-.818,2.184,2.184,0,0,0,.1-.763,8.581,8.581,0,0,1-.024-1.176c0-.18.01-.365.01-.555V87.35l4.52,0c1.1,0,2.2,0,3.3-.011h0a2.771,2.771,0,0,1,.3.02,2.394,2.394,0,0,0,.26.019.5.5,0,0,0,.411-.164.26.26,0,0,1,.2-.076.676.676,0,0,1,.164.023c.083.021.167.048.249.076a1.457,1.457,0,0,0,.413.1h0a.8.8,0,0,0,.273-.078,1.488,1.488,0,0,1,.3-.1,2.815,2.815,0,0,1,1.05.083,3.925,3.925,0,0,0,.574.1c.266.016.55.024.894.024.252,0,.505,0,.757-.008l.489-.007h0a7.169,7.169,0,0,1,1.136.113,5.563,5.563,0,0,0,1.314.1,14.708,14.708,0,0,1,2.473.007,2.453,2.453,0,0,1,.4.079,1.356,1.356,0,0,0,.818.02l.235-.085v1.179c0,.063,0,.127,0,.191.054,2.47-.028,4.976-.106,7.4-.07,2.168-.143,4.409-.118,6.615.01.9.067,1.807.123,2.689a36.424,36.424,0,0,1,.1,3.958,6.057,6.057,0,0,1,.2,2.129c-.007.249-.014.5-.009.748.009.443.005.886,0,1.33,0,.526-.008,1.071.009,1.6.017.5.054,1.013.09,1.507s.075,1.028.092,1.544c.02.668.016,1.348.012,2,0,.377,0,.754,0,1.133a.825.825,0,0,0,.039.2c.011.041.023.081.032.123a.568.568,0,0,1-.116.473.384.384,0,0,1-.525.1.619.619,0,0,0-.835.009.806.806,0,0,1-.5.056c-.151-.017-.289-.016-.436-.028a1.081,1.081,0,0,0-.441.019.554.554,0,0,1-.486-.066c-.089-.05-.142-.088-.226-.018a.613.613,0,0,1-.385.109c-.082,0-.171-.008-.259-.016a2.152,2.152,0,0,0-.222-.015h-.069c-.2,0-.4,0-.6-.007s-.4-.006-.6-.006c-.3,0-.547.008-.776.026a7.249,7.249,0,0,1-.735.007c-.114,0-.228,0-.343,0a3.146,3.146,0,0,0-.971.124,2.554,2.554,0,0,1-.777.1c-.177,0-.356-.011-.537-.02a6.112,6.112,0,0,0-.766-.013,3.128,3.128,0,0,0-.5.093,2.6,2.6,0,0,1-.819.1c-.148-.012-.3-.024-.446-.024a1.436,1.436,0,0,0-.749.173.852.852,0,0,1-.493.05,1.662,1.662,0,0,0-.173-.013l-2.227,0c-.465,0-.929,0-1.393.005a7.431,7.431,0,0,0-1.041.111A7.287,7.287,0,0,1,741.71,123.374Zm-3.193-.578a16.183,16.183,0,0,1,2.729.191,2.9,2.9,0,0,0,.464.036,6.9,6.9,0,0,0,1.072-.113,7.7,7.7,0,0,1,1.092-.115c.465,0,.931-.005,1.4-.005l2.227,0c.066,0,.138.007.21.014a.676.676,0,0,0,.282-.005,1.818,1.818,0,0,1,.924-.219c.157,0,.316.011.473.025a2.159,2.159,0,0,0,.709-.094,3.37,3.37,0,0,1,.555-.1,6.223,6.223,0,0,1,.81.012c.174.01.348.019.517.019a2.194,2.194,0,0,0,.67-.085,3.477,3.477,0,0,1,1.077-.142c.118,0,.234,0,.351.005a6.845,6.845,0,0,0,.7-.007c.237-.018.491-.026.8-.026.2,0,.4,0,.6.007s.4.007.6.007h.066c.083,0,.17.007.257.016s.155.014.227.014a.276.276,0,0,0,.163-.03.541.541,0,0,1,.618-.016.383.383,0,0,0,.142.058,1.376,1.376,0,0,1,.646-.055c.147.012.29.012.444.029a.9.9,0,0,0,.272,0,.959.959,0,0,1,1.229,0c0,.006.029-.011.053-.045a.226.226,0,0,0,.039-.17c-.008-.034-.017-.069-.028-.1a1.156,1.156,0,0,1-.052-.29c0-.379,0-.758,0-1.137,0-.653.008-1.329-.013-1.991-.016-.509-.054-1.028-.091-1.53s-.074-1.013-.091-1.521c-.018-.54-.014-1.087-.009-1.618,0-.439.007-.88,0-1.32-.005-.253,0-.509.008-.764a5.621,5.621,0,0,0-.19-2.037l-.011-.032v-.033a35.655,35.655,0,0,0-.1-3.953c-.056-.886-.113-1.8-.123-2.707-.025-2.213.048-4.459.118-6.63.078-2.419.16-4.92.106-7.38,0-.067,0-.134,0-.2v-.7a1.917,1.917,0,0,1-.791-.073,2.187,2.187,0,0,0-.338-.069,14.194,14.194,0,0,0-2.413-.007,5.847,5.847,0,0,1-1.4-.1,6.785,6.785,0,0,0-1.048-.109l-.517.007c-.254,0-.508.008-.763.008-.352,0-.643-.008-.917-.025a4.179,4.179,0,0,1-.626-.1,2.327,2.327,0,0,0-.914-.079,1.18,1.18,0,0,0-.226.076,1.061,1.061,0,0,1-.4.1,1.748,1.748,0,0,1-.53-.115c-.074-.025-.148-.05-.224-.07a.477.477,0,0,0-.056-.01.855.855,0,0,1-.632.24,2.758,2.758,0,0,1-.3-.021,2.388,2.388,0,0,0-.25-.019c-1.107.009-2.207.011-3.306.011l-4.17,0c0,.132-.005.261-.008.388a8.367,8.367,0,0,0,.021,1.128,2.474,2.474,0,0,1-.1.885,2.15,2.15,0,0,0-.094.7,7.842,7.842,0,0,1-.1,1.8,10.093,10.093,0,0,0-.114,1.27,1.3,1.3,0,0,1-.718,1.146c-.231.114-.554-.016-.94-.4a1.3,1.3,0,0,0-.271-.185,2.4,2.4,0,0,1-.246-.156,2.266,2.266,0,0,1-.247-.227.852.852,0,0,0-.338-.257h0c-.073,0-.1.058-.168.216a1.026,1.026,0,0,1-.176.319c-.194.209-.379.393-.564.563a.814.814,0,0,1-1.351-.223c-.048-.089-.093-.184-.136-.277a1.271,1.271,0,0,0-.334-.511c-.1.114-.206.225-.305.336-.3.328-.58.638-.881.934a.664.664,0,0,1-.471.192.583.583,0,0,1-.615-.564,1.355,1.355,0,0,0-.1-.438,1.834,1.834,0,0,1-.116-.444,4.448,4.448,0,0,1,0-.631,2.367,2.367,0,0,0-.108-1.028,2,2,0,0,1-.1-.8,1.434,1.434,0,0,0-.148-.821l-.035-.054.009-.064a6.906,6.906,0,0,0-.086-1.825,8.52,8.52,0,0,1-.114-1.6,1.5,1.5,0,0,0-.008-.221.708.708,0,0,1-.376.109.651.651,0,0,1-.328-.086,1.559,1.559,0,0,0-.929-.151c-.086,0-.171.006-.256.006l-.782-.006c-.8-.006-1.593-.013-2.389-.013-.832,0-1.563.007-2.234.022-.562.012-1.124,0-1.687-.012-.39-.008-.781-.016-1.171-.016a13.387,13.387,0,0,0-2.514.2,4.027,4.027,0,0,1-.856.034c-.11,0-.221-.009-.331-.009a1.769,1.769,0,0,0-.835.166l-.052.027-.059-.01a3.008,3.008,0,0,0-1.1.089,3.958,3.958,0,0,1-.947.118c-.057,1.1-.051,2.2-.043,3.267a38.743,38.743,0,0,1-.15,4.564,20.933,20.933,0,0,0-.058,2.838,17.57,17.57,0,0,1-.154,3.551,5.61,5.61,0,0,0-.016,1.34l.012.18c.016.263.057.535.1.8.035.228.068.457.089.686a11.159,11.159,0,0,1,.023,1.177,6.949,6.949,0,0,0,.141,1.853,4.346,4.346,0,0,1,.06,1.327c-.014.251-.028.51-.017.754.016.327.052.661.087.984.039.356.08.724.093,1.09.023.62.018,1.249.013,1.858,0,.264,0,.527,0,.792,0,.386,0,.773.01,1.159.012.874.023,1.778-.026,2.666a13.2,13.2,0,0,0,.1,2.07c.055.54.112,1.1.114,1.656,0,.61.118.687.705.667.736-.024,1.473-.017,2.208-.01.346,0,.693.007,1.038.007a22.475,22.475,0,0,0,2.923-.155,12.134,12.134,0,0,1,1.612-.093c.5,0,1.013.02,1.507.039.273.01.546.022.819.029s.528.009.791.009h.761a15.032,15.032,0,0,1,2.408.147,14.428,14.428,0,0,0,2.224.125c.586,0,1.192.007,1.792.066.541.054,1.127.078,1.845.078.446,0,.894-.009,1.341-.019S738.067,122.8,738.518,122.8Zm50.546.565a3.407,3.407,0,0,1-.469-.03,28.033,28.033,0,0,0-3.671-.2c-.5,0-1,.006-1.494.012-.856.01-1.711.02-2.565,0l-.042-.006a5.659,5.659,0,0,0-1.505-.167c-.211,0-.422.005-.633.011s-.425.01-.638.01a6.68,6.68,0,0,1-1.132-.08,13.4,13.4,0,0,0-2.281-.147l-.9,0c-.242,0-.485,0-.728-.008-.277-.008-.554-.019-.832-.03-.488-.019-.993-.039-1.485-.039a11.794,11.794,0,0,0-1.566.091,22.605,22.605,0,0,1-2.965.158c-.351,0-.7,0-1.051-.007-.73-.007-1.459-.014-2.188.011-.821.023-1.077-.206-1.079-1.005a14.367,14.367,0,0,0-.113-1.551,12.079,12.079,0,0,1-.1-2c.048-.83.036-1.68.025-2.5-.005-.369-.01-.738-.01-1.106,0-.3,0-.6,0-.9.005-.7.01-1.418-.012-2.124-.011-.36-.052-.729-.092-1.085-.035-.322-.072-.654-.088-.986a7.312,7.312,0,0,1,.017-.792,3.99,3.99,0,0,0-.05-1.218,7.217,7.217,0,0,1-.153-2,10.706,10.706,0,0,0-.02-1.185c-.019-.211-.053-.421-.087-.631-.04-.247-.081-.5-.1-.761l-.006-.091a6.072,6.072,0,0,1,.013-1.415,19.3,19.3,0,0,0,.145-3.577,22.836,22.836,0,0,1,.074-3.083,31.675,31.675,0,0,0,.131-3.818c-.007-1.043-.014-2.122.066-3.2l.012-.163h1.1c.669,0,1.338,0,2.008-.007s1.34-.007,2.01-.007c1.02,0,1.858.008,2.641.026a44.041,44.041,0,0,0,5.473-.243c.278-.027.559-.04.839-.053a8.884,8.884,0,0,0,1.406-.138,9.678,9.678,0,0,1,1.619-.169.475.475,0,0,1,.373.142.411.411,0,0,1,.053.372,1.291,1.291,0,0,0,.085.7,1.993,1.993,0,0,1,.123.65l0,.06c-.012.459-.023.933.007,1.392a3.408,3.408,0,0,0,.091.516,4.163,4.163,0,0,1,.09.472c.008.069.014.137.019.2a1.9,1.9,0,0,0,.138.654,1.445,1.445,0,0,1,.062.73,2.359,2.359,0,0,0-.011.39,11.006,11.006,0,0,0,.194,1.363.3.3,0,0,0,.3.206.246.246,0,0,0,.177-.067c.31-.306.606-.631.919-.975.139-.152.28-.307.427-.467l.152-.164.123.187c.056.085.115.171.175.26.148.218.3.442.441.682.1.164.249.359.442.359a.61.61,0,0,0,.4-.217c.057-.056.115-.11.172-.165a1.75,1.75,0,0,0,.5-.649c.11-.3.292-.362.425-.362a.721.721,0,0,1,.447.207c.274.23.6.5.948.751.042.03.086.065.132.1a1.38,1.38,0,0,0,.384.241.835.835,0,0,0,.491-.7A3.674,3.674,0,0,1,786.986,93a2.849,2.849,0,0,0,.1-1.032,4.2,4.2,0,0,1,.091-1.39,4.561,4.561,0,0,0,.109-1.088l0-.067.041-.053a1.079,1.079,0,0,0,.157-.767,2.9,2.9,0,0,1,.008-.432,4.952,4.952,0,0,1,.208-.927.5.5,0,0,1,.428-.275l.044,0a4.5,4.5,0,0,0,1.381-.1,5.457,5.457,0,0,1,1.264-.121c.473.027.948.021,1.423.014.4-.006.81-.01,1.214,0a9.1,9.1,0,0,1,.911.095c.254.035.517.071.774.086.052,0,.106,0,.16,0h0c.15,0,.3-.009.453-.019s.315-.02.469-.02a2.092,2.092,0,0,1,.613.078,4.593,4.593,0,0,0,1.346.163c.147,0,.295,0,.442-.006s.3-.005.448-.005h.089q1.684.015,3.374.013l4.491,0v.175q0,.675,0,1.344c.006,1.134.012,2.307-.024,3.456a2.638,2.638,0,0,0,.11.725,3.4,3.4,0,0,1,.115.648,2.859,2.859,0,0,1-.018.437,1.022,1.022,0,0,0,.156.848.324.324,0,0,1,.052.27c0,.015,0,.031,0,.044a12.6,12.6,0,0,0,.11,1.864,11.378,11.378,0,0,1,.1,2.174,11.814,11.814,0,0,0-.016,1.2c.007.311.014.631,0,.949-.018.455-.06.913-.1,1.356a16.154,16.154,0,0,0-.1,2.17c.037.866.029,1.746.02,2.6,0,.377-.008.754-.008,1.13v3.621c0,.369-.005.737-.011,1.106-.012.823-.026,1.673.029,2.5.021.33.048.661.076.991a20.2,20.2,0,0,1,.1,2.626,3.694,3.694,0,0,1,.2,1.735,5.864,5.864,0,0,0,.015,1.054l.029.209-.21-.01a28.766,28.766,0,0,0-3.242.1c-.816.057-1.662.117-2.494.117-.357,0-.686-.011-1.005-.032a2.065,2.065,0,0,0-.359,0c-.177.02-.353.047-.53.072-.314.047-.64.094-.966.115a4.769,4.769,0,0,1-.616-.016c-.141-.009-.281-.02-.417-.02a1.414,1.414,0,0,0-.474.066,3.069,3.069,0,0,1-1.033.131,3.485,3.485,0,0,0-.678.048,11.458,11.458,0,0,1-2.342.2c-.346,0-.693-.007-1.039-.015-.685-.016-1.394-.023-1.948.008a2.266,2.266,0,0,0-.438.087,2.858,2.858,0,0,1-.454.094A5.146,5.146,0,0,1,789.063,123.361Zm-4.14-.581a28.136,28.136,0,0,1,3.717.2,3.987,3.987,0,0,0,.936,0,2.533,2.533,0,0,0,.4-.085,2.554,2.554,0,0,1,.507-.1c.564-.033,1.282-.024,1.976-.009.344.007.688.015,1.031.015a11.132,11.132,0,0,0,2.27-.195,3.8,3.8,0,0,1,.747-.057,2.755,2.755,0,0,0,.92-.111,1.759,1.759,0,0,1,.59-.085c.144,0,.293.01.441.02a4.3,4.3,0,0,0,.569.016c.311-.019.63-.066.938-.111.179-.027.359-.052.539-.074a2.491,2.491,0,0,1,.423,0c.313.021.634.032.983.032.82,0,1.659-.059,2.469-.116a30.516,30.516,0,0,1,3.078-.111,7.637,7.637,0,0,1,0-.91,3.308,3.308,0,0,0-.185-1.612l-.019-.04,0-.043a19.733,19.733,0,0,0-.1-2.621c-.028-.333-.055-.665-.077-1-.054-.844-.041-1.7-.029-2.531.005-.368.011-.734.011-1.1v-3.621c0-.378,0-.755.008-1.133.009-.846.018-1.721-.02-2.578a16.549,16.549,0,0,1,.1-2.216c.041-.439.082-.892.1-1.338.012-.307.006-.623,0-.928a12.2,12.2,0,0,1,.017-1.231A11.145,11.145,0,0,0,807.175,97a12.779,12.779,0,0,1-.112-1.915c0-.023,0-.049.007-.075,0-.01,0-.019,0-.028a1.364,1.364,0,0,1-.213-1.077,2.776,2.776,0,0,0,.018-.385,3.188,3.188,0,0,0-.107-.583,2.965,2.965,0,0,1-.119-.82c.036-1.142.03-2.312.024-3.443,0-.389,0-.778-.005-1.17l-4.14,0c-1.13,0-2.253,0-3.378-.013h-.085c-.147,0-.294,0-.442.005s-.3.006-.449.006a4.917,4.917,0,0,1-1.447-.178,1.762,1.762,0,0,0-.512-.063c-.146,0-.3.01-.446.019s-.318.02-.475.02h0c-.061,0-.121,0-.18,0-.271-.016-.54-.053-.8-.09a8.776,8.776,0,0,0-.875-.091c-.4-.014-.8-.009-1.2,0-.483.006-.966.012-1.447-.015a5.107,5.107,0,0,0-1.184.117,4.93,4.93,0,0,1-1.492.1.251.251,0,0,0-.1.053,4.95,4.95,0,0,0-.184.839,2.711,2.711,0,0,0,0,.38,1.467,1.467,0,0,1-.192.941,5.092,5.092,0,0,1-.117,1.108,3.884,3.884,0,0,0-.089,1.276,3.162,3.162,0,0,1-.105,1.159,3.376,3.376,0,0,0-.118.929,1.166,1.166,0,0,1-.734,1.052c-.2.073-.464-.112-.7-.3-.043-.033-.085-.065-.123-.093-.356-.258-.689-.532-.968-.767-.137-.115-.2-.124-.221-.124-.034,0-.072.07-.1.134a2.053,2.053,0,0,1-.593.782c-.055.051-.109.1-.162.156a.934.934,0,0,1-.649.32.876.876,0,0,1-.744-.533c-.134-.229-.283-.449-.428-.662l-.052-.078c-.094.1-.185.2-.274.3-.317.348-.615.676-.932.989a.6.6,0,0,1-.424.168.644.644,0,0,1-.641-.483,11.842,11.842,0,0,1-.2-1.408,2.706,2.706,0,0,1,.012-.449,1.191,1.191,0,0,0-.032-.555,2.2,2.2,0,0,1-.168-.769c-.006-.064-.011-.129-.02-.194a3.926,3.926,0,0,0-.083-.434,3.717,3.717,0,0,1-.1-.571c-.031-.475-.018-.957-.007-1.424l0-.06a1.7,1.7,0,0,0-.107-.538,1.582,1.582,0,0,1-.089-.888.169.169,0,0,0,.006-.075c0,.005-.02,0-.065,0a9.4,9.4,0,0,0-1.576.161,9.317,9.317,0,0,1-1.462.145c-.274.013-.548.025-.821.051-1.757.171-3.294.255-4.7.255q-.407,0-.815-.01c-.78-.018-1.615-.027-2.633-.027-.67,0-1.338,0-2.008.007s-1.34.007-2.01.007h-.776c-.066,1.014-.06,2.029-.054,3.013a31.981,31.981,0,0,1-.133,3.86A22.379,22.379,0,0,0,761.557,98a19.563,19.563,0,0,1-.15,3.642,5.837,5.837,0,0,0-.008,1.334l.006.092c.017.242.057.489.095.728.034.218.07.436.09.655a11.21,11.21,0,0,1,.022,1.224,6.94,6.94,0,0,0,.141,1.9,4.285,4.285,0,0,1,.061,1.328,7.4,7.4,0,0,0-.018.755c.016.319.052.647.087.964.04.362.081.738.094,1.111.023.713.018,1.437.012,2.138,0,.3,0,.6,0,.9,0,.367.005.734.01,1.1.011.829.023,1.685-.026,2.529a11.756,11.756,0,0,0,.1,1.942,14.669,14.669,0,0,1,.115,1.588c0,.61.109.678.716.654.734-.024,1.468-.017,2.2-.009.349,0,.7.007,1.048.007a22.45,22.45,0,0,0,2.919-.156,12.1,12.1,0,0,1,1.612-.094c.5,0,1.007.02,1.5.039.276.01.553.022.828.029q.36.009.719.009l.9,0a13.755,13.755,0,0,1,2.339.152,6.322,6.322,0,0,0,1.074.076c.209,0,.42-.006.629-.011s.429-.011.642-.011a6.062,6.062,0,0,1,1.577.174c.843.019,1.687.009,2.531,0C783.925,122.785,784.424,122.78,784.923,122.78Zm23.6-.746-.033-.393c-.032-.367-.071-.727-.11-1.085a18.7,18.7,0,0,1-.161-2.506,9.085,9.085,0,0,0-.1-1.323,7.692,7.692,0,0,1-.084-1.7,6.485,6.485,0,0,1-.15-3.192,23.108,23.108,0,0,0,.137-3.638c-.01-.7-.022-1.426.006-2.141,0-.1.012-.2.022-.3a1.474,1.474,0,0,0-.17-1.07.285.285,0,0,1-.036-.218l.2-1.3a1.807,1.807,0,0,0,0-.4,1.281,1.281,0,0,1,.165-.894.314.314,0,0,0,.028-.167c0-.309.014-.62.026-.932a10.087,10.087,0,0,0-.063-2.161,12.548,12.548,0,0,1-.139-2.112l0-.388a8.757,8.757,0,0,0-.18-1.455l-.019-.1a2.914,2.914,0,0,1-.027-.588,1.564,1.564,0,0,0-.135-.853,1.032,1.032,0,0,1-.061-.619,1.684,1.684,0,0,0,.013-.318,3.413,3.413,0,0,1,.006-.585,1.549,1.549,0,0,0-.161-1.021.608.608,0,0,1-.007-.564,2.508,2.508,0,0,0,.173-1.51c-.011-.125-.021-.25-.028-.373a2.514,2.514,0,0,1,1.3-2.323c1.159-.817,2.289-1.623,3.368-2.491,1.107-.89,2.255-1.705,3.232-2.385.6-.42,1.225-.83,1.828-1.228.683-.451,1.391-.918,2.071-1.4a5.627,5.627,0,0,0,.579-.5,5.235,5.235,0,0,1,.731-.61c.78-.506.951-.6,1.078-.6a.2.2,0,0,1,.2.178,9.75,9.75,0,0,1,.075,1.166l0,1.844c0,3.823.009,7.776-.008,11.665,0,.463-.046.929-.088,1.38-.039.421-.08.856-.085,1.281a6.635,6.635,0,0,0,.089.993c.035.253.071.513.086.774a5.867,5.867,0,0,1-.016.686,3.018,3.018,0,0,0,.049,1.026,4.152,4.152,0,0,1,.13,1.19,4.883,4.883,0,0,0,.052.81c.05.28.085.559.122.839a10.841,10.841,0,0,0,.21,1.253,4.827,4.827,0,0,1,.066,1.394c-.009.2-.019.4-.018.593v.083l-.066.054c-.175.143-.168.318-.14.592a2.505,2.505,0,0,1,.016.27c-.017,1.183-.017,2.365,0,3.518a2.5,2.5,0,0,1-.016.27c-.026.274-.034.45.139.609a.573.573,0,0,1,.041.584,2.7,2.7,0,0,0-.171,1.286c.005.175.01.35,0,.524a.509.509,0,0,1-.385.549,1.7,1.7,0,0,0-.57.519c-.046.054-.09.108-.135.16A8.915,8.915,0,0,1,819.839,114c-.294.211-.6.43-.877.664a15.441,15.441,0,0,1-1.6,1.119c-.233.147-.466.3-.7.45-.109.072-.216.147-.323.223a8.473,8.473,0,0,1-.848.541,16.86,16.86,0,0,0-2.776,1.973c-.145.12-.289.246-.432.371a5.727,5.727,0,0,1-1.849,1.229,3.068,3.068,0,0,1-.853.617,3.089,3.089,0,0,0-.785.555Zm-.331-17.52a1.829,1.829,0,0,1,.208,1.267c-.008.1-.017.193-.02.288-.028.707-.016,1.427-.006,2.124a23.336,23.336,0,0,1-.14,3.693,6.117,6.117,0,0,0,.146,3.056l.015.039,0,.042a7.265,7.265,0,0,0,.078,1.661,9.308,9.308,0,0,1,.1,1.376,18.3,18.3,0,0,0,.159,2.46c.027.245.054.493.078.742a4.851,4.851,0,0,1,.6-.376,2.69,2.69,0,0,0,.788-.575l.033-.038.047-.016a5.318,5.318,0,0,0,1.773-1.176c.147-.128.293-.256.441-.377a17.114,17.114,0,0,1,2.834-2.011,8.4,8.4,0,0,0,.812-.521q.163-.115.328-.226c.232-.156.467-.3.7-.455a15.069,15.069,0,0,0,1.567-1.091c.289-.242.6-.465.9-.679a8.757,8.757,0,0,0,1.507-1.27l.129-.154a1.933,1.933,0,0,1,.711-.621c.156-.061.156-.068.163-.236s0-.333,0-.5a3,3,0,0,1,.206-1.449.363.363,0,0,0,.019-.2.94.94,0,0,1-.232-.877,2.246,2.246,0,0,0,.014-.232c-.017-1.157-.017-2.343,0-3.529a1.925,1.925,0,0,0-.015-.231.945.945,0,0,1,.2-.84c0-.176.01-.354.019-.532a4.508,4.508,0,0,0-.057-1.291,11.194,11.194,0,0,1-.218-1.3c-.035-.275-.07-.548-.119-.82a5.157,5.157,0,0,1-.057-.869,3.852,3.852,0,0,0-.115-1.094,3.283,3.283,0,0,1-.062-1.148,5.4,5.4,0,0,0,.015-.644c-.013-.247-.048-.5-.083-.744a7.025,7.025,0,0,1-.092-1.047c.006-.438.047-.881.088-1.309.042-.443.084-.9.086-1.349.016-3.887.012-7.84.008-11.663l0-1.845a9.2,9.2,0,0,0-.051-.926c-.193.109-.523.323-.763.479a5,5,0,0,0-.683.571,5.788,5.788,0,0,1-.617.531c-.684.483-1.393.952-2.08,1.4-.6.4-1.221.806-1.82,1.223-.972.677-2.114,1.488-3.212,2.37s-2.223,1.683-3.387,2.5a2.168,2.168,0,0,0-1.153,2.018c.006.119.016.24.027.361a2.808,2.808,0,0,1-.217,1.711.3.3,0,0,0-.006.2A1.871,1.871,0,0,1,808,91.616a3.226,3.226,0,0,0-.007.527,1.916,1.916,0,0,1-.013.388.823.823,0,0,0,.017.412,1.89,1.89,0,0,1,.181,1.034,2.452,2.452,0,0,0,.02.517l.018.1a9.045,9.045,0,0,1,.187,1.512l0,.39a12.2,12.2,0,0,0,.133,2.053,10.453,10.453,0,0,1,.07,2.237c-.013.307-.025.614-.026.919a.632.632,0,0,1-.091.366.959.959,0,0,0-.1.667,2.125,2.125,0,0,1,0,.477Zm-27.867-10.5-.056-.378a50.317,50.317,0,0,1-.643-6.307l0-.18h.18c.1,0,.2,0,.3-.006a3.8,3.8,0,0,1,.617.014,3.229,3.229,0,0,0,.427.027,7.706,7.706,0,0,0,1.173-.121,7.137,7.137,0,0,1,1.43-.12c.346.018.72.026,1.175.026.3,0,.616,0,.933-.007.334,0,.678-.007,1.032-.007h.2l-.1.776c-.048.363-.095.706-.138,1.05-.018.151-.039.3-.06.453a11.279,11.279,0,0,0-.124,1.207,3.009,3.009,0,0,1-.124.689,1.954,1.954,0,0,0-.095.854,2.831,2.831,0,0,1-.285,1.691l-.1.233-.536-.535c-.294-.292-.585-.581-.869-.874-.067-.07-.094-.07-.107-.07a.606.606,0,0,0-.181.056,1.515,1.515,0,0,0-.7.761,3.3,3.3,0,0,1-.319.492c-.061.089-.14.2-.279.2a.312.312,0,0,1-.265-.191c-.114-.2-.231-.4-.348-.606l-.151-.26c-.019-.032-.035-.064-.052-.1l-.036-.066c-.128-.232-.235-.349-.318-.349-.051,0-.148.038-.324.216-.231.234-.445.488-.673.758-.1.123-.211.25-.323.379Zm1.57-1.993c.294,0,.48.268.625.53l.039.072c.015.028.03.057.046.085l.15.258q.16.273.317.548h0a3.042,3.042,0,0,0,.285-.443,1.836,1.836,0,0,1,.872-.911.815.815,0,0,1,.316-.083.493.493,0,0,1,.359.176c.283.292.571.578.864.869l.171.171a2.253,2.253,0,0,0,.162-1.247,2.248,2.248,0,0,1,.1-1.006,2.745,2.745,0,0,0,.112-.611,11.627,11.627,0,0,1,.127-1.245c.021-.149.041-.3.06-.447.043-.345.089-.689.138-1.053l.05-.378c-.282,0-.558,0-.828.008-.319,0-.63.007-.937.007-.463,0-.842-.008-1.193-.026a6.752,6.752,0,0,0-1.359.116,6.279,6.279,0,0,1-1.7.095,3.417,3.417,0,0,0-.56-.011l-.131,0a48.7,48.7,0,0,0,.579,5.7l.07-.083c.232-.275.451-.534.691-.778A.839.839,0,0,1,781.9,92.026Zm-42.77,1.948-.583-.583c-.306-.3-.59-.587-.87-.873-.069-.07-.1-.076-.136-.076a.709.709,0,0,0-.174.033c-.253.07-.366.26-.5.479a1.477,1.477,0,0,1-.392.483.426.426,0,0,1-.017.072.622.622,0,0,1-.095.215l-.027.035a.335.335,0,0,1-.261.182c-.19,0-.266-.215-.294-.3a3.731,3.731,0,0,0-.385-.722c-.059-.094-.118-.187-.173-.282-.19-.325-.374-.328-.638-.057-.233.239-.455.5-.67.755q-.145.174-.295.346l-.216.249-.086-.319a9.4,9.4,0,0,1-.233-1.434c-.023-.211-.046-.422-.076-.631l-.019-.136a10.048,10.048,0,0,1-.138-1.478,3.624,3.624,0,0,0-.107-.768,3.439,3.439,0,0,1-.109-1.027,6.786,6.786,0,0,0-.035-1.167c-.018-.209-.036-.417-.045-.625a.6.6,0,0,1,.134-.4,6.986,6.986,0,0,1,1.341-1.127c.247-.174.5-.355.738-.547a8.992,8.992,0,0,1,1-.68c.232-.143.472-.291.694-.45.454-.324.9-.659,1.346-.994.324-.243.649-.487.976-.726a.739.739,0,0,1,.432-.117c.243,0,.249.419.249.424,0,.365,0,.73,0,1.094,0,.667-.007,1.357.014,2.034l.008.293a8.057,8.057,0,0,0,.2,1.926,3.194,3.194,0,0,1-.032,2.11l0,.043a.927.927,0,0,1,0,.1l-.051.877c-.044.778-.09,1.583-.153,2.374a3.8,3.8,0,0,1-.154.714c-.034.116-.069.239-.1.37Zm-4.208-1.938a.719.719,0,0,1,.605.429c.053.091.11.182.167.273a4.255,4.255,0,0,1,.4.75c.009-.022.018-.052.024-.075a.446.446,0,0,1,.15-.261,1.185,1.185,0,0,0,.3-.378,1.182,1.182,0,0,1,.706-.639,1,1,0,0,1,.266-.045.515.515,0,0,1,.386.181c.28.285.563.567.867.87l.148.149.025-.086a3.374,3.374,0,0,0,.143-.645c.064-.787.109-1.59.153-2.366l.05-.877a.3.3,0,0,0,0-.048.432.432,0,0,1,.017-.2,2.864,2.864,0,0,0,.022-1.891,8.35,8.35,0,0,1-.215-2.011l-.008-.291c-.021-.683-.018-1.376-.014-2.047,0-.363,0-.726,0-1.09a.306.306,0,0,0-.009-.066.276.276,0,0,0-.114.04c-.325.238-.649.481-.971.724-.449.337-.9.673-1.353,1-.232.166-.477.317-.714.463a8.788,8.788,0,0,0-.96.652c-.245.2-.505.385-.758.564a6.615,6.615,0,0,0-1.278,1.069.258.258,0,0,0-.048.153c.008.2.026.405.044.608a7.213,7.213,0,0,1,.035,1.228,3.118,3.118,0,0,0,.1.924,3.959,3.959,0,0,1,.115.842,9.539,9.539,0,0,0,.134,1.427l.019.136c.03.213.053.427.077.642.038.346.077.7.147,1.049l.067-.08c.218-.258.444-.526.686-.774A.85.85,0,0,1,734.921,92.037ZM767.3,87.318a6.44,6.44,0,0,1-.778-.044,22.3,22.3,0,0,0-2.641-.131c-.406,0-.814.005-1.219.01s-.815.011-1.221.011c-.914,0-1.615-.029-2.274-.091-.576-.055-1.167-.057-1.738-.061a14.578,14.578,0,0,1-2.3-.132,14.08,14.08,0,0,0-2.29-.142l-.82,0c-.269,0-.537,0-.807-.01s-.524-.019-.786-.029c-.5-.02-1.017-.04-1.522-.04a11.79,11.79,0,0,0-1.575.091,22.311,22.311,0,0,1-2.932.157c-.36,0-.721,0-1.08-.007-.764-.008-1.527-.016-2.291.012h-.053a.883.883,0,0,1-.655-.241.842.842,0,0,1-.216-.63,12.476,12.476,0,0,0-.111-1.741,12.837,12.837,0,0,1-.113-1.8c.061-2.043.038-4.126.015-6.139l-.006-.51a10.943,10.943,0,0,0-.091-1.119c-.037-.309-.073-.629-.088-.947-.013-.277,0-.559.016-.83a4.607,4.607,0,0,0-.049-1.284,8.508,8.508,0,0,1-.152-2.082c0-.394.009-.8-.023-1.2-.018-.221-.054-.447-.089-.667s-.078-.478-.1-.723l0-.048a5.808,5.808,0,0,1,.01-1.361,20.394,20.394,0,0,0,.157-3.712,25.148,25.148,0,0,1,.066-3.046c.1-1.006.119-2.025.134-3.011q.007-.406.015-.814c.02-.881.015-1.78.01-2.649,0-.389,0-.778,0-1.168v-.142l1.494-.312a1.782,1.782,0,0,1,.527,0,2.56,2.56,0,0,0,.261.019.527.527,0,0,0,.417-.16.349.349,0,0,1,.3-.059,4.963,4.963,0,0,0,.615.037,12,12,0,0,0,1.454-.119,12.338,12.338,0,0,1,1.5-.123h.082c1.011.014,2.022.017,3.033.017l3.2,0q.947,0,1.895,0a3.362,3.362,0,0,0,.456-.014c.148-.007.3-.015.446-.015a2.329,2.329,0,0,1,1.061.217.793.793,0,0,0,.337-.052,3.009,3.009,0,0,1,.3-.072l.234-.039-.03.235a7.688,7.688,0,0,0,.091,2,11.4,11.4,0,0,1,.133,1.557,6.1,6.1,0,0,0,.312,2.046,1.814,1.814,0,0,1,.039.849,2.926,2.926,0,0,0,.106,1.062c.041.185.084.377.108.572.037.295.323.358.546.134.29-.291.565-.6.856-.929.131-.147.265-.3.4-.454l.154-.17.3.465c.147.225.3.459.443.7.217.372.508.446.788.185a3.2,3.2,0,0,0,.8-.964.445.445,0,0,1,.395-.283.484.484,0,0,1,.358.179,4.352,4.352,0,0,0,1.361,1.03.926.926,0,0,1,.118.068.535.535,0,0,0,.061.036c0-.005.02-.02.048-.054a1.653,1.653,0,0,0,.454-1.068,5.7,5.7,0,0,1,.094-.773c.036-.214.07-.417.084-.622a5.18,5.18,0,0,0-.006-.579,3.626,3.626,0,0,1,.033-.909l.038-.179a11.9,11.9,0,0,0,.344-2.562,1.77,1.77,0,0,1,.159-.645l.045-.118a.435.435,0,0,1,.358-.249l.037,0a4.7,4.7,0,0,0,1.409-.091A5.842,5.842,0,0,1,769,50.728c.647.028,1.3.025,1.943,0a11.969,11.969,0,0,1,1.8.114,10.132,10.132,0,0,0,2.123.086l.035,0,.034.011a5.776,5.776,0,0,0,1.683.207c.241,0,.482-.007.723-.014.331-.009.662-.019.991-.011.812.019,1.626.014,2.439.01q.541,0,1.081,0h3.438V51.3q0,.671,0,1.332c0,1.133.008,2.2-.013,3.3a5.415,5.415,0,0,0,.14,1.15q.03.151.057.3a2.507,2.507,0,0,1,.015.578,1.192,1.192,0,0,0,.151.836.336.336,0,0,1,.043.255c0,.015,0,.031,0,.045a15.986,15.986,0,0,0,.112,1.864,13.269,13.269,0,0,1,.09,2.375,7.921,7.921,0,0,0-.006.816,7.9,7.9,0,0,1-.006.847c-.253,3.214-.221,6.489-.19,9.656.016,1.65.033,3.356.009,5.035a6.364,6.364,0,0,0,.09.983c.037.256.075.52.089.784a6.184,6.184,0,0,1-.018.721,3.132,3.132,0,0,0,.049,1.087,5.328,5.328,0,0,1,.155,1.633,7.246,7.246,0,0,0,.06,1.231l.034.2h-.206c-.111,0-.216,0-.317.005a4.352,4.352,0,0,1-.614-.011,7.913,7.913,0,0,0-1.826.086,10.719,10.719,0,0,1-1.368.117c-.348,0-.663-.013-.977-.024-.35-.012-.7-.024-1.046-.024a8.98,8.98,0,0,0-1.308.081,10.524,10.524,0,0,1-1.226.082,8.577,8.577,0,0,0-1.329.1,6.512,6.512,0,0,1-.957.084,5.149,5.149,0,0,0-1.008.1,7.6,7.6,0,0,1-1.8.18c-.253,0-.507-.006-.758-.012-.472-.011-.943-.023-1.415.007-.34.021-.681.057-1.022.091A16.443,16.443,0,0,1,767.3,87.318Zm-3.419-.526a22.6,22.6,0,0,1,2.682.133,11.56,11.56,0,0,0,2.372-.071c.346-.036.691-.071,1.036-.093.481-.03.963-.019,1.445-.007.25.006.5.012.75.012a7.263,7.263,0,0,0,1.712-.17,5.427,5.427,0,0,1,1.077-.114,6.23,6.23,0,0,0,.907-.079,8.886,8.886,0,0,1,1.383-.11,10.277,10.277,0,0,0,1.186-.078,9.347,9.347,0,0,1,1.358-.085c.351,0,.7.012,1.058.024.312.011.624.021.934.023h0a10.433,10.433,0,0,0,1.354-.114,8.253,8.253,0,0,1,1.912-.087,4.055,4.055,0,0,0,.564.009l.125,0a8.594,8.594,0,0,1-.037-1.09,5.022,5.022,0,0,0-.14-1.528,3.43,3.43,0,0,1-.064-1.211,5.925,5.925,0,0,0,.018-.68c-.014-.248-.05-.5-.086-.753a6.74,6.74,0,0,1-.093-1.038c.024-1.674.006-3.378-.01-5.026-.031-3.175-.063-6.458.19-9.687a7.8,7.8,0,0,0,.006-.81,8.027,8.027,0,0,1,.007-.854,13.04,13.04,0,0,0-.09-2.311,16.758,16.758,0,0,1-.114-1.905.762.762,0,0,1,.007-.081c0-.01,0-.021,0-.031a1.542,1.542,0,0,1-.2-1.036,2.181,2.181,0,0,0-.01-.5c-.018-.1-.037-.2-.056-.3a5.768,5.768,0,0,1-.146-1.223c.021-1.09.017-2.159.013-3.29q0-.575,0-1.157h-3.087c-.359,0-.719,0-1.079,0-.816,0-1.634.009-2.45-.01-.322-.007-.646,0-.971.011-.244.007-.489.014-.733.014a6.151,6.151,0,0,1-1.751-.212,10.626,10.626,0,0,1-2.165-.09,11.869,11.869,0,0,0-1.745-.113c-.656.024-1.315.027-1.971,0a5.539,5.539,0,0,0-1.161.114,5.1,5.1,0,0,1-1.518.093c.016,0-.013.023-.021.034l-.04.109a1.5,1.5,0,0,0-.135.515,12.334,12.334,0,0,1-.352,2.638l-.037.178a3.3,3.3,0,0,0-.026.821,5.643,5.643,0,0,1,.005.619c-.015.223-.052.443-.088.657a5.169,5.169,0,0,0-.089.725,2.039,2.039,0,0,1-.533,1.281.442.442,0,0,1-.321.184.452.452,0,0,1-.251-.095.658.658,0,0,0-.076-.045,4.682,4.682,0,0,1-1.471-1.11c-.1-.106-.136-.071-.176.014a3.458,3.458,0,0,1-.87,1.061.806.806,0,0,1-1.343-.252c-.138-.236-.288-.464-.433-.684l-.055-.083-.251.282c-.294.332-.573.645-.87.943a.774.774,0,0,1-.54.246.615.615,0,0,1-.6-.584c-.023-.179-.062-.354-.1-.54a3.278,3.278,0,0,1-.111-1.188,1.477,1.477,0,0,0-.024-.684,6.5,6.5,0,0,1-.331-2.163,11.158,11.158,0,0,0-.129-1.508,9.128,9.128,0,0,1-.116-1.843l-.037.01a.87.87,0,0,1-.588.028,1.993,1.993,0,0,0-.9-.18c-.143,0-.285.007-.428.014s-.3.015-.444.015c-.663,0-1.294-.005-1.925-.005l-3.2,0c-1.012,0-2.024,0-3.037-.017h-.078a12.1,12.1,0,0,0-1.46.119,9.354,9.354,0,0,1-2.119.087l-.041-.005-.042-.006a.886.886,0,0,1-.63.229,2.807,2.807,0,0,1-.3-.021,1.465,1.465,0,0,0-.416,0l-1.215.254c0,.341,0,.683,0,1.024,0,.871.009,1.772-.01,2.658-.006.271-.01.541-.014.812-.016.993-.032,2.02-.137,3.042a24.86,24.86,0,0,0-.065,3,20.635,20.635,0,0,1-.161,3.777,5.592,5.592,0,0,0-.006,1.278l0,.049c.017.229.054.465.091.692s.074.46.092.7c.033.412.028.829.024,1.23a8.282,8.282,0,0,0,.143,2,4.913,4.913,0,0,1,.057,1.383c-.014.264-.028.536-.016.8.014.306.051.62.086.923a11.065,11.065,0,0,1,.094,1.156l.006.51c.022,2.017.046,4.1-.015,6.154a12.618,12.618,0,0,0,.111,1.753,12.691,12.691,0,0,1,.113,1.79.5.5,0,0,0,.116.376.566.566,0,0,0,.4.134h.04c.769-.029,1.539-.021,2.307-.013.359,0,.717.008,1.077.008a21.917,21.917,0,0,0,2.886-.155,12.263,12.263,0,0,1,1.621-.094c.512,0,1.033.021,1.536.041.261.01.522.021.782.028s.531.01.8.01l.82,0a14.4,14.4,0,0,1,2.346.147,14.384,14.384,0,0,0,2.247.128c.579,0,1.178.005,1.77.062.647.062,1.339.09,2.24.09.4,0,.81-.005,1.216-.011S763.476,86.792,763.884,86.792Zm36.378-.063a10.72,10.72,0,0,1-1.384-.12,7.723,7.723,0,0,0-1.88-.083l-.045.005-.043-.018a3.107,3.107,0,0,0-1.186-.189c-.155,0-.309,0-.465.009a7.784,7.784,0,0,1-.958-.01,2.431,2.431,0,0,0-.447.014c-.119.011-.238.021-.355.021a1.173,1.173,0,0,1-.752-.236.786.786,0,0,1-.592.23c-.084,0-.168-.008-.252-.016s-.145-.014-.215-.014h-.039c-.265.012-.532.009-.8,0-.287,0-.575-.008-.861.009s-.568.059-.846.1c-.21.031-.422.062-.632.083a4.852,4.852,0,0,1-.574.01c-.111,0-.235,0-.377,0h-.44l.32-.3a6.937,6.937,0,0,1,.83-.669l.031-.022c.366-.262.751-.507,1.123-.743a17.893,17.893,0,0,0,1.482-1.014c.529-.416,1.056-.853,1.565-1.275.912-.756,1.856-1.538,2.849-2.235.373-.261.753-.51,1.133-.758.411-.269.836-.546,1.24-.834.194-.139.392-.277.589-.415.58-.408,1.181-.829,1.742-1.279a1.559,1.559,0,0,1,.98-.4l.065,0c.432.021.877.032,1.36.032,1.143,0,2.306-.061,3.43-.119,1.416-.075,2.882-.151,4.326-.108.291.009.585,0,.877,0,.394-.006.79-.011,1.183.014a3.679,3.679,0,0,0,.926-.1,6.132,6.132,0,0,1,.634-.1,4.451,4.451,0,0,1,.653.011,2.6,2.6,0,0,0,.865-.04A4.363,4.363,0,0,1,816.659,76c.146,0,.294,0,.441.006a9.133,9.133,0,0,0,.924-.011q1.232-.1,2.465-.195c.05,0,.1,0,.163,0h.139l.3,0h.526l-.421.316c-.381.286-.745.563-1.1.833-.778.591-1.514,1.15-2.262,1.688-.666.48-1.357.949-2.024,1.4-.367.249-.734.5-1.1.751-.488.338-.928.644-1.353.965-.371.281-.749.554-1.128.826-.543.391-1.1.8-1.628,1.215-.355.285-.734.548-1.1.8a11.32,11.32,0,0,0-1.786,1.427,1.6,1.6,0,0,1-1.323.5c-.109-.008-.219,0-.328,0s-.238.005-.357,0c-.3-.02-.607-.03-.94-.03-.818,0-1.65.062-2.455.12-.618.045-1.258.093-1.89.112Zm-2.721-.588a10.693,10.693,0,0,1,1.383.12,9.424,9.424,0,0,0,1.489.114c.625-.019,1.261-.066,1.875-.111.811-.06,1.65-.121,2.48-.121.341,0,.657.01.964.03.108.008.216,0,.325,0s.242-.006.36,0a1.243,1.243,0,0,0,1.046-.4,11.648,11.648,0,0,1,1.839-1.473c.361-.251.735-.511,1.081-.788.53-.426,1.1-.833,1.642-1.226.376-.27.753-.542,1.121-.821.431-.326.874-.634,1.366-.974.365-.253.733-.5,1.1-.752.665-.452,1.354-.92,2.017-1.4.745-.537,1.478-1.094,2.256-1.683l.686-.52-.056,0q-1.23.094-2.463.195a9.446,9.446,0,0,1-.96.012c-.145,0-.289-.006-.434-.006a4.069,4.069,0,0,0-1.235.155,1.828,1.828,0,0,1-.563.076c-.141,0-.286-.01-.431-.019a4.125,4.125,0,0,0-.6-.012,5.692,5.692,0,0,0-.595.093,4.022,4.022,0,0,1-1.015.1c-.384-.024-.77-.018-1.156-.013-.3,0-.6.008-.893,0-1.431-.043-2.887.033-4.3.108-1.129.059-2.3.12-3.448.12-.488,0-.939-.011-1.379-.033H801a1.219,1.219,0,0,0-.76.326c-.57.457-1.175.882-1.76,1.293q-.294.206-.587.413c-.41.292-.838.572-1.252.842-.376.246-.753.493-1.123.752-.982.688-1.92,1.465-2.827,2.218-.512.424-1.041.862-1.573,1.28-.486.382-1.006.713-1.511,1.034-.367.234-.747.475-1.107.732l-.031.023c-.15.107-.3.211-.455.341a4.007,4.007,0,0,0,.458-.01c.206-.021.412-.051.617-.081.286-.042.581-.085.877-.1s.59-.014.886-.01c.26,0,.521.007.778,0h.055c.082,0,.165.008.25.016s.146.015.218.015a.432.432,0,0,0,.36-.145.32.32,0,0,1,.236-.088.3.3,0,0,1,.19.061.8.8,0,0,0,.557.179c.107,0,.216-.01.324-.02a2.774,2.774,0,0,1,.512-.014,7.518,7.518,0,0,0,.915.009c.159,0,.318-.01.476-.01a3.457,3.457,0,0,1,1.275.2A4.541,4.541,0,0,1,797.541,86.141Zm-80.246,0h0a.767.767,0,0,1-.481-.177L716.6,85.8l.849-.459c.447-.243.886-.481,1.329-.711,1.191-.621,2.355-1.236,3.492-1.931a22.5,22.5,0,0,1,2.157-1.114c.337-.158.673-.317,1.005-.483.126-.063.253-.125.38-.188.38-.185.772-.377,1.137-.6.294-.175.583-.372.864-.562s.6-.4.911-.59A1.722,1.722,0,0,1,729.2,79a1.471,1.471,0,0,0,.377-.126c.371-.213.759-.4,1.133-.585.3-.146.6-.291.887-.449.346-.186.69-.391,1.023-.588.289-.171.577-.342.869-.5a1.33,1.33,0,0,1,.611-.158c.434,0,.87-.005,1.305-.005h.617c.532,0,1.064,0,1.595-.009h.219a.891.891,0,0,0,.44-.088.89.89,0,0,1,.4-.112c.278,0,.576.2.583.757.007.626.006,1.254.006,1.881q0,.575,0,1.151a.52.52,0,0,1-.3.474c-.528.366-1.055.756-1.564,1.134-.741.548-1.506,1.115-2.295,1.623-.357.23-.7.5-1.032.757a8.827,8.827,0,0,1-1.805,1.185.5.5,0,0,0-.09.046,1.669,1.669,0,0,0-.112.175c-.1.17-.2.346-.382.358l-.191.013c-.242.018-.49.035-.737.035a3.028,3.028,0,0,1-.863-.106,3.012,3.012,0,0,0-.857-.1c-.117,0-.233,0-.349.006a6.9,6.9,0,0,1-.774-.011.817.817,0,0,1-.591.217,2.726,2.726,0,0,1-.289-.021,2.287,2.287,0,0,0-.245-.019c-.972.03-1.862.032-2.777,0a8.558,8.558,0,0,1-.986-.108,5.545,5.545,0,0,0-1.447-.085l-.248.032c-.5.065-1.024.132-1.541.161-.317.017-.634.013-.951.01-.271,0-.541-.007-.81,0a.927.927,0,0,0-.286.083A1.216,1.216,0,0,1,717.3,86.143Zm18.114-9.21c-.434,0-.868,0-1.3,0a.973.973,0,0,0-.443.114c-.29.161-.575.33-.86.5-.336.2-.684.406-1.036.6-.295.16-.6.308-.9.455-.37.18-.752.367-1.114.574a1.73,1.73,0,0,1-.467.163,1.445,1.445,0,0,0-.383.13c-.3.18-.6.383-.893.578s-.579.392-.881.573c-.377.225-.777.421-1.163.609l-.378.186c-.335.167-.673.327-1.012.487a22.182,22.182,0,0,0-2.124,1.1c-1.146.7-2.316,1.319-3.513,1.943-.44.229-.877.467-1.323.708l-.251.137a1.277,1.277,0,0,0,.256-.083,1.188,1.188,0,0,1,.4-.108c.275-.011.552-.008.829,0,.309,0,.619.008.927-.009.5-.028,1.018-.094,1.515-.158l.249-.032a5.932,5.932,0,0,1,1.544.085,8.221,8.221,0,0,0,.945.1q1.362.043,2.725,0h.041a2.634,2.634,0,0,1,.283.02,2.359,2.359,0,0,0,.251.019.459.459,0,0,0,.39-.163l.061-.072.093.012a6.017,6.017,0,0,0,.812.018c.119,0,.238-.006.358-.006a3.375,3.375,0,0,1,.955.116,2.7,2.7,0,0,0,.764.091c.233,0,.477-.017.712-.034l.194-.014a1.876,1.876,0,0,1,.1-.185,1.827,1.827,0,0,1,.142-.218.507.507,0,0,1,.207-.139,8.465,8.465,0,0,0,1.744-1.147c.339-.264.688-.537,1.058-.775.779-.5,1.54-1.066,2.276-1.611.511-.379,1.041-.771,1.573-1.14.149-.1.149-.108.149-.185,0-.384,0-.768,0-1.153,0-.625,0-1.251-.005-1.876,0-.153-.035-.41-.233-.41a.555.555,0,0,0-.243.073,1.245,1.245,0,0,1-.6.127l-.176,0h-.038c-.533.007-1.067.009-1.6.009Zm51.374,8.982-.029-.341c-.03-.358-.07-.713-.109-1.067a18.629,18.629,0,0,1-.16-2.486,9.144,9.144,0,0,0-.1-1.323A7.72,7.72,0,0,1,786.3,79a6.58,6.58,0,0,1-.151-3.19,25.035,25.035,0,0,0,.138-3.719c-.009-.707-.019-1.438.008-2.16,0-.09.01-.182.018-.274a1.37,1.37,0,0,0-.167-1,.269.269,0,0,1-.037-.218l.2-1.3a1.814,1.814,0,0,0,0-.4,1.283,1.283,0,0,1,.164-.893.324.324,0,0,0,.029-.168c0-.309.014-.622.028-.934a9.9,9.9,0,0,0-.066-2.157,11.891,11.891,0,0,1-.137-2.158c0-.147,0-.294,0-.441a6.272,6.272,0,0,0-.137-1.078c-.023-.127-.047-.253-.068-.381a3.025,3.025,0,0,1-.022-.573,1.6,1.6,0,0,0-.138-.866,1.032,1.032,0,0,1-.061-.617,1.7,1.7,0,0,0,.013-.319,3.564,3.564,0,0,1,.006-.587,1.546,1.546,0,0,0-.159-1.02.615.615,0,0,1-.007-.566,2.509,2.509,0,0,0,.173-1.508c-.011-.126-.021-.251-.028-.374a2.511,2.511,0,0,1,1.3-2.324c1.1-.77,2.258-1.6,3.369-2.49,1.138-.914,2.325-1.755,3.232-2.386.605-.421,1.231-.834,1.835-1.232.682-.45,1.387-.915,2.063-1.393a5.263,5.263,0,0,0,.578-.5,5.1,5.1,0,0,1,.734-.611c.792-.511.953-.6,1.079-.6h.156l.045.176a10.036,10.036,0,0,1,.076,1.165l0,1.741c0,3.857.009,7.845-.008,11.768,0,.463-.046.93-.087,1.382-.039.42-.081.855-.086,1.28a6.544,6.544,0,0,0,.089,1c.035.251.071.512.086.772a5.958,5.958,0,0,1-.016.685,3.011,3.011,0,0,0,.048,1.026,4.165,4.165,0,0,1,.13,1.193,4.819,4.819,0,0,0,.052.808c.049.278.085.556.12.836a11.072,11.072,0,0,0,.21,1.258,4.822,4.822,0,0,1,.067,1.391c-.01.2-.019.4-.018.595v.083l-.064.053c-.175.145-.168.322-.141.6a2.452,2.452,0,0,1,.016.267c-.018,1.218-.017,2.4,0,3.519a2.47,2.47,0,0,1-.015.269c-.026.274-.032.45.138.616a.658.658,0,0,1,.028.69,1.71,1.71,0,0,0-.163,1.114c.011.158.024.321.02.484a.718.718,0,0,1-.413.658c-.777.53-1.529,1.068-2.258,1.588-.618.442-1.236.884-1.862,1.316l-.315.218a16.433,16.433,0,0,0-2.195,1.7,4.24,4.24,0,0,1-.74.537c-.163.1-.332.207-.484.322-.229.175-.453.368-.67.555-.187.161-.373.322-.566.474q-.223.178-.444.356a17.32,17.32,0,0,1-2.12,1.536,11.444,11.444,0,0,0-1.664,1.114Zm-.323-17.43a1.725,1.725,0,0,1,.206,1.2c-.006.087-.014.174-.016.259-.027.712-.017,1.439-.008,2.142a25.26,25.26,0,0,1-.142,3.771,6.215,6.215,0,0,0,.147,3.057l.015.039-.005.042a7.3,7.3,0,0,0,.079,1.662,9.214,9.214,0,0,1,.1,1.375A18.077,18.077,0,0,0,787,84.469c.027.248.054.5.079.747a13.332,13.332,0,0,1,1.456-.941,17.072,17.072,0,0,0,2.076-1.506c.148-.119.3-.239.447-.357.189-.15.372-.308.555-.465.22-.19.449-.387.686-.569.165-.125.341-.235.512-.341a3.9,3.9,0,0,0,.68-.491,16.842,16.842,0,0,1,2.241-1.735l.314-.216c.623-.431,1.241-.872,1.857-1.313.73-.522,1.485-1.062,2.239-1.576.225-.153.278-.189.284-.394a4.423,4.423,0,0,0-.019-.45,2.012,2.012,0,0,1,.217-1.329.411.411,0,0,0,.015-.261.978.978,0,0,1-.234-.888c.007-.078.014-.156.014-.232-.018-1.12-.018-2.308,0-3.528a1.994,1.994,0,0,0-.014-.229.957.957,0,0,1,.2-.842c0-.177.01-.356.019-.536a4.5,4.5,0,0,0-.057-1.29,11.284,11.284,0,0,1-.218-1.3c-.035-.274-.07-.547-.119-.819a5.324,5.324,0,0,1-.057-.867,3.828,3.828,0,0,0-.115-1.095,3.3,3.3,0,0,1-.062-1.149,5.576,5.576,0,0,0,.015-.644c-.014-.245-.048-.5-.083-.742a6.883,6.883,0,0,1-.092-1.049c.005-.438.047-.88.086-1.307.042-.444.085-.9.086-1.351.017-3.922.012-7.909.008-11.765l0-1.741c0-.285-.018-.588-.051-.923-.194.109-.524.322-.764.477a4.9,4.9,0,0,0-.683.572,5.659,5.659,0,0,1-.616.529c-.681.482-1.388.948-2.072,1.4-.6.4-1.226.809-1.828,1.228-.9.628-2.082,1.465-3.212,2.372s-2.287,1.73-3.387,2.5a2.165,2.165,0,0,0-1.151,2.019c.006.119.016.24.027.362a2.811,2.811,0,0,1-.217,1.711.3.3,0,0,0-.006.2,1.867,1.867,0,0,1,.217,1.237,3.241,3.241,0,0,0-.007.529,2.023,2.023,0,0,1-.013.388.811.811,0,0,0,.018.412,1.916,1.916,0,0,1,.182,1.047,2.706,2.706,0,0,0,.018.507c.021.125.044.25.067.374a6.533,6.533,0,0,1,.142,1.139c0,.148,0,.3,0,.444a11.642,11.642,0,0,0,.132,2.1,10.2,10.2,0,0,1,.07,2.235c-.013.308-.026.616-.027.922a.634.634,0,0,1-.093.366.971.971,0,0,0-.1.667,2.105,2.105,0,0,1,0,.477ZM758.6,58.18l-.032-.512a4.524,4.524,0,0,0-.144-.815,3.359,3.359,0,0,1-.137-.99,3.818,3.818,0,0,0-.1-.873c-.03-.161-.06-.322-.08-.483a4.073,4.073,0,0,1-.023-.487,2.127,2.127,0,0,0-.13-.864,1.755,1.755,0,0,1-.067-.85,2.928,2.928,0,0,0,.015-.465,3.62,3.62,0,0,1,.012-.557,1.737,1.737,0,0,0-.091-.905.49.49,0,0,1,.133-.466,8.465,8.465,0,0,1,1.733-1.357,17.586,17.586,0,0,0,1.95-1.368c.911-.746,1.9-1.41,2.85-2.052l.032-.021a6.262,6.262,0,0,1,.9-.5,15.808,15.808,0,0,0,2.223-1.338c.434-.294.882-.6,1.342-.872.147-.087.289-.183.431-.279a6.534,6.534,0,0,1,.667-.41c.57-.292,1.124-.638,1.66-.972.227-.142.453-.283.682-.421a.531.531,0,0,1,.683-.017.653.653,0,0,0,.3.045h.105l.271,0c.146,0,.291,0,.438,0,.367,0,.737-.008,1.105.013.265.014.528.055.782.094.232.035.472.071.705.087.318.022.639.017,1,.011.177,0,.365,0,.567,0h.683l-.6.329a39.786,39.786,0,0,0-5.052,3.229c-.214.163-.422.331-.632.5-.415.333-.845.678-1.3.978a13.156,13.156,0,0,0-1.807,1.492,11.7,11.7,0,0,1-1.322,1.03c-.185.13-.369.26-.549.393a.355.355,0,0,1-.158.06l-.164.137c-.669.605-1.363,1.231-2.032,1.859a.5.5,0,0,0-.133.29,8.583,8.583,0,0,1-.177,1.323,8.889,8.889,0,0,0-.17,1.512c-.015.275-.03.551-.059.824a5.3,5.3,0,0,1-.092.541,4.633,4.633,0,0,0-.091.55,4.865,4.865,0,0,0-.006.536,4.485,4.485,0,0,1-.014.642,2.261,2.261,0,0,1-.175.587c-.034.088-.07.178-.1.275l-.091.266-.554-.553c-.294-.292-.583-.579-.867-.871-.071-.074-.1-.074-.115-.074a.586.586,0,0,0-.175.05,1.467,1.467,0,0,0-.691.749,3.137,3.137,0,0,1-.332.51c-.062.088-.141.2-.278.2a.314.314,0,0,1-.264-.186c-.058-.1-.12-.194-.183-.29s-.142-.22-.208-.334c-.181-.315-.429-.746-.566-.746s-.457.356-.687.616a3.478,3.478,0,0,0-.323.455c-.064.1-.133.207-.214.326Zm1.512-2.172c.324,0,.532.333.871.922.062.109.13.213.2.318.053.081.1.163.155.245l.006-.008a2.8,2.8,0,0,0,.294-.454,1.785,1.785,0,0,1,.865-.9.833.833,0,0,1,.307-.077.509.509,0,0,1,.368.181c.282.29.57.577.862.867l.162.162.012-.031a2.039,2.039,0,0,0,.153-.5,4.3,4.3,0,0,0,.011-.594,5.168,5.168,0,0,1,.007-.574,4.911,4.911,0,0,1,.1-.591,5.029,5.029,0,0,0,.087-.506c.027-.268.042-.538.057-.808a9.162,9.162,0,0,1,.178-1.572,8.363,8.363,0,0,0,.17-1.27.848.848,0,0,1,.243-.519c.671-.63,1.365-1.257,2.037-1.863l.166-.149a.33.33,0,0,1,.171-.073c.194-.132.38-.263.567-.394a11.489,11.489,0,0,0,1.283-1,13.542,13.542,0,0,1,1.856-1.531c.445-.291.867-.63,1.276-.958.212-.17.424-.34.64-.5a38.419,38.419,0,0,1,4.493-2.921c-.326,0-.617.005-.907-.014-.248-.017-.5-.055-.735-.091s-.5-.076-.749-.09c-.36-.02-.721-.016-1.083-.012-.147,0-.293,0-.441,0l-.271,0h-.105a.849.849,0,0,1-.5-.113.239.239,0,0,0-.112-.056.532.532,0,0,0-.173.084c-.235.143-.461.284-.686.424-.542.339-1.1.689-1.687.987a6.06,6.06,0,0,0-.63.389c-.147.1-.3.2-.448.289-.45.268-.9.569-1.323.861a16.155,16.155,0,0,1-2.274,1.367,6.025,6.025,0,0,0-.852.471l-.032.021c-.946.638-1.924,1.3-2.823,2.032a17.942,17.942,0,0,1-1.988,1.4,8.1,8.1,0,0,0-1.663,1.3.323.323,0,0,0-.057.1,2.07,2.07,0,0,1,.11,1.053,3.384,3.384,0,0,0-.011.5,3.287,3.287,0,0,1-.015.521,1.48,1.48,0,0,0,.038.68,2.443,2.443,0,0,1,.159,1,4,4,0,0,0,.02.447c.019.154.047.308.076.461a4.108,4.108,0,0,1,.1.955,3.11,3.11,0,0,0,.128.889c.031.128.062.259.09.395a3.474,3.474,0,0,1,.307-.424C759.606,56.243,759.844,56.007,760.114,56.007Zm19.086-5.3c-.237,0-.476-.008-.713-.016l-.341-.01a6.367,6.367,0,0,1-.833-.095c-.217-.034-.441-.07-.659-.084a3.938,3.938,0,0,0-.54.014c-.14.01-.281.02-.417.02a1.633,1.633,0,0,1-.545-.079,3.934,3.934,0,0,0-1.384-.145c-.25,0-.5.006-.751-.014-.147-.012-.294-.015-.44-.015l-.487,0a3.6,3.6,0,0,1-1.2-.161.914.914,0,0,0-1.006.1l-.051.051-.382,0c-.647.006-1.293.012-1.938.012h-.092a.3.3,0,0,1-.208-.1.28.28,0,0,1-.087-.2c.01-.162.055-.364.212-.408a1.784,1.784,0,0,0,.722-.507,2.841,2.841,0,0,1,.584-.475,4.293,4.293,0,0,0,.785-.624c.163-.151.331-.306.511-.445.379-.293.765-.578,1.151-.863.6-.447,1.229-.909,1.817-1.392s1.162-.914,1.8-1.357l.458-.318a19.88,19.88,0,0,1,2.748-1.7,6.618,6.618,0,0,0,1.37-.814,2.214,2.214,0,0,1,1.583-.543c1.271.045,2.563-.031,3.814-.1.991-.058,2.016-.119,3.027-.119.425,0,.817.01,1.2.032.255.013.511.012.765,0,.385-.018.772-.025,1.159-.033a17.578,17.578,0,0,0,2.74-.2,12.153,12.153,0,0,1,2.136-.135c.314,0,.629,0,.943-.014a5.462,5.462,0,0,0,.814-.116,3.938,3.938,0,0,1,1.393-.09,1.052,1.052,0,0,0,.222,0c.061,0,.131,0,.214,0h.489l-.377.311a51.288,51.288,0,0,1-5.349,3.912c-.556.35-1.087.752-1.6,1.141-.312.237-.625.474-.946.7-.427.3-.847.614-1.267.925-.45.333-.9.666-1.357.989-.359.254-.718.531-1.066.8-.265.2-.53.409-.8.607-.214.157-.422.335-.623.507-.18.153-.359.307-.546.45a1.606,1.606,0,0,1-1,.393h-.041c-.774-.023-1.576-.032-2.236,0-.253.012-.506.009-.758,0-.118,0-.237,0-.356,0a4.889,4.889,0,0,0-1.057.093A5.59,5.59,0,0,1,779.2,50.709Zm-2.689-.561q.083,0,.166.005c.234.015.466.053.691.088a6,6,0,0,0,.787.09l.344.01c.233.008.469.016.7.016a5.246,5.246,0,0,0,1.131-.1,5.265,5.265,0,0,1,1.132-.1c.12,0,.241,0,.36,0,.245,0,.49.007.736,0,.671-.033,1.479-.024,2.263,0h0a1.3,1.3,0,0,0,.817-.32c.182-.139.356-.288.531-.437.206-.176.419-.359.644-.523.267-.2.53-.4.792-.6.351-.27.713-.55,1.078-.808.455-.322.9-.653,1.351-.985.422-.313.844-.625,1.273-.929.317-.226.627-.46.937-.7.52-.394,1.057-.8,1.626-1.159a49.87,49.87,0,0,0,4.936-3.579l-.01,0a3.582,3.582,0,0,0-1.264.088,5.719,5.719,0,0,1-.867.123c-.32.013-.639.014-.958.015a11.846,11.846,0,0,0-2.075.129,17.857,17.857,0,0,1-2.8.2c-.384.008-.768.015-1.15.033-.266.012-.534.014-.8,0-.375-.021-.761-.031-1.18-.031-1,0-2.02.06-3.007.118-1.258.075-2.562.152-3.847.1l-.095,0a1.836,1.836,0,0,0-1.25.464,6.9,6.9,0,0,1-1.445.861,19.639,19.639,0,0,0-2.7,1.673l-.459.319c-.633.437-1.215.876-1.78,1.339-.6.489-1.224.953-1.831,1.4-.384.284-.767.567-1.145.858-.168.129-.33.279-.487.424a4.658,4.658,0,0,1-.85.672,2.507,2.507,0,0,0-.512.421,2.179,2.179,0,0,1-.812.574c0,.012-.006.026-.009.042h.029c.645,0,1.289-.006,1.935-.012l.242,0a1.276,1.276,0,0,1,1.314-.135,3.2,3.2,0,0,0,1.083.142l.487,0c.156,0,.313,0,.469.016.239.019.479.016.717.013a4.246,4.246,0,0,1,1.5.165,2.324,2.324,0,0,0,.823.04C776.229,50.158,776.372,50.148,776.51,50.148Zm-33.784-.013a1.381,1.381,0,0,1-.6-.2l-.274-.156.862-.471c.436-.24.873-.481,1.315-.71,1.314-.682,2.406-1.257,3.5-1.926a22.486,22.486,0,0,1,2.163-1.12c.335-.159.669-.317,1-.483.155-.078.317-.148.479-.219a3.686,3.686,0,0,0,1-.559,3.686,3.686,0,0,1,.9-.545,2.953,2.953,0,0,0,.9-.574.986.986,0,0,1,.542-.229,1.234,1.234,0,0,0,.339-.1c.372-.214.76-.4,1.136-.587.3-.145.595-.29.887-.449.344-.186.688-.39,1.021-.588.289-.171.578-.343.872-.507a1.326,1.326,0,0,1,.61-.158c.345,0,.688,0,1.033,0h.911c.46,0,.921,0,1.381-.009h0a2.483,2.483,0,0,1,.272.018c.076.007.152.016.227.016a.427.427,0,0,0,.367-.155.373.373,0,0,1,.389-.052,2.714,2.714,0,0,0,1.373.034,4.123,4.123,0,0,1,1.062-.069,10.783,10.783,0,0,0,1.137.054c.465,0,.941-.021,1.4-.042l.075,0a2.825,2.825,0,0,0,.487-.08,2.379,2.379,0,0,1,1.28,0l.348.117-.31.2c-.292.184-.577.361-.857.536-.618.383-1.2.744-1.768,1.138a40.918,40.918,0,0,1-3.715,2.209l-.308.169a12.022,12.022,0,0,0-1.512,1.048c-.194.15-.388.3-.584.445q-.536.393-1.066.794c-.417.313-.833.625-1.253.931-.156.114-.32.219-.484.324a5.5,5.5,0,0,0-.712.509,3.577,3.577,0,0,1-.978.631c-.015.007-.031.016-.047.024a.636.636,0,0,1-.141.062.319.319,0,0,0-.046.122.425.425,0,0,1-.422.4h0l-.048,0c-.214-.017-.428-.025-.643-.033a10.409,10.409,0,0,1-1.086-.081,7.913,7.913,0,0,0-1.118-.1,3.712,3.712,0,0,0-.977.12,6.719,6.719,0,0,1-1.463.067c-1.186,0-2.779-.05-3.113-.08a14.541,14.541,0,0,0-2.452,0,2.1,2.1,0,0,0-.244.043,2.166,2.166,0,0,1-.4.059c-.13,0-.26,0-.39,0l-.658,0c-.171,0-.343,0-.514.008h-.054c-.061,0-.122,0-.182-.007a.689.689,0,0,0-.565.133A.39.39,0,0,1,742.726,50.135Zm-.115-.368a.449.449,0,0,0,.155.012.879.879,0,0,1,.634-.228c.061,0,.123,0,.183.007s.109.006.163.006h.041c.176-.007.351-.008.527-.008l.658,0c.128,0,.255,0,.382,0a1.887,1.887,0,0,0,.332-.051,2.307,2.307,0,0,1,.289-.049,14.867,14.867,0,0,1,2.512,0c.29.026,1.825.079,3.081.079a7.826,7.826,0,0,0,1.372-.056,4.076,4.076,0,0,1,1.067-.132,8.28,8.28,0,0,1,1.168.1,10.278,10.278,0,0,0,1.049.078c.219.009.439.017.657.034.069,0,.071,0,.1-.128a.441.441,0,0,1,.3-.379.385.385,0,0,0,.062-.03c.025-.014.05-.027.076-.038a3.229,3.229,0,0,0,.883-.571,5.929,5.929,0,0,1,.757-.543c.157-.1.315-.2.466-.311.419-.306.834-.617,1.249-.929q.533-.4,1.07-.8c.194-.143.386-.291.578-.439a12.285,12.285,0,0,1,1.558-1.079l.309-.169a40.623,40.623,0,0,0,3.683-2.189c.574-.4,1.161-.763,1.783-1.148l.475-.294a2.691,2.691,0,0,0-.674.09,3.188,3.188,0,0,1-.548.089l-.074,0c-.464.021-.943.042-1.416.042a11.123,11.123,0,0,1-1.174-.056,3.747,3.747,0,0,0-.972.067,5.286,5.286,0,0,1-.8.081,2.017,2.017,0,0,1-.758-.137.131.131,0,0,0-.028-.006.779.779,0,0,1-.6.238,2.594,2.594,0,0,1-.263-.018c-.074-.007-.147-.015-.22-.015-.474.008-.937.009-1.4.009H760.4c-.343,0-.685,0-1.028,0a.984.984,0,0,0-.444.114c-.291.162-.578.332-.864.5-.336.2-.682.4-1.033.595-.3.16-.6.308-.9.455-.37.18-.752.368-1.114.575a1.469,1.469,0,0,1-.443.142.758.758,0,0,0-.359.128,3.274,3.274,0,0,1-1,.647,3.372,3.372,0,0,0-.815.49,3.98,3.98,0,0,1-1.091.619c-.156.068-.313.137-.462.212-.333.167-.67.327-1.008.486a22.3,22.3,0,0,0-2.129,1.1c-1.1.675-2.2,1.252-3.518,1.938-.44.228-.874.467-1.308.706Z" transform="translate(-713.219 -38.762)"/></g></g><text class="f" transform="translate(664 693)"><tspan x="0" y="0"></tspan></text></g></svg>