<svg xmlns="http://www.w3.org/2000/svg" width="223" height="223" viewBox="0 0 223 223"><defs><style>.a{fill:#eae8e6;}.b{fill:#333;}.b,.c,.d,.e{fill-rule:evenodd;}.c{fill:#b3b3b3;}.e{fill:#fff;}.f{fill:#72665a;font-size:20px;font-family:YuGothicUI-Bold, Yu Gothic UI;font-weight:700;}</style></defs><g transform="translate(-369 -519)"><rect class="a" width="223" height="223" transform="translate(369 519)"/><g transform="translate(350.599 484.414)"><path class="b" d="M169.891,154.542c-3.693.051-7.388.04-11.078.177-2.764.1-5.468-.582-8.245-.382-2.795.2-5.61.114-8.417.154s-5.613.125-8.42.105c-2.321-.017-4.555.73-6.9.592a27.712,27.712,0,0,0-6.851.138c-3.054.594-6.091.347-9.131.476-3.025.128-6.056.144-9.084.127-1.123-.006-2.242-.3-3.368-.359a10.536,10.536,0,0,0-3.527.088c-2.3.716-4.618.4-6.918.441-1.4.024-2.8-.458-4.255-.355a39.81,39.81,0,0,1-4.208.057c-.757-.026-1.506-.356-2.261-.364-.8-.008-1.522-.312-2.264-.388-1.3-.132-1.4-1.287-2.053-1.961a.611.611,0,0,1,.008-.578c.856-1.184,1.132-2.671,2.259-3.75a43.883,43.883,0,0,0,5.578-7.015,10.506,10.506,0,0,1,1.069-1.12,15.323,15.323,0,0,0,1.739-2.161c.58-.9.93-2.136,2.246-2.385,1.8-2,3.959-3.679,5.4-6,.11-.178.347-.357.334-.52-.136-1.659.262-3.35-.309-4.988-.137-.393-.332-.931-.173-1.232.7-1.323.346-2.705.336-4.05q-.067-9.085-.246-18.17c-.075-3.935.537-7.84.32-11.79-.219-3.979-.105-7.975-.239-11.961a2.274,2.274,0,0,1,.978-1.822c.125-.125.5-.218.57-.146.821.843,1.82.31,2.724.364,2.671.159,5.346.3,8.02.331a55.032,55.032,0,0,0,8.189-.164,102.621,102.621,0,0,1,11.562-.534c3.84-.1,7.726.228,11.51-.261,4.6-.593,9.191-.338,13.782-.519,1.632-.065,3.276.275,4.918.327,1.622.051,3.317-.327,4.856.026,1.746.4,3.494-.023,5.146.346,2.469.553,4.917.164,7.367.3a7.7,7.7,0,0,1,2.231.471,1.113,1.113,0,0,1,.678,1.026c.094,1.567.37,3.121.467,4.688.1,1.546.06,3.1.082,4.651.024,1.624.1,3.25.05,4.874a26.649,26.649,0,0,1-.382,2.7c-.121.9.294,1.851-.375,2.729-.212.276-.022.86-.016,1.3.03,2.142-.037,4.29.111,6.424.336,4.829-.491,9.627-.259,14.448-.727,2.273-.267,4.606-.349,6.913a4.025,4.025,0,0,0,.83,3.067c.737,1.186,1.665,2.222,2.427,3.4,1.73,2.666,2.944,5.584,4.478,8.339.907,1.628,1.8,3.247,2.869,4.789a24.77,24.77,0,0,1,2.409,4.526,2.658,2.658,0,0,1-.529,3.176,3.7,3.7,0,0,1-2.834,1.25C178.458,154.37,174.174,154.481,169.891,154.542Zm-7.385-23.707a2.9,2.9,0,0,0-.6-.12c-4.433.056-8.865.165-13.3.17-4.373,0-8.758.468-13.119-.244q-18.393.26-36.786.526a3.9,3.9,0,0,0-1.7.188,1.823,1.823,0,0,1-1.994.019,1.928,1.928,0,0,0-1.452-.064c-.3.114-.392.7-.646,1.022a35.089,35.089,0,0,1-2.468,2.977,15.421,15.421,0,0,1-2.543,2.318,12.319,12.319,0,0,0-2.355,2.757c-1.54,1.885-3.089,3.763-4.616,5.659-.394.49-.686,1.062-1.087,1.545-1.058,1.277-2.162,2.517-3.221,3.794a1.176,1.176,0,0,0-.247.767c.016.21.3.6.384.576,1.259-.3,2.378.45,3.6.429,4.727-.085,9.455-.142,14.182-.209s9.458-.052,14.182-.224c4.664-.169,9.331.143,14-.539,3.116-.456,6.342-.134,9.517-.222,3.118-.086,6.228-.189,9.349-.46a45.685,45.685,0,0,1,10.684.1c2.6.384,5.307-.051,7.966-.014,2.675.036,5.347.242,8.023.3,1.919.042,3.841-.041,5.761-.068,2.511-.036,5.024-.051,7.534-.117a1.113,1.113,0,0,0,1.121-1.6,16.018,16.018,0,0,0-1.8-3.443,15.661,15.661,0,0,1-2.268-3.946,39.2,39.2,0,0,0-2.007-3.373c-.324-.591-.3-1.438-.724-1.9a11.549,11.549,0,0,1-2-3.393c-.6-1.38-1.7-2.373-2.451-3.624a1.512,1.512,0,0,0-1.689-.717c-1.224.241-2.451.468-3.9.743a4.363,4.363,0,0,0,.815.184,5.484,5.484,0,0,1,4.015,1.59c2.037,1.858,3.094,4.3,4.341,6.625a9.1,9.1,0,0,1,.514,2.451.994.994,0,0,1-.749,1.169,19.087,19.087,0,0,1-2.46.505c-.614.116-1.311-.232-1.846.409a.836.836,0,0,1-.824.051c-.766-.727-1.669-.31-2.5-.372a11.646,11.646,0,0,0-2.213.033c-.757.087-1.5.409-2.251.438-2.214.09-4.433.145-6.647.1-2.157-.047-4.313.333-6.487-.279a9.323,9.323,0,0,0-3.526.022c-1.146.139-2.28-1.024-3.412.01a.441.441,0,0,1-.426.006c-.9-.772-1.955-.367-2.934-.376-2.29-.02-4.579.068-6.869.074-2.243.006-4.408.692-6.682.583-2.651-.128-5.316.03-7.976.078-.755.014-.818.163-.452.895a4.734,4.734,0,0,1,.469.911c.36,1.477,1.311,2.8,1.157,4.412-.067.7-.731,1.757-1.324,1.735a30.237,30.237,0,0,0-3.8.49c-4.816.413-9.619-.556-14.447-.228a1.763,1.763,0,0,1-1.633-2.417,23.27,23.27,0,0,1,2.761-3.741c.3-.351,1.015-.355,1.544-.505.265-.076.539-.122.808-.183-.017-.091-.033-.183-.05-.274l-5.716.081c-1.477.021-2.957.1-4.431.047-1.495-.054-2.984-.244-4.477-.362-1.822-.144-2.84-1.66-1.942-3.052a13.618,13.618,0,0,1,3.265-3.657c1.276-.952,2.306-2.231,3.5-3.306.461-.416.311-.923.477-1.364a1.25,1.25,0,0,1,1.23-.712c3.264-.1,6.544.18,9.791-.522a24.273,24.273,0,0,1,3.537-.1c1.157-.073,2.183.508,3.371.45,3.392-.166,6.8-.076,10.191-.2,3.411-.127,6.828.177,10.236-.52,2.417-.5,4.9.183,7.348.266,2.213.076,4.431-.04,6.647-.071s4.44-.189,6.646-.059,4.286-.616,6.46-.58A11.253,11.253,0,0,0,162.505,130.835Zm-68.3-1.81c2.23-.132,4.278.186,6.234-.549,6.806-.259,13.628.118,20.425-.686,2.7-.32,5.464-.062,8.194-.18,2.763-.118,5.5.305,8.244.3,8.865-.012,17.73-.252,26.594-.3a40.216,40.216,0,0,0,5.123-.592,1.378,1.378,0,0,0,.924-.94c.086-1.353.158-2.685.37-4.041.307-1.975.01-3.995.339-6.032.388-2.4.1-4.884.33-7.352a77.536,77.536,0,0,0-.074-10.185c-.134-3.352.616-6.657.353-10.021-.2-2.5-.1-5.02-.138-7.533-.011-.72-.02-1.441-.03-2.108-1.42-.178-2.676-.41-3.942-.478-1.325-.07-2.658.018-3.988.037-.148,0-.334.064-.438,0a4.323,4.323,0,0,0-2.929-.371,19.9,19.9,0,0,1-2.928-.4c-3.412-.131-6.826.306-10.246-.276-1.5-.257-3.1.112-4.643-.014s-2.958.529-4.466.544c-3.989.041-7.981.036-11.966.184-4,.149-8.038-.341-12,.593-4.15-.179-8.293.455-12.466-.2-2.288-.358-4.688,0-7.073.031-.028.311-.064.52-.061.728.077,5.688.243,11.376.215,17.065-.028,5.628.332,11.242-.084,16.894C93.7,118.349,94.134,123.612,94.21,129.025Zm14.272,20.621c2.353-.033,4.707-.091,7.061-.084.646,0,.81-.313.657-.79a7.138,7.138,0,0,0-1.083-2.614c-.548-.607-1.414.193-2.143.289-2.059.266-4.135.4-6.207.553a16.846,16.846,0,0,1-2.645.029,2.423,2.423,0,0,0-2.447,1.051c-.122.18-.328.3-.451.482-.193.282-.347.592-.519.889a3.348,3.348,0,0,0,.934.277C103.921,149.722,106.2,149.678,108.482,149.645ZM107.2,139.022c.657-.01,1.319.027,1.968-.048a1.991,1.991,0,0,0,.9-.446.657.657,0,0,0,.2-.546.558.558,0,0,0-.436-.313c-1.24-.008-2.482-.008-3.721.058a1.84,1.84,0,0,0-.9.444.659.659,0,0,0-.2.546.57.57,0,0,0,.437.314C106.034,139.061,106.618,139.03,107.2,139.022Zm-13.277,1.961c-.986.014-2.121.362-2.814-.045-.854-.5-1.134-.19-1.584.307a7.357,7.357,0,0,0-.994,1.144,28.579,28.579,0,0,1,3.58-.019C93.182,142.5,93.581,141.969,93.926,140.983Zm64.977-.475c.659-.009,1.318,0,1.975-.044a.723.723,0,0,0,.431-.338.406.406,0,0,0-.08-.386c-.264-.219-.561-.544-.856-.557-1.168-.049-2.341-.015-3.51.049-.151.008-.368.35-.4.562-.054.328-.115.759.466.743C157.586,140.519,158.244,140.516,158.9,140.507Zm-45.939,3.662c.007-.117.013-.235.02-.352-1.081.015-2.169-.036-3.241.064-1.134.106-2.263-.19-3.421.261a12.129,12.129,0,0,1-2.98.386,19.362,19.362,0,0,0,4.8.225C109.755,144.639,111.358,144.37,112.964,144.169Zm-8.557-9.542a15.488,15.488,0,0,1-2.81,0c-1.021-.178-1.08.671-1.448,1.131-.32.4.051.777.627.688.676-.1,1.249-.662,1.989-.469C103.847,136.264,104.175,135.587,104.407,134.627Zm52.678,2.8c.583-.008,1.169.007,1.747-.05.092-.009.268-.413.206-.517-.176-.293-.443-.732-.694-.746a34.862,34.862,0,0,0-3.492.038c-.084,0-.266.448-.209.513a2.26,2.26,0,0,0,.922.751A5.954,5.954,0,0,0,157.085,137.429Zm-57.414,2.142a7.782,7.782,0,0,0,1.525-.046,2.459,2.459,0,0,0,1.05-.6c.272-.243.018-.713-.376-.714a21.4,21.4,0,0,0-3.052.085,1.365,1.365,0,0,0-.863.97c-.056.5.526.279.844.308A8.525,8.525,0,0,0,99.671,139.571Zm38.13-.982c.906-.013,1.564,0,2.219-.041.316-.017.773.2.875-.345s-.061-1.145-.564-1.262a9.823,9.823,0,0,0-2.343-.094c-.072,0-.179.353-.194.548C137.764,137.746,137.793,138.1,137.8,138.589Zm-22.865-1.007c-.438.006-.879.032-1.315.012s-.678.064-.668.576c.009.5.046.835.7.774.725-.068,1.464.009,2.189-.065a1.921,1.921,0,0,0,.892-.458.652.652,0,0,0,.192-.551.593.593,0,0,0-.456-.3C115.959,137.542,115.446,137.574,114.935,137.582ZM98.45,134.711a8.642,8.642,0,0,1-1.606.007c-1-.213-1.459.5-1.99,1.074-.1.111-.063.4-.014.582.021.079.235.144.363.149.368.015.739-.024,1.107,0,.8.045,1.416-.136,1.553-1.076C97.891,135.26,98.124,135.107,98.45,134.711Zm22.544,6.332a15.335,15.335,0,0,0,1.751-.05c.17-.022.4-.334.426-.538.043-.31.157-.75-.438-.773a5.281,5.281,0,0,0-2.448.473c-.474.217-1.438-.295-1.46.385-.036,1.161,1.017.229,1.518.5C120.513,141.129,120.775,141.046,120.994,141.043Zm48.3-2.224a6.591,6.591,0,0,0,1.429,1.323,3.91,3.91,0,0,0,1.61.028,4.593,4.593,0,0,0-.4-1.085,2.237,2.237,0,0,0-.968-.928A1.378,1.378,0,0,0,169.3,138.819Zm-17.949,1.8c.509-.007,1.021.01,1.527-.036a.592.592,0,0,0,.444-.308.7.7,0,0,0-.2-.55c-.852-.818-1.88-.54-2.783-.219-.271.1-1.183.016-.964.813.167.6.726.245,1.107.3A5.484,5.484,0,0,0,151.346,140.614Zm-45.426-5.122c1.873-.027,3.318-.03,4.76-.091.162-.006.309-.34.463-.521-.149-.114-.3-.325-.446-.326-1.169-.012-2.343-.028-3.506.063C106.872,134.642,106.579,135.022,105.92,135.493Zm-14.284,3.75c.915-.013,1.7.019,2.475-.05.526-.048,1.375.306,1.517-.316.259-1.135-.915-.441-1.387-.77C93.159,137.35,92.355,138.138,91.636,139.242Zm9.375,2.4c-.024-.106-.049-.212-.072-.318-1.446.021-2.893.03-4.34.077-.148,0-.29.221-.436.338.158.178.312.506.475.51,1.169.027,2.341.028,3.507-.052C100.446,142.178,100.724,141.838,101.011,141.644Zm43.539-4.926a6.424,6.424,0,0,0-.651.015c-.314.038-.807-.163-.783.42a2.191,2.191,0,0,0,.288.962c.311.545.848.454,1.326.3.8-.251,1.139-.721,1.036-1.27C145.6,136.288,144.949,136.877,144.551,136.719Zm-17,4.232a4.937,4.937,0,0,0,.878-.165c.183-.058.458-.335.429-.442-.062-.23-.277-.569-.461-.591a15.327,15.327,0,0,0-2.337-.071c-.078,0-.184.487-.19.75,0,.178.124.495.235.514A9.082,9.082,0,0,0,127.551,140.951Zm-18.139.147q-.031-.167-.061-.333c-1.227.017-2.454.032-3.68.053-1.1.019-1.1.021-2.692,1.054Zm57.746-.707a12.118,12.118,0,0,0-.9-1.434c-.156-.184-.491-.216-.743-.317-.27.755-1.095.221-1.5.652-.013.014.04.137.076.145.535.117.065,1.1.9,1C165.633,140.358,166.294,140.4,167.157,140.391ZM119.322,135.3c1.685-.024,3.054-.034,4.422-.086.091,0,.21-.324.239-.509.016-.1-.127-.33-.2-.33-1.168-.008-2.337-.027-3.5.054C120.032,134.449,119.806,134.849,119.322,135.3Zm-6.306.088c1.724-.024,3.022-.024,4.318-.085.161-.007.306-.341.459-.523-.148-.113-.3-.323-.446-.324a28.617,28.617,0,0,0-3.065.057C113.96,134.546,113.671,134.922,113.016,135.392Zm50.366,1.5a6.482,6.482,0,0,0,.654-.014c.316-.036.844.145.754-.435a1.118,1.118,0,0,0-.6-.8,5.055,5.055,0,0,0-1.711-.039c-.13.013-.305.421-.3.645a.809.809,0,0,0,.341.626A2.238,2.238,0,0,0,163.382,136.9Zm-13.176.644c.582-.194,1.677.326,1.673-.386-.005-1-1.108-.469-1.705-.475-.573-.006-1.668-.38-1.664.332C148.516,138.014,149.622,137.334,150.206,137.54Zm-22.073-3.277c-.539.375-1.519-.533-1.915.6.562.738,1.352.329,1.982.259.5-.053,1.575.666,1.5-.505C129.653,133.944,128.721,134.438,128.133,134.263Zm7.527-.078c-1.316.019-2.329.018-3.34.067-.12.005-.316.278-.315.425s.23.436.316.42C133.395,134.908,134.674,135.621,135.661,134.185Zm-12.153,3.276c-1.3.019-2.6.019-3.894.08-.156.007-.3.35-.444.537.154.108.3.226.464.32a.248.248,0,0,0,.214,0C120.99,137.682,122.324,138.059,123.507,137.46Z" transform="translate(0 0)"/><path class="c" d="M165.244,173.4a11.254,11.254,0,0,1-3.616.35c-2.174-.036-4.259.711-6.46.58s-4.429.027-6.646.059-4.434.147-6.647.071c-2.453-.083-4.931-.761-7.348-.266-3.408.7-6.826.393-10.236.52-3.394.128-6.8.037-10.191.2-1.188.058-2.214-.522-3.371-.45a24.275,24.275,0,0,0-3.537.1c-3.247.7-6.527.419-9.791.522a1.25,1.25,0,0,0-1.23.712c-.166.44-.016.948-.477,1.364-1.192,1.074-2.222,2.354-3.5,3.306a13.618,13.618,0,0,0-3.265,3.657c-.9,1.392.12,2.908,1.942,3.052,1.492.118,2.982.308,4.477.362,1.474.052,2.954-.025,4.431-.047l5.716-.081c.017.091.033.183.05.274-.27.06-.543.107-.808.183-.528.151-1.24.155-1.544.505a23.27,23.27,0,0,0-2.761,3.741,1.763,1.763,0,0,0,1.633,2.417c4.828-.328,9.631.641,14.447.228a30.235,30.235,0,0,1,3.8-.49c.593.021,1.257-1.035,1.324-1.735.154-1.616-.8-2.935-1.157-4.412a4.736,4.736,0,0,0-.469-.911c-.367-.732-.3-.88.452-.895,2.659-.048,5.325-.206,7.976-.078,2.274.109,4.439-.577,6.682-.583,2.29-.006,4.579-.094,6.869-.074.979.009,2.035-.4,2.934.376a.441.441,0,0,0,.426-.006c1.131-1.034,2.266.129,3.412-.01a9.324,9.324,0,0,1,3.526-.022c2.174.611,4.329.232,6.487.279,2.214.047,4.433-.008,6.647-.1.754-.029,1.493-.351,2.251-.438a11.645,11.645,0,0,1,2.213-.033c.834.063,1.737-.355,2.5.372a.836.836,0,0,0,.824-.051c.535-.642,1.232-.294,1.846-.409a19.088,19.088,0,0,0,2.46-.505.994.994,0,0,0,.749-1.169,9.1,9.1,0,0,0-.514-2.451c-1.248-2.327-2.3-4.767-4.341-6.625a5.484,5.484,0,0,0-4.015-1.59,4.361,4.361,0,0,1-.815-.184c1.45-.275,2.677-.5,3.9-.743a1.512,1.512,0,0,1,1.689.717c.752,1.25,1.849,2.244,2.451,3.624a11.55,11.55,0,0,0,2,3.393c.425.459.4,1.306.724,1.9a39.207,39.207,0,0,1,2.007,3.373,15.663,15.663,0,0,0,2.268,3.946,16.017,16.017,0,0,1,1.8,3.443,1.113,1.113,0,0,1-1.121,1.6c-2.51.066-5.023.082-7.534.117-1.92.027-3.842.109-5.761.068-2.676-.058-5.347-.263-8.023-.3-2.658-.037-5.368.4-7.966.014a45.685,45.685,0,0,0-10.684-.1c-3.121.271-6.231.374-9.349.46-3.175.088-6.4-.234-9.517.222-4.673.682-9.34.37-14,.539-4.724.173-9.455.158-14.182.224s-9.455.124-14.182.209c-1.219.021-2.338-.734-3.6-.429-.086.021-.368-.365-.384-.576a1.176,1.176,0,0,1,.247-.767c1.059-1.277,2.162-2.517,3.221-3.794.4-.483.694-1.056,1.087-1.545,1.527-1.9,3.076-3.774,4.616-5.659a12.318,12.318,0,0,1,2.355-2.757,15.421,15.421,0,0,0,2.543-2.318,35.089,35.089,0,0,0,2.468-2.977c.254-.321.347-.908.646-1.022a1.928,1.928,0,0,1,1.452.064,1.823,1.823,0,0,0,1.994-.019,3.9,3.9,0,0,1,1.7-.188q18.393-.272,36.786-.526c4.361.712,8.746.249,13.119.244,4.432,0,8.864-.113,13.3-.17A2.905,2.905,0,0,1,165.244,173.4Z" transform="translate(-2.738 -42.565)"/><path class="c" d="M110.512,131.049c-.076-5.413-.51-10.676-.127-15.877.416-5.653.056-11.266.084-16.894.028-5.689-.138-11.377-.215-17.065,0-.208.034-.417.061-.728,2.385-.034,4.786-.389,7.073-.031,4.173.653,8.316.019,12.466.2,3.962-.935,8-.444,12-.593,3.985-.148,7.977-.143,11.966-.184,1.508-.015,2.917-.668,4.466-.544s3.14-.243,4.643.014c3.421.582,6.835.144,10.246.276a19.9,19.9,0,0,0,2.928.4,4.323,4.323,0,0,1,2.929.371c.1.067.29.005.438,0,1.33-.019,2.663-.107,3.988-.037,1.266.068,2.522.3,3.942.478.01.667.019,1.388.03,2.108.036,2.513-.058,5.034.138,7.533.264,3.364-.487,6.669-.353,10.021a77.531,77.531,0,0,1,.074,10.185c-.228,2.468.058,4.953-.33,7.352-.329,2.037-.032,4.056-.339,6.032-.211,1.356-.284,2.688-.37,4.041a1.378,1.378,0,0,1-.924.94,40.218,40.218,0,0,1-5.123.592c-8.865.047-17.73.286-26.594.3-2.741,0-5.481-.42-8.244-.3-2.73.118-5.493-.14-8.194.18-6.8.8-13.619.427-20.425.686C114.79,131.235,112.742,130.917,110.512,131.049Zm61.631-3.107c2.438-.035,4.878-.021,7.312-.126a12.5,12.5,0,0,0,3.1-.542,4.429,4.429,0,0,0,2.776-4.125c-.029-2.658-.157-5.32-.091-7.976.094-3.781-.467-7.556.2-11.356.41-2.323-.045-4.733.3-7.139a11.919,11.919,0,0,0-.364-5.8,10.941,10.941,0,0,1-.112-3.523,3.214,3.214,0,0,0-2.254-3.224,10.556,10.556,0,0,0-5.093-1.089,35.329,35.329,0,0,1-5.092.093c-4.151-.138-8.32.644-12.454-.253-1.391.354-2.674-.412-4.033-.388-1.477.026-2.954.043-4.431.064-3.1.044-6.205.062-9.306.149a4.005,4.005,0,0,0-2.51.4c-.4.28-1.241-.021-1.871-.125a31.451,31.451,0,0,0-3.275-.607c-3.113-.179-6.217.132-9.36-.243-3.126-.373-6.342-.01-9.517.048a5.734,5.734,0,0,0-2.8,1.25,5.845,5.845,0,0,0-1.587,3.991,28.322,28.322,0,0,0,.051,3.764c.087,1.2.474,2.391.447,3.578-.079,3.338.6,6.7-.271,10.017.093,6.574.169,13.148.294,19.721.023,1.208,1.512,3.328,2.458,3.294,1.183-.043,2.212.489,3.365.485,16.782-.063,33.559-.944,50.346-.294C169.63,128.035,170.888,127.96,172.144,127.943Z" transform="translate(-16.302 -2.025)"/><path class="c" d="M130.025,204.781c-2.28.032-4.561.077-6.841.083a3.349,3.349,0,0,1-.934-.277c.171-.3.326-.607.519-.889.122-.18.329-.3.451-.482a2.423,2.423,0,0,1,2.447-1.051,16.846,16.846,0,0,0,2.645-.029c2.072-.149,4.148-.287,6.207-.553.729-.1,1.6-.9,2.143-.289a7.137,7.137,0,0,1,1.083,2.614c.153.477-.011.791-.657.79C134.732,204.69,132.378,204.748,130.025,204.781Z" transform="translate(-21.543 -55.135)"/><path class="c" d="M132.071,187.767c-.584.008-1.169.039-1.751.01a.57.57,0,0,1-.437-.314.659.659,0,0,1,.2-.546,1.84,1.84,0,0,1,.9-.444c1.239-.067,2.481-.067,3.721-.058a.558.558,0,0,1,.436.313.657.657,0,0,1-.2.546,1.991,1.991,0,0,1-.9.446C133.39,187.794,132.728,187.757,132.071,187.767Z" transform="translate(-24.869 -48.745)"/><path class="c" d="M106.059,192.06c-.345.986-.744,1.519-1.812,1.388a28.577,28.577,0,0,0-3.58.019,7.354,7.354,0,0,1,.994-1.144c.45-.5.73-.809,1.584-.307C103.938,192.422,105.073,192.074,106.059,192.06Z" transform="translate(-12.133 -51.078)"/><path class="c" d="M223.519,190.407c-.659.009-1.317.012-1.976.029-.581.016-.52-.416-.466-.743.035-.212.252-.554.4-.562,1.169-.063,2.342-.1,3.51-.049.295.012.592.337.856.557a.406.406,0,0,1,.08.386.723.723,0,0,1-.431.338C224.837,190.41,224.178,190.4,223.519,190.407Z" transform="translate(-64.616 -49.9)"/><path class="c" d="M136.544,197.669c-1.606.2-3.209.47-4.822.584a19.362,19.362,0,0,1-4.8-.225,12.129,12.129,0,0,0,2.98-.386c1.158-.45,2.287-.155,3.421-.261,1.073-.1,2.16-.049,3.241-.064C136.557,197.434,136.55,197.552,136.544,197.669Z" transform="translate(-23.58 -53.5)"/><path class="c" d="M125.428,181.008c-.232.96-.56,1.637-1.642,1.355-.74-.193-1.313.367-1.989.469-.576.089-.947-.287-.627-.688.368-.461.426-1.31,1.448-1.131A15.489,15.489,0,0,0,125.428,181.008Z" transform="translate(-21.021 -46.381)"/><path class="c" d="M220.312,184.953a5.954,5.954,0,0,1-1.521-.01,2.259,2.259,0,0,1-.922-.751c-.058-.065.125-.51.209-.513a34.857,34.857,0,0,1,3.492-.038c.251.014.518.452.694.746.061.1-.115.508-.206.517C221.48,184.961,220.895,184.945,220.312,184.953Z" transform="translate(-63.227 -47.524)"/><path class="c" d="M119.082,188.731a8.525,8.525,0,0,1-.874.007c-.318-.029-.9.2-.844-.308a1.365,1.365,0,0,1,.863-.97,21.4,21.4,0,0,1,3.052-.085c.394,0,.649.471.376.714a2.459,2.459,0,0,1-1.05.6A7.782,7.782,0,0,1,119.082,188.731Z" transform="translate(-19.412 -49.16)"/><path class="c" d="M188,186.684c-.007-.488-.036-.843-.007-1.193.015-.2.122-.547.194-.548a9.822,9.822,0,0,1,2.343.094c.5.117.664.717.564,1.262s-.559.327-.875.345C189.566,186.681,188.907,186.671,188,186.684Z" transform="translate(-50.201 -48.095)"/><path class="c" d="M145.944,186.246c.511-.008,1.024-.04,1.532-.008a.593.593,0,0,1,.456.3.652.652,0,0,1-.192.551,1.921,1.921,0,0,1-.892.458c-.725.074-1.464,0-2.189.065-.652.061-.689-.277-.7-.774-.01-.512.242-.6.668-.576S145.506,186.252,145.944,186.246Z" transform="translate(-31.009 -48.664)"/><path class="c" d="M115.42,181.148c-.327.4-.559.548-.586.732-.138.94-.75,1.121-1.553,1.076-.368-.02-.739.02-1.107,0-.129,0-.342-.07-.363-.149-.049-.184-.089-.472.014-.582.531-.577.995-1.287,1.99-1.074A8.642,8.642,0,0,0,115.42,181.148Z" transform="translate(-16.969 -46.437)"/><path class="c" d="M156.542,191.344c-.219,0-.481.086-.65,0-.5-.27-1.554.663-1.518-.5.022-.68.986-.168,1.46-.385a5.281,5.281,0,0,1,2.448-.473c.6.023.481.462.438.773-.028.2-.256.516-.426.538A15.331,15.331,0,0,1,156.542,191.344Z" transform="translate(-35.548 -50.301)"/><path class="c" d="M243.858,187.888a1.378,1.378,0,0,1,1.67-.662,2.237,2.237,0,0,1,.968.928,4.593,4.593,0,0,1,.4,1.085,3.91,3.91,0,0,1-1.61-.028A6.59,6.59,0,0,1,243.858,187.888Z" transform="translate(-74.563 -49.07)"/><path class="c" d="M210.479,190.533a5.486,5.486,0,0,1-.871,0c-.381-.058-.94.3-1.107-.3-.219-.8.694-.718.964-.813.9-.32,1.931-.6,2.783.219a.7.7,0,0,1,.2.55.592.592,0,0,1-.444.308C211.5,190.543,210.987,190.526,210.479,190.533Z" transform="translate(-59.132 -49.918)"/><path class="c" d="M131.493,181.825c.659-.47.952-.851,1.271-.876,1.164-.091,2.338-.075,3.506-.063.15,0,.3.212.446.326-.155.182-.3.515-.463.521C134.811,181.795,133.366,181.8,131.493,181.825Z" transform="translate(-25.573 -46.332)"/><path class="c" d="M106.168,188.1c.719-1.1,1.523-1.892,2.605-1.136.472.329,1.646-.365,1.387.77-.142.622-.992.268-1.517.316C107.868,188.115,107.083,188.084,106.168,188.1Z" transform="translate(-14.532 -48.855)"/><path class="c" d="M119.043,193.22c-.288.193-.565.534-.865.555-1.166.08-2.338.079-3.507.052-.163,0-.317-.332-.475-.51.146-.117.288-.333.436-.338,1.446-.046,2.893-.056,4.34-.077C118.994,193.008,119.018,193.113,119.043,193.22Z" transform="translate(-18.031 -51.575)"/><path class="c" d="M198.876,184.692c.4.158,1.052-.43,1.215.43.1.549-.232,1.019-1.036,1.27-.478.15-1.015.241-1.326-.3a2.191,2.191,0,0,1-.288-.962c-.024-.583.469-.382.783-.42A6.424,6.424,0,0,1,198.876,184.692Z" transform="translate(-54.325 -47.973)"/><path class="c" d="M168.545,191.243a9.082,9.082,0,0,1-1.446,0c-.111-.02-.239-.337-.235-.514.005-.263.111-.747.19-.75a15.325,15.325,0,0,1,2.337.071c.184.022.4.36.461.591.029.107-.246.385-.429.442A4.935,4.935,0,0,1,168.545,191.243Z" transform="translate(-40.995 -50.292)"/><path class="c" d="M132.71,192.238l-6.434.773c1.59-1.032,1.59-1.035,2.692-1.054,1.226-.021,2.453-.036,3.68-.053Q132.679,192.072,132.71,192.238Z" transform="translate(-23.298 -51.141)"/><path class="c" d="M237.637,189.889c-.864.012-1.524-.032-2.17.044-.83.1-.36-.881-.9-1-.036-.008-.089-.131-.076-.145.4-.431,1.229.1,1.5-.652.253.1.587.133.743.317A12.119,12.119,0,0,1,237.637,189.889Z" transform="translate(-70.48 -49.498)"/><path class="c" d="M155.255,181.5c.484-.455.71-.854.962-.871,1.162-.081,2.332-.063,3.5-.054.073,0,.216.228.2.33-.029.186-.148.506-.239.509C158.309,181.468,156.94,181.478,155.255,181.5Z" transform="translate(-35.933 -46.198)"/><path class="c" d="M144.074,181.648c.655-.469.944-.846,1.266-.875a28.616,28.616,0,0,1,3.065-.057c.151,0,.3.211.446.324-.153.182-.3.516-.459.523C147.1,181.625,145.8,181.625,144.074,181.648Z" transform="translate(-31.058 -46.257)"/><path class="c" d="M232.444,184.012a2.237,2.237,0,0,1-.861-.015.809.809,0,0,1-.341-.626c-.005-.223.17-.632.3-.645a5.056,5.056,0,0,1,1.711.039,1.118,1.118,0,0,1,.6.8c.09.58-.437.4-.754.435A6.486,6.486,0,0,1,232.444,184.012Z" transform="translate(-69.062 -47.115)"/><path class="c" d="M208.7,185.418c-.584-.206-1.69.474-1.7-.528,0-.712,1.091-.338,1.664-.332.6.006,1.7-.525,1.705.475C210.378,185.744,209.283,185.224,208.7,185.418Z" transform="translate(-58.495 -47.878)"/><path class="c" d="M169.4,180.367c.588.176,1.52-.319,1.564.354.078,1.171-1,.452-1.5.505-.63.069-1.42.479-1.982-.259C167.878,179.834,168.858,180.742,169.4,180.367Z" transform="translate(-41.264 -46.105)"/><path class="c" d="M181.4,180.239c-.986,1.436-2.266.723-3.338.912-.087.016-.315-.272-.316-.42s.2-.42.315-.425C179.068,180.257,180.082,180.258,181.4,180.239Z" transform="translate(-45.737 -46.054)"/><path class="c" d="M159.322,186.047c-1.183.6-2.517.221-3.66.935a.248.248,0,0,1-.214,0c-.161-.094-.31-.212-.464-.32.148-.187.288-.53.444-.537C156.725,186.066,158.024,186.066,159.322,186.047Z" transform="translate(-35.815 -48.587)"/><path class="d" d="M173.24,130.043c-1.255.017-2.513.092-3.766.045-16.786-.65-33.563.231-50.346.294-1.153,0-2.183-.528-3.365-.485-.946.034-2.435-2.086-2.458-3.294-.125-6.573-.2-13.147-.294-19.721.871-3.315.192-6.678.271-10.017.028-1.187-.359-2.38-.447-3.578a28.321,28.321,0,0,1-.051-3.764,5.845,5.845,0,0,1,1.587-3.991,5.734,5.734,0,0,1,2.8-1.25c3.175-.058,6.391-.421,9.517-.048,3.144.375,6.248.064,9.36.243a31.451,31.451,0,0,1,3.275.607c.63.1,1.469.4,1.871.125a4.005,4.005,0,0,1,2.51-.4c3.1-.087,6.2-.1,9.306-.149,1.478-.02,2.954-.038,4.431-.064,1.359-.024,2.642.742,4.033.388,4.134.9,8.3.115,12.454.253a35.329,35.329,0,0,0,5.092-.093,10.556,10.556,0,0,1,5.093,1.089,3.214,3.214,0,0,1,2.254,3.224,10.942,10.942,0,0,0,.112,3.523,11.919,11.919,0,0,1,.364,5.8c-.349,2.406.106,4.816-.3,7.139-.671,3.8-.11,7.575-.2,11.356-.067,2.657.061,5.319.091,7.976a4.429,4.429,0,0,1-2.776,4.125,12.5,12.5,0,0,1-3.1.542C178.117,130.022,175.677,130.008,173.24,130.043Zm-57.569-23.194q.126,8.972.255,17.944c.028,1.849.134,1.778,1.911,2.544a5.207,5.207,0,0,0,2.284.345q26.141-.352,52.281-.73a9.566,9.566,0,0,1,1.769-.009,19.231,19.231,0,0,0,8.275-.133,2.119,2.119,0,0,0,1.321-1.756c.012-.516-.011-1.033-.018-1.55-.038-2.658-.134-5.318-.1-7.975a47.071,47.071,0,0,1,.241-7.812,61.011,61.011,0,0,0,.343-6.46c.255-3.671-.054-7.379-.051-11.071a1.739,1.739,0,0,0-1.39-1.9c-.856-.164-1.483-.8-2.3-.884a22.937,22.937,0,0,0-2.656.014c-4.135.059-8.271.083-12.4.184-4.156.1-8.283-.538-12.452-.312-4.126.224-8.268.154-12.4.212-.3,0-.645.113-.878-.006a3.3,3.3,0,0,0-3.415.053.7.7,0,0,1-.643.007c-.825-.791-1.812-.306-2.717-.379-2.521-.2-5.026.131-7.591-.241-2.887-.419-5.893-.023-8.846.02a1.028,1.028,0,0,0-1.082,1.073,12.582,12.582,0,0,0,.01,1.328Q115.547,98.1,115.671,106.848Z" transform="translate(-17.398 -4.125)"/><g transform="translate(97.998 82.612)"><path class="e" d="M186.288,103.32a61.454,61.454,0,0,1-.342,6.46,47.06,47.06,0,0,0-.243,7.81c-.037,2.658.059,5.318.1,7.975,0,.519.029,1.035.014,1.55a2.118,2.118,0,0,1-1.321,1.76,19.3,19.3,0,0,1-8.274.132,9.521,9.521,0,0,0-1.77.007q-26.141.371-52.278.732a5.28,5.28,0,0,1-2.286-.346c-1.777-.765-1.884-.7-1.91-2.543q-.134-8.971-.258-17.946-.122-8.75-.246-17.5a12.287,12.287,0,0,1-.008-1.328,1.027,1.027,0,0,1,1.079-1.075c2.955-.041,5.962-.438,8.848-.019,2.565.372,5.068.037,7.589.24.905.073,1.892-.412,2.72.379a.69.69,0,0,0,.64-.007,3.309,3.309,0,0,1,3.416-.052c.232.118.582.011.876.008,4.137-.059,8.277.011,12.407-.214,4.166-.224,8.3.413,12.451.314,4.133-.1,8.27-.125,12.4-.184a22.11,22.11,0,0,1,2.657-.015c.813.085,1.439.721,2.293.883a1.744,1.744,0,0,1,1.391,1.907C186.233,95.94,186.542,99.647,186.288,103.32Z" transform="translate(-117.447 -88.801)"/></g></g><text class="f" transform="translate(421 693)"><tspan x="0" y="0">隨時隨地購物</tspan></text></g></svg>