<svg xmlns="http://www.w3.org/2000/svg" width="40" height="40" viewBox="0 0 40 40"><defs><style>.a{fill:#72665a;}.b,.d,.h{fill:none;}.b{stroke:#dfdfdf;}.b,.d{stroke-width:4px;}.c{fill:#dfdfdf;}.d{stroke:#fff;}.e{fill:#fff;}.f,.g{stroke:none;}.g{fill:#707070;}</style></defs><g class="a"><path class="f" d="M 39.5 39.5 L 0.5 39.5 L 0.5 0.5 L 39.5 0.5 L 39.5 39.5 Z"/><path class="g" d="M 1 1 L 1 39 L 39 39 L 39 1 L 1 1 M 0 0 L 40 0 L 40 40 L 0 40 L 0 0 Z"/></g><g transform="translate(4.587 7.705)"><g class="b" transform="translate(23.417 8.789) rotate(121)"><ellipse class="f" cx="8.532" cy="8.532" rx="8.532" ry="8.532"/><ellipse class="h" cx="8.532" cy="8.532" rx="6.532" ry="6.532"/></g><rect class="c" width="3" height="21" transform="translate(31.978 16.937) rotate(90)"/><g class="d" transform="translate(23.417 10.496) rotate(121)"><ellipse class="f" cx="8.532" cy="8.532" rx="8.532" ry="8.532"/><ellipse class="h" cx="8.532" cy="8.532" rx="6.532" ry="6.532"/></g><rect class="e" width="3" height="21" transform="translate(31.978 18.937) rotate(90)"/></g></svg>