<svg xmlns="http://www.w3.org/2000/svg" xmlns:xlink="http://www.w3.org/1999/xlink" width="356" height="260" viewBox="0 0 356 260"><defs><style>.a,.i{fill:#fff;}.a{stroke:#707070;}.b{fill:#eae8e6;}.c{fill:#72665a;font-size:20px;letter-spacing:0.03em;}.c,.e{font-family:GenJyuuGothic-Bold, Gen Jyuu Gothic;font-weight:700;}.d{fill:#ccc;}.e,.f{fill:#333;}.e{font-size:12px;letter-spacing:0.02em;}.f,.g,.h,.i,.j,.k,.m,.n{fill-rule:evenodd;}.g{fill:#d6cbb9;}.h{fill:#c69c6d;}.j{fill:#8c6239;}.l{clip-path:url(#a);}.m{fill:#65bea6;}.n{fill:#ecdb84;}</style><clipPath id="a"><rect class="a" width="127" height="165" transform="translate(795 415.251)"/></clipPath></defs><g transform="translate(-795 -415)"><rect class="b" width="356" height="260" transform="translate(795 415)"/><text class="c" transform="translate(873 634)"><tspan x="0" y="0">目前沒有任何訂單.....</tspan></text><ellipse class="d" cx="63.5" cy="6" rx="63.5" ry="6" transform="translate(931 589)"/><text class="e" transform="translate(1007.908 464.147) rotate(30)"><tspan x="0" y="0">\ 快去逛逛吧 /</tspan></text><g transform="translate(459.188 29.413)"><path class="f" d="M570.92,644.634c-.671,1.439-.758,3.269-1.476,4.966a26.725,26.725,0,0,1-2.724,5.093,14.641,14.641,0,0,1-2.294,2.511,15.454,15.454,0,0,1-4.833,3.284A87.39,87.39,0,0,1,550.7,663.4c-2.487.6-4.871,1.652-7.321,2.433a61.228,61.228,0,0,0-8.148,3.744,14.67,14.67,0,0,0-2.1,1.493c-.893.656-1.781,1.32-2.671,1.981-.149.112-.293.231-.437.35a87.332,87.332,0,0,0-8.173,7.847,21.293,21.293,0,0,0-2.985,4.365c-1.039,1.9-2.122,3.771-3.036,5.734-.194.419-.374.369-.709.231a48.156,48.156,0,0,0-7.611-2.236c-2-.453-3.96-1.071-5.961-1.511-.624-.137-.483-.475-.468-.816.006-.16.2-.3.265-.467,1.809-4.306,4.037-8.413,6.031-12.631.51-1.08.926-2.206,1.462-3.273a55.783,55.783,0,0,1,4.556-7.042,43.106,43.106,0,0,1,5.116-5.427c.954-.951,2.226-1.58,3.2-2.515a20.022,20.022,0,0,1,3.541-2.72c1.656-1,3.348-1.948,4.947-3.032a51.286,51.286,0,0,1,5.81-2.846,11.52,11.52,0,0,1,2.705-.944,2.351,2.351,0,0,1,1.658.19c.667.457,1.333.263,2,.352.853.112,1.7.308,2.556.369.9.065,1.907-.235,2.692.073a10.358,10.358,0,0,0,3.548.317,12.049,12.049,0,0,0,3.667-.05c1.457-.4,2.894-.139,4.314-.346a25.452,25.452,0,0,0,5.251-1.356c1.847-.692,3.709-1.343,5.542-2.077C570.687,643.3,571.016,643.6,570.92,644.634Z" transform="translate(-18.792 -136.306)"/><path class="g" d="M614.365,577.038c2.144-2.565,2.132-5.469,1.936-8.49a13.43,13.43,0,0,0,5.192-1.606c1.971-1.091,3.85-2.246,4.975-4.291.308-.56.8-1.164.777-1.726-.043-.841.423-1.517.432-2.3.013-1.132.022-2.264,0-3.4a3.5,3.5,0,0,0-1.919-2.643,1.065,1.065,0,0,0-.675.161c-.052.026,0,.332.063.486a2.346,2.346,0,0,0,.4.772,3.846,3.846,0,0,1,.687,4.363,1.564,1.564,0,0,0-.059.541c.029,2.89-1.71,4.677-3.94,6.051a11.06,11.06,0,0,1-3.6,1.771c-.686.134-1.344.415-2.029.555-.494.1-1.054.081-1.3-.478-.756-1.745-2.2-2.913-3.48-4.216-.331-.338-.635-.625-.116-1.061.1-.081.133-.427.063-.482-.56-.444-.338-1.052-.314-1.571.081-1.711.283-3.416.347-5.128.063-1.695,0-3.395.02-5.093.005-.553.271-.558.715-.325,1.237.65,2.495,1.261,3.751,1.871a8.96,8.96,0,0,0,1.29.526c.3.093,1.357-.813,1.4-1.256.127-1.308.528-2.557.738-3.842a2.4,2.4,0,0,0-.252-1.774c-.283-.457-.074-1.214-.1-1.837a9.98,9.98,0,0,0-.1-1.658c-.179-.863-.143-1.031.557-.839,2.381.654,4.875.8,7.2,1.731a19.132,19.132,0,0,0,2.849.842,7.965,7.965,0,0,1,4.575,3.377,24.464,24.464,0,0,1,2.889,5.019c.559,1.277,1.073,2.574,1.6,3.865a.812.812,0,0,1,.066.348c-.105,1.789.548,3.506.408,5.317a11.052,11.052,0,0,1-3.025,7.255,31.807,31.807,0,0,1-7.032,5.39,24.692,24.692,0,0,1-4.485,1.9c-1.217.4-2.437.805-3.662,1.181A16.379,16.379,0,0,1,614.365,577.038Z" transform="translate(-86.594 -71.488)"/><path class="h" d="M519.745,583.664c0,1.739.036,3.185-.008,4.63-.069,2.228.664,4.4.386,6.641.558,1.1.33,2.278.383,3.431a1.573,1.573,0,0,1-.416,1.16,1.224,1.224,0,0,0,.14,1.908c.3.271.711.427,1.029.686a1.008,1.008,0,0,1,.343.6c.011.086-.318.237-.509.318-.16.068-.382.03-.51.128-.513.389-.6,1.284-1.639,1.058-.584-.128-1.277.343-1.909.31-4.492-.238-8.953.46-13.439.4-2.2-.027-4.407.051-6.607-.022-1.733-.058-3.39.683-5.13.4-1.021.644-2.156.336-3.243.365-1.11.031-1.3-.2-1.354-1.232-.131-2.591-.221-5.2-.477-7.764-.248-2.482-.121-4.942-.289-7.4-.044-.645-.286-1.276-.352-1.922-.063-.622-.013-1.254-.013-2.059.8,0,1.6-.049,2.392.008,3.677.266,7.311-.6,10.984-.386,1.985-.753,4.051-.234,6.074-.373,1.773-.123,3.521-.605,5.318-.383C513.771,583.29,516.706,584.1,519.745,583.664Z" transform="translate(-8.872 -98.542)"/><path class="f" d="M659.643,694.68c-4.163.476-7.179-1.359-10.124-3.285a21.592,21.592,0,0,1-2.285-2.029c-1.547-1.378-3.03-2.85-4.455-4.374-1.152-1.233-2.19-2.591-3.261-3.911-.316-.389-.249-.575.261-.828a35.061,35.061,0,0,1,4.423-1.936c1.587-.526,2.692-1.678,4.026-2.5a10.984,10.984,0,0,0,2.682-2.468,36.245,36.245,0,0,0,2.256-3.527c.265-.423.48-.41.768.055a18.9,18.9,0,0,0,5.229,5.886,10.006,10.006,0,0,0,4.547,1.647c2.881.343,5.3-1.038,7.793-2.2a45.951,45.951,0,0,1,5.21-2.412,11.587,11.587,0,0,0,2.016-1.234,13.3,13.3,0,0,1,1.613-.787.51.51,0,0,1,.456.22,24.492,24.492,0,0,1,1.929,4.3,4.446,4.446,0,0,0,.273.909c.851,1.43.922,3.159,1.568,4.678a3.261,3.261,0,0,1-.07,2.168,1.456,1.456,0,0,1-1.513,1c-.319-.028-.661.533-1.023.773a60.062,60.062,0,0,1-6.39,3.818c-1.238.616-2.356,1.508-3.583,2.153a33.867,33.867,0,0,1-4.874,2.267c-1.472.492-2.871,1.377-4.492,1.289C661.545,695.315,660.279,694.429,659.643,694.68Z" transform="translate(-104.418 -152.912)"/><path class="i" d="M582.213,501.82a15.483,15.483,0,0,1-8.738-2.236,5.859,5.859,0,0,1-2.182-1.51c-.48-.719-1.694-.6-1.768-1.682a6.647,6.647,0,0,1-1.9-3.368,26.647,26.647,0,0,1-1.2-3.674,10.207,10.207,0,0,0-.352-2.288,5.945,5.945,0,0,1-.324-2.323c-.039-.58.241-.861.8-1.049,1.489-.5,2.955-1.067,4.421-1.632a4.86,4.86,0,0,0,.913-.528,5.635,5.635,0,0,1,4.215-1.223c.877-.5,1.89-.252,2.809-.513.9-.256,1.78-.6,2.693-.785,1.906-.394,3.668-1.394,5.676-1.346,1.033-.661,2.3-.523,3.371-.978a1.039,1.039,0,0,1,1.433.322,3.962,3.962,0,0,1,.662,1.045,9.987,9.987,0,0,0,2.193,3.223,2.023,2.023,0,0,1,.576,2.18,5.924,5.924,0,0,0-.314,1.572c-.116.767.2,1.529-.319,2.334-.383.594.245,1.588-.431,2.264a13.271,13.271,0,0,1-1.143,4.814,10.4,10.4,0,0,1-6.535,6.645A9.269,9.269,0,0,1,582.213,501.82Zm-.791-10.183a17.823,17.823,0,0,1-2.624-.027c-.959-.144-1.756.373-2.661.428s-1.283.886-.716,1.517q2.224,2.471,4.512,4.886a1.688,1.688,0,0,0,2.286-.059,19.137,19.137,0,0,0,3.711-5.217c.463-.982.141-1.5-.943-1.522C583.8,491.618,582.61,491.637,581.421,491.637Zm-7.117-9.069a5.311,5.311,0,0,0-1.657.532,3.529,3.529,0,0,0-1.172,1.545,1.16,1.16,0,0,0,.309,1.5.8.8,0,0,0,.473.18c.114-.02.221-.225.28-.369.044-.106,0-.248.011-.371.08-.665.6-1.423,1.105-1.493a2.825,2.825,0,0,1,1.295.023c.27.1.426.524.618.814.238.358.455.694.981.674.388-.014.572-.119.534-.526A3.026,3.026,0,0,0,574.3,482.568Zm11.474-.751c-1.527,0-1.5.025-2.405,1.046-.406.457-.157.942-.252,1.405.213.04.505.185.623.1a1.99,1.99,0,0,0,.5-.716,1.131,1.131,0,0,1,1.14-.714c1.18.006,1.455.142,1.864,1.507.137.456.384.371.671.4.435.04.493-.2.494-.566a3.131,3.131,0,0,0-.919-2.073C586.982,481.583,586.346,481.918,585.778,481.818Zm-5.466,4.909a2.17,2.17,0,0,0-1.9.79,1.278,1.278,0,0,0-.087.989c.07.267.833.169,1-.232.3-.74.747-.464,1.125-.222.211.134.22.569.427.728a1.515,1.515,0,0,0,.839.192c.09,0,.257-.236.266-.373A1.621,1.621,0,0,0,580.313,486.727Z" transform="translate(-58.274 -32.081)"/><path class="g" d="M591.347,444.5c-2.034,0-3.917-.032-5.8.018a1.662,1.662,0,0,1-1.441-.642,3.922,3.922,0,0,0-3.056-1.312,22.016,22.016,0,0,1-4.724-.861c-.855-.243-1.734-.3-2.589-.554-1.083-.323-2.337-.108-3.4-.475-1.287-.445-2.555-.19-3.819-.345a9.183,9.183,0,0,0-2.3.377,4.866,4.866,0,0,0-2.113.379c-1.052.621-2.315.5-3.463.7a36.083,36.083,0,0,0-5.089,1.414c-.675.225-.73.213-.733-.459a3.394,3.394,0,0,1,.328-1.563,22.947,22.947,0,0,0,.812-2.868c.3-.94.762-1.845,1.062-2.76.59-1.8,2.058-2.708,3.277-3.892,1.061-.129,1.42-1.224,2.313-1.683.755-.388,1.556-.833,2.3-1.311a2.148,2.148,0,0,1,1.713-.407c.757.2,1.4-.265,2.1-.383a8.161,8.161,0,0,0,2.151-.269,4.356,4.356,0,0,1,2.946-.021,8.415,8.415,0,0,0,1.948.3c.891.126,1.778.3,2.673.363a16.075,16.075,0,0,1,2.818.052,21.16,21.16,0,0,1,6.267,2.624A10.235,10.235,0,0,1,590,436.968a16.738,16.738,0,0,1,.985,4.508,11.576,11.576,0,0,0,.344,1.355A14.188,14.188,0,0,1,591.347,444.5Z" transform="translate(-50.26 -1.561)"/><path class="i" d="M492.4,772.251a8.927,8.927,0,0,1-3.182-.624c-1.255-.314-2.5-.667-3.779-.913a29.422,29.422,0,0,1-8.35-3,6.777,6.777,0,0,1-1.607-1.563c-.1-.116-.054-.432.011-.627a5.147,5.147,0,0,1,2.515-2.485c1.274-.811,2.669-1.429,4-2.157a4.349,4.349,0,0,1,3.715-.361,44.224,44.224,0,0,0,6.51,1.6,38.349,38.349,0,0,1,5.031,1.476c.728.229.933.858.627,1.8-.2.607-.393,1.219-.65,1.8a21.461,21.461,0,0,1-1.643,3.454A3.052,3.052,0,0,1,492.4,772.251Z" transform="translate(-2.243 -208.098)"/><path class="h" d="M589.362,556.642c0,4.932,0,9.571,0,14.21,0,.671-.309.935-.952,1.1-.973.245-1.38.752-1.3,1.666.093,1.017-.425,2.109.34,3.061.063.078-.052.344-.143.485a.349.349,0,0,1-.336.045c-.5-.533-1.142-.329-1.737-.371a2.508,2.508,0,0,1-1.074-.125c-1.286-.81-2.474.124-3.691.212-.518.036-.9.943-.912,1.615-.009.582-.293.566-.7.573-.462.008-.471-.265-.46-.6.1-2.972-.609-5.906-.4-8.891a17.012,17.012,0,0,0-.337-2.481c-.062-.729-.17-1.558.944-1.643,1.528-1.763,3.6-2.849,5.441-4.2A51.127,51.127,0,0,0,589.362,556.642Z" transform="translate(-65.648 -81.778)"/><path class="g" d="M539.979,472.061c1.421-1.75,3.424-2.749,5.246-3.994a5.9,5.9,0,0,1,3.692-1.145,5.192,5.192,0,0,0,1.54-.357c1.078-.307,2.174-.55,3.259-.814,1.487-.363,3.092-.214,4.489-.989.145-.08.421.071.635.121a5.578,5.578,0,0,0,.683.169,8.211,8.211,0,0,1,2.7.328c.784.341,1.749.1,2.673.352a10.926,10.926,0,0,1,2.9.787c.621.36,1.5.123,2.293.336a19.551,19.551,0,0,1,3.069.824c.3.135.715.021,1.118.259-1.078.3-2.151.625-3.238.889-1.709.416-3.414.828-5.1,1.356-1.9.6-3.86.974-5.748,1.619a.576.576,0,0,1-.5-.048c-.407-.482-.937-.192-1.4-.279-.763-.143-1.53.229-2.332-.325-.583-.4-1.487.121-2.3-.365-.557-.333-1.472-.064-2.227-.064-.944,0-1.887-.006-2.831,0a18.167,18.167,0,0,0-4.026.762,1.3,1.3,0,0,0-.613.329c-.982,1.027-2.245.8-3.449.772C540.335,472.582,540.164,472.25,539.979,472.061Z" transform="translate(-42.289 -24.763)"/><path class="i" d="M579.079,613.977c1.023,0,1.776.022,2.526-.006.6-.023,1.319-.508,1.353-.858.052-.531-.279-.952-1.2-.989a7.215,7.215,0,0,1-2.607-1.02c-.131-.057-.3-.288-.276-.383a.63.63,0,0,1,.38-.39c.412-.081.937-.254,1.245-.082,1.188.661,2.436.166,3.642.3.087.009.288-.327.309-.517.066-.6-.344-.835-.855-.973-.9-.241-1.8-.5-2.706-.747-.118-.032-.3.049-.366-.015a5.77,5.77,0,0,1-.5-.646c.249-.159.607-.515.729-.446,1.174.66,2.611.173,3.775.927a2.18,2.18,0,0,0,1.424.142c.289-.048.71-.41.729-.658a1.069,1.069,0,0,0-.6-.793c-.809-.325-1.667-.527-2.505-.783a9.137,9.137,0,0,1-1.156-.392.513.513,0,0,1-.2-.444.464.464,0,0,1,.36-.281c1.075.171,2.134-.205,3.272.291a10.368,10.368,0,0,0,3.584.432c.868.04,1.06-.37.7-1.162-.339-.739-.67-1.483-.956-2.243a2.148,2.148,0,0,1-.157-1.053,4.987,4.987,0,0,1,.472-1.118,4.2,4.2,0,0,1,1.033.537,27.272,27.272,0,0,1,3.166,3.222,4.636,4.636,0,0,1,.973,2.788,31.531,31.531,0,0,1-.027,3.391,5.305,5.305,0,0,1-2.732,4.341c-.719.386-1.448.754-2.169,1.136a2.614,2.614,0,0,1-1.353.4c-1.884-.05-3.773.035-5.655-.046a21.41,21.41,0,0,1-2.412-.52C579.6,615.2,579.579,614.528,579.079,613.977Z" transform="translate(-66.421 -108.722)"/><path class="g" d="M599.718,628.476c1.906.146,3.513-.693,5.137-1.375a2.665,2.665,0,0,1,1.036-.223c1-.018,2.011-.026,3.015,0a17.307,17.307,0,0,0,2.867-.329,23.128,23.128,0,0,0,2.737-.7,41.369,41.369,0,0,0,7.36-2.724,24.168,24.168,0,0,0,6.888-4.758c.8-.812,1.127-.751,1.427.331.329,1.191.56,2.409.821,3.62.039.179-.069.49.017.546.741.482-.009,1.493.719,1.956a1.339,1.339,0,0,1-.269.262,19.762,19.762,0,0,1-2.026,1.022c-1.842.712-3.746,1.279-5.542,2.089-.615.278-1.307-.088-1.879.532-.413.446-1.232.325-1.871.451a29.009,29.009,0,0,1-5.727.719,44.57,44.57,0,0,1-6.022-.069c-1.594-.227-3.214-.05-4.739-.38C602.349,629.161,600.917,629.327,599.718,628.476Z" transform="translate(-79.35 -119.728)"/><path class="i" d="M763.983,681.894a.853.853,0,0,1-1.187.858,5.74,5.74,0,0,0-2.315-.351,6.775,6.775,0,0,1-1.538-.376c-1.249-.474-2.48-.993-3.714-1.5a1.093,1.093,0,0,1-.712-1.141,16.176,16.176,0,0,0-1.434-5.434,47.108,47.108,0,0,0-2.146-4.768c-.368-.741-.293-.985.557-1.269,1.281-.427,2.5-1.137,3.931-.982.867-.882,1.446.022,1.938.446a5.1,5.1,0,0,1,.96,1.652c1.473,2.973,2.984,5.927,4.374,8.937A34.728,34.728,0,0,1,763.983,681.894Z" transform="translate(-173.032 -149.966)"/><path class="h" d="M498.247,573.343c1.183,0,2.366.036,3.548-.008,1.658-.062,3.325-.886,4.95-.4,2.382.72,4.763.28,7.141.372,1.057.041,2.121-.344,3.187-.4,1.4-.073,2.776.878,4.161.393a11.436,11.436,0,0,1,3.789-.4,1.486,1.486,0,0,1,.514.2c-.086.255-.109.593-.269.753a9.208,9.208,0,0,1-1.793,1.567c-.526.3-1.035.776-1.749.64a8.462,8.462,0,0,0-1.967-.02,61.471,61.471,0,0,0-8.5.538,43.325,43.325,0,0,1-6.355.334c-1.275.056-2.462.681-3.781.507a9.218,9.218,0,0,0-3.728.024c-2.515.743-5.032.184-7.537.382-.174.014-.505-.091-.507-.15a1.269,1.269,0,0,1,.148-.754c.765-.927,1.573-1.809,2.355-2.718a2.468,2.468,0,0,1,2.052-.875C495.356,573.363,496.8,573.343,498.247,573.343Z" transform="translate(-11.645 -92.199)"/><path class="j" d="M503.708,566.2a4.945,4.945,0,0,1,4.067-2.236c3.364-.064,6.73-.056,10.094,0,1.55.025,3.01-.68,4.59-.5a12.205,12.205,0,0,0,4.533-.04c2.08-.579,4.129-.264,6.187-.355,2.042-.09,4.09-.029,6.135,0,.2,0,.389.231.584.353a3.359,3.359,0,0,1-.444.527,11.948,11.948,0,0,1-2.958,2.179,11.11,11.11,0,0,1-3.541.083H503.708Z" transform="translate(-20.629 -86)"/><path class="h" d="M548.572,556.41a2.676,2.676,0,0,0-.6.514,2.113,2.113,0,0,1-1.969,1.05c-5.446-.052-10.894.015-16.34-.053-1.511-.02-2.928.694-4.457.536a11.885,11.885,0,0,0-4.595.051c-2.016.611-3.968.125-6.218.5.843-1.174,1.574-1.629,2.484-1.527,3.1.347,6.16-.731,9.261-.479,2.092-.849,4.249-.392,6.377-.459,2.113-.067,4.231.06,6.343-.033,2.831-.124,5.647-.686,8.493-.46.366.03.735,0,1.1,0Z" transform="translate(-26.721 -81.682)"/><path class="i" d="M552.759,500.453a7.536,7.536,0,0,1,.351-2.46c.451-1.1,1.5-1.062,2.267-1.524.181-.109.684.15.928.365.179.158.2.517.249.794.171.888-.272,1.806.274,2.706.428.706-.2,1.679.456,2.445.185.216.041.727.026,1.1-.034.907-.379.1-.591.124-1.835.175-2.7-1.242-3.718-2.318C552.694,501.361,552.792,500.652,552.759,500.453Z" transform="translate(-50.218 -44.432)"/><path class="f" d="M560.671,484.458c.909,0,1.821-.064,2.724.02a16.918,16.918,0,0,1,2.34.488,1.648,1.648,0,0,1,.446.288c-.149.174-.27.433-.449.511-1.334.58-2.67,1.162-4.025,1.666a22.6,22.6,0,0,0-3.408,1.643c-.667.524-2.7,0-3-.838-.175-.485.068-1.141-.443-1.533a.846.846,0,0,1,.1-.625c.848-.558,1.433-1.678,2.573-1.629C558.574,484.493,559.622,484.458,560.671,484.458Z" transform="translate(-52.289 -37.343)"/><path class="i" d="M606.586,544.451a4.564,4.564,0,0,1-.537,1.166,16.265,16.265,0,0,1-3.4,2.656c-.272.177-.551.163-.643-.3a.9.9,0,0,0-1.072-.757c-.311.028-.626,0-.939,0-2.532,0-2.745-.1-4.258-1.952a1.369,1.369,0,0,1-.139-.5,2.223,2.223,0,0,1,.64-.1c.157.021.3.281.44.272,1.846-.121,3.616.6,5.482.421,1.146-.112,2.083-.791,3.2-.922.284-.033.554-.193.839-.224C606.317,544.2,606.459,544.369,606.586,544.451Z" transform="translate(-76.794 -74.069)"/><path class="g" d="M620.247,546.5c-.156,1.233-.3,2.432-.464,3.627-.074.532-.554.7-1.178.517a7.329,7.329,0,0,1-2.975-1.453c-.157-.14-.453-.112-.657-.214a2.694,2.694,0,0,1-.473-.386c.1-.12.189-.313.317-.349a9.328,9.328,0,0,0,2.923-1.993,4.22,4.22,0,0,0,1.689-3.607c0-.148.253-.3.389-.454a3.939,3.939,0,0,1,.338.52.7.7,0,0,1,.006.371c-.082.56-.433,1.284-.205,1.641C620.367,545.355,619.923,545.955,620.247,546.5Z" transform="translate(-88.521 -72.808)"/><path class="f" d="M645.566,475.471a20.143,20.143,0,0,1,.674,4.9c-.057.658-.07,1.4-.778,1.539a2.663,2.663,0,0,1-2.628-.348,18.417,18.417,0,0,1-2.95-3.564c-.459-.767-1-1.493-1.508-2.237,1.016-.59,2.143-.22,3.215-.274C642.883,475.421,644.181,475.471,645.566,475.471Z" transform="translate(-104.423 -32.026)"/><path class="i" d="M646.377,497.615c-.529-1.563.255-3.026.283-4.535,0-.241.436-.613.728-.684a2.079,2.079,0,0,1,2.515,1.553,2.138,2.138,0,0,1-.847,2.522c-.491.206-.722.66-1.177.8C647.389,497.423,646.877,497.5,646.377,497.615Z" transform="translate(-108.183 -41.879)"/><path class="g" d="M585.207,549.542l-7.106.583a11.31,11.31,0,0,1,4.414-1.966C583.58,547.826,584.418,548.651,585.207,549.542Z" transform="translate(-65.939 -76.469)"/><path class="k" d="M596.79,516.232c1.189,0,2.378-.019,3.566.006,1.083.022,1.405.541.943,1.522a19.133,19.133,0,0,1-3.711,5.217,1.688,1.688,0,0,1-2.286.059q-2.292-2.409-4.512-4.886c-.567-.63-.2-1.46.716-1.517s1.7-.572,2.661-.428A17.823,17.823,0,0,0,596.79,516.232Zm.253,1.133c-.006-.039-.013-.078-.018-.117-1.321.165-2.643.322-3.961.5a2.792,2.792,0,0,0-.617.24,2.653,2.653,0,0,0,.312.619c1.021,1.143,2.3,2.051,3.061,3.436.171.311.483.342.765.057a19.829,19.829,0,0,0,1.581-1.608,13.909,13.909,0,0,0,1.329-2.078c.364-.683.142-1.036-.572-1.049C598.3,517.356,597.671,517.365,597.043,517.365Z" transform="translate(-73.643 -56.676)"/><path class="k" d="M600.775,503.369a1.621,1.621,0,0,1,1.664,1.872c-.009.137-.177.376-.266.373a1.516,1.516,0,0,1-.839-.192c-.207-.159-.217-.595-.427-.728-.378-.241-.823-.518-1.125.222-.163.4-.926.5-1,.232a1.278,1.278,0,0,1,.087-.989A2.17,2.17,0,0,1,600.775,503.369Z" transform="translate(-78.736 -48.723)"/><path class="i" d="M600.195,519.11c.627,0,1.254-.009,1.881,0,.713.013.936.365.572,1.048a13.906,13.906,0,0,1-1.329,2.078,19.849,19.849,0,0,1-1.581,1.608c-.282.285-.595.254-.765-.057-.759-1.385-2.04-2.292-3.061-3.436a2.655,2.655,0,0,1-.312-.619,2.79,2.79,0,0,1,.617-.24c1.319-.18,2.64-.337,3.961-.5C600.182,519.032,600.189,519.071,600.195,519.11Z" transform="translate(-76.794 -58.422)"/><path class="f" d="M476.5,499.069c-.016-3.288-.629-6.553-.378-9.851-.575-1.16-.3-2.408-.393-3.619a.992.992,0,0,1,.573-1.07,2.193,2.193,0,0,0,1.366-1.312c.168-.407.675-.683,1.047-1a10.409,10.409,0,0,0,.863-.639,42.746,42.746,0,0,1,5.683-4.528,13.916,13.916,0,0,0,2.187-1.5,3.015,3.015,0,0,1,2.486-.911,31.97,31.97,0,0,0,6.06-.427,21.3,21.3,0,0,1,4.2-.283c1.411-.027,2.745-.568,4.19-.428a39.681,39.681,0,0,0,4.341.02,1.1,1.1,0,0,0,.656-.22c1.447-1.243,3.363-1.311,5.025-2.013a12.629,12.629,0,0,1,2.1-.413,1.438,1.438,0,0,0,.6-.374c.35-.323.258-.6-.226-.746a10.537,10.537,0,0,1-4.571-2.6c-.707-.719-1.69-1.006-2.272-2.017a13.625,13.625,0,0,1-1.717-3.075c-.229-.848-.7-1.142-1.462-.989-1.455.292-2.523-.651-3.662-1.2a4.014,4.014,0,0,1-1.809-2.4,4.891,4.891,0,0,1,.77-4.88c.131-.136.261-.274.4-.4.355-.319.519-.549.142-1.073a2.319,2.319,0,0,1-.53-1.858c.015-.066-.3-.3-.355-.273-1.223.694-2.553.2-3.817.368a2.51,2.51,0,0,1-1.541-.39c-.8-.429-.907-1.149-.41-1.984a10.487,10.487,0,0,1,3.76-3.638,2.192,2.192,0,0,0,1.289-1.955,16.749,16.749,0,0,1,.722-3.088c.4-1.467.745-2.961,1.288-4.376a9.636,9.636,0,0,1,4.113-4.851,20.668,20.668,0,0,1,3.375-2.319,19.942,19.942,0,0,1,4.814-1.638,46.667,46.667,0,0,1,7.028-.3c.955,0,1.906.281,2.866.345a15.214,15.214,0,0,1,2.82.056c1.528.409,3.171.358,4.6,1.2a28.6,28.6,0,0,1,3.975,2.2c1.606,1.343,3.3,2.753,3.648,5.06,1.148,1.7,1.208,3.674,1.552,5.6a16.927,16.927,0,0,1,.329,3.062c0,.252.1.652-.016.733-1.364.935-.381,2.175-.2,3.1.189.99.084,1.948.22,2.908-.621.508-.388.916.123,1.339.813.672.377,1.845,1,2.607a.371.371,0,0,1-.059.339c-.932,1.046-1.48,2.45-2.788,3.136a6.062,6.062,0,0,1-1.534.393,2.064,2.064,0,0,0-1.658,1.735c-.305,1.435-.673,2.854-1.072,4.268-.168.595-.714.944-.749,1.376a2.1,2.1,0,0,1-.73,1.419,3.223,3.223,0,0,0-.46.564c-.564.91-.5.955.618,1.226,1.967.475,3.986.685,5.946,1.154a14.468,14.468,0,0,1,5.5,2.27,16.929,16.929,0,0,1,3.625,4.2,20.6,20.6,0,0,1,2.48,4.819,35.979,35.979,0,0,1,1.294,3.805,3.559,3.559,0,0,1,.167.5c.136,1.583.216,3.173.395,4.752.189,1.679-.633,3.164-.86,4.766a4.824,4.824,0,0,1-1.429,2.21,1.413,1.413,0,0,0-.323,1.542,38.376,38.376,0,0,1,1.369,4.524,9.161,9.161,0,0,1,.516,3.4,1.977,1.977,0,0,1-.7,1.423c-.846.759-.907.762-.842,1.5a13.569,13.569,0,0,1-1.584,6.9,1.266,1.266,0,0,0,.1,1.594,44.383,44.383,0,0,0,3.891,4.237,6.6,6.6,0,0,0,5.094,2.254c.6-.019,1.049.882,1.818.09.4-.416,1.374-.237,2.051-.449a12.244,12.244,0,0,0,1.734-.824c2.816-1.4,5.753-2.536,8.554-3.974a15.751,15.751,0,0,1,3.044-.851,2,2,0,0,0,.647-.255,9.464,9.464,0,0,1,6.5-1.61,1.71,1.71,0,0,1,.919.489,15.374,15.374,0,0,1,3.473,5.732,3.344,3.344,0,0,0,.392.965c.934,1.037,1.089,2.45,1.827,3.6a13.881,13.881,0,0,1,1.373,3.571,7.033,7.033,0,0,1,.551,3.167c-.045.274-.245.746-.379.747-.791.01-1.4,1.018-2.33.368a2.009,2.009,0,0,0-1.248-.143,9.845,9.845,0,0,1-4.328-.967c-.932-.322-1.817-.78-2.717-1.189a1.058,1.058,0,0,0-1.171.132c-.815.56-1.489,1.491-2.685,1.256-1.53,1.344-3.533,1.837-5.216,2.906a7.276,7.276,0,0,1-1.186.784c-1.753.66-3.272,1.766-5.014,2.485-2.1.868-4.254,1.581-6.354,2.44a11.372,11.372,0,0,1-2.281.383,11.7,11.7,0,0,1-4.13,0,17.594,17.594,0,0,1-2.816-.462,18.621,18.621,0,0,1-4.026-1.694,39.584,39.584,0,0,1-3.8-2.677c-2.3-1.921-4.395-4.048-6.491-6.175a22.118,22.118,0,0,1-2-2.381,1.32,1.32,0,0,0-1.658-.47,23.46,23.46,0,0,1-2.546.7c-.817.309-1.653.567-2.477.859-1.317.467-2.651.894-3.942,1.424a44.9,44.9,0,0,0-6.03,2.792c-1.928,1.148-3.517,2.694-5.36,3.912a30.15,30.15,0,0,0-3.577,3.214c-.81.743-1.724,1.378-2.5,2.152a30.248,30.248,0,0,0-5.625,7.861c-.29.576-.728,1.082-.995,1.667-.41.9-1.174,1.642-1.166,2.734a1.1,1.1,0,0,1-.38.769c-1.3,1.013-1.351,2.586-1.884,3.95a19.76,19.76,0,0,1-1.6,3.3,5.363,5.363,0,0,1-5.518,1.877c-2-.528-4.025-.954-6.023-1.448-3.329-.823-6.686-1.725-9.6-3.708a3.4,3.4,0,0,1-1.407-3.884c.075-.215.3-.378.466-.561a14.726,14.726,0,0,1,6.738-4.248,4.123,4.123,0,0,0,2.931-2.966,11.993,11.993,0,0,1,.818-1.935c.718-1.655,1.461-3.3,2.264-4.916.7-1.412,1.545-2.756,2.244-4.171.927-1.878,1.673-3.852,2.684-5.681.943-1.705,2.125-3.28,3.215-4.9.333-.5.694-.978,1.068-1.445s.953-.767,1.086-1.445c.04-.205.305-.414.517-.529,1.4-.754,2.269-2.088,3.453-3.07,1.815-1.507,3.631-3.023,5.547-4.393,1.576-1.128,3.29-2.065,4.959-3.058.7-.417,1.449-.756,2.17-1.141a24.217,24.217,0,0,1,4.5-1.893c.494-.147.483-.5.214-1.018a1.308,1.308,0,0,0-1.515-.887,3.845,3.845,0,0,1-2.352-.677,4.759,4.759,0,0,0-2.085-.455c-2.3-.129-4.527.564-6.833.428a31.994,31.994,0,0,0-6.786.037c-3.3.518-6.581.122-9.861.322-.9.055-1.782.289-2.678.353-.877.063-1.873-.245-2.617.075a8.765,8.765,0,0,1-3.27.3c-.941.051-1.5-.593-1.615-1.569-.091-.771-.279-1.53-.36-2.3a17.354,17.354,0,0,0-.318-2.124A16.2,16.2,0,0,1,476.5,499.069Zm74.382,9.88c.094-1.009-.227-1.3-.949-1.012-1.783.713-3.595,1.347-5.392,2.02a24.766,24.766,0,0,1-5.109,1.319c-1.382.2-2.78-.052-4.2.337a11.726,11.726,0,0,1-3.568.049,10.079,10.079,0,0,1-3.452-.308,9.594,9.594,0,0,0-2.619-.071c-.833-.06-1.657-.251-2.487-.359-.649-.086-1.3.1-1.946-.342a2.288,2.288,0,0,0-1.613-.185,11.211,11.211,0,0,0-2.632.919,49.911,49.911,0,0,0-5.653,2.769c-1.556,1.054-3.2,1.977-4.813,2.95a19.482,19.482,0,0,0-3.445,2.647c-.947.91-2.185,1.522-3.113,2.447a41.943,41.943,0,0,0-4.978,5.28,54.27,54.27,0,0,0-4.433,6.851c-.521,1.038-.926,2.133-1.422,3.184-1.94,4.1-4.108,8.1-5.868,12.289-.068.161-.251.3-.257.455-.014.331-.152.661.455.794,1.947.428,3.855,1.03,5.8,1.47a46.86,46.86,0,0,1,7.4,2.176c.327.134.5.183.69-.225.888-1.91,1.943-3.733,2.953-5.579a20.716,20.716,0,0,1,2.9-4.246,84.958,84.958,0,0,1,7.952-7.635c.14-.116.28-.232.426-.341.866-.643,1.73-1.289,2.6-1.928a14.259,14.259,0,0,1,2.042-1.452,59.549,59.549,0,0,1,7.928-3.643c2.383-.76,4.7-1.781,7.123-2.367a85.033,85.033,0,0,0,8.648-2.839,15.041,15.041,0,0,0,4.7-3.195,14.246,14.246,0,0,0,2.232-2.443,26,26,0,0,0,2.65-4.955C550.148,512.13,550.233,510.349,550.886,508.949Zm-23.115-3.4a16.379,16.379,0,0,0,6.846-.691c1.225-.376,2.445-.781,3.662-1.181a24.693,24.693,0,0,0,4.485-1.9,31.807,31.807,0,0,0,7.032-5.39,11.052,11.052,0,0,0,3.025-7.255c.14-1.811-.513-3.528-.408-5.317a.811.811,0,0,0-.066-.348c-.528-1.291-1.042-2.588-1.6-3.865a24.461,24.461,0,0,0-2.889-5.019,7.965,7.965,0,0,0-4.574-3.377,19.129,19.129,0,0,1-2.849-.842c-2.328-.929-4.822-1.077-7.2-1.731-.7-.192-.736-.024-.557.839a9.973,9.973,0,0,1,.1,1.658c.022.623-.186,1.38.1,1.837a2.4,2.4,0,0,1,.252,1.774c-.21,1.284-.611,2.534-.738,3.842-.043.443-1.1,1.349-1.4,1.256a8.954,8.954,0,0,1-1.29-.527c-1.257-.61-2.514-1.222-3.751-1.871-.444-.233-.71-.228-.715.325-.016,1.7.043,3.4-.02,5.093-.063,1.711-.266,3.417-.347,5.128-.024.519-.246,1.127.314,1.571.069.055.033.4-.063.482-.519.436-.215.723.116,1.061,1.281,1.3,2.724,2.471,3.48,4.216.242.559.8.579,1.3.478.686-.14,1.343-.421,2.029-.555a11.06,11.06,0,0,0,3.6-1.771c2.231-1.374,3.969-3.16,3.941-6.051a1.562,1.562,0,0,1,.059-.541,3.846,3.846,0,0,0-.687-4.363,2.345,2.345,0,0,1-.4-.772c-.062-.155-.115-.46-.063-.486a1.064,1.064,0,0,1,.675-.161,3.5,3.5,0,0,1,1.919,2.643c.025,1.131.016,2.264,0,3.4-.009.782-.475,1.458-.432,2.3.028.561-.469,1.165-.777,1.726-1.125,2.045-3,3.2-4.975,4.291a13.43,13.43,0,0,1-5.192,1.606C529.9,500.081,529.915,502.985,527.771,505.55Zm-16.9-20.428c-3.039.439-5.974-.374-8.845.493-1.8-.222-3.545.26-5.318.383-2.024.14-4.089-.38-6.074.373-3.672-.21-7.307.652-10.984.386-.793-.057-1.592-.008-2.392-.008,0,.8-.049,1.437.013,2.059.065.646.308,1.277.352,1.922.167,2.463.041,4.923.289,7.4.255,2.562.346,5.173.477,7.764.052,1.033.244,1.263,1.354,1.232,1.087-.029,2.222.279,3.243-.365,1.74.288,3.4-.453,5.13-.4,2.2.073,4.406-.005,6.607.022,4.485.056,8.946-.642,13.439-.4.632.033,1.325-.438,1.909-.31,1.036.227,1.126-.668,1.639-1.058.128-.1.35-.059.51-.128.191-.082.52-.233.509-.318a1.008,1.008,0,0,0-.343-.6c-.318-.259-.724-.415-1.029-.686a1.224,1.224,0,0,1-.14-1.908,1.573,1.573,0,0,0,.416-1.16c-.053-1.153.175-2.335-.383-3.431.278-2.236-.454-4.414-.386-6.641C510.909,488.307,510.873,486.861,510.873,485.122Zm44.518,55.55c.626-.229,1.87.579,2.93-.293,1.594.08,2.971-.727,4.419-1.176a34.609,34.609,0,0,0,4.795-2.068c1.208-.588,2.307-1.4,3.525-1.964a60.241,60.241,0,0,0,6.286-3.483c.356-.219.692-.73,1.006-.705a1.433,1.433,0,0,0,1.488-.913,2.772,2.772,0,0,0,.069-1.978c-.635-1.386-.706-2.964-1.543-4.268a3.84,3.84,0,0,1-.268-.83,21.588,21.588,0,0,0-1.9-3.925.518.518,0,0,0-.449-.2,13.521,13.521,0,0,0-1.586.718,11.6,11.6,0,0,1-1.983,1.126,46.957,46.957,0,0,0-5.125,2.2c-2.455,1.056-4.832,2.316-7.666,2a10.34,10.34,0,0,1-4.473-1.5,17.744,17.744,0,0,1-5.145-5.37c-.283-.425-.495-.437-.755-.051a32.876,32.876,0,0,1-2.219,3.217,10.548,10.548,0,0,1-2.638,2.252c-1.312.754-2.4,1.8-3.96,2.285a35.947,35.947,0,0,0-4.351,1.766c-.5.231-.568.4-.257.755,1.053,1.2,2.075,2.443,3.208,3.568,1.4,1.391,2.86,2.734,4.382,3.991a20.818,20.818,0,0,0,2.248,1.851C548.328,539.431,551.295,541.105,555.391,540.672Zm-31.452-70.933A9.269,9.269,0,0,0,528.5,469a10.4,10.4,0,0,0,6.535-6.645,13.267,13.267,0,0,0,1.143-4.814c.675-.676.048-1.67.431-2.264.519-.8.2-1.567.318-2.334a5.931,5.931,0,0,1,.314-1.572,2.023,2.023,0,0,0-.576-2.18,9.985,9.985,0,0,1-2.193-3.223,3.963,3.963,0,0,0-.662-1.045,1.039,1.039,0,0,0-1.433-.322c-1.068.454-2.338.317-3.371.978-2.008-.047-3.77.952-5.677,1.346-.913.189-1.793.529-2.693.785-.919.261-1.933.013-2.809.513a5.635,5.635,0,0,0-4.215,1.223,4.858,4.858,0,0,1-.913.528c-1.466.564-2.933,1.132-4.421,1.632-.562.188-.842.47-.8,1.049a5.946,5.946,0,0,0,.324,2.323,10.21,10.21,0,0,1,.352,2.288,26.651,26.651,0,0,0,1.2,3.674,6.647,6.647,0,0,0,1.9,3.368c.074,1.083,1.288.964,1.768,1.683a5.86,5.86,0,0,0,2.182,1.51A15.482,15.482,0,0,0,523.938,469.739Zm17.148-26.8a14.2,14.2,0,0,0-.014-1.667,11.561,11.561,0,0,1-.344-1.355,16.737,16.737,0,0,0-.985-4.508,10.235,10.235,0,0,0-4.464-6.049,21.162,21.162,0,0,0-6.267-2.624,16.084,16.084,0,0,0-2.818-.052c-.9-.06-1.783-.237-2.673-.363a8.42,8.42,0,0,1-1.948-.3,4.356,4.356,0,0,0-2.946.021,8.162,8.162,0,0,1-2.151.269c-.7.118-1.348.582-2.1.383a2.148,2.148,0,0,0-1.713.407c-.744.479-1.544.923-2.3,1.311-.893.459-1.252,1.554-2.313,1.683-1.218,1.184-2.686,2.092-3.277,3.892-.3.915-.762,1.821-1.062,2.76a22.951,22.951,0,0,1-.812,2.868,3.4,3.4,0,0,0-.328,1.563c0,.672.058.684.733.459a36.081,36.081,0,0,1,5.089-1.414c1.149-.2,2.411-.08,3.463-.7a4.867,4.867,0,0,1,2.113-.379,9.187,9.187,0,0,1,2.3-.377c1.264.155,2.532-.1,3.819.345,1.059.367,2.313.151,3.4.475.855.255,1.734.312,2.589.554a22.02,22.02,0,0,0,4.724.861,3.921,3.921,0,0,1,3.056,1.312,1.662,1.662,0,0,0,1.441.642C537.17,442.906,539.052,442.938,541.086,442.938ZM490.162,564.153a3.052,3.052,0,0,0,3.2-1.6A21.466,21.466,0,0,0,495,559.1a19.161,19.161,0,0,0,.65-1.8c.306-.943.1-1.572-.627-1.8a38.34,38.34,0,0,0-5.031-1.476,44.232,44.232,0,0,1-6.511-1.6,4.349,4.349,0,0,0-3.715.361c-1.329.728-2.725,1.345-4,2.157a5.147,5.147,0,0,0-2.515,2.485c-.066.2-.115.511-.011.627a6.777,6.777,0,0,0,1.607,1.563,29.419,29.419,0,0,0,8.35,3c1.281.246,2.524.6,3.779.913A8.929,8.929,0,0,0,490.162,564.153Zm33.552-89.289a51.133,51.133,0,0,1-5.31,4.65c-1.838,1.352-3.913,2.437-5.441,4.2-1.115.084-1.006.914-.944,1.643a17.03,17.03,0,0,1,.337,2.481c-.205,2.985.5,5.918.4,8.891-.011.337,0,.61.46.6.406-.006.69.009.7-.572.011-.672.394-1.579.912-1.615,1.217-.088,2.405-1.023,3.691-.212a2.506,2.506,0,0,0,1.074.125c.6.042,1.238-.162,1.737.371a.349.349,0,0,0,.336-.045c.091-.141.206-.406.143-.485-.765-.952-.247-2.044-.34-3.061-.084-.914.323-1.421,1.3-1.666.643-.161.954-.426.952-1.1C523.709,484.435,523.714,479.8,523.714,474.864ZM497.69,447.3c.185.189.356.521.535.525,1.2.027,2.467.255,3.449-.772a1.3,1.3,0,0,1,.613-.329,18.168,18.168,0,0,1,4.026-.762c.943-.008,1.887,0,2.831,0,.755,0,1.67-.269,2.227.064.813.486,1.717-.037,2.3.365.8.554,1.569.182,2.332.325.466.087,1-.2,1.4.279a.576.576,0,0,0,.495.048c1.888-.645,3.852-1.022,5.748-1.619,1.684-.529,3.389-.941,5.1-1.356,1.087-.264,2.159-.59,3.238-.889-.4-.238-.815-.124-1.118-.259a19.56,19.56,0,0,0-3.069-.824c-.8-.213-1.673.024-2.293-.336a10.927,10.927,0,0,0-2.9-.787c-.924-.256-1.889-.011-2.673-.352a8.211,8.211,0,0,0-2.7-.328,5.583,5.583,0,0,1-.683-.169c-.214-.051-.49-.2-.635-.121-1.4.775-3,.627-4.489.989-1.084.265-2.18.507-3.259.814a5.192,5.192,0,0,1-1.54.357,5.9,5.9,0,0,0-3.692,1.145C501.114,444.549,499.11,445.548,497.69,447.3Zm14.969,57.957c.5.552.524,1.227,1.241,1.342a21.42,21.42,0,0,0,2.412.52c1.883.08,3.771,0,5.655.046a2.614,2.614,0,0,0,1.353-.4c.722-.382,1.451-.75,2.169-1.136a5.305,5.305,0,0,0,2.732-4.341,31.53,31.53,0,0,0,.027-3.391,4.636,4.636,0,0,0-.973-2.788,27.277,27.277,0,0,0-3.166-3.222,4.2,4.2,0,0,0-1.033-.537,4.984,4.984,0,0,0-.472,1.118,2.146,2.146,0,0,0,.157,1.053c.286.76.618,1.5.956,2.243.363.792.171,1.2-.7,1.162a10.37,10.37,0,0,1-3.584-.432c-1.138-.5-2.2-.12-3.272-.291a.464.464,0,0,0-.36.281.513.513,0,0,0,.2.444,9.145,9.145,0,0,0,1.156.392c.838.256,1.7.458,2.505.783a1.069,1.069,0,0,1,.6.793c-.019.247-.44.61-.729.658a2.18,2.18,0,0,1-1.424-.142c-1.164-.754-2.6-.267-3.775-.927-.121-.068-.48.288-.728.446a5.767,5.767,0,0,0,.5.646c.062.064.248-.017.366.015.9.244,1.8.506,2.706.747.511.138.921.369.855.973-.021.19-.222.527-.309.517-1.206-.139-2.454.357-3.642-.3-.308-.172-.833,0-1.245.082a.629.629,0,0,0-.38.39c-.029.095.145.326.276.383a7.215,7.215,0,0,0,2.607,1.02c.916.037,1.247.458,1.2.989-.035.35-.75.835-1.353.858C514.434,505.276,513.682,505.255,512.659,505.255Zm7.709,3.493c1.2.852,2.631.685,3.95.97,1.525.329,3.145.153,4.739.38a44.584,44.584,0,0,0,6.022.069,29.008,29.008,0,0,0,5.727-.719c.639-.125,1.458,0,1.871-.451.572-.62,1.264-.254,1.879-.532,1.8-.809,3.7-1.377,5.542-2.089a19.769,19.769,0,0,0,2.026-1.022,1.343,1.343,0,0,0,.269-.262c-.728-.463.023-1.474-.719-1.956-.086-.056.022-.367-.017-.546-.26-1.21-.491-2.428-.821-3.62-.3-1.081-.626-1.143-1.427-.331a24.167,24.167,0,0,1-6.888,4.758,41.357,41.357,0,0,1-7.36,2.724,23.149,23.149,0,0,1-2.737.7,17.323,17.323,0,0,1-2.867.329c-1-.025-2.01-.017-3.015,0a2.665,2.665,0,0,0-1.036.223C523.881,508.054,522.274,508.894,520.368,508.748Zm70.582,23.181A34.708,34.708,0,0,0,589.665,528c-1.391-3.01-2.9-5.965-4.374-8.937a5.1,5.1,0,0,0-.96-1.652c-.492-.424-1.07-1.328-1.938-.446-1.43-.155-2.651.555-3.931.982-.85.284-.926.529-.557,1.269a47.113,47.113,0,0,1,2.146,4.768,16.176,16.176,0,0,1,1.434,5.434,1.093,1.093,0,0,0,.712,1.141c1.234.51,2.466,1.029,3.714,1.5a6.775,6.775,0,0,0,1.538.376,5.741,5.741,0,0,1,2.315.351A.853.853,0,0,0,590.95,531.928ZM486.989,481.461c-1.384,0-2.769.017-4.153-.007a2.53,2.53,0,0,0-1.965.735c-.749.763-1.523,1.5-2.256,2.282a.956.956,0,0,0-.142.633c0,.05.319.138.486.126,2.4-.167,4.81.3,7.22-.321a10.049,10.049,0,0,1,3.571-.02c1.263.146,2.4-.379,3.622-.426a47.273,47.273,0,0,0,6.087-.281,67.071,67.071,0,0,1,8.138-.451,9.24,9.24,0,0,1,1.884.017,2.633,2.633,0,0,0,1.675-.538,8.583,8.583,0,0,0,1.717-1.316c.153-.134.176-.418.258-.632a1.546,1.546,0,0,0-.492-.171,12.433,12.433,0,0,0-3.629.338c-1.327.407-2.645-.391-3.986-.33-1.021.046-2.04.369-3.053.335-2.277-.077-4.558.292-6.84-.312-1.556-.412-3.153.28-4.741.332C489.256,481.491,488.122,481.461,486.989,481.461Zm-3.069-1.51h27.886a12.044,12.044,0,0,0,3.376-.07A11.438,11.438,0,0,0,518,478.057a2.943,2.943,0,0,0,.423-.441c-.186-.1-.37-.293-.557-.3-1.95-.022-3.9-.072-5.85,0s-3.916-.187-5.9.3a13.227,13.227,0,0,1-4.322.034c-1.506-.148-2.9.442-4.376.421-3.207-.044-6.417-.05-9.625,0A4.92,4.92,0,0,0,483.92,479.951Zm37.625-5-.115-.287c-.361,0-.724.021-1.084,0a83.22,83.22,0,0,0-8.341.366c-2.074.074-4.154-.027-6.23.026s-4.209-.31-6.263.366c-3.045-.2-6.046.658-9.1.381a2.787,2.787,0,0,0-2.44,1.216c2.21-.3,4.126.09,6.107-.4a14.35,14.35,0,0,1,4.513-.04c1.5.126,2.893-.442,4.377-.427,5.349.054,10.7,0,16.048.043a2.236,2.236,0,0,0,1.934-.836A2.558,2.558,0,0,1,521.545,474.949Zm-19-18.928c.033.2-.065.908.243,1.233,1.018,1.077,1.883,2.494,3.718,2.318.212-.021.557.782.591-.124.015-.375.159-.885-.026-1.1-.656-.766-.028-1.739-.456-2.445-.546-.9-.1-1.818-.275-2.706-.054-.277-.07-.636-.249-.794-.244-.215-.747-.474-.928-.365-.769.462-1.817.42-2.267,1.524A7.538,7.538,0,0,0,502.541,456.021Zm6.011-8.551c-.938,0-1.876.027-2.812-.008-1.02-.037-1.543.812-2.3,1.235a.557.557,0,0,0-.087.474c.457.3.24.794.4,1.162.269.633,2.086,1.033,2.682.635a21.973,21.973,0,0,1,3.048-1.245c1.213-.383,2.407-.823,3.6-1.263.16-.059.269-.255.4-.387a1.527,1.527,0,0,0-.4-.219,17.533,17.533,0,0,0-2.093-.37C510.181,447.421,509.365,447.47,508.552,447.47Zm21.24,22.913c-.128-.082-.269-.249-.391-.236-.284.031-.554.191-.839.224-1.116.131-2.052.81-3.2.922-1.865.181-3.636-.542-5.482-.421-.139.009-.283-.251-.44-.272a2.219,2.219,0,0,0-.64.1,1.37,1.37,0,0,0,.138.5c1.513,1.855,1.726,1.948,4.258,1.952.313,0,.628.023.939,0a.9.9,0,0,1,1.072.757c.092.464.371.478.643.3a16.264,16.264,0,0,0,3.4-2.656A4.561,4.561,0,0,0,529.792,470.383Zm1.934,3.306c-.323-.543.12-1.142-.289-1.782-.228-.357.123-1.081.205-1.641a.7.7,0,0,0-.006-.371,3.932,3.932,0,0,0-.338-.52c-.136.152-.394.306-.389.454a4.22,4.22,0,0,1-1.689,3.607,9.326,9.326,0,0,1-2.923,1.993c-.128.036-.212.229-.317.349a2.682,2.682,0,0,0,.473.386c.2.1.5.075.657.214a7.329,7.329,0,0,0,2.975,1.453c.624.18,1.1.015,1.178-.517C531.429,476.121,531.57,474.922,531.726,473.689Zm8.519-29.618c-1,0-1.942-.04-2.875.013-.776.044-1.591-.255-2.326.222.366.6.759,1.189,1.091,1.81A14.666,14.666,0,0,0,538.269,449c.56.621,1.29.421,1.9.282.512-.116.522-.714.563-1.246A18.132,18.132,0,0,0,540.245,444.071Zm-2.051,11.664c.5-.111,1.012-.191,1.5-.343.455-.14.686-.595,1.177-.8a2.138,2.138,0,0,0,.847-2.522,2.079,2.079,0,0,0-2.515-1.553c-.292.07-.723.443-.728.684C538.449,452.709,537.665,454.172,538.194,455.735Zm-18.926,17.338c-.79-.891-1.627-1.716-2.692-1.383a11.31,11.31,0,0,0-4.414,1.966Z" transform="translate(0)"/><g transform="translate(-67.449 -40.791)"><path class="i" d="M583.459,492.428a3.2,3.2,0,0,1,2.8,2.821c.039.457-.146.575-.538.59-.53.022-.748-.355-.988-.757-.193-.325-.351-.8-.622-.914a2.561,2.561,0,0,0-1.3-.026c-.505.078-1.033.93-1.114,1.676a1.952,1.952,0,0,1-.011.416c-.06.161-.167.392-.282.414-.145.027-.332-.1-.477-.2a1.4,1.4,0,0,1-.312-1.687,3.946,3.946,0,0,1,1.181-1.734A4.971,4.971,0,0,1,583.459,492.428Z" transform="translate(0 -1.225)"/><path class="i" d="M614.194,490.446c.572.1,1.213-.236,1.733.386a3.155,3.155,0,0,1,.926,2.089c0,.372-.059.611-.5.571-.29-.027-.539.059-.676-.4-.411-1.375-.689-1.513-1.878-1.519a1.14,1.14,0,0,0-1.149.719,2.007,2.007,0,0,1-.508.721c-.119.089-.413-.057-.628-.1.1-.467-.155-.955.254-1.416C612.683,490.471,612.655,490.446,614.194,490.446Z" transform="translate(-19.25 0)"/></g><g transform="translate(-200.806 169.552) rotate(-14)"><path class="f" d="M2.7,1.345C2.68,2.509,2.44,2.728,1.218,2.7.278,2.67-.036,2.352,0,1.464A1.627,1.627,0,0,1,1.4,0,1.255,1.255,0,0,1,2.7,1.345Z" transform="matrix(0.998, 0.07, -0.07, 0.998, 626.665, 446.356)"/><path class="f" d="M1.392,2.7A1.721,1.721,0,0,1,0,1.437,1.588,1.588,0,0,1,1.4,0,1.736,1.736,0,0,1,2.7,1.355,1.736,1.736,0,0,1,1.392,2.7Z" transform="matrix(0.998, 0.07, -0.07, 0.998, 636.204, 448.322)"/></g></g><g class="l" transform="translate(0 8.749)"><g transform="translate(705.929 450.107)"><path class="i" d="M1201.571,878.38c3.211.36,6.254-.342,9.327-.56,3.018-.215,6.078.036,9.033-.433,4.646-.74,9.28-.149,13.907-.43a44.953,44.953,0,0,1,5.392-.493,18.036,18.036,0,0,0,5.327-.057c2.632-.667,5.233-.3,7.842-.384,4.633-.146,9.247-.828,13.9-.508,3.46-.984,7-.425,10.495-.443,3.594-.019,7.125-.761,10.739-.571a56.521,56.521,0,0,0,10.68-.058,60.1,60.1,0,0,1,12.931-.28c6.428.5,12.84.211,19.254.379,1.666.686,3.419.466,5.147.482,2.058.02,2.086,0,2.636,1.92a12.16,12.16,0,0,1,.542,3.2c.019,1.307.666,2.578.438,3.931-.749,4.45-.031,8.987-.593,13.4-.544,4.259-.111,8.473-.376,12.7.685,2.411.115,4.95.579,7.317a42.462,42.462,0,0,1,.369,8.082c.061,10.453.024,20.9.024,31.533-.518.03-1.047.053-1.575.094-2.041.158-4.077.387-6.121.467-2.1.081-4.277-.309-6.3.1-2.951.589-5.875.313-8.809.391-2.915.079-5.834.017-8.751.017a21.785,21.785,0,0,0-3.882.035c-4.7.865-9.434.336-14.148.43-4.86.1-9.724.021-14.584.021-4.782,0-9.563-.053-14.343.027-1.8.03-3.552.6-5.392.485a20.949,20.949,0,0,0-5.575.04c-3.75.8-7.537-.066-11.229.482-5.128.76-10.247.287-15.366.4-5.183.115-10.371.025-15.556.025-.324,0-.649,0-.973,0-1.969-.021-2.053-.09-2.06-2.01-.011-3.241-.133-6.489.027-9.723.248-4.979-.688-9.9-.517-14.871-.719-2.16-.1-4.471-.573-6.585-.572-2.558-.006-5.11-.448-7.589-.638-3.583-.087-7.194-.526-10.734-.255-2.055-.111-4.125-.477-6.116a10.768,10.768,0,0,1-.365-3.937c.915-4.624.272-9.274.411-13.907a43.846,43.846,0,0,0-.448-5.146C1201.547,879.183,1201.571,878.872,1201.571,878.38Z" transform="translate(-1131.553 -871.602)"/><path class="m" d="M1201.571,875.079c3.211.092,6.254-.087,9.327-.143,3.018-.055,6.078.009,9.033-.111,4.646-.189,9.28-.038,13.907-.11,1.8-.028,3.557-.153,5.392-.126,1.777.026,3.652.094,5.327-.015,2.632-.171,5.233-.078,7.842-.1,4.633-.037,9.247-.212,13.9-.13,3.46-.252,7-.109,10.495-.113,3.594,0,7.125-.195,10.739-.146,3.555.048,7.182.11,10.68-.015,4.334-.154,8.669-.156,12.931-.072,6.428.127,12.84.054,19.254.1a51.165,51.165,0,0,0,5.147.123c2.058.005,2.086,0,2.636.491a1.342,1.342,0,0,1,.542.818c.019.334.666.659.438,1.005-.749,1.138-.031,2.3-.593,3.426-.544,1.089-.111,2.167-.376,3.247.685.617.115,1.266.579,1.871a2.987,2.987,0,0,1,.369,2.067c.061,2.673.024,5.346.024,8.065-.518.008-1.047.014-1.575.024-2.041.041-4.077.1-6.121.119-2.1.021-4.277-.079-6.3.024-2.951.151-5.875.08-8.809.1-2.915.02-5.834,0-8.751,0-1.3,0-2.629-.05-3.882.009-4.7.221-9.434.086-14.148.11-4.86.025-9.724.005-14.584.005-4.782,0-9.563-.013-14.343.007-1.8.008-3.552.153-5.392.124-1.857-.029-3.793-.087-5.575.01-3.75.2-7.537-.017-11.229.123-5.128.194-10.247.073-15.366.1-5.183.029-10.371.006-15.556.006h-.973c-1.969-.005-2.053-.023-2.06-.514a12.057,12.057,0,0,1,.027-2.486c.248-1.273-.688-2.533-.517-3.8-.719-.552-.1-1.143-.573-1.684-.572-.654-.006-1.307-.448-1.941-.638-.916-.087-1.84-.526-2.745-.255-.526-.111-1.055-.477-1.564-.243-.339-.616-.681-.365-1.007.915-1.183.272-2.372.411-3.557.051-.437-.294-.877-.448-1.316A.913.913,0,0,1,1201.571,875.079Z" transform="translate(-1131.553 -846.339)"/><path class="n" d="M1201.571,874.357c3.211.033,6.254-.032,9.327-.052,3.018-.02,6.078,0,9.033-.04,4.646-.069,9.28-.014,13.907-.04,1.8-.01,3.557-.056,5.392-.046,1.777.01,3.652.034,5.327-.005,2.632-.062,5.233-.028,7.842-.036,4.633-.014,9.247-.077,13.9-.047,3.46-.092,7-.04,10.495-.041,3.594,0,7.125-.071,10.739-.053,3.555.017,7.182.04,10.68-.005,4.334-.056,8.669-.057,12.931-.026,6.428.046,12.84.02,19.254.035,1.666.064,3.419.043,5.147.045,2.058,0,2.086,0,2.636.179.3.1.526.193.542.3.019.122.666.24.438.366-.749.414-.031.837-.593,1.247-.544.4-.111.789-.376,1.182.685.224.115.461.579.681.532.253.353.5.369.752.061.973.024,1.946.024,2.935l-1.575.009c-2.041.015-4.077.036-6.121.043-2.1.008-4.277-.029-6.3.009-2.951.055-5.875.029-8.809.036-2.915.007-5.834,0-8.751,0-1.3,0-2.629-.018-3.882,0-4.7.081-9.434.031-14.148.04q-7.29.013-14.584,0-7.172,0-14.343,0c-1.8,0-3.552.056-5.392.045-1.857-.011-3.793-.032-5.575,0-3.75.075-7.537-.006-11.229.045-5.128.071-10.247.027-15.366.037-5.183.011-10.371,0-15.556,0h-.973c-1.969,0-2.053-.008-2.06-.187-.011-.3-.133-.6.027-.9.248-.464-.688-.922-.517-1.384-.719-.2-.1-.416-.573-.613-.572-.238-.006-.476-.448-.706-.638-.333-.087-.67-.526-1-.255-.191-.111-.384-.477-.569-.243-.123-.616-.248-.365-.366.915-.43.272-.863.411-1.294.051-.159-.294-.319-.448-.479C1201.547,874.432,1201.571,874.4,1201.571,874.357Z" transform="translate(-1129.553 -821.328)"/><path class="f" d="M1098.164,975.995c0,.921.024,1.714,0,2.507a15.092,15.092,0,0,1-3.04,8.728c-1.21,1.64-2.865,2.513-4.355,3.639a44.754,44.754,0,0,1-5.133,2.813c-2.056,1.163-4.285.751-6.465.822-.078,0-.2.015-.226-.027-1.027-1.437-2.809-1.458-4.206-2.189a13.7,13.7,0,0,1-3.688-3.343,17.63,17.63,0,0,1-2.426-3.838c-1.068-2.095-2.126-4.217-2.088-6.679,0-.147-.58-.459-.608-.428-.577.616-1.314.46-2.011.46q-7.9.008-15.8,0c-1.582,0-1.864-.35-2.483-1.885-.989-2.454-1.32-5.1-2.347-7.534a.7.7,0,0,1-.059-.217c-.165-1.8-.337-3.592-.485-5.388a38.871,38.871,0,0,0-.58-6.338,23.261,23.261,0,0,1-.394-4.2,67.015,67.015,0,0,0-.567-6.832,19.285,19.285,0,0,1-.409-2.73,12.5,12.5,0,0,1,2.338-7.29c.78-1.212,1.534-2.43,2.249-3.685a48.734,48.734,0,0,1,3.237-4.738c2.747-3.723,5.992-7.077,8.256-11.162.226-.409.7-.675,1.01-1.044.76-.894,1.464-1.836,2.247-2.709a18.1,18.1,0,0,0,2.429-2.881,28.062,28.062,0,0,1,2.273-2.684c1.422-1.845,3.334-3.3,4.893-5.056a19.222,19.222,0,0,1,7.087-4.629c.928-.4,2.055.111,2.879-.677,2,.359,3.888-.553,5.875-.526,1.222.018,2.45.31,3.724-.379.96-.518,2.232-.033,3.444-.445,1.251-.426,2.759-.186,4.145-.566a21.174,21.174,0,0,1,3.436-.505c1.077-.111,2.185.2,3.223-.461.345-.22.949-.034,1.435-.035a7.288,7.288,0,0,0,3.218-.445c.392-.185.679-.185.678-.71-.016-3.888.01-7.776-.031-11.665a9.74,9.74,0,0,0-.453-1.746c-.064-.31-.149-.8.012-.944.965-.868-.022-2.216.821-3.079-.128-1.89,1.556-2.228,2.6-2.217,2.163.022,4.22-.673,6.362-.6a16.3,16.3,0,0,0,3.879-.036c2.443-.514,4.962-.055,7.323-.532,2.962-.6,5.881-.331,8.809-.36,4.477-.045,8.92-.863,13.409-.521,3.459-.98,7.04,0,10.479-.561s6.892.047,10.249-.487c4.164-.663,8.339.065,12.44-.472,5.855-.768,11.736.113,17.537-.519,4.655-.508,9.273-.261,13.906-.368,4.615-.107,9.235.02,13.851-.04,2.706-.034,5.336.709,8.065.541s5.505-.055,8.259-.029a2.5,2.5,0,0,1,2.623,1.8c.5,1.5,1.04,2.968,1.405,4.534.557,2.385.331,4.741.394,7.108a36.744,36.744,0,0,1-.065,7.276c-.605,3.435-.3,6.845-.388,10.264a78.587,78.587,0,0,0,.046,10.443c.811,7.39.275,14.779.395,22.165.122,7.45-.026,14.906.067,22.357.022,1.7.867,3.473.381,5.126-.58,1.981-.349,3.931-.395,5.895a3.386,3.386,0,0,0,.4,2.519c.354.456.121,1.415.048,2.137a1.627,1.627,0,0,1-1.654,1.431c-.892.008-1.783,0-2.673,0a8.029,8.029,0,0,0-3.219.445c-.9.375-2.03-.349-2.974.49-.272.241-.939.037-1.425.037a54.933,54.933,0,0,0-6.072.034c-7.783.87-15.586.256-23.376.453-.806.021-1.272.543-.857,1.174.95,1.442.217,2.972.436,4.441a3.73,3.73,0,0,1-.036,1.918c-.633,1.443-1.447,2.8-2.2,4.194a4.3,4.3,0,0,1-.7,1.157c-.556.512-.887,1.378-1.923,1.245a1.517,1.517,0,0,0-1,.466c-1.574,1.432-3.721,1.175-5.54,1.894a10.915,10.915,0,0,1-3.187.508,19.831,19.831,0,0,1-3.4,0,25.8,25.8,0,0,1-6.908-1.5,7.433,7.433,0,0,1-2.908-2.3,49.464,49.464,0,0,1-4.118-6.065,21.979,21.979,0,0,1-1.589-4.435c-.121-.392-.034-.744-.621-.762-3.823-.12-7.633-.84-11.461-.441-1.959.205-3.966.21-5.855.567a24.165,24.165,0,0,1-4.439.35q-11.543.063-23.088.011c-2.379-.007-4.684.693-7.092.53s-4.862.04-7.287-.075c-.875-.041-1.517,1.158-2.618.21-.52-.447-1.693-.151-2.571-.166-.972-.017-1.945,0-2.916,0a9.158,9.158,0,0,1-2.66-.041C1103.023,975.73,1100.661,976.184,1098.164,975.995ZM1110.8,875.342c0,.492-.024.8,0,1.109a43.8,43.8,0,0,1,.448,5.146c-.139,4.633.5,9.283-.41,13.907a10.765,10.765,0,0,0,.365,3.937c.365,1.992.222,4.061.477,6.116.439,3.54-.112,7.152.526,10.734.442,2.479-.124,5.03.448,7.589.473,2.114-.145,4.425.573,6.585-.171,4.968.764,9.892.517,14.871-.16,3.234-.038,6.482-.027,9.723.007,1.92.091,1.99,2.06,2.01.324,0,.648,0,.973,0,5.186,0,10.373.09,15.556-.025,5.119-.113,10.239.36,15.366-.4,3.692-.548,7.478.319,11.229-.482a20.946,20.946,0,0,1,5.575-.04c1.839.114,3.6-.455,5.392-.485,4.78-.08,9.561-.027,14.343-.027,4.861,0,9.724.075,14.584-.021,4.714-.094,9.445.435,14.148-.43a21.784,21.784,0,0,1,3.882-.035c2.917,0,5.836.061,8.751-.017,2.934-.079,5.857.2,8.809-.391,2.026-.4,4.2-.014,6.3-.1,2.044-.079,4.08-.308,6.121-.467.528-.041,1.058-.064,1.575-.094,0-10.628.037-21.08-.024-31.533a42.453,42.453,0,0,0-.369-8.082c-.464-2.367.106-4.906-.579-7.317.265-4.223-.167-8.437.376-12.7.563-4.41-.156-8.948.593-13.4.228-1.353-.419-2.624-.438-3.931a12.139,12.139,0,0,0-.542-3.2c-.55-1.922-.577-1.9-2.636-1.92-1.728-.016-3.48.2-5.146-.482-6.415-.168-12.826.119-19.254-.379a60.1,60.1,0,0,0-12.931.28,56.515,56.515,0,0,1-10.68.058c-3.614-.19-7.145.552-10.739.571-3.5.018-7.035-.541-10.495.443-4.649-.32-9.264.362-13.9.508-2.609.081-5.21-.283-7.842.384a18.038,18.038,0,0,1-5.327.057,44.934,44.934,0,0,0-5.392.493c-4.628.282-9.262-.309-13.907.43-2.956.47-6.015.219-9.033.433C1117.058,875,1114.016,875.7,1110.8,875.342ZM1097.822,973.6c1.1,0,2.219-.053,3.335.016,1.059.063,2.112.253,3.168.387.79-1.209,1.76.829,2.7-.2.774-.851,1.807.614,2.957-.108.794-.5,2.152-.1,3.325-.1a19.609,19.609,0,0,1-.506-3.911c.188-2.411-.388-4.738-.631-7.085a15.488,15.488,0,0,0-.477-3.666,11.7,11.7,0,0,1-.406-2.747c-.123-.911-.43-1.808-.46-2.718-.234-7.3.422-14.625-.485-21.921-.3-2.429.179-4.879-.424-7.352a46.746,46.746,0,0,1-.487-5.622c-.417-3.629.162-7.316-.506-10.982-.344-1.882.023-3.883-.084-5.823s-.4-3.883-.623-5.877a13.67,13.67,0,0,0-4.8.364c-1.851.319-3.75.353-5.625.532a1.76,1.76,0,0,0-.618.263c-.9.487-2.05-.109-2.88.689-.085.081-.314,0-.477.012a6.07,6.07,0,0,0-2.335.213,4.332,4.332,0,0,1-2.325.242c-.808,0-1.538.447-2.23.452-2.224.017-4.407.3-6.609.512a15.84,15.84,0,0,0-4.4,1.15,17.518,17.518,0,0,0-5.034,3.642,43.93,43.93,0,0,0-4.994,5.452c-2.222,2.84-4.543,5.59-6.895,8.319-.291.339-.428.806-.7,1.163-2.223,2.891-4.469,5.765-6.694,8.655-.7.915-1.4,1.842-2.042,2.8-1.4,2.087-2.865,4.143-4.123,6.317-1.345,2.323-2.605,4.739-2.194,7.589a9.409,9.409,0,0,1,.437,1.984c-.106,1.126.471,1.126,1.277,1.107,1.539-.036,3.079-.01,4.618-.01.4,0,.972.16,1.18-.044.99-.966,1.865-.253,2.793.039,2.4.757,2.8,1.278,2.81,3.781q.009,4.983,0,9.966a3.888,3.888,0,0,0,.026,1.447c.953,2.163.291,4.416.425,6.618a1.98,1.98,0,0,1-1.617,1.879c-1.046.209-2.1.434-3.163.605-1.461.234-2.944.331-4.413.518a.661.661,0,0,0-.477.369,5.5,5.5,0,0,0,.794,3.063c.31.748,1.13.43,1.737.434,2.836.022,5.679-.116,8.506.045,2.8.161,5.5-.554,8.321-.591.218-1.161-.178-2.384.547-3.442a27.724,27.724,0,0,1,1.827-2.874,15.842,15.842,0,0,1,4.475-3.827,21.129,21.129,0,0,1,6.3-2.34,50.31,50.31,0,0,1,7.766-.076c.2,0,.394.214.607.282a23.345,23.345,0,0,1,5.4,2.843C1096.251,967.867,1097.285,970.45,1097.822,973.6Zm17.845,0c12.807,0,25.365.019,37.922-.022a19.682,19.682,0,0,0,5.364-.552,9.828,9.828,0,0,1,3.225-.37c1.151.047,2.325-.335,3.481.4a2.369,2.369,0,0,0,2.113,0c1-.652,2-.367,3-.41,1.521-.067,3.048-.018,4.6-.018.136-3.285,2.053-5.5,4.106-7.63a13.719,13.719,0,0,1,1.5-1.049c.922-.725,1.758-1.576,2.739-2.206a8.788,8.788,0,0,1,4.13-1.7c3.291-.147,6.621-.34,9.808.906,1.117.437,2.463.479,3.406,1.133,2.767,1.916,5.275,4.127,6.552,7.419.471,1.212.57,1.182,1.882,1.183,4.941,0,9.885.092,14.824-.024,4.875-.116,9.762.457,14.632-.42,2.24-.4,4.561-.335,6.838-.544.749-.069,1.4-.686,2.236-.494.083.019.353-.307.354-.473.02-3.864.015-7.73.015-11.73-5.04.395-9.935-.5-14.774.559-7.547.231-15.093-.29-22.651.4-4.82.442-9.714.083-14.575.083-4.942,0-9.885-.078-14.825.022-4.795.1-9.588-.322-14.391.4-3.367.509-6.819-.2-10.255.467a25.683,25.683,0,0,1-6.786.04c-2.253-.177-4.382.559-6.606.547-8.993-.052-17.985-.022-26.977-.022a15.793,15.793,0,0,0-1.94.033c-.161.02-.437.6-.378.661,1.121,1.243-.159,3.012.948,4.237.162,2.2.339,4.4.478,6.6C1115.709,971.833,1115.667,972.636,1115.667,973.6Zm-31.617-8.266c-1.436,0-2.577-.263-3.517.06-1.492.512-3.118.651-4.494,1.434a18.261,18.261,0,0,0-4.163,2.774c-1.59,1.632-3.06,3.5-2.888,6.057.034.483.2,1.1-.027,1.433-1.054,1.541-.084,2.762.519,4.028.773,1.624,1.645,3.2,2.422,4.822a8.681,8.681,0,0,0,2.564,3.042,5.933,5.933,0,0,0,3.433,1.716c1.2.067,2.352.889,3.527,1.37a.33.33,0,0,0,.239,0c1.307-.573,2.9-.309,4.039-1.385a2.09,2.09,0,0,1,.742-.542c2.263-.667,3.945-2.264,5.792-3.588a7.4,7.4,0,0,0,2.031-2.549c.857-1.545.727-3.388,1.464-4.973-.841-1.011-.139-2.343-.659-3.363a1.848,1.848,0,0,1,.01-2.17.931.931,0,0,0,.133-.647c-.312-1.641-2.622-4.633-4.353-5.566C1088.624,966.079,1086.366,964.875,1084.05,965.335Zm122.531,12.115a11.923,11.923,0,0,0-1.459-7.168c-.379-.653-.811-1.281-1.132-1.96-1.029-2.174-3.084-3.182-4.931-4.432-2.811-.391-5.4-1.748-8.382-1.541a12.239,12.239,0,0,0-5.458,1.537,30.146,30.146,0,0,0-6.218,5.49,2.364,2.364,0,0,0-.59,1.434,30.978,30.978,0,0,0,.028,5.093,16.311,16.311,0,0,0,1.222,3.121,18.718,18.718,0,0,0,2.987,4.816c1.244,1.659,2.726,3.28,5.005,3.65,1.443.234,2.886.457,4.327.7a15.626,15.626,0,0,0,5.851-.583c1.628-.346,3.507-.458,4.8-1.848.318-.342.619-.816,1.02-.945a3.476,3.476,0,0,0,2.118-2.354C1206.53,980.646,1206.582,980.667,1206.582,977.451Zm-161.427-15.167c2.969-.729,5.74-1.594,8.818-1.275-.31-2.636.422-5.093-.5-7.5a2.6,2.6,0,0,1,.263-1.8,1.421,1.421,0,0,0-.265-1.689c-.724-.99-1.729-.843-2.618-.695-2.415.4-2.4.433-4.46,0a4.874,4.874,0,0,0-1.918.013c-.194.04-.968.29-.5.97a1.754,1.754,0,0,1,.214.874,51.51,51.51,0,0,0,.388,6.359C1044.851,959.122,1045.455,960.691,1045.154,962.283Zm5.054,6.944a6.835,6.835,0,0,0,3.5-.489c.234-.135.66-.267.667-.415a30.4,30.4,0,0,0,.007-3.632,1.579,1.579,0,0,0-1.77-1.29c-2.276.131-4.55.347-6.828.458-.824.041-.77.7-.58.973a4.228,4.228,0,0,1,.436,2.73,6.293,6.293,0,0,0,.435,1.508c.147.763.665.807.987.608C1048.1,969.04,1049.2,969.281,1050.208,969.228Z" transform="translate(-1040.786 -868.565)"/><path class="i" d="M1100.9,1008.917c-.537-3.151-1.57-5.734-4.4-7.558a23.338,23.338,0,0,0-5.4-2.843c-.212-.068-.4-.281-.607-.283a50.318,50.318,0,0,0-7.766.076,21.132,21.132,0,0,0-6.3,2.34,15.84,15.84,0,0,0-4.475,3.827,27.69,27.69,0,0,0-1.827,2.874c-.726,1.057-.329,2.281-.548,3.442-2.82.037-5.521.752-8.321.591-2.827-.161-5.67-.023-8.506-.045-.606,0-1.426.314-1.737-.434a5.5,5.5,0,0,1-.794-3.063.661.661,0,0,1,.477-.369c1.469-.186,2.952-.284,4.413-.518,1.059-.171,2.117-.4,3.163-.605a1.98,1.98,0,0,0,1.617-1.879c-.134-2.2.528-4.455-.425-6.618a3.889,3.889,0,0,1-.026-1.447q0-4.983,0-9.966c-.005-2.5-.408-3.023-2.81-3.781-.928-.292-1.8-1.006-2.793-.039-.208.2-.777.043-1.18.044-1.539,0-3.079-.025-4.618.01-.806.02-1.382.019-1.277-1.107a9.416,9.416,0,0,0-.437-1.984c-.411-2.851.849-5.266,2.194-7.589,1.258-2.174,2.721-4.23,4.123-6.317.644-.959,1.338-1.886,2.042-2.8,2.225-2.89,4.47-5.764,6.693-8.655.275-.357.411-.824.7-1.163,2.352-2.728,4.673-5.479,6.895-8.319a43.948,43.948,0,0,1,4.994-5.452,17.518,17.518,0,0,1,5.034-3.642,15.838,15.838,0,0,1,4.4-1.15c2.2-.217,4.385-.5,6.609-.512.692-.005,1.422-.454,2.23-.452a4.331,4.331,0,0,0,2.325-.242,6.071,6.071,0,0,1,2.335-.213c.162-.01.392.069.477-.012.83-.8,1.983-.2,2.88-.689a1.758,1.758,0,0,1,.618-.263c1.875-.179,3.775-.213,5.625-.532a13.674,13.674,0,0,1,4.8-.364c.22,1.995.516,3.931.623,5.877s-.259,3.94.085,5.823c.668,3.666.089,7.353.506,10.982a46.771,46.771,0,0,0,.488,5.622c.6,2.473.122,4.923.423,7.352.907,7.3.251,14.616.485,21.921.03.91.337,1.807.46,2.718a11.692,11.692,0,0,0,.406,2.747,15.5,15.5,0,0,1,.477,3.666c.243,2.346.819,4.673.631,7.084a19.62,19.62,0,0,0,.506,3.911c-1.173,0-2.531-.4-3.325.1-1.15.722-2.183-.744-2.957.108-.936,1.029-1.906-1.01-2.7.2-1.056-.134-2.108-.324-3.168-.387C1103.115,1008.865,1101.991,1008.917,1100.9,1008.917Zm-33.2-47.836c0,1.457-.028,2.915.017,4.371a4.967,4.967,0,0,0,.362,1.3c.781,2.4,2.9,2.618,4.876,2.742,2.66.167,5.342.111,8.01.022,2.687-.09,5.38.329,8.071-.41,1.316-.362,2.827.151,4.155-.543,3.116.347,6.172-.677,9.266-.451,1.617.118,3.1-.444,4.651-.6a3.81,3.81,0,0,0,2.839-2.235,7.7,7.7,0,0,0,.518-2.932c.168-4.152-.836-8.262-.469-12.425a.469.469,0,0,0,0-.24c-.9-1.563-.031-3.369-.559-4.874-.585-1.674-.232-3.294-.407-4.925-.017-.161,0-.324,0-.486-.02-1.736-.2-1.993-1.876-1.932a29.277,29.277,0,0,0-6.132.386c-2.19.536-4.595-.36-6.82.568-2.558-.372-5.02.74-7.57.487a20.235,20.235,0,0,0-5.623.5,1.884,1.884,0,0,0-.972.557c-1.454,1.57-2.968,3.1-4.274,4.791a38.493,38.493,0,0,0-3.04,4.085,24.682,24.682,0,0,1-4.03,5.359,3.239,3.239,0,0,0-1,2.507C1067.717,958.167,1067.691,959.624,1067.691,961.081Zm32.951,12.83c-1.534,0-3.068-.017-4.6.006a1.976,1.976,0,0,0-2.088,2c-.027.968-.016,1.937,0,2.907.02,1.672.229,1.939,1.926,1.87,1.632-.067,3.255-.373,4.887-.448,1.773-.081,3.551-.019,5.328-.019.081,0,.162,0,.243,0a1.1,1.1,0,0,0,1.21-1.14,23.869,23.869,0,0,0,.011-2.663,2.469,2.469,0,0,0-2.55-2.511C1103.549,973.885,1102.1,973.912,1100.642,973.912Z" transform="translate(-1043.86 -903.881)"/><path class="f" d="M1210.925,1091.615c0-1.157.042-2.12-.009-3.075-.139-2.642-.885-5.28-1.047-7.92-1.107-1.468-.292-2.688-1.413-4.179a7.976,7.976,0,0,1,1.413-1.694,13.188,13.188,0,0,1,1.94-.039c8.992,0,17.985-.037,26.977.026,2.225.015,4.354-.868,6.607-.656a21.461,21.461,0,0,0,6.786-.048c3.436-.8,6.888.049,10.255-.56,4.8-.871,9.6-.367,14.391-.484,4.94-.12,9.883-.027,14.825-.027,4.861,0,9.755.431,14.575-.1,7.558-.831,15.1-.207,22.651-.483,4.839-1.27,10.743-.249,15.783-.722,0,4.8.02,9.119,0,13.753,0,.2-1.3.954-1.378.931-.838-.231-1.487.51-2.236.592a66.615,66.615,0,0,0-6.838.652c-4.87,1.052-9.757.364-14.632.5-4.938.14-9.882.033-14.824.029-1.313,0-1.412.035-1.882-1.419-1.277-3.947-3.591-5.46-6.358-7.757-.943-.784-5.992-.615-7.108-1.139-3.187-1.494-2.956-1.535-6.247-1.359a4.689,4.689,0,0,0-3.231,1.359c-.981.755-2.177,1.95-3.1,2.82-.48.451-1.677.163-2.093.68-2.053,2.548-3.969,5.209-4.106,9.149-1.552,0-3.079-.059-4.6.021-.995.052-1.995-.29-3,.492a2.021,2.021,0,0,1-2.113,0c-1.156-.883-2.329-.424-3.481-.481a8.292,8.292,0,0,0-3.225.444,16.557,16.557,0,0,1-5.364.661C1236.289,1091.638,1223.732,1091.615,1210.925,1091.615Z" transform="translate(-1136.044 -984.926)"/><path class="k" d="M1119.987,1090.728c2.316-.461,4.574.744,6.813,1.954,1.731.933,4.041,3.925,4.353,5.566a.93.93,0,0,1-.133.647,1.848,1.848,0,0,0-.01,2.17c.52,1.02-.181,2.352.659,3.363-.737,1.585-.607,3.428-1.464,4.973a7.4,7.4,0,0,1-2.031,2.549c-1.847,1.324-3.529,2.921-5.792,3.588a2.088,2.088,0,0,0-.742.542c-1.138,1.076-2.733.812-4.04,1.385a.33.33,0,0,1-.239,0c-1.176-.481-2.33-1.3-3.528-1.37a5.933,5.933,0,0,1-3.433-1.716,8.68,8.68,0,0,1-2.564-3.042c-.777-1.622-1.649-3.2-2.422-4.822-.6-1.266-1.573-2.487-.519-4.028.226-.331.061-.949.028-1.433-.172-2.558,1.3-4.425,2.888-6.057a18.26,18.26,0,0,1,4.163-2.774c1.376-.784,3-.922,4.494-1.434C1117.411,1090.465,1118.552,1090.728,1119.987,1090.728Zm7.756,14.856a10.549,10.549,0,0,0-.842-5c-.354-.883-1.086-1.762-1.013-2.712a2.251,2.251,0,0,0-1.207-2.174,10.422,10.422,0,0,0-3.769-1.957,12.5,12.5,0,0,0-4.946.2c-2.091.528-3.448,1.963-5,3.177a5.6,5.6,0,0,0-1.763,2.908,11.83,11.83,0,0,0-.364,3.472,4.38,4.38,0,0,0,1.441,3.523c.481.432,1.137.834,1.331,1.385.38,1.075,1.259,1.445,2.047,2.05a4.441,4.441,0,0,0,2.922,1.113c1.085-.073,1.951.6,2.957.523.508-.036.989-.384,1.5-.448a10.474,10.474,0,0,0,4.586-1.876C1127.36,1108.616,1128.3,1107.407,1127.743,1105.584Z" transform="translate(-1076.724 -993.957)"/><path class="f" d="M1386.632,1099.958c0,3.406-.054,3.383-.856,5.3a3.68,3.68,0,0,1-2.243,2.492c-.423.136-.743.638-1.079,1-1.372,1.471-3.362,1.589-5.086,1.956a16.538,16.538,0,0,1-6.194.616c-1.526-.256-3.054-.492-4.581-.739-2.413-.392-3.982-2.108-5.3-3.864a19.822,19.822,0,0,1-3.162-5.1,17.3,17.3,0,0,1-1.294-3.3,32.808,32.808,0,0,1-.029-5.391,2.5,2.5,0,0,1,.624-1.519c2.045-2.1,4.008-4.318,6.583-5.812a12.955,12.955,0,0,1,5.778-1.627c3.155-.219,5.9,1.217,8.874,1.632,1.955,1.323,4.13,2.39,5.22,4.692.34.719.8,1.384,1.2,2.075A12.622,12.622,0,0,1,1386.632,1099.958Zm-13-12.272a8.667,8.667,0,0,0-5.434,1,26.675,26.675,0,0,0-5.13,3.752c-.233.23-.551.486-.6.771-.323,1.748-1.174,3.339-1.108,5.229a6.825,6.825,0,0,0,2.994,5.652c1.728,1.22,3.653,2.153,5.149,3.709a1.973,1.973,0,0,0,1.095.428,21.432,21.432,0,0,0,6.966-.6,5.6,5.6,0,0,0,3.776-2.035,11.353,11.353,0,0,1,1.621-1.645,3.439,3.439,0,0,0,.64-1.278,5.243,5.243,0,0,0,.024-3.731c-.533-2.18-.916-4.4-1.64-6.534a5.6,5.6,0,0,0-2.735-3.265C1377.385,1088.1,1375.581,1087.312,1373.632,1087.686Z" transform="translate(-1219.952 -991.001)"/><path class="i" d="M1049.1,1066.9c.3-1.592-.3-3.162-.576-4.741a51.51,51.51,0,0,1-.388-6.359,1.751,1.751,0,0,0-.214-.874c-.464-.681.31-.93.5-.97a4.868,4.868,0,0,1,1.918-.013c2.062.43,2.045.4,4.46,0,.889-.148,1.894-.3,2.618.695a1.42,1.42,0,0,1,.265,1.689,2.6,2.6,0,0,0-.263,1.8c.918,2.411.186,4.869.5,7.5C1054.842,1065.305,1052.071,1066.17,1049.1,1066.9Z" transform="translate(-1044.735 -973.181)"/><path class="i" d="M1055.789,1092.237c-1.012.053-2.111-.188-3.144.451-.322.2-.84.155-.987-.608a6.288,6.288,0,0,1-.435-1.508,4.228,4.228,0,0,0-.436-2.73c-.189-.276-.244-.932.58-.973,2.278-.111,4.552-.327,6.828-.458a1.579,1.579,0,0,1,1.77,1.29,30.35,30.35,0,0,1-.007,3.632c-.006.148-.432.28-.667.415A6.835,6.835,0,0,1,1055.789,1092.237Z" transform="translate(-1046.367 -991.574)"/><path class="k" d="M1095.516,969.321c0-1.457.026-2.914-.009-4.37a3.239,3.239,0,0,1,1-2.507,24.692,24.692,0,0,0,4.03-5.359,38.5,38.5,0,0,1,3.04-4.085c1.305-1.69,2.819-3.221,4.274-4.791a1.885,1.885,0,0,1,.972-.557,20.243,20.243,0,0,1,5.623-.5c2.551.253,5.013-.859,7.57-.487,2.225-.929,4.63-.032,6.82-.568a29.274,29.274,0,0,1,6.132-.386c1.675-.06,1.855.2,1.876,1.932,0,.162-.015.325,0,.486.175,1.631-.178,3.251.407,4.925.528,1.505-.346,3.312.559,4.874.035.061.01.159,0,.24-.367,4.163.637,8.273.469,12.425a7.694,7.694,0,0,1-.518,2.932,3.81,3.81,0,0,1-2.839,2.235c-1.555.151-3.034.714-4.651.6-3.095-.226-6.15.8-9.266.451-1.328.694-2.839.181-4.155.543-2.691.739-5.384.32-8.071.41-2.669.089-5.35.145-8.01-.022-1.977-.124-4.1-.342-4.877-2.742a4.968,4.968,0,0,1-.362-1.3C1095.488,972.236,1095.516,970.778,1095.516,969.321Zm2.43-.185c0,1.3-.01,2.591,0,3.887a2.078,2.078,0,0,0,2.032,2.313,6.48,6.48,0,0,0,1.213.007c5.112-.251,10.249.512,15.349-.455,1.445-.275,3.007.271,4.409-.515,2.956.336,5.854-.61,8.784-.445,1.615.09,3.073-.655,4.661-.552a1.027,1.027,0,0,0,.742-.49,3.812,3.812,0,0,0,.743-2.124c-.124-2.2.188-4.416-.451-6.613a11.65,11.65,0,0,1-.048-3.144c0-1.052,0-2.105,0-3.157,0-1.011-.7-1.867-.522-2.963a3.967,3.967,0,0,0-.432-2.962.7.7,0,0,1,.052-.676c.71-.58.391-1.35.4-2.026.016-1.325-.758-2.039-1.953-1.525a9.509,9.509,0,0,1-2.982.434c-.991.113-1.967.389-2.959.46-2.2.159-4.447-.316-6.6.5-2.958-.356-5.838.707-8.785.482a3.957,3.957,0,0,0-2.93,1.161c-2.035,1.685-3.134,4.1-4.878,6.013a7.163,7.163,0,0,0-1.437,2.07,9.552,9.552,0,0,1-2.5,3.531,5.723,5.723,0,0,0-1.917,5.332C1097.986,968.16,1097.947,968.65,1097.947,969.135Z" transform="translate(-1071.685 -912.12)"/><path class="k" d="M1162.52,1029.421c1.454,0,2.907-.027,4.36.008a2.469,2.469,0,0,1,2.55,2.51,23.928,23.928,0,0,1-.011,2.663,1.1,1.1,0,0,1-1.21,1.14c-.081,0-.161,0-.243,0-1.776,0-3.555-.062-5.328.019-1.633.075-3.255.381-4.887.448-1.7.069-1.9-.2-1.925-1.87-.012-.97-.024-1.939,0-2.907a1.975,1.975,0,0,1,2.088-2C1159.451,1029.4,1160.986,1029.421,1162.52,1029.421Zm-4.678,4.376c.421,0,.734,0,1.047,0,2.595.025,5.132-.832,7.75-.5.343.044.89.173.837-.479a1.6,1.6,0,0,0-.351-1.033,2.323,2.323,0,0,0-1.259-.405c-2.358-.128-4.648.811-7.026.477a7.757,7.757,0,0,0-1-.006Z" transform="translate(-1105.738 -959.39)"/><path class="k" d="M1133.463,1109.425c.553,1.823-.383,3.032-2.118,4.189a10.473,10.473,0,0,1-4.586,1.876c-.511.065-.992.412-1.5.448-1.006.074-1.871-.6-2.957-.523a4.442,4.442,0,0,1-2.922-1.113c-.788-.605-1.667-.975-2.047-2.05-.195-.551-.85-.953-1.331-1.385a4.38,4.38,0,0,1-1.44-3.523,11.829,11.829,0,0,1,.364-3.472,5.6,5.6,0,0,1,1.763-2.908c1.551-1.214,2.908-2.649,5-3.177a12.5,12.5,0,0,1,4.946-.2,10.419,10.419,0,0,1,3.769,1.957,2.251,2.251,0,0,1,1.207,2.174c-.073.95.659,1.829,1.013,2.712A10.551,10.551,0,0,1,1133.463,1109.425Zm-9.2,3.619a8.268,8.268,0,0,0,4.7-.95c.98-.453,1.942-1.077,2.054-2.056a10.552,10.552,0,0,0-2.4-8.426c-1.481-1.714-1.5-1.694-3.9-1.694a4.392,4.392,0,0,1-.966-.01,4.685,4.685,0,0,0-3.653,1.106,4.216,4.216,0,0,0-2.178,4.151,20.509,20.509,0,0,1,.018,2.42c.008,2.212,1.329,3.679,2.906,4.956a2.081,2.081,0,0,0,1.726.523A9.571,9.571,0,0,1,1124.267,1113.043Z" transform="translate(-1082.444 -997.798)"/><path class="f" d="M1379.374,1091.95c2-.384,3.848.424,5.757,1.482a5.741,5.741,0,0,1,2.8,3.348c.742,2.184,1.135,4.466,1.682,6.7a5.375,5.375,0,0,1-.024,3.826,3.534,3.534,0,0,1-.656,1.311,11.647,11.647,0,0,0-1.662,1.686,5.737,5.737,0,0,1-3.872,2.087,21.983,21.983,0,0,1-7.143.619,2.026,2.026,0,0,1-1.123-.439c-1.535-1.6-3.509-2.552-5.28-3.8a7,7,0,0,1-3.07-5.8c-.068-1.938.8-3.569,1.135-5.361.054-.293.38-.555.619-.791a27.347,27.347,0,0,1,5.26-3.847A8.889,8.889,0,0,1,1379.374,1091.95Zm.059,17.9c.525,0,1.054-.031,1.578.005a6.559,6.559,0,0,0,5.332-2.364c.226-.234.536-.548.531-.818-.055-2.477.525-5.069-.559-7.384-.8-1.7-1.481-3.546-3.732-4.318-1.493-.512-2.873-.233-4.289-.42a5.733,5.733,0,0,0-4.035,1.046,17.288,17.288,0,0,0-2.259,1.5,11.469,11.469,0,0,0-1.41,1.988c.974.51-.255.907-.074,1.433.237.686-.338,1.273-.443,1.888a3.785,3.785,0,0,0,.375,2.445c1.158,2.284,3.317,3.232,5.191,4.612.922.678,1.841.206,2.743.38A5.658,5.658,0,0,0,1379.433,1109.854Z" transform="translate(-1225.651 -995.43)"/><path class="i" d="M1101.042,971.507c0-.485.04-.975-.006-1.456a5.722,5.722,0,0,1,1.917-5.332,9.553,9.553,0,0,0,2.5-3.531,7.165,7.165,0,0,1,1.437-2.07c1.744-1.909,2.842-4.328,4.877-6.013a3.957,3.957,0,0,1,2.93-1.161c2.947.225,5.828-.837,8.786-.482,2.151-.818,4.4-.342,6.6-.5.992-.071,1.968-.347,2.959-.46a9.508,9.508,0,0,0,2.982-.434c1.194-.515,1.969.2,1.953,1.524-.008.676.31,1.446-.4,2.026a.7.7,0,0,0-.051.676,3.969,3.969,0,0,1,.432,2.962c-.181,1.1.518,1.952.522,2.963,0,1.052,0,2.106,0,3.157a11.645,11.645,0,0,0,.048,3.144c.639,2.2.327,4.409.451,6.613a3.812,3.812,0,0,1-.743,2.124,1.026,1.026,0,0,1-.742.49c-1.588-.1-3.046.642-4.661.552-2.931-.165-5.828.781-8.784.445-1.4.786-2.964.24-4.409.515-5.1.967-10.238.2-15.349.455a6.484,6.484,0,0,1-1.213-.007,2.078,2.078,0,0,1-2.032-2.313C1101.031,974.1,1101.042,972.8,1101.042,971.507Z" transform="translate(-1074.78 -914.492)"/><path class="k" d="M1160.474,1036.337v-1.945a7.759,7.759,0,0,1,1,.006c2.378.334,4.668-.605,7.026-.477a2.326,2.326,0,0,1,1.26.405,1.6,1.6,0,0,1,.351,1.033c.053.652-.495.523-.837.479-2.618-.334-5.155.524-7.75.5C1161.208,1036.333,1160.895,1036.337,1160.474,1036.337Z" transform="translate(-1108.371 -961.93)"/><path class="i" d="M1128.59,1116.154a9.583,9.583,0,0,0-1.692.02,2.081,2.081,0,0,1-1.726-.523c-1.576-1.277-2.9-2.743-2.906-4.956a20.457,20.457,0,0,0-.018-2.42,4.216,4.216,0,0,1,2.178-4.151,4.685,4.685,0,0,1,3.653-1.106,4.392,4.392,0,0,0,.966.01c2.393,0,2.416-.02,3.9,1.694a10.55,10.55,0,0,1,2.4,8.426c-.112.98-1.074,1.6-2.054,2.056A8.267,8.267,0,0,1,1128.59,1116.154Z" transform="translate(-1086.766 -1000.908)"/><path class="i" d="M1382.3,1111.611a5.2,5.2,0,0,1-.968-.009c-.832-.16-1.678.275-2.528-.35-1.726-1.271-3.716-2.144-4.782-4.248a3.489,3.489,0,0,1-.345-2.252c.1-.566.626-1.107.408-1.739-.167-.485.966-.85.068-1.321a10.543,10.543,0,0,1,1.3-1.831,15.94,15.94,0,0,1,2.081-1.378,5.282,5.282,0,0,1,3.717-.963c1.3.172,2.576-.085,3.951.387,2.073.711,2.7,2.408,3.438,3.978,1,2.133.464,4.52.515,6.8.005.249-.281.538-.489.753a6.043,6.043,0,0,1-4.912,2.178C1383.267,1111.583,1382.78,1111.611,1382.3,1111.611Z" transform="translate(-1228.727 -997.824)"/></g></g></g></svg>