<svg xmlns="http://www.w3.org/2000/svg" width="24" height="24" viewBox="0 0 24 24"><defs><style>.a{fill:#ccc;}</style></defs><g transform="translate(-4.5 -4.5)"><path class="a" d="M21.5,6.5a5.015,5.015,0,0,1,5,5v10a5.015,5.015,0,0,1-5,5h-10a5.015,5.015,0,0,1-5-5v-10a5.015,5.015,0,0,1,5-5h10m0-2h-10a7.021,7.021,0,0,0-7,7v10a7.021,7.021,0,0,0,7,7h10a7.021,7.021,0,0,0,7-7v-10a7.021,7.021,0,0,0-7-7Z"/><path class="a" d="M25.425,12.6a1.8,1.8,0,1,1,1.8-1.8A1.8,1.8,0,0,1,25.425,12.6Z" transform="translate(-3.125 -0.5)"/><path class="a" d="M17.472,13.324a4.148,4.148,0,1,1-4.148,4.148,4.152,4.152,0,0,1,4.148-4.148m0-2.074a6.222,6.222,0,1,0,6.222,6.222,6.223,6.223,0,0,0-6.222-6.222Z" transform="translate(-1.176 -0.751)"/></g></svg>