<svg xmlns="http://www.w3.org/2000/svg" width="28.364" height="27" viewBox="0 0 28.364 27"><defs><style>.a{fill:none;stroke:#333;stroke-linecap:round;stroke-linejoin:round;stroke-width:3px;}</style></defs><g transform="translate(1.5 -2.427)"><path class="a" d="M15,31.5A1.5,1.5,0,1,1,13.5,30,1.5,1.5,0,0,1,15,31.5Z" transform="translate(-4.066 -5.073)"/><path class="a" d="M31.5,31.5A1.5,1.5,0,1,1,30,30,1.5,1.5,0,0,1,31.5,31.5Z" transform="translate(-8.136 -5.073)"/><path class="a" d="M1.5,1.5H6.112L9.2,15.523a2.267,2.267,0,0,0,2.306,1.686H22.714a2.267,2.267,0,0,0,2.306-1.686l1.845-8.787H7.265" transform="translate(-1.5 2.427)"/></g></svg>