<svg xmlns="http://www.w3.org/2000/svg" width="24" height="24" viewBox="0 0 24 24"><defs><style>.a{fill:#eae8e6;}.b{fill:#fff;}</style></defs><g transform="translate(-875 9)"><path class="a" d="M12,0A12,12,0,1,1,0,12,12,12,0,0,1,12,0Z" transform="translate(875 -9)"/><path class="b" d="M5,5.714A2.857,2.857,0,1,0,2.143,2.857,2.857,2.857,0,0,0,5,5.714Zm2,.714H6.627a3.886,3.886,0,0,1-3.254,0H3a3,3,0,0,0-3,3v.929a1.072,1.072,0,0,0,1.071,1.071H8.929A1.072,1.072,0,0,0,10,10.357V9.429A3,3,0,0,0,7,6.429Z" transform="translate(882 -3)"/></g></svg>