<svg xmlns="http://www.w3.org/2000/svg" width="356" height="260" viewBox="0 0 356 260"><defs><style>.a{fill:#eae8e6;}.b,.h{fill:#333;}.b,.c,.d,.e,.f{fill-rule:evenodd;}.c{fill:#e46666;}.d{fill:#90adcb;}.e{fill:#fff;}.g{fill:#72665a;font-size:20px;letter-spacing:0.03em;}.g,.h{font-family:GenJyuuGothic-Bold, Gen Jyuu Gothic;font-weight:700;}.h{font-size:12px;letter-spacing:0.02em;}</style></defs><g transform="translate(-505 -267)"><rect class="a" width="356" height="260" transform="translate(505 267)"/><g transform="translate(115.281 -67.076)"><g transform="translate(460.719 381.076)"><path class="b" d="M677,511.009a28.8,28.8,0,0,1,3.816-7.137,29.3,29.3,0,0,1,5.48-6.215,11.917,11.917,0,0,1,4.294-2.327,8.321,8.321,0,0,0,2.281-1.06,24.041,24.041,0,0,1,2.96-1.329c.956-.429,2.073-.228,2.943-.879,1.512.183,3.065-.267,4.559.329a4.635,4.635,0,0,0,1.306.159,16.157,16.157,0,0,1,4.814,1.111,35.631,35.631,0,0,1,8.515,5.217,38.9,38.9,0,0,1,3.095,2.806,21.062,21.062,0,0,1,4.667,7.245,12.146,12.146,0,0,1,.878,3.7c.092,1.508.652,2.982.353,4.516.7,1.987.142,4.041.333,6.154.964-.5,1.876-1.014,2.825-1.455,3.269-1.514,6.553-3,9.823-4.509.6-.279,1.11-.83,1.834-.726a.946.946,0,0,0,1.108-.56c.15-.5.323-1.148-.285-1.576a24.3,24.3,0,0,0-2.41-1.677,12.158,12.158,0,0,1-5.305-4.976,17.318,17.318,0,0,1-1.918-4.087,1.679,1.679,0,0,0-1.9-1.4,6.071,6.071,0,0,1-3.569-1.2c-1.049-.974-2.22-1.886-2.583-3.4a5.484,5.484,0,0,1-.3-1.038c-.024-1.038.033-2.076.037-3.114a3.93,3.93,0,0,1,.947-2.536,1.43,1.43,0,0,0,.234-1.863,5.9,5.9,0,0,1-.664-3.032c.067-1.684.163-3.379.071-5.059a10.955,10.955,0,0,1,.575-4.088,25.142,25.142,0,0,1,2.509-5.763,27.445,27.445,0,0,1,3.262-4.254,18.477,18.477,0,0,1,4.561-3.6c2.4-1.212,4.712-2.681,7.361-3.385.986-.262,1.963-.572,2.927-.913.915-.323,1.946-.206,2.79-.767,1.715.141,3.429-.808,5.073-.259,1.125.377,2.284.336,3.41.7,1.082.346,2.218.671,3.275,1.068,1.5.565,3.193.832,4.4,2.079a1.05,1.05,0,0,0,.69.193,5.632,5.632,0,0,1,3.905,1.841c1.264,1.214,2.5,2.465,3.645,3.787a24.457,24.457,0,0,1,2.8,3.731,13.463,13.463,0,0,1,1.148,3.405,21.979,21.979,0,0,1,.749,4.748c.047,1.5.378,2.992.284,4.521-.1,1.553-.045,3.115-.113,4.67-.026.6.222,1.269-.375,1.814-.127.114.05.742.25,1.008a5.261,5.261,0,0,1,1.186,3.986,1.644,1.644,0,0,0,0,.195,9.81,9.81,0,0,0,.006,2.71,7.521,7.521,0,0,0,1.392,2.152,6.7,6.7,0,0,1,1.2,3.791,9.467,9.467,0,0,1-1.289,5.141,5.607,5.607,0,0,0-.832,2.974,1.636,1.636,0,0,0,1.478,1.621c.387.027.779.014,1.167.025,1.849.054,2.483,1.213,1.579,2.921a3.147,3.147,0,0,1-.714,1.054,21.266,21.266,0,0,1-7.242,3.684,12.265,12.265,0,0,1-3.776.746,1.115,1.115,0,0,0-.624.345.508.508,0,0,0-.046.385c1.294.459,1.92,1.669,2.79,2.572a15.285,15.285,0,0,1,2.028,2.861,23.2,23.2,0,0,1,2.6,6.52,17.829,17.829,0,0,1,.306,3.358c.03.667.273,1.322.323,1.989.053.709-.031,1.427-.019,2.14a9.94,9.94,0,0,1-.8,3.971,48.452,48.452,0,0,0-1.687,5.15,12.708,12.708,0,0,1-2.331,4.274c-1.123,1.456-2.535,2.684-3.747,4.074a33.936,33.936,0,0,0-3.259,3.872c-.2.319-.527.74-.835.778-.613.071-.888.5-1.217.853a25.612,25.612,0,0,1-8.237,5.612,13.972,13.972,0,0,1-6.762,1.5c-2.071-.127-4.151-.113-6.229-.125a13.738,13.738,0,0,1-4.555-.8c-.857-.3-1.817-.2-2.745-.432a33.626,33.626,0,0,1-3.255-1.122c-2.252-.82-4.441-1.817-6.67-2.706A16.476,16.476,0,0,1,722.4,564.6a33.361,33.361,0,0,0-3.72-2.7,1.222,1.222,0,0,0-.713-.149,3.053,3.053,0,0,1-2.316-1.01,7.2,7.2,0,0,0-1.609-1.256,15.2,15.2,0,0,1-4.4-3.411c-.408-.441-.675-.385-1.094,0-2.072,1.913-4.178,3.787-6.263,5.685-.368.334-.82.618-.729,1.264.025.175-.225.45-.415.583-2.779,1.937-5.517,3.939-8.379,5.743-1.325.835-2.775,1.486-4.083,2.377-1.677,1.141-3.447,2.135-5.051,3.4a4.354,4.354,0,0,1-3.22,1.15c-.835-.093-1.817.217-2.5-.126-.89-.451-1.847-.039-2.559-.427-.73-.4-1.659-.047-2.227-.76-1.093.093-1.98-.67-2.977-.777-.825-.09-1.075-1.218-1.994-.872-1.6-.973-3.382-1.546-5.049-2.375a17.275,17.275,0,0,1-3.943-2.608,27.724,27.724,0,0,0-4.1-2.842c-1.871-1.173-3.609-2.508-5.4-3.768a29.07,29.07,0,0,1-4.444-3.778c-.881-.93-1.489-.947-2.395-.039a13.051,13.051,0,0,1-3.921,2.82,5.524,5.524,0,0,0-.9.665,13.807,13.807,0,0,1-1.518,1.06,2.354,2.354,0,0,1-1.57.24c-.627-.091-1.431.553-2.056,1.013a44.991,44.991,0,0,1-5.875,3.75,61.653,61.653,0,0,1-6.877,2.671,22.973,22.973,0,0,1-3.175,1.264c-1.425.309-2.848.624-4.273.929-.6.128-1.191.263-1.793.353-.544.081-1.112-.172-1.629.335-.194.192-.747.019-1.136.012-2.466-.044-4.931-.116-7.4-.124a15.25,15.25,0,0,1-6.161-1.632,27.809,27.809,0,0,1-6.294-4.062c-2.058-1.68-3.742-3.689-5.607-5.535-.987-.975-1.814-2.111-2.712-3.176-.856-1.016-1.783-1.981-2.545-3.063a16.689,16.689,0,0,1-2.907-6c-.434-2.017-1.407-3.884-1.67-5.911a36.767,36.767,0,0,1-.006-4.942c.576-.529.275-1.22.3-1.828.145-4.279,1.938-7.861,4.451-11.223a20.26,20.26,0,0,1,4.213-4.007,2.592,2.592,0,0,1,.624-.377c2.7-1,5.125-2.656,7.947-3.393.576-.15.981-.77,1.482-1.077a16.67,16.67,0,0,1,2.823-1.155c.448-.173.924-.281,1.355-.484.187-.088.442-.39.4-.517a.819.819,0,0,0-.524-.517,6.3,6.3,0,0,1-2.91-1.458,15.591,15.591,0,0,0-2.109-1,7.955,7.955,0,0,1-3.278-2.484c-1.258-1.823-2.454-3.681-3.648-5.544a15.262,15.262,0,0,1-1.2-2.233,1.334,1.334,0,0,0-1.1-.833c-1.834-.462-3.745-.833-4.991-2.5-1.9-.825-2.045-2.469-1.972-4.218a8.947,8.947,0,0,0,.016-1.167,3.073,3.073,0,0,1,1.158-2.831,1.256,1.256,0,0,0,.357-1.691,2.313,2.313,0,0,1-.222-1.465c.012-2.076.027-4.155.119-6.229a20.049,20.049,0,0,1,.419-2.558c.15-.85-.168-1.72.388-2.587.371-.577.185-1.457.292-2.191a28.3,28.3,0,0,1,1.077-3.1c.351-1.355,1.495-2.353,2.3-3.5a34.494,34.494,0,0,1,3.354-3.647,16.293,16.293,0,0,1,7.446-4.192,7.891,7.891,0,0,0,2.853-1.108,1.072,1.072,0,0,1,.661-.26c1.5.113,2.216-1.048,3.132-1.887a29.224,29.224,0,0,1,6.059-4.263,2.834,2.834,0,0,1,1.775-.422c.749.118,1,.624.752,1.409a8.762,8.762,0,0,0-.852,2.773c.011.554.212.6.716.408a28.639,28.639,0,0,1,4.942-1.653,13.919,13.919,0,0,1,4.693-.4,1,1,0,0,1,.849,1.487,3.408,3.408,0,0,1-.3.652c-.8,1.151-1.624,2.291-2.415,3.4,2.093,1.189,4.2,2.242,6.149,3.533a21.522,21.522,0,0,1,5.015,4.615,32.472,32.472,0,0,1,1.9,2.729,23.083,23.083,0,0,1,2.618,6.12,13.963,13.963,0,0,1,.71,5.143,28.731,28.731,0,0,0-.07,3.892,7.847,7.847,0,0,1-1.03,4.07c-.26.5-.4.894.052,1.342,1,.992.911,2.359,1.167,3.594.116.558-.087,1.179.009,1.746a3.594,3.594,0,0,1-.943,2.912,8.76,8.76,0,0,1-3.64,2.945,6.077,6.077,0,0,1-2.016.263c-1.487.03-1.46.121-2.153,1.548-1.2,2.475-2.4,5.01-4.544,6.837a25.172,25.172,0,0,1-5.433,3.361c-.383.186-.82.214-.73.842a9.387,9.387,0,0,1-.01,1.493c1.167.252,2.311.287,3.127,1.178,2.8.954,5.178,2.829,7.968,3.769,1.3.437,2.258,1.4,3.531,1.818a10.1,10.1,0,0,1,.937.55c.7.323,1.049.1,1.065-.662.044-2.013.145-4.026.09-6.036a12.591,12.591,0,0,1,1.171-4.6,14.109,14.109,0,0,1,2.133-3.989,42.124,42.124,0,0,1,3.249-3.884,28.329,28.329,0,0,1,8.57-5.767,23.343,23.343,0,0,1,6.424-1.876,24.726,24.726,0,0,0,2.945-.369,10.153,10.153,0,0,1,2.787-.259c1.036-.012,2.084.131,3.106.027a8.633,8.633,0,0,1,4.7.94c2.4,1.181,4.845,2.3,6.765,4.348a66.006,66.006,0,0,1,5.2,6.674,12.781,12.781,0,0,1,.63,1.294C676.052,509.492,676.45,510.113,677,511.009ZM645.08,554.827a30.012,30.012,0,0,0,2.111,2.334,34.888,34.888,0,0,0,3.341,2.677c1.7,1.186,3.356,2.433,5.1,3.569A62.509,62.509,0,0,1,660.969,567c1.182.955,2.3,2.27,4.048,2.361,1.41,1.108,3.245,1.285,4.753,2.141a19.693,19.693,0,0,0,8.771,2.4c1,.059,2.048-.262,3.022.256a.451.451,0,0,0,.4-.078c1.343-1.2,2.952-2.032,4.374-3.11a41.288,41.288,0,0,1,5.607-3.461,19.368,19.368,0,0,0,5.1-4.138c.128-.145.266-.37.421-.391.788-.107,1.13-.785,1.639-1.234a20.662,20.662,0,0,1,2.269-2.126c2.145-1.368,3.664-3.394,5.546-5.03a.857.857,0,0,0,.017-1.326,11.254,11.254,0,0,1-1.332-1.8,4.6,4.6,0,0,1-.652-2.642c.079-.831.895-1.038,1.295-1.593.057-.078.22-.086.338-.109.47-.089.375-.351.265-.691-.683-2.109-.192-3.215,1.667-4.117a1.241,1.241,0,0,1,1.212-.052c.736.327.756.284.81-.517,0-.065,0-.131,0-.195a1.609,1.609,0,0,1,1.761-1.727c.39,0,.78,0,1.168.023.355.021.56-.016.632-.47a2.324,2.324,0,0,1,2.467-2.217,3.7,3.7,0,0,1,2.825,1.208c.633.579.9.423,1.344-.337.547-.947.6-2.05,1.169-3.029,1.066-1.82,2.174-3.694,2.1-5.946.792-.771.334-1.877.75-2.812a7.453,7.453,0,0,0,.126-3.077c-.094-2.8.459-5.616-.208-8.415-.244-1.021-.085-2.15-.41-3.131-.215-.649-.193-1.324-.457-1.942a20.372,20.372,0,0,0-2.839-4.861,37.956,37.956,0,0,0-6.563-6.056,14.067,14.067,0,0,0-1.855-1.138,20.986,20.986,0,0,0-4.32-2.213,20.72,20.72,0,0,0-6.069-.969c-1.1.04-2.2-.033-3.308-.046a2.844,2.844,0,0,0-.95.039c-1.3.45-2.612.894-3.875,1.444a47.674,47.674,0,0,0-4.71,2.267,13.094,13.094,0,0,0-3.993,3.085,55.222,55.222,0,0,0-4.353,6.147c-1.144,1.971-2.475,3.972-2.272,6.458a1.513,1.513,0,0,1-.008.389,1.919,1.919,0,0,1-1.306,1.205c-.608.036-.817-.326-1.058-.855a46.6,46.6,0,0,0-3.369-6.214c-2.687-4.093-3.041-5.026-6.459-7.644-2.44-1.868-5.164-3.283-8.421-3.174-1.359.046-2.724-.037-4.086-.062a4.8,4.8,0,0,0-1.549,0c-1.69.583-3.49.577-5.187,1.061a23.6,23.6,0,0,0-5.359,2.088,35.456,35.456,0,0,0-6.669,5.205,19.331,19.331,0,0,0-4.719,6.985,10.334,10.334,0,0,0-.966,4.3,20.506,20.506,0,0,1-.064,3.307c-.235,2.05.362,4.043.3,6.075,0,.127-.04.312.027.37.593.526.224,1.209.328,1.811.093.537.241,1.064.354,1.6a8.782,8.782,0,0,1,.338,1.791,6.613,6.613,0,0,0,.911,3.125,32.224,32.224,0,0,0,1.848,2.756c.166.249.2.639.418.786.435.295.622-.263.94-.4.722-.306,1.471-.838,2.247-.6a5.685,5.685,0,0,1,2.005.812c.693.545.321,1.306.54,1.919.283.006.474.015.665.012a3.222,3.222,0,0,1,2.156.443,2.747,2.747,0,0,1,.973,1.931c.017.154.279.346.462.4a3.288,3.288,0,0,0,.774.032,2.2,2.2,0,0,1,2.2,2.294,7.981,7.981,0,0,1-.028,1.167,1.744,1.744,0,0,0,.981,2.114,1,1,0,0,1,.54,1.132,4.965,4.965,0,0,0-.025,1.359,1.329,1.329,0,0,1-.6,1.32C647,553.319,646.162,553.983,645.08,554.827Zm-41.369,16.161a35.4,35.4,0,0,0,8.848-.572,46.785,46.785,0,0,0,5.6-1.5c1.757-.608,3.469-1.333,5.237-1.925a12.456,12.456,0,0,0,4.232-2.036c1.019-.853,2.281-1.41,3.375-2.182a15.48,15.48,0,0,1,3.13-1.879c.258-.1.621-.314.2-.831-.351-.432-.318-1.153-.572-1.691a20.431,20.431,0,0,1-1.159-2.056c-.519-1.56-1.568-2.847-2.117-4.386-.363-1.016-1.548-1.194-2.211-1.926-.529.293-1.06.581-1.585.882-.58.331-1.133.716-1.735,1-2.065.969-4.124,1.955-6.23,2.829a13.164,13.164,0,0,1-3.944,1.215c-1.621.115-3.1.973-4.747.761-3.488,1.1-6.672-.147-9.235-2.793-1.553-1.6-3.12-3.185-4.527-4.949a54.891,54.891,0,0,1-4.751-6.661,4.02,4.02,0,0,1-.923-2.724c.05-.276-.163-.744.345-.727.405.014.921-.267,1.216.257s.553,1.072.844,1.6a19.449,19.449,0,0,0,1.619,2.834,98.055,98.055,0,0,0,6.97,8.483,14.07,14.07,0,0,0,2.976,2.2,3.425,3.425,0,0,0,1.755.492,24.072,24.072,0,0,0,5.873-.328,39.2,39.2,0,0,0,4.565-1.163c1.5-.6,3.013-1.2,4.536-1.724.759-.262,1.055-.518,1.059-1.274.01-1.881.1-3.763.079-5.644-.017-1.378.3-2.765-.272-4.139a2.47,2.47,0,0,1,.513-2.1c.135-.231.588-.519.74-.448a1.225,1.225,0,0,1,.667.789,21.944,21.944,0,0,1,.39,3.349c-.142,2.069-.106,4.15-.139,6.225a8.381,8.381,0,0,0,.031,1.15c.033.28.563.429.813.269a15.573,15.573,0,0,1,2.33-1.444,3.3,3.3,0,0,0,1.932-2.287,8.954,8.954,0,0,1,1.59-3.419,3.724,3.724,0,0,0-.2-5.064,1.376,1.376,0,0,1-.436-.6c-.508-1.8-1.057-3.591-1.451-5.417-.337-1.56-.449-3.169-.732-4.742a1.373,1.373,0,0,0-1.252-1.225,2.608,2.608,0,0,1-1.494-.664,14.507,14.507,0,0,0-3.59-2.079,12.393,12.393,0,0,0-2.343-.944c-.944-1.352-2.812-1.19-3.882-2.37-.278-.307-.976.078-.92.5a4.861,4.861,0,0,1-1.248,3.781c-1.253,1.578-2.693,2.789-4.886,2.593a1.552,1.552,0,0,0-.771,0c-1.776.952-3.428.15-4.946-.538A33.414,33.414,0,0,1,596,521.734c-.986-.771-2.311-1.206-2.792-2.6-.218-.634-.746-.713-1.427-.388-1.955.932-3.893,1.894-5.839,2.84a19.863,19.863,0,0,0-2.909,1.427,20.9,20.9,0,0,0-4.38,4.107,16.85,16.85,0,0,0-3.576,8.853,5.73,5.73,0,0,1-.139.92,43.24,43.24,0,0,0-.371,6.5c.027.109.237.178.252.283.242,1.623,1.107,3.065,1.257,4.74a7.614,7.614,0,0,0,1.093,3.028,35.241,35.241,0,0,0,3.105,4.57c1.291,1.574,2.72,3.038,4.061,4.577a41.623,41.623,0,0,0,5.734,5.67,39,39,0,0,0,7.567,4.265,7.037,7.037,0,0,0,2.374.4Zm125-21.446c.04-2.2.077-4.2.112-6.2.028-1.579.685-3.088.51-4.7-.028-.25.373-.708.655-.788a1.482,1.482,0,0,1,1,.327.816.816,0,0,1,.241.656c-.227,2.147.168,4.3-.419,6.472-.41,1.518-.121,3.224-.167,4.846-.012.431.3.389.541.564,1.734,1.27,3.868,1.656,5.722,2.653.359.193.9.031,1.287.2a16.389,16.389,0,0,0,7.292,1.272,1.5,1.5,0,0,1,.195,0,5.648,5.648,0,0,0,4.345-1.688c2.253-2.092,4.4-4.315,6.457-6.6a32.589,32.589,0,0,0,2.734-3.9c.5-.754.919-1.562,1.4-2.33.208-.327,1.39-.618,1.554-.358a2.242,2.242,0,0,1,.183,1.076c.005.16-.137.327-.219.485a26.987,26.987,0,0,1-4.517,6.67,19.8,19.8,0,0,0-2.374,2.7,15.57,15.57,0,0,1-4.933,4.642c-1.707,1.025-3.569,1.969-5.731,1.624a16.253,16.253,0,0,1-3.119-.506c-.641-.239-1.3-.3-1.93-.513-1.029-.353-2.118-.536-3.136-.913-1.63-.6-3.191-1.4-4.785-2.072a26.97,26.97,0,0,1-5.537-3.054c-.64-.468-.894-.5-1.758,0-.347.2-.829-.254-1.107.421a31.223,31.223,0,0,1-1.571,2.846c-.855,1.589-1.686,3.189-2.52,4.789-.249.479-.747,1.05-.636,1.432a2.016,2.016,0,0,0,1.273.978,7.312,7.312,0,0,1,2.14,1.417c1,.724,1.945,1.539,2.978,2.176a25.745,25.745,0,0,0,5.018,2.415c1.088.378,2.117.855,3.182,1.263s2.066.951,3.174,1.285a11.628,11.628,0,0,0,3.569.8c.677.854,1.907-.022,2.583.825a12.373,12.373,0,0,1,2.755.418,54.894,54.894,0,0,0,8.407-.225,2.224,2.224,0,0,0,.5-.193,28.733,28.733,0,0,0,4-1.641,18,18,0,0,0,4.889-3.208c1.42-1.418,3.218-2.346,4.434-4.071,1.67-2.372,3.938-4.282,5.869-6.471a21.481,21.481,0,0,0,2.971-5.392c.178-.376.1-.885.307-1.235.254-.432-.136-1.1.532-1.342a13.789,13.789,0,0,0,.886-5.115c-.073-.9.068-1.818.019-2.723-.047-.862-.3-1.715-.307-2.573a10.889,10.889,0,0,0-.611-3.054,17.543,17.543,0,0,0-2.714-5.329c-1.307-1.785-3-3.153-4.395-4.825-.787.006-1.041-1.208-1.977-.866q-1.921-.995-3.84-1.992a7.613,7.613,0,0,1-1.573-.874.973.973,0,0,0-1.621.083,32.084,32.084,0,0,1-10.706,6.678,6.83,6.83,0,0,1-3.328.415c-1.165-.218-2.356-.286-3.525-.488a1.864,1.864,0,0,1-.927-.544,17.947,17.947,0,0,1-1.645-1.62,5.41,5.41,0,0,1-1.45-3.7,1.8,1.8,0,0,0-.238-.865c-.087-.173-.209-.4-.544-.14a25.4,25.4,0,0,1-6.124,3.1c-1.765.732-3.287,1.792-4.941,2.659a1.173,1.173,0,0,0-.723,1.047,18.678,18.678,0,0,1-.836,3.947,23.831,23.831,0,0,1-2.228,6.289c-.519.947-.879,1.991-1.472,2.884a1.191,1.191,0,0,0,.011,1.645,9.876,9.876,0,0,1,1.811,4.294,2.149,2.149,0,0,0,1.194,1.746C726.356,548.1,727.435,548.771,728.713,549.543ZM597.24,473.434a18.829,18.829,0,0,1-2.851,2.166,15.171,15.171,0,0,0-3.837,3,38.47,38.47,0,0,0-4.227,4.426,16.385,16.385,0,0,0-2.245,3.732,16.654,16.654,0,0,0-1.123,3.226,14.39,14.39,0,0,0,.413,5.418,32.462,32.462,0,0,1,.947,4.462,3.71,3.71,0,0,0,.476,1.732c1.588,2.343,3.055,4.771,4.81,7a3.654,3.654,0,0,0,.715.6,18.824,18.824,0,0,0,4.636,2.409,9.263,9.263,0,0,0,3.159.855c3.113.041,6.225.113,9.338.155a3.531,3.531,0,0,0,1.266-.206,21.6,21.6,0,0,0,5.513-2.689c.8-.568,1.926-.894,2.4-1.648,1.084-1.737,2.517-3.229,3.25-5.245.59-1.625,1.28-3.242,1.816-4.886.558-1.718,1.69-3.246,1.729-5.133,1.1-1.757.164-3.324-.776-4.6a70.43,70.43,0,0,0-4.95-5.6,4.251,4.251,0,0,0-.913-.592,5.7,5.7,0,0,1-.246.86c-.06.131-.249.213-.393.3a2.28,2.28,0,0,1-2.452-.371,11.927,11.927,0,0,1-.992-.865c-.318-.331-.585-.713-.877-1.07a1.972,1.972,0,0,0-1.953-.934,3.34,3.34,0,0,1-1.163-.021.749.749,0,0,1-.333-1.281,5.608,5.608,0,0,1,.467-.458c-.85-.88-1.609-1.681-2.383-2.466-.665-.675-1.166-.7-1.431.1a6.748,6.748,0,0,1-2.034,2.647c-.833.818-1.734,1.574-2.5,2.448a7.223,7.223,0,0,1-2.348,1.433c-.824.431-1.482-.1-1.421-1.069a3.252,3.252,0,0,1,.281-.855c.156-.421.16-.354-.457-.34-1.23.029-2.465.019-3.689-.074-.278-.021-.525-.453-.786-.695.291-.277.539-.673.885-.8.4-.145.94.08,1.317-.089a2.694,2.694,0,0,1,2.653.077c.413.241.813-.115.6-.571-.543-1.165-.258-2.366-.3-3.553C597.217,474.115,597.233,473.864,597.24,473.434Zm134.455,17c.143,1.417-.152,2.817.277,4.288.339,1.162.867,2.245,1.169,3.408.376,1.456.917,2.852,1.428,4.263a22.4,22.4,0,0,0,1.931,4.261,9.363,9.363,0,0,0,1.562,2.264,29.114,29.114,0,0,0,6.632,4.1,5.657,5.657,0,0,0,2.5.58c2.266-.039,4.536.061,6.8.093a10.533,10.533,0,0,0,3.932-.312c.731-.271,1.49-.465,2.216-.751a14.3,14.3,0,0,0,4.506-2.711,22.079,22.079,0,0,0,3.259-4.239c.749-1.15,1.7-2.233,1.879-3.684.725-.551-.1-1.536.586-2.1.294-1.886,1.269-3.656,1-5.636-.145-1.069.662-2.1.081-3.188-.05-.092.182-.3.217-.475.395-1.933.514-3.9-.565-5.623-1.119-1.781-2.5-3.39-3.718-5.113-.751-1.064-1.613-2.035-2.352-3.116a45.942,45.942,0,0,0-3.171-3.786,8.013,8.013,0,0,1-.714.991c-.963.962-1.959,1.892-2.925,2.851a.592.592,0,0,0-.151.5c.039.118.283.223.443.233a13.436,13.436,0,0,1,1.937.081,1.035,1.035,0,0,1,.639.783c-.014.257-.431.552-.732.716-.2.107-.507.011-.768.007-.905-.016-1.814-.031-2.72-.05a1.869,1.869,0,0,0-1.566.481,15.067,15.067,0,0,1-2.375,1.78,58.435,58.435,0,0,1-7.014,3.764c-1.84.876-3.843,1.454-5.571,2.5A21.421,21.421,0,0,1,731.7,490.438ZM614,455.319c-1.346.232-2.459.327-3.514.626a33.03,33.03,0,0,0-5.73,2.121c-.487.241-.845.519-1.353.184a1.154,1.154,0,0,1-.36-1.54c.661-.816.611-1.842,1.063-2.7.086-.162-.039-.436-.067-.657a1.415,1.415,0,0,0-.523.116c-1.753,1.288-3.515,2.563-5.224,3.905a4.035,4.035,0,0,1-1.908,1.076,3.633,3.633,0,0,0-2.609,1.277c-.23.306-.891.29-1.355.418s-1.129.11-1.355.415c-.559.755-1.43.72-2.136,1.034a6.265,6.265,0,0,0-1.152.513,22.577,22.577,0,0,0-6.034,6.175c-.478.72-1.14,1.325-1.559,2.071a10.527,10.527,0,0,0-.678,2.056,9.774,9.774,0,0,0-.562,1.9c-.071.749-.408,1.486-.4,2.164.02,2.691-.808,5.309-.6,8.006.055.709-.047,1.428-.019,2.139s.414.884,1.232.666a1.58,1.58,0,0,1,1.731.34c.6.6.624.516.919-.227a18.081,18.081,0,0,1,1.474-3.274,36.875,36.875,0,0,1,2.926-3.635c3.052-3.552,7.126-5.914,10.549-9.037.1-.087.176-.237.284-.259.246-.048.611-.146.737-.025a3.217,3.217,0,0,1,1,1.287,9.416,9.416,0,0,1,.384,3.34,29.519,29.519,0,0,0-.063,3.113.534.534,0,0,0,.242.424.589.589,0,0,0,.5-.156,24.31,24.31,0,0,0,2.589-2.781c.59-.916,1.353-1.739,1.946-2.688.652-1.045,1.3-1.057,2.269-.194,1.139,1.01,2.275,2.025,3.358,3.092,1.294,1.275,2.529,2.608,3.793,3.913a4.023,4.023,0,0,0,.7.648.534.534,0,0,0,.48-.15,2.611,2.611,0,0,0,.053-.956,1.014,1.014,0,0,1,.566-1.118c.526-.26.941.021,1.32.437.832.909,1.7,1.78,2.561,2.668a49.785,49.785,0,0,1,4.006,4.239c.766,1.007,1.422,1.825,2.774,1.734.869.859,1.4.064,1.78-.5a2.867,2.867,0,0,0,.558-1.721c-.046-1.619-.034-3.247.081-4.862a14.44,14.44,0,0,0-.688-5.342c-.724-2.361-2.01-5.484-3.344-6.783-2.063-2.01-3.581-4.684-6.546-5.652a12.322,12.322,0,0,0-3.28-1.91,2.852,2.852,0,0,0-2.47-.376,2.927,2.927,0,0,1-.833,0c.007-.946-.11-1.71.68-2.493A14.434,14.434,0,0,0,614,455.319Zm113.19,27.31q-.03,1.556-.056,3.112c-.008.454-.006.908-.027,1.362a2.774,2.774,0,0,0,.793,1.811c.491.644.728-.21,1.134-.23,1.054-.053,2.1-.293,3.154-.293a16.212,16.212,0,0,0,4.29-.881c1.551-.42,2.671-1.7,4.281-1.9,3.887-2.069,8.146-3.417,11.686-6.182a11.865,11.865,0,0,1,1.893-1.526c1.5-.724,2.393-2.093,3.589-3.136a8.9,8.9,0,0,0,2.989-3.788.7.7,0,0,1,.488-.379,1.205,1.205,0,0,1,1.347.492,7.215,7.215,0,0,0,.809,1.222,24.1,24.1,0,0,1,3.48,4.047c.758,1.309,1.925,2.272,2.76,3.531.675,1.021,1.354,2.069,2.1,3.045a9.2,9.2,0,0,1,2.3,6.05c-.015.43.162.52.556.557.278.026.528.277.808.376.574.2.989-.067.966-.682-.109-2.865.517-5.75-.226-8.6.255-1.963-.354-3.831-.714-5.714a5.832,5.832,0,0,0-1.139-2.836,36.492,36.492,0,0,1-2.163-3,23.751,23.751,0,0,0-2.546-2.633c-.4-.426-.786-.868-1.221-1.253a7.27,7.27,0,0,0-1.337-.98c-.469-.254-1.1-.656-1.494-.517-.975.344-.6-.738-1.19-.906-1.724-.494-3.365-1.268-5.064-1.855a14.314,14.314,0,0,0-3.5-.936,22.039,22.039,0,0,0-9.08.922c-2.149.753-4.427,1.185-6.437,2.289a38.624,38.624,0,0,0-5.321,3.242,21.862,21.862,0,0,0-5.4,6.087,14.993,14.993,0,0,0-2.49,8.721C727.233,481.72,727.2,482.175,727.189,482.629Zm55.29,33.523a5.73,5.73,0,0,1-1.351-.039c-1.2-.377-2.643-.624-2.927-2.083a8.62,8.62,0,0,1,.11-3.364,15.145,15.145,0,0,1,1.255-3.162,6.189,6.189,0,0,0-.132-5.863,8.96,8.96,0,0,0-.768-1.237.735.735,0,0,0-.58-.262,1.83,1.83,0,0,0-.806.381A8.8,8.8,0,0,1,772.8,502.4c-.636.088-1.691.29-1.593,1.468.012.146-.164.315-.266.463-1.24,1.81-2.4,3.681-3.753,5.4a9.794,9.794,0,0,1-2.521,2.624c-1.994,1.206-2.066,1.438-1.821,3.634.138,1.238.606,2.473,1.968,2.823a17.149,17.149,0,0,1,3.728,1.784,3.707,3.707,0,0,0,2.7.277c.17-.04.318-.219.483-.232a22.084,22.084,0,0,0,5.809-1.409A12.7,12.7,0,0,0,782.479,516.153Zm-146.7,44.4c1.859-1.156,3.621-2.256,5.384-3.351a13.854,13.854,0,0,0,5.288-5.894c.114-.238-.048-.6-.081-.908a4.174,4.174,0,0,0-1.046.142c-.183.073-.247.4-.4.587a7.79,7.79,0,0,1-1.033,1.092c-.329.257-.9-.112-.922-.537a3.241,3.241,0,0,1,.811-2.4c.927-1.121,1.806-2.325,1.611-3.905-1.494-.578-2.347.242-3.106,1.255-.29.39-.523.821-.807,1.214-.583.806-1.181.793-1.738.067-.256-.334.08-.381.114-.563A11.926,11.926,0,0,1,641.163,544a3.19,3.19,0,0,0,.388-.807c.07-.363.128-.754-.511-.761a3.1,3.1,0,0,0-2.956,1.7c-.138.264-.051.655-.523.582a3.261,3.261,0,0,1-1.072-.229c-.522-.289-.517-.825-.075-1.451.565-.8,1.144-1.588,1.686-2.4a.68.68,0,0,0-.477-.974c-1.153-.042-2.242.021-2.725,1.37-.1.273-.448.456-.68.682a9.348,9.348,0,0,0-1.762,2.361c-.465.873-1.2,1.573-1.081,2.672-.869,1.217-.432,2.328.247,3.446a21,21,0,0,1,1.2,2.23c.794,1.746,1.631,3.466,2.322,5.265A6.008,6.008,0,0,1,635.784,560.55Zm72.858-16.405c-.449,1.452.158,2.658.852,3.849a21.4,21.4,0,0,0,1.085,1.883c.315.43.188.652-.124.956a.832.832,0,0,1-1.189.075,2.469,2.469,0,0,1-.433-.6c-.215-.3-.426-.607-.649-.9a.776.776,0,0,0-1.154-.193c-.16.136-.078.708.059,1.009.248.549.664,1.023.93,1.565a16.541,16.541,0,0,0,3.211,3.948c1.763.327,2.824,1.851,4.365,2.572.492.23.891,1.036,1.29,1.006.862-.063-.045-1.177.629-1.528a44.756,44.756,0,0,1,3.962-7.68c.581-.909,1.458-1.914,1.006-3.047-.51-1.278-.511-2.751-1.5-3.855-.44-.492-.692-1.148-1.088-1.686-1.047-1.422-2.024-3.013-4.3-2.248a3.582,3.582,0,0,0,.19.553c.524.953,1.1,1.878,1.579,2.854.429.876-.08,1.668-.926,1.479-.318-.07-.8-.394-.823-.636-.127-1.4-1.317-1.344-2.188-1.726-.11-.048-.307.022-.366-.048-.234-.266-.406-.411-.707-.05-.225.271-.392.474-.116.811.956,1.164.776,2.78,1.567,4.017.05.079-.047.278-.115.4-.137.243-.256.6-.468.677a.788.788,0,0,1-1-.354,12.553,12.553,0,0,0-.985-1.728C710.591,544.706,710,543.659,708.642,544.145ZM594.189,517.531c1.242,1.058,2.184,2,3.264,2.751a27.816,27.816,0,0,0,7.76,4.2c1.474.443,2.676-.559,4.04-.173.28.079.691-.173,1-.349a4.225,4.225,0,0,0,2.516-3.809c0-.583.012-1.166.031-1.746.012-.338.027-.61-.45-.656-.205-.019-.384-.3-.579-.449-.629-.492-.657-.5-.9.3-.158.531-.379.944-1,.889-.2-.017-.564-.218-.554-.3.119-.986-.306-2.033.357-2.97.2-.279.1-.619-.37-.624-.194,0-.388-.018-.582-.008-1.89.093-3.778.223-5.67.274a13.19,13.19,0,0,1-3.857-.142,1.051,1.051,0,0,0-1.3.428,1.879,1.879,0,0,0-.254.665,1.709,1.709,0,0,1-1.816,1.292A7.045,7.045,0,0,0,594.189,517.531Zm153.022,7.779a8.718,8.718,0,0,0,4.036-1.107,31.316,31.316,0,0,0,6.875-4.093c.462-.374,1.332-.745,1.067-1.421-.144-.37-1.071-.648-1.612-.6-.962.087-1.146-.628-1.369-1.152-.523-1.225-.46-1.261-1.608-1.284-2.722-.055-5.445-.1-8.167-.149-.452-.009-.992.12-1.329-.083-.442-.266-.642-.462-.578.226.045.484-.133.951.179,1.479a2.776,2.776,0,0,1,.1,1.664c-.031.219-.439.461-.717.537-.156.042-.479-.189-.582-.377a7.018,7.018,0,0,1-.216-.876.522.522,0,0,0-.4-.281,1.647,1.647,0,0,0-1.562,1.719c-.016.453.02.912-.033,1.361a2.763,2.763,0,0,0,.8,2.2c.423.49.89.942,1.347,1.4.129.13.28.3.441.326C744.993,524.987,746.1,525.143,747.211,525.31Zm-165.9-32.654a19.056,19.056,0,0,0,.025-2.3c-.153-1.379-1.17-1.958-2.267-1.194a13.6,13.6,0,0,0-2.4,2.336,3.372,3.372,0,0,0-.375,3.094,4.973,4.973,0,0,0,1.773,2.278,6.1,6.1,0,0,0,2.949,1.3c1,.162.988.3.979-.563a2.543,2.543,0,0,0-.093-.925A8.52,8.52,0,0,1,581.313,492.656ZM772,500.7c.9-.252,1.641-.436,2.367-.668,1.885-.6,3.955-2.4,3.672-4.869a3.835,3.835,0,0,0-1.144-2.643c-.41-.367-.932-.614-1.315-1-.554-.564-.961-.329-1.634-.138-.876.249-.559.762-.56,1.151a15.957,15.957,0,0,1-.874,5.5A16.578,16.578,0,0,0,772,500.7Zm-148.664-1.147a3.615,3.615,0,0,0,4.014-1.346c.166-.2.379-.354.554-.544a2.84,2.84,0,0,0,.893-2.161,9.836,9.836,0,0,1,.048-2.135c.166-.972-.593-1.582-.834-2.39-.126-.421-.81-.712-1.288-.981a1,1,0,0,0-1.35.9c-.057,1.164.256,2.453-.142,3.47C624.563,496.08,624.106,497.87,623.338,499.552ZM726.581,494.7a7.645,7.645,0,0,1-.021.922,3.4,3.4,0,0,0,1.285,3.17c.24.218.447.47.679.7.526.514,2.658,1.192,2.874.865.543-.819-.451-1.451-.38-2.239,0-.042-.116-.088-.125-.141-.361-1.979-1.493-3.8-1.173-5.929.066-.431.343-1.169-.254-1.328a2.225,2.225,0,0,0-1.528.428c-.392.251-.6.779-.929,1.14C726.3,493.05,726.74,493.993,726.581,494.7Zm34.546,22.486c-.44-.731-.193-1.381-.238-1.992a.617.617,0,0,0-.86-.6,2.253,2.253,0,0,0-.956.462c-.454.521-1.648-.023-1.6.9.046.8,1.178.41,1.7.916.339.329,1.007.333,1.536.441C760.862,517.338,761.038,517.214,761.127,517.183Z" transform="translate(-572.719 -450.608)"/><path class="c" d="M722.167,614.316c1.081-.844,1.918-1.508,2.768-2.154a1.329,1.329,0,0,0,.6-1.32,4.963,4.963,0,0,1,.025-1.359,1,1,0,0,0-.54-1.132,1.744,1.744,0,0,1-.981-2.114,7.992,7.992,0,0,0,.028-1.167,2.2,2.2,0,0,0-2.2-2.294,3.294,3.294,0,0,1-.774-.032c-.184-.056-.445-.247-.462-.4a2.747,2.747,0,0,0-.973-1.931,3.221,3.221,0,0,0-2.156-.443c-.191,0-.382-.006-.665-.012-.219-.613.153-1.374-.54-1.919a5.685,5.685,0,0,0-2.005-.812c-.776-.239-1.525.294-2.247.6-.318.137-.5.694-.94.4-.216-.147-.252-.537-.418-.786a32.223,32.223,0,0,1-1.848-2.756,6.615,6.615,0,0,1-.911-3.125,8.785,8.785,0,0,0-.338-1.791c-.113-.534-.26-1.062-.354-1.6-.1-.6.265-1.286-.328-1.811-.067-.058-.031-.243-.027-.37.062-2.031-.536-4.025-.3-6.075a20.492,20.492,0,0,0,.064-3.307,10.335,10.335,0,0,1,.966-4.3,19.332,19.332,0,0,1,4.719-6.985A35.457,35.457,0,0,1,719,560.122a23.607,23.607,0,0,1,5.359-2.089c1.7-.484,3.5-.479,5.187-1.061a4.8,4.8,0,0,1,1.549,0c1.361.025,2.726.108,4.086.062,3.257-.109,5.981,1.305,8.421,3.174,3.418,2.618,3.773,3.55,6.459,7.644a46.609,46.609,0,0,1,3.369,6.214c.242.529.45.89,1.058.855a1.92,1.92,0,0,0,1.306-1.205,1.51,1.51,0,0,0,.008-.389c-.2-2.486,1.128-4.487,2.272-6.458a55.227,55.227,0,0,1,4.353-6.147,13.093,13.093,0,0,1,3.993-3.085,47.687,47.687,0,0,1,4.71-2.267c1.262-.55,2.573-.994,3.875-1.444a2.842,2.842,0,0,1,.95-.039c1.1.014,2.209.086,3.308.046a20.72,20.72,0,0,1,6.069.969,20.986,20.986,0,0,1,4.32,2.213,14.057,14.057,0,0,1,1.855,1.138,37.954,37.954,0,0,1,6.563,6.056,20.374,20.374,0,0,1,2.839,4.861c.264.618.242,1.294.457,1.942.325.981.166,2.11.41,3.131.668,2.8.114,5.612.208,8.415a7.452,7.452,0,0,1-.126,3.077c-.416.936.042,2.041-.75,2.813.071,2.252-1.036,4.126-2.1,5.946-.573.979-.622,2.082-1.169,3.029-.44.76-.711.917-1.344.338a3.7,3.7,0,0,0-2.825-1.208,2.323,2.323,0,0,0-2.467,2.217c-.072.454-.277.491-.632.47-.389-.025-.778-.026-1.168-.023a1.609,1.609,0,0,0-1.761,1.727c0,.064,0,.13,0,.195-.054.8-.074.844-.81.517a1.241,1.241,0,0,0-1.212.052c-1.859.9-2.35,2.008-1.667,4.117.11.341.2.6-.265.691-.117.022-.281.031-.338.109-.4.555-1.215.763-1.295,1.593a4.6,4.6,0,0,0,.652,2.642,11.258,11.258,0,0,0,1.332,1.8.858.858,0,0,1-.017,1.326c-1.882,1.637-3.4,3.662-5.546,5.03a20.644,20.644,0,0,0-2.269,2.126c-.509.45-.852,1.127-1.639,1.234-.156.021-.293.246-.421.391a19.37,19.37,0,0,1-5.1,4.137,41.281,41.281,0,0,0-5.607,3.461c-1.422,1.078-3.031,1.907-4.374,3.11a.451.451,0,0,1-.4.078c-.974-.517-2.018-.2-3.022-.255a19.693,19.693,0,0,1-8.771-2.4c-1.509-.857-3.344-1.033-4.753-2.141-1.745-.092-2.866-1.406-4.048-2.361a62.481,62.481,0,0,0-5.336-3.592c-1.743-1.137-3.4-2.384-5.1-3.57a34.9,34.9,0,0,1-3.341-2.677A30.044,30.044,0,0,1,722.167,614.316Z" transform="translate(-649.806 -510.097)"/><path class="d" d="M606.177,663.342l-3.7-.066a7.035,7.035,0,0,1-2.374-.4,38.99,38.99,0,0,1-7.567-4.265,41.624,41.624,0,0,1-5.734-5.67c-1.341-1.538-2.77-3-4.061-4.577a35.244,35.244,0,0,1-3.105-4.569,7.616,7.616,0,0,1-1.093-3.028c-.151-1.675-1.015-3.117-1.257-4.74-.016-.1-.225-.174-.252-.283a43.239,43.239,0,0,1,.371-6.5,5.736,5.736,0,0,0,.139-.92,16.85,16.85,0,0,1,3.576-8.853,20.9,20.9,0,0,1,4.38-4.107,19.869,19.869,0,0,1,2.909-1.427c1.947-.946,3.885-1.909,5.839-2.84.681-.324,1.209-.245,1.427.388.481,1.4,1.807,1.831,2.792,2.6a33.416,33.416,0,0,0,6.875,4.006c1.518.688,3.17,1.489,4.946.537a1.552,1.552,0,0,1,.771,0c2.193.2,3.633-1.016,4.886-2.593a4.861,4.861,0,0,0,1.248-3.781c-.055-.419.642-.8.92-.5,1.071,1.18,2.938,1.019,3.882,2.37a12.387,12.387,0,0,1,2.343.944,14.508,14.508,0,0,1,3.59,2.079,2.607,2.607,0,0,0,1.494.664,1.373,1.373,0,0,1,1.252,1.225c.283,1.574.4,3.182.732,4.742.393,1.827.943,3.618,1.451,5.417a1.376,1.376,0,0,0,.436.6,3.724,3.724,0,0,1,.2,5.064,8.956,8.956,0,0,0-1.59,3.419,3.3,3.3,0,0,1-1.932,2.287,15.6,15.6,0,0,0-2.33,1.444c-.25.16-.78.011-.813-.269a8.383,8.383,0,0,1-.031-1.15c.033-2.075,0-4.156.139-6.225a21.952,21.952,0,0,0-.39-3.349,1.226,1.226,0,0,0-.667-.789c-.151-.072-.6.216-.74.448a2.469,2.469,0,0,0-.513,2.1c.568,1.374.255,2.76.272,4.139.023,1.881-.069,3.762-.079,5.644,0,.756-.3,1.011-1.059,1.274-1.524.526-3.035,1.122-4.536,1.723a39.184,39.184,0,0,1-4.565,1.163,24.063,24.063,0,0,1-5.873.328,3.425,3.425,0,0,1-1.755-.492,14.071,14.071,0,0,1-2.976-2.2,98.057,98.057,0,0,1-6.97-8.483,19.448,19.448,0,0,1-1.619-2.834c-.291-.527-.549-1.074-.844-1.6s-.811-.244-1.216-.257c-.508-.016-.3.451-.346.727a4.021,4.021,0,0,0,.923,2.724,54.9,54.9,0,0,0,4.751,6.661c1.407,1.764,2.974,3.347,4.527,4.949,2.563,2.646,5.747,3.89,9.235,2.793,1.649.212,3.125-.646,4.747-.761a13.164,13.164,0,0,0,3.944-1.215c2.105-.874,4.165-1.86,6.23-2.829.6-.281,1.155-.667,1.734-1,.525-.3,1.056-.588,1.585-.882.663.731,1.849.91,2.211,1.926.549,1.539,1.6,2.826,2.117,4.386a20.437,20.437,0,0,0,1.159,2.056c.254.538.221,1.259.572,1.691.42.517.058.729-.2.831a15.476,15.476,0,0,0-3.13,1.879c-1.094.772-2.356,1.329-3.375,2.182a12.459,12.459,0,0,1-4.232,2.036c-1.768.593-3.48,1.317-5.237,1.925a46.8,46.8,0,0,1-5.6,1.5A35.406,35.406,0,0,1,606.177,663.342Z" transform="translate(-575.185 -542.961)"/><path class="d" d="M926.8,643.374c-1.278-.771-2.358-1.444-3.46-2.078a2.149,2.149,0,0,1-1.195-1.746,9.874,9.874,0,0,0-1.811-4.294,1.191,1.191,0,0,1-.011-1.646c.593-.894.953-1.937,1.472-2.884a23.832,23.832,0,0,0,2.228-6.289,18.68,18.68,0,0,0,.836-3.947,1.173,1.173,0,0,1,.723-1.047c1.654-.866,3.176-1.927,4.941-2.659a25.393,25.393,0,0,0,6.124-3.1c.335-.262.457-.033.544.14a1.8,1.8,0,0,1,.238.865,5.409,5.409,0,0,0,1.45,3.7,17.962,17.962,0,0,0,1.645,1.62,1.864,1.864,0,0,0,.927.544c1.169.2,2.36.27,3.525.488a6.829,6.829,0,0,0,3.328-.415,32.082,32.082,0,0,0,10.706-6.678.973.973,0,0,1,1.621-.084,7.609,7.609,0,0,0,1.573.874q1.918,1,3.84,1.992c.936-.342,1.19.873,1.977.866,1.391,1.672,3.088,3.04,4.395,4.825a17.543,17.543,0,0,1,2.714,5.329,10.888,10.888,0,0,1,.611,3.054c.009.858.261,1.711.307,2.573.049.905-.092,1.821-.019,2.723a13.788,13.788,0,0,1-.886,5.115c-.668.239-.278.91-.532,1.342-.208.349-.128.859-.307,1.235a21.484,21.484,0,0,1-2.971,5.392c-1.931,2.189-4.2,4.1-5.869,6.471-1.216,1.726-3.014,2.654-4.434,4.071a18.005,18.005,0,0,1-4.889,3.208,28.73,28.73,0,0,1-4,1.641,2.221,2.221,0,0,1-.5.193,54.9,54.9,0,0,1-8.407.225,12.376,12.376,0,0,0-2.755-.417c-.676-.847-1.906.029-2.583-.825a11.626,11.626,0,0,1-3.569-.8c-1.108-.334-2.11-.877-3.174-1.285s-2.094-.885-3.182-1.263a25.75,25.75,0,0,1-5.018-2.415c-1.033-.637-1.983-1.451-2.978-2.176a7.312,7.312,0,0,0-2.14-1.417,2.015,2.015,0,0,1-1.273-.978c-.111-.382.387-.953.636-1.432.834-1.6,1.665-3.2,2.52-4.789a31.219,31.219,0,0,0,1.571-2.846c.277-.676.76-.218,1.107-.421.863-.5,1.118-.468,1.758,0a26.978,26.978,0,0,0,5.537,3.054c1.595.673,3.155,1.467,4.785,2.072,1.019.377,2.107.56,3.136.913.632.217,1.289.274,1.93.513a16.252,16.252,0,0,0,3.119.506c2.163.345,4.024-.6,5.731-1.624a15.571,15.571,0,0,0,4.933-4.642,19.807,19.807,0,0,1,2.374-2.7,26.987,26.987,0,0,0,4.517-6.67c.082-.158.224-.325.219-.485a2.242,2.242,0,0,0-.183-1.076c-.164-.26-1.346.031-1.554.358-.483.767-.9,1.576-1.4,2.33a32.6,32.6,0,0,1-2.734,3.9c-2.061,2.283-4.2,4.507-6.457,6.6a5.648,5.648,0,0,1-4.345,1.688,1.489,1.489,0,0,0-.195,0,16.391,16.391,0,0,1-7.292-1.272c-.387-.166-.927,0-1.287-.2-1.854-1-3.987-1.382-5.722-2.653-.24-.175-.553-.133-.54-.564.046-1.622-.242-3.328.167-4.846.587-2.173.192-4.325.419-6.472a.816.816,0,0,0-.242-.656,1.482,1.482,0,0,0-1-.327c-.282.079-.683.538-.655.788.176,1.614-.482,3.123-.51,4.7C926.881,639.171,926.844,641.173,926.8,643.374Z" transform="translate(-770.809 -544.439)"/><path class="e" d="M611,504.459c-.008.429-.023.681-.014.93.044,1.186-.24,2.387.3,3.553.212.456-.189.812-.6.571a2.694,2.694,0,0,0-2.653-.077c-.376.169-.919-.056-1.317.089-.346.126-.594.522-.886.8.261.242.507.674.786.695,1.225.093,2.46.1,3.69.074.617-.014.612-.081.456.34a3.254,3.254,0,0,0-.281.855c-.061.965.6,1.5,1.421,1.07a7.224,7.224,0,0,0,2.348-1.433c.768-.874,1.669-1.63,2.5-2.448a6.748,6.748,0,0,0,2.034-2.647c.265-.8.766-.778,1.431-.1.775.785,1.534,1.585,2.383,2.466a5.6,5.6,0,0,0-.467.458.749.749,0,0,0,.333,1.281,3.339,3.339,0,0,0,1.163.021,1.972,1.972,0,0,1,1.953.934c.292.357.559.739.877,1.07a11.937,11.937,0,0,0,.992.865,2.281,2.281,0,0,0,2.452.371c.144-.084.333-.165.392-.3a5.688,5.688,0,0,0,.246-.86,4.247,4.247,0,0,1,.913.592,70.457,70.457,0,0,1,4.95,5.6c.94,1.279,1.872,2.846.776,4.6-.039,1.888-1.171,3.416-1.729,5.133-.536,1.644-1.226,3.26-1.816,4.886-.732,2.016-2.165,3.508-3.249,5.245-.47.753-1.6,1.08-2.4,1.648a21.6,21.6,0,0,1-5.513,2.689,3.532,3.532,0,0,1-1.266.206c-3.113-.042-6.225-.114-9.338-.155a9.263,9.263,0,0,1-3.159-.855,18.825,18.825,0,0,1-4.636-2.409,3.654,3.654,0,0,1-.715-.6c-1.754-2.227-3.222-4.655-4.81-7a3.708,3.708,0,0,1-.476-1.732,32.464,32.464,0,0,0-.947-4.462,14.39,14.39,0,0,1-.413-5.418,16.652,16.652,0,0,1,1.123-3.226,16.393,16.393,0,0,1,2.245-3.732,38.471,38.471,0,0,1,4.227-4.426,15.17,15.17,0,0,1,3.837-3A18.829,18.829,0,0,0,611,504.459Zm9.216,25.534c0-.031,0-.061-.007-.093-2.149.123-4.3.228-6.446.38a4.533,4.533,0,0,0-1.4.362c-1.083.45-1.219,1.235-.79,2.474.3.862,1.131,1.213,1.49,1.926.833,1.657,2.333,2.7,3.548,3.992.9.96,1.73.894,2.763.05a20.971,20.971,0,0,0,5.057-6.807,1.7,1.7,0,0,0-1.5-2.231C622.029,530.009,621.122,530.009,620.214,529.993Zm-14.181-9.5c-.128.594.211.651.75.713.827.095,1.184-.507,1.552-.964,1.153-1.434,1.88-1.675,3.355-.922.534.273,1.062.569,1.618.786.118.044.494-.2.507-.328.047-.488.163-.992-.329-1.411a3.191,3.191,0,0,0-2.119-1c-.713,0-1.431-.076-2.139-.023A3.668,3.668,0,0,0,606.034,520.495Zm18.69-4.078a3.606,3.606,0,0,0-3.179,2.164c-.222.434-.428.8-.189,1.189.222.356,1.344.124,1.7-.3a.9.9,0,0,0,.148-.324c.192-.687.7-.8,1.319-.765.8.048,1.709-.174,1.876,1.062.035.257.413.478.648.7a.606.606,0,0,0,1.057-.2c.147-.4.332-1.049.141-1.26C627.289,517.631,626.468,516.295,624.724,516.417Zm-4.094,10.965c.227-.291.477-.568.679-.876a1.3,1.3,0,0,0,.018-1.559,2.738,2.738,0,0,0-4.363.046.871.871,0,0,0,.187,1.186c.36.345.557.231.957.017,1.22-.649,1.24-.6,1.977.614A4.675,4.675,0,0,0,620.63,527.383Z" transform="translate(-586.477 -481.632)"/><path class="e" d="M947.768,520.821a21.421,21.421,0,0,0,8.661-2.837c1.728-1.047,3.731-1.626,5.571-2.5a58.441,58.441,0,0,0,7.014-3.764,15.066,15.066,0,0,0,2.375-1.78,1.869,1.869,0,0,1,1.566-.481c.906.018,1.815.034,2.72.05.261,0,.569.1.768-.007.3-.164.718-.459.732-.716a1.035,1.035,0,0,0-.639-.783,13.436,13.436,0,0,0-1.937-.081c-.159-.01-.4-.115-.443-.233a.592.592,0,0,1,.151-.5c.966-.958,1.962-1.888,2.925-2.851a8,8,0,0,0,.714-.991,45.907,45.907,0,0,1,3.172,3.786c.739,1.08,1.6,2.052,2.352,3.116,1.214,1.723,2.6,3.332,3.718,5.113,1.078,1.721.959,3.69.565,5.623-.035.17-.267.383-.217.475.581,1.085-.226,2.119-.081,3.188.266,1.98-.709,3.75-1,5.635-.69.561.139,1.546-.586,2.1-.182,1.451-1.13,2.534-1.879,3.684a22.073,22.073,0,0,1-3.259,4.239,14.3,14.3,0,0,1-4.506,2.711c-.725.285-1.484.48-2.216.751a10.531,10.531,0,0,1-3.932.312c-2.269-.033-4.539-.132-6.8-.093a5.656,5.656,0,0,1-2.5-.58,29.114,29.114,0,0,1-6.632-4.1,9.367,9.367,0,0,1-1.562-2.264,22.4,22.4,0,0,1-1.931-4.261c-.511-1.412-1.052-2.808-1.428-4.263-.3-1.163-.83-2.246-1.169-3.408C947.616,523.638,947.911,522.238,947.768,520.821Zm15.186,9.494c-.49-.009-.618-.015-.749-.014-1.811.028-2.373,1.177-1.818,2.946.756,2.412,2.7,3.947,3.976,5.969a2.552,2.552,0,0,0,1.047.711,1.258,1.258,0,0,0,1.568-.06c1.823-1.887,3.971-3.453,5.483-5.644.861-1.247.645-2.243-.745-2.8a7.076,7.076,0,0,0-2.094-.575C967.278,530.686,964.9,530.992,962.954,530.315Zm14.484-9.044a3.955,3.955,0,0,0-5.369-3.035,4.153,4.153,0,0,0-1.771,1.9c-.315.621-.32.944.174,1.218.378.211.782.462,1.129-.345.67-1.557,3.129-1.4,3.856.059a4.778,4.778,0,0,0,.715,1.059.6.6,0,0,0,1.06-.176A3.74,3.74,0,0,0,977.438,521.271Zm-17.83-3.489a4.115,4.115,0,0,0-4.21,2.7c-.09.3.195.712.307,1.073a2.458,2.458,0,0,0,.795-.283c.545-.457,1-1.028,1.557-1.459.836-.638,1.129-.581,1.864.163.363.369.716.749,1.08,1.117s.913.448,1.139.043a1.066,1.066,0,0,0,.137-1.225A3.575,3.575,0,0,0,959.608,517.782Zm3.667,8.724a1.954,1.954,0,0,0,0,.388c.046.237.1.66.183.668.354.038.783.21,1.056-.221.1-.156.287-.294.3-.452.061-.657.551-.434.864-.4a1.444,1.444,0,0,1,.8.393c.531.527,1.059.092,1.358-.146a.757.757,0,0,0-.2-1.151,9.578,9.578,0,0,0-1.344-.971c-.88-.43-1.669.226-2.486.4C963.1,525.156,963.3,525.945,963.275,526.507Z" transform="translate(-788.791 -480.991)"/><path class="b" d="M622.938,459.2a15.541,15.541,0,0,1-1.9,3.291c-.831.84-.708,1.658-.715,2.672a3.023,3.023,0,0,0,.876,0,2.955,2.955,0,0,1,2.6.4c1.164.658,2.489,1.022,3.452,2.047,3.12,1.039,4.716,3.9,6.887,6.058,1.4,1.392,2.757,4.739,3.519,7.27a15.746,15.746,0,0,1,.724,5.725c-.121,1.73-.134,3.476-.086,5.21a3.11,3.11,0,0,1-.587,1.844c-.4.6-.958,1.452-1.873.531a4.977,4.977,0,0,1-4.057-1.5,30.671,30.671,0,0,0-3.165-3.5c-.9-.952-1.791-2.1-2.666-3.071-.4-.446-.88-1.518-1.433-1.24-.433.217-.568.218-.492.78a2.846,2.846,0,0,1-.055,1.025.556.556,0,0,1-.505.16c-.279-.178-2.187.086-2.421-.16-1.33-1.4-.44-.857-1.8-2.223-1.141-1.144-2.756-2.5-3.954-3.582-1.025-.925-1.788-3.148-2.474-2.028-.625,1.018-1.427,1.9-2.048,2.881a25.9,25.9,0,0,1-2.724,2.98.612.612,0,0,1-.523.167c-.122-.037-1.649.159-1.649,0,0-1.113-.112-2.9,0-4,.083-.82-.387-1.219,0-2.236a3.151,3.151,0,0,0,0-1.186h-.775c-.132-.129.259-1.352,0-1.3-.113.023-.2.184-.3.277-3.6,3.346-7.889,5.878-11.1,9.685a39.43,39.43,0,0,0-3.079,3.9,19.542,19.542,0,0,0-1.551,3.509c-.311.8-.333.884-.967.243a1.64,1.64,0,0,0-1.821-.364c-.86.233-1.269.033-1.3-.714-.029-.763.078-1.533.02-2.293-.222-2.891.65-5.7.629-8.58-.005-.727.349-1.517.424-2.319a10.61,10.61,0,0,1,.591-2.04,11.433,11.433,0,0,1,.713-2.2c.441-.8,1.138-1.448,1.641-2.22a24,24,0,0,1,6.349-6.618,6.526,6.526,0,0,1,1.212-.55c.744-.337,1.66-.3,2.248-1.108.238-.327.936-.305,1.425-.444s1.184-.12,1.426-.448a3.8,3.8,0,0,1,2.746-1.369,4.227,4.227,0,0,0,2.008-1.153c1.8-1.438,3.652-2.8,5.5-4.185a1.466,1.466,0,0,1,.55-.124c.029.237.161.531.07.7-.475.914-.422,2.013-1.118,2.888a1.251,1.251,0,0,0,.379,1.65c.534.359.91.062,1.423-.2a34.357,34.357,0,0,1,6.03-2.273C620.351,459.547,621.522,459.445,622.938,459.2Z" transform="translate(-580.244 -455.274)"/><path class="b" d="M935.709,495.233a53.367,53.367,0,0,1,3.822-9.544,22.469,22.469,0,0,1,5.4-6.328,38.39,38.39,0,0,1,5.321-3.37c2.01-1.148,4.288-1.6,6.437-2.38a21.245,21.245,0,0,1,9.08-.958,13.881,13.881,0,0,1,3.5.973c1.7.609,3.34,1.414,5.064,1.928.589.174.214,1.3,1.19.942.393-.145,1.025.273,1.494.537a7.3,7.3,0,0,1,1.337,1.018c.436.4.822.86,1.221,1.3a24.3,24.3,0,0,1,2.546,2.737,37.912,37.912,0,0,0,2.163,3.123,6.2,6.2,0,0,1,1.139,2.948c.36,1.957,1.8,5.031,1.546,7.072.743,2.961-.108,5.147,0,8.125a1.4,1.4,0,0,1-1.546,1.173,12.922,12.922,0,0,0-1.391-.781,1.071,1.071,0,0,1-.853-.97c.089-2.432-.723-3.626-2.106-5.5-.749-1.014-4.24-6.072-5-7.433a22.039,22.039,0,0,0-4.1-4.638c-.537,1.7-2.11,2.376-3.332,3.485-1.2,1.084-5.127,4.107-5.767,4.627-3.54,2.875-7.263,3.928-11.15,6.079-1.609.208-2.934,1.8-4.486,2.237-1.422.4-3.747,1.4-5.254,1.4-1.051,0-1.4-.055-2.458,0-.406.021-2.075.409-2.567-.26a8.184,8.184,0,0,1-1.256-2.58C935.728,499.122,935.69,496.312,935.709,495.233Z" transform="translate(-782.551 -464.439)"/><path class="b" d="M1041.341,583.85a13.093,13.093,0,0,1-5.1,3.154c-1.963.7-3.423,1.934-5.5,2.09-.17.014-.722.27-.9.311a5.649,5.649,0,0,1-3.314-.72A15.078,15.078,0,0,0,1022.99,587a3.64,3.64,0,0,1-2.38-3.154c-.251-2.248.325-2.649,2.38-3.884a10.052,10.052,0,0,0,2.6-2.686,43.044,43.044,0,0,0,3.639-5.917c-.1-1.206,1.486-1.5,2.141-1.588a9.09,9.09,0,0,0,4.62-1.922,1.888,1.888,0,0,1,.83-.39.76.76,0,0,1,.6.268,9.166,9.166,0,0,1,.791,1.266,6.3,6.3,0,0,1,.136,6,15.43,15.43,0,0,0-1.293,3.237,8.77,8.77,0,0,0-.113,3.444c.292,1.493,1.78,1.746,3.015,2.132A5.94,5.94,0,0,0,1041.341,583.85Z" transform="translate(-830.988 -518.42)"/><path class="e" d="M714.848,681.57a6.007,6.007,0,0,0-.64-2.868c-.69-1.8-1.528-3.519-2.322-5.265a21,21,0,0,0-1.2-2.23c-.679-1.118-1.115-2.229-.247-3.446-.122-1.1.616-1.8,1.081-2.672a9.348,9.348,0,0,1,1.762-2.361c.232-.226.582-.409.68-.682.483-1.348,1.572-1.411,2.725-1.37a.68.68,0,0,1,.477.974c-.542.813-1.121,1.6-1.686,2.4-.443.626-.448,1.162.075,1.451a3.26,3.26,0,0,0,1.072.229c.472.073.384-.318.523-.582a3.1,3.1,0,0,1,2.956-1.7c.64.008.581.4.511.761a3.192,3.192,0,0,1-.388.807,11.92,11.92,0,0,0-1.307,3.354c-.034.181-.37.229-.114.563.557.726,1.155.738,1.738-.067.285-.393.518-.825.807-1.214.759-1.013,1.612-1.833,3.106-1.255.195,1.58-.684,2.784-1.611,3.905a3.241,3.241,0,0,0-.811,2.4c.026.425.593.794.922.537a7.784,7.784,0,0,0,1.033-1.092c.156-.182.22-.514.4-.587a4.173,4.173,0,0,1,1.046-.142c.033.3.194.671.081.908a13.853,13.853,0,0,1-5.288,5.894C718.468,679.313,716.707,680.413,714.848,681.57Z" transform="translate(-651.783 -571.627)"/><path class="e" d="M891.07,664.384c1.359-.486,1.949.561,2.6,1.376a12.547,12.547,0,0,1,.985,1.728.788.788,0,0,0,1,.354c.211-.075.33-.434.468-.677.068-.121.165-.32.114-.4-.79-1.237-.61-2.854-1.567-4.017-.276-.337-.109-.54.116-.811.3-.361.473-.216.707.05.059.069.256,0,.366.047.871.382,2.061.329,2.188,1.726.022.242.5.566.823.636.846.189,1.355-.6.926-1.479-.476-.976-1.055-1.9-1.579-2.854a3.577,3.577,0,0,1-.19-.553c2.274-.765,3.251.827,4.3,2.248.4.538.647,1.193,1.088,1.686.99,1.1.991,2.578,1.5,3.855.452,1.133-.425,2.138-1.006,3.047a44.749,44.749,0,0,0-3.962,7.68c-.674.35.233,1.465-.629,1.528-.4.03-.8-.776-1.29-1.006-1.541-.721-2.6-2.245-4.365-2.572a16.54,16.54,0,0,1-3.21-3.948c-.267-.542-.682-1.016-.93-1.565-.137-.3-.219-.873-.058-1.009a.776.776,0,0,1,1.154.193c.223.3.434.6.649.9a2.472,2.472,0,0,0,.433.6.832.832,0,0,0,1.189-.075c.312-.3.439-.526.124-.956a21.347,21.347,0,0,1-1.085-1.883C891.228,667.042,890.621,665.836,891.07,664.384Z" transform="translate(-755.147 -570.847)"/><path class="e" d="M623.37,604.492a7.045,7.045,0,0,1,1.643-.421,1.709,1.709,0,0,0,1.816-1.292,1.876,1.876,0,0,1,.254-.666,1.05,1.05,0,0,1,1.3-.428,13.19,13.19,0,0,0,3.857.142c1.891-.051,3.779-.181,5.67-.274.193-.01.387.006.582.008.472,0,.567.345.37.624-.663.937-.239,1.984-.357,2.97-.01.081.353.281.554.3.619.055.839-.358,1-.889.239-.8.267-.8.9-.3.195.154.374.431.579.449.477.045.462.318.45.656-.019.581-.035,1.164-.031,1.746a4.225,4.225,0,0,1-2.516,3.809c-.307.177-.718.428-1,.349-1.363-.386-2.566.616-4.04.173a27.815,27.815,0,0,1-7.76-4.2C625.554,606.5,624.612,605.55,623.37,604.492Z" transform="translate(-601.9 -537.57)"/><path class="e" d="M976.309,613.069c-1.108-.167-2.218-.323-3.322-.513-.162-.026-.312-.2-.441-.326-.457-.459-.924-.911-1.347-1.4a2.763,2.763,0,0,1-.8-2.2c.053-.448.017-.908.033-1.361a1.647,1.647,0,0,1,1.562-1.719.522.522,0,0,1,.4.281,6.987,6.987,0,0,0,.216.876c.1.188.426.419.582.377.278-.076.686-.318.717-.537a2.775,2.775,0,0,0-.1-1.664c-.312-.528-.133-.995-.179-1.479-.064-.688.136-.492.578-.226.337.2.877.074,1.329.083,2.722.051,5.445.094,8.167.149,1.147.023,1.085.058,1.608,1.284.223.524.407,1.239,1.369,1.152.541-.05,1.468.228,1.612.6.265.676-.6,1.047-1.067,1.421a31.323,31.323,0,0,1-6.875,4.093A8.719,8.719,0,0,1,976.309,613.069Z" transform="translate(-801.817 -538.367)"/><path class="e" d="M585.909,544.591a8.521,8.521,0,0,0,.593,4.023,2.543,2.543,0,0,1,.093.925c.008.866.024.725-.979.563a6.1,6.1,0,0,1-2.949-1.3,4.973,4.973,0,0,1-1.773-2.278,3.372,3.372,0,0,1,.375-3.094,13.6,13.6,0,0,1,2.4-2.336c1.1-.765,2.113-.185,2.266,1.194A19.032,19.032,0,0,1,585.909,544.591Z" transform="translate(-577.314 -502.543)"/><path class="e" d="M1042.855,555.821a16.55,16.55,0,0,1,.513-2.672,15.96,15.96,0,0,0,.874-5.5c0-.39-.316-.9.56-1.151.673-.191,1.08-.426,1.635.138.382.389.9.635,1.314,1a3.835,3.835,0,0,1,1.144,2.642c.282,2.47-1.787,4.266-3.673,4.869C1044.5,555.384,1043.754,555.569,1042.855,555.821Z" transform="translate(-843.572 -505.729)"/><path class="e" d="M692.136,552.965c.768-1.682,1.225-3.472,1.9-5.186.4-1.017.086-2.306.142-3.47a1,1,0,0,1,1.35-.9c.478.27,1.162.56,1.288.981.242.808,1,1.418.834,2.39a9.836,9.836,0,0,0-.048,2.135,2.84,2.84,0,0,1-.893,2.161c-.176.19-.389.348-.555.544A3.615,3.615,0,0,1,692.136,552.965Z" transform="translate(-641.517 -504.021)"/><path class="e" d="M935.616,549.166c.159-.7-.282-1.648.428-2.417.334-.361.537-.889.929-1.14a2.224,2.224,0,0,1,1.528-.428c.6.159.32.9.254,1.328-.32,2.13.812,3.951,1.173,5.929.009.053.128.1.125.141-.071.788.922,1.421.38,2.239-.216.328-2.348-.351-2.874-.865-.232-.226-.44-.478-.679-.7a3.4,3.4,0,0,1-1.285-3.17A7.654,7.654,0,0,0,935.616,549.166Z" transform="translate(-781.754 -505.077)"/><path class="b" d="M640.259,564.571c.908.016,1.815.016,2.722.053a1.7,1.7,0,0,1,1.5,2.231,20.974,20.974,0,0,1-5.057,6.807c-1.033.844-1.863.91-2.763-.05-1.215-1.293-2.715-2.336-3.548-3.992-.359-.713-1.19-1.064-1.49-1.926-.429-1.239-.293-2.024.79-2.474a4.533,4.533,0,0,1,1.4-.362c2.148-.152,4.3-.257,6.446-.38C640.255,564.51,640.257,564.54,640.259,564.571Zm-2.551,1.973c-.011-.072-.023-.145-.034-.216q-1.659.237-3.317.474c-.282.04-.719-.154-.69.378a1.442,1.442,0,0,0,.26.85c1.279,1.376,2.6,2.712,3.9,4.071.378.4.668.233.941-.1a19.625,19.625,0,0,1,1.419-1.724c1.043-1,1.471-2.4,2.37-3.485.209-.254.134-.618-.345-.631a4.8,4.8,0,0,0-.582-.008C640.319,566.281,639.013,566.414,637.708,566.544Z" transform="translate(-606.522 -516.21)"/><path class="b" d="M618.819,537.98a3.668,3.668,0,0,1,3.194-3.153c.708-.053,1.427.028,2.139.023a3.191,3.191,0,0,1,2.119,1c.492.419.376.923.329,1.411-.013.133-.389.373-.507.328-.556-.217-1.083-.513-1.618-.786-1.475-.753-2.2-.512-3.355.922-.367.457-.725,1.059-1.552.964C619.031,538.631,618.692,538.574,618.819,537.98Z" transform="translate(-599.263 -499.117)"/><path class="b" d="M658.226,532.659c1.744-.123,2.565,1.214,3.515,2.261.192.211.006.861-.141,1.26a.607.607,0,0,1-1.057.2c-.234-.222-.613-.442-.648-.7-.167-1.236-1.076-1.014-1.876-1.062-.621-.038-1.127.078-1.319.765a.9.9,0,0,1-.148.324c-.351.425-1.473.658-1.7.3-.239-.385-.033-.756.19-1.189A3.605,3.605,0,0,1,658.226,532.659Z" transform="translate(-619.979 -497.875)"/><path class="b" d="M648.094,553.788a4.678,4.678,0,0,1-.545-.572c-.738-1.214-.758-1.263-1.977-.614-.4.213-.6.328-.957-.017a.871.871,0,0,1-.187-1.186,2.738,2.738,0,0,1,4.363-.046,1.3,1.3,0,0,1-.018,1.559C648.572,553.22,648.322,553.5,648.094,553.788Z" transform="translate(-613.941 -508.037)"/><path class="b" d="M979.826,566.951c1.946.677,4.324.371,6.668.532a7.075,7.075,0,0,1,2.094.575c1.39.558,1.606,1.554.745,2.8-1.513,2.191-3.66,3.758-5.483,5.644a1.258,1.258,0,0,1-1.568.06,2.552,2.552,0,0,1-1.047-.711c-1.271-2.022-3.22-3.557-3.976-5.969-.555-1.769.007-2.918,1.818-2.946C979.208,566.936,979.336,566.942,979.826,566.951Zm.071,1.624c-.867-.343-1.331.284-.971.927a17.367,17.367,0,0,0,3.726,5.09c.3.251.534.3.806.009,1.3-1.39,2.905-2.492,3.923-4.156.3-.493.237-.98-.254-1.016a19.066,19.066,0,0,1-3.142-.4C982.6,568.7,981.133,569.064,979.9,568.576Z" transform="translate(-805.663 -517.627)"/><path class="f" d="M1007.762,541.085a3.758,3.758,0,0,1-.206.676.6.6,0,0,1-1.06.176,4.782,4.782,0,0,1-.715-1.059c-.727-1.463-3.186-1.616-3.856-.059-.347.807-.751.556-1.129.345-.493-.274-.488-.6-.174-1.218a4.154,4.154,0,0,1,1.771-1.9,3.955,3.955,0,0,1,5.369,3.035Z" transform="translate(-819.115 -500.805)"/><path class="b" d="M969.955,537.4a3.576,3.576,0,0,1,2.667,2.125,1.066,1.066,0,0,1-.137,1.225c-.225.405-.768.33-1.139-.043s-.717-.748-1.08-1.116c-.735-.744-1.029-.8-1.864-.163-.56.43-1.013,1-1.557,1.459a2.455,2.455,0,0,1-.795.283c-.112-.361-.4-.773-.307-1.073A4.114,4.114,0,0,1,969.955,537.4Z" transform="translate(-799.138 -500.612)"/><path class="b" d="M984.335,555.219c.029-.562-.172-1.35.529-1.5.817-.169,1.606-.826,2.486-.4a9.57,9.57,0,0,1,1.344.971.757.757,0,0,1,.2,1.151c-.3.238-.827.673-1.358.146a1.443,1.443,0,0,0-.8-.393c-.313-.034-.8-.257-.864.4-.014.158-.2.3-.3.452-.273.432-.7.259-1.056.221-.086-.009-.136-.432-.183-.668A1.95,1.95,0,0,1,984.335,555.219Z" transform="translate(-809.85 -509.704)"/><path class="e" d="M640.8,568.816c1.305-.13,2.611-.263,3.918-.387a4.788,4.788,0,0,1,.582.008c.479.013.554.378.345.631-.9,1.089-1.327,2.487-2.37,3.485a19.647,19.647,0,0,0-1.419,1.724c-.273.33-.563.495-.941.1-1.3-1.359-2.617-2.7-3.9-4.071a1.443,1.443,0,0,1-.26-.85c-.03-.532.407-.338.69-.378q1.659-.235,3.317-.474C640.775,568.672,640.786,568.744,640.8,568.816Z" transform="translate(-609.611 -518.483)"/><path class="e" d="M982.275,570.67c1.236.488,2.706.121,4.089.453a19.061,19.061,0,0,0,3.142.4c.492.036.555.523.254,1.016-1.018,1.664-2.622,2.765-3.924,4.156-.272.287-.507.242-.806-.009a17.368,17.368,0,0,1-3.726-5.09C980.944,570.954,981.408,570.328,982.275,570.67Z" transform="translate(-808.041 -519.722)"/></g></g><text class="g" transform="translate(583 486)"><tspan x="0" y="0">目前沒有收藏商品.....</tspan></text><text class="h" transform="translate(643 329)"><tspan x="0" y="0">\ 快去收藏吧 /</tspan></text></g></svg>